<svg width="143" height="138" viewBox="0 0 143 138" fill="none" xmlns="http://www.w3.org/2000/svg">
<path d="M126.459 55.9475C125.591 55.9462 124.742 56.2022 124.02 56.6834C123.298 57.1645 122.735 57.8491 122.401 58.6505C122.068 59.4518 121.981 60.334 122.149 61.1853C122.318 62.0366 122.735 62.8188 123.348 63.4329C123.961 64.047 124.743 64.4654 125.594 64.6352C126.445 64.805 127.327 64.7186 128.129 64.3868C128.931 64.055 129.616 63.4928 130.098 62.7713C130.581 62.0499 130.838 61.2016 130.838 60.3338C130.838 59.1717 130.377 58.057 129.556 57.2346C128.735 56.4123 127.621 55.9493 126.459 55.9475ZM126.459 62.52C126.024 62.5214 125.599 62.3937 125.238 62.1533C124.876 61.9128 124.594 61.5704 124.427 61.1693C124.26 60.7683 124.216 60.3268 124.301 59.9007C124.385 59.4747 124.594 59.0833 124.901 58.7761C125.208 58.469 125.6 58.26 126.026 58.1756C126.452 58.0912 126.893 58.1352 127.294 58.302C127.695 58.4689 128.038 58.751 128.278 59.1128C128.519 59.4745 128.646 59.8994 128.645 60.3338C128.643 60.913 128.412 61.4681 128.003 61.8777C127.593 62.2873 127.038 62.5182 126.459 62.52Z" fill="#1A1A1A"/>
<path d="M134.282 52.5857C132.198 50.5284 129.387 49.3749 126.459 49.3749C123.53 49.3749 120.719 50.5284 118.635 52.5857C114.311 56.8619 114.606 63.5307 118.635 68.075C122.76 72.75 124.981 75.6375 126.452 78.5938C127.937 75.665 130.144 72.75 134.282 68.075C138.311 63.5307 138.6 56.8619 134.282 52.5857ZM132.639 66.6244C130.417 69.0508 128.35 71.6157 126.452 74.3038C124.552 71.6174 122.485 69.0526 120.264 66.6244C118.664 64.8615 117.75 62.5831 117.686 60.2032C117.66 59.0754 117.867 57.9543 118.296 56.9107C118.724 55.867 119.364 54.9235 120.175 54.1394C121.848 52.4873 124.104 51.5609 126.455 51.5609C128.806 51.5609 131.063 52.4873 132.736 54.1394C133.545 54.9241 134.184 55.8679 134.611 56.9115C135.038 57.9551 135.245 59.0759 135.217 60.2032C135.157 62.5837 134.242 64.8631 132.639 66.6244Z" fill="#1A1A1A"/>
<path d="M21.4587 88.9475C20.5909 88.9462 19.7422 89.2022 19.02 89.6834C18.2978 90.1645 17.7345 90.8491 17.4015 91.6505C17.0684 92.4518 16.9806 93.334 17.1491 94.1853C17.3175 95.0366 17.7347 95.8188 18.3479 96.4329C18.961 97.047 19.7426 97.4654 20.5936 97.6352C21.4447 97.805 22.3269 97.7186 23.1288 97.3868C23.9307 97.055 24.6161 96.4928 25.0984 95.7713C25.5807 95.0499 25.8381 94.2016 25.8381 93.3338C25.8381 92.1717 25.3769 91.057 24.5558 90.2346C23.7347 89.4123 22.6209 88.9493 21.4587 88.9475ZM21.4587 95.52C21.0244 95.5214 20.5994 95.3937 20.2377 95.1533C19.876 94.9128 19.5939 94.5704 19.427 94.1693C19.2602 93.7683 19.2162 93.3268 19.3006 92.9007C19.385 92.4747 19.594 92.0833 19.9011 91.7761C20.2082 91.469 20.5996 91.26 21.0257 91.1756C21.4518 91.0912 21.8933 91.1352 22.2943 91.302C22.6953 91.4689 23.0378 91.751 23.2782 92.1128C23.5187 92.4745 23.6464 92.8994 23.645 93.3338C23.6432 93.913 23.4123 94.4681 23.0026 94.8777C22.593 95.2873 22.038 95.5182 21.4587 95.52Z" fill="#1A1A1A"/>
<path d="M29.2825 85.5857C27.1982 83.5284 24.3874 82.3749 21.4588 82.3749C18.5301 82.3749 15.7193 83.5284 13.635 85.5857C9.31063 89.8619 9.60625 96.5307 13.635 101.075C17.76 105.75 19.9806 108.638 21.4519 111.594C22.9369 108.665 25.1438 105.75 29.2825 101.075C33.3113 96.5307 33.6 89.8619 29.2825 85.5857ZM27.6394 99.6244C25.4166 102.051 23.3499 104.616 21.4519 107.304C19.5516 104.617 17.485 102.053 15.2644 99.6244C13.6643 97.8615 12.7496 95.5831 12.6863 93.2032C12.6598 92.0754 12.8673 90.9543 13.2957 89.9107C13.724 88.867 14.3639 87.9235 15.175 87.1394C16.8478 85.4873 19.1042 84.5609 21.4553 84.5609C23.8064 84.5609 26.0628 85.4873 27.7356 87.1394C28.5455 87.9241 29.1841 88.8679 29.6113 89.9115C30.0384 90.9551 30.2448 92.0759 30.2175 93.2032C30.1572 95.5837 29.2421 97.8631 27.6394 99.6244Z" fill="#1A1A1A"/>
<path d="M16.4587 7.94752C15.5909 7.94615 14.7422 8.20225 14.02 8.68339C13.2978 9.16453 12.7345 9.84909 12.4015 10.6505C12.0684 11.4518 11.9806 12.334 12.1491 13.1853C12.3175 14.0366 12.7347 14.8188 13.3479 15.4329C13.961 16.047 14.7426 16.4654 15.5936 16.6352C16.4447 16.805 17.3269 16.7186 18.1288 16.3868C18.9307 16.055 19.6161 15.4928 20.0984 14.7713C20.5807 14.0499 20.8381 13.2016 20.8381 12.3338C20.8381 11.1717 20.3769 10.057 19.5558 9.23465C18.7347 8.41226 17.6209 7.94934 16.4587 7.94752ZM16.4587 14.52C16.0244 14.5214 15.5994 14.3937 15.2377 14.1533C14.876 13.9128 14.5939 13.5704 14.427 13.1693C14.2602 12.7683 14.2162 12.3268 14.3006 11.9007C14.385 11.4747 14.594 11.0833 14.9011 10.7761C15.2082 10.469 15.5996 10.26 16.0257 10.1756C16.4518 10.0912 16.8933 10.1352 17.2943 10.302C17.6953 10.4689 18.0378 10.751 18.2782 11.1128C18.5187 11.4745 18.6464 11.8994 18.645 12.3338C18.6432 12.913 18.4123 13.4681 18.0026 13.8777C17.593 14.2873 17.038 14.5182 16.4587 14.52Z" fill="#1A1A1A"/>
<path d="M24.2825 4.58566C22.1982 2.52839 19.3874 1.37488 16.4588 1.37488C13.5301 1.37488 10.7193 2.52839 8.635 4.58566C4.31063 8.86191 4.60625 15.5307 8.635 20.075C12.76 24.75 14.9806 27.6375 16.4519 30.5938C17.9369 27.665 20.1438 24.75 24.2825 20.075C28.3113 15.5307 28.6 8.86191 24.2825 4.58566ZM22.6394 18.6244C20.4166 21.0508 18.3499 23.6157 16.4519 26.3038C14.5516 23.6174 12.485 21.0526 10.2644 18.6244C8.66432 16.8615 7.74957 14.5831 7.68625 12.2032C7.65983 11.0754 7.86732 9.95431 8.29566 8.91068C8.724 7.86704 9.36389 6.92346 10.175 6.13941C11.8478 4.48731 14.1042 3.56089 16.4553 3.56089C18.8064 3.56089 21.0628 4.48731 22.7356 6.13941C23.5455 6.92406 24.1841 7.86791 24.6113 8.91151C25.0384 9.95511 25.2448 11.0759 25.2175 12.2032C25.1572 14.5837 24.2421 16.8631 22.6394 18.6244Z" fill="#1A1A1A"/>
<path d="M105.459 112.948C104.591 112.946 103.742 113.202 103.02 113.683C102.298 114.165 101.735 114.849 101.401 115.65C101.068 116.452 100.981 117.334 101.149 118.185C101.318 119.037 101.735 119.819 102.348 120.433C102.961 121.047 103.743 121.465 104.594 121.635C105.445 121.805 106.327 121.719 107.129 121.387C107.931 121.055 108.616 120.493 109.098 119.771C109.581 119.05 109.838 118.202 109.838 117.334C109.838 116.172 109.377 115.057 108.556 114.235C107.735 113.412 106.621 112.949 105.459 112.948ZM105.459 119.52C105.024 119.521 104.599 119.394 104.238 119.153C103.876 118.913 103.594 118.57 103.427 118.169C103.26 117.768 103.216 117.327 103.301 116.901C103.385 116.475 103.594 116.083 103.901 115.776C104.208 115.469 104.6 115.26 105.026 115.176C105.452 115.091 105.893 115.135 106.294 115.302C106.695 115.469 107.038 115.751 107.278 116.113C107.519 116.474 107.646 116.899 107.645 117.334C107.643 117.913 107.412 118.468 107.003 118.878C106.593 119.287 106.038 119.518 105.459 119.52Z" fill="#1A1A1A"/>
<path d="M113.282 109.586C111.198 107.528 108.387 106.375 105.459 106.375C102.53 106.375 99.7193 107.528 97.635 109.586C93.3106 113.862 93.6062 120.531 97.635 125.075C101.76 129.75 103.981 132.638 105.452 135.594C106.937 132.665 109.144 129.75 113.282 125.075C117.311 120.531 117.6 113.862 113.282 109.586ZM111.639 123.624C109.417 126.051 107.35 128.616 105.452 131.304C103.552 128.617 101.485 126.053 99.2644 123.624C97.6643 121.861 96.7496 119.583 96.6862 117.203C96.6598 116.075 96.8673 114.954 97.2956 113.911C97.724 112.867 98.3639 111.923 99.175 111.139C100.848 109.487 103.104 108.561 105.455 108.561C107.806 108.561 110.063 109.487 111.736 111.139C112.545 111.924 113.184 112.868 113.611 113.912C114.038 114.955 114.245 116.076 114.217 117.203C114.157 119.584 113.242 121.863 111.639 123.624Z" fill="#1A1A1A"/>
</svg>
