<svg fill="none" viewBox="0 0 48 48" xmlns="http://www.w3.org/2000/svg">
<path d="M37.05 23.475L35.025 18H8.25L12.225 24C12.075 24.075 12 24.15 11.85 24.225C11.1 24.75 10.425 25.125 9.375 25.125V27.15C11.025 27.15 12.075 26.475 12.975 25.95C13.725 25.425 14.325 25.05 15.375 25.05C16.425 25.05 17.025 25.425 17.775 25.95C18.675 26.55 19.65 27.15 21.375 27.15C23.025 27.15 24.075 26.475 24.975 25.95C25.725 25.425 26.325 25.05 27.375 25.05C28.425 25.05 29.025 25.425 29.775 25.95C30.675 26.55 31.65 27.15 33.375 27.15C35.025 27.15 36.075 26.475 36.975 25.95C37.725 25.425 38.325 25.05 39.375 25.05V23.025C38.325 22.95 37.65 23.175 37.05 23.475ZM30.75 24.225C29.85 23.625 28.875 23.025 27.3 23.025C25.65 23.025 24.675 23.7 23.85 24.225C23.1 24.75 22.425 25.125 21.375 25.125C20.325 25.125 19.65 24.75 18.9 24.225C18 23.625 17.025 23.025 15.45 23.025C15 23.025 14.55 23.1 14.175 23.175L12 20.025H33.675L35.325 24.525C34.725 24.9 34.2 25.125 33.3 25.125C32.175 25.125 31.575 24.675 30.75 24.225Z" fill="#2C2C2C"/>
<path d="M33 15.225V13.275V9H28.65L25.8 13.275H16.125L15 15.225H33ZM29.7 11.025H30.975V13.275H28.125L29.7 11.025Z" fill="#2C2C2C"/>
<path d="M24 46.25C25.2426 46.25 26.25 45.2426 26.25 44C26.25 42.7574 25.2426 41.75 24 41.75C22.7574 41.75 21.75 42.7574 21.75 44C21.75 45.2426 22.7574 46.25 24 46.25Z" fill="#1A1A1A"/>
<path d="M24 42.5C24.2967 42.5 24.5867 42.588 24.8334 42.7528C25.08 42.9176 25.2723 43.1519 25.3858 43.426C25.4994 43.7001 25.5291 44.0017 25.4712 44.2926C25.4133 44.5836 25.2704 44.8509 25.0607 45.0607C24.8509 45.2704 24.5836 45.4133 24.2926 45.4712C24.0017 45.5291 23.7001 45.4994 23.426 45.3858C23.1519 45.2723 22.9176 45.08 22.7528 44.8334C22.588 44.5867 22.5 44.2967 22.5 44C22.5 43.6022 22.658 43.2206 22.9393 42.9393C23.2206 42.658 23.6022 42.5 24 42.5ZM24 41C23.4067 41 22.8266 41.1759 22.3333 41.5056C21.8399 41.8352 21.4554 42.3038 21.2284 42.852C21.0013 43.4001 20.9419 44.0033 21.0576 44.5853C21.1734 45.1672 21.4591 45.7018 21.8787 46.1213C22.2982 46.5409 22.8328 46.8266 23.4147 46.9424C23.9967 47.0581 24.5999 46.9987 25.1481 46.7716C25.6962 46.5446 26.1648 46.1601 26.4944 45.6667C26.8241 45.1734 27 44.5933 27 44C27 43.2044 26.6839 42.4413 26.1213 41.8787C25.5587 41.3161 24.7957 41 24 41Z" fill="#1A1A1A"/>
</svg>
