<svg viewBox="0 0 48 48" fill="none" xmlns="http://www.w3.org/2000/svg">
<path d="M13.3075 29.5386L13.306 29.5368C7.7408 23.2594 7.40729 14.17 13.2605 8.3816C16.1051 5.57414 19.941 4 23.9377 4C27.9342 4 31.7699 5.574 34.6145 8.38123C40.459 14.1704 40.1338 23.2603 34.5694 29.5368L34.5689 29.5374C29.3027 35.486 26.132 39.534 23.9339 43.3819C21.7429 39.5075 18.555 35.4857 13.3075 29.5386Z" fill="#E9F1F6" stroke="black" stroke-width="2"/>
<path d="M32.7 21.65L31.35 18H13.5L16.15 22C16.05 22.05 16 22.1 15.9 22.15C15.4 22.5 14.95 22.75 14.25 22.75V24.1C15.35 24.1 16.05 23.65 16.65 23.3C17.15 22.95 17.55 22.7 18.25 22.7C18.95 22.7 19.35 22.95 19.85 23.3C20.45 23.7 21.1 24.1 22.25 24.1C23.35 24.1 24.05 23.65 24.65 23.3C25.15 22.95 25.55 22.7 26.25 22.7C26.95 22.7 27.35 22.95 27.85 23.3C28.45 23.7 29.1 24.1 30.25 24.1C31.35 24.1 32.05 23.65 32.65 23.3C33.15 22.95 33.55 22.7 34.25 22.7V21.35C33.55 21.3 33.1 21.45 32.7 21.65ZM28.5 22.15C27.9 21.75 27.25 21.35 26.2 21.35C25.1 21.35 24.45 21.8 23.9 22.15C23.4 22.5 22.95 22.75 22.25 22.75C21.55 22.75 21.1 22.5 20.6 22.15C20 21.75 19.35 21.35 18.3 21.35C18 21.35 17.7 21.4 17.45 21.45L16 19.35H30.45L31.55 22.35C31.15 22.6 30.8 22.75 30.2 22.75C29.45 22.75 29.05 22.45 28.5 22.15Z" fill="#2C2C2C"/>
<path d="M30 16.15V14.85V12H27.1L25.2 14.85H18.75L18 16.15H30ZM27.8 13.35H28.65V14.85H26.75L27.8 13.35Z" fill="#2C2C2C"/>
</svg>
