<svg fill="none" viewBox="0 0 48 48" xmlns="http://www.w3.org/2000/svg">
<path d="M34.3725 24.57L39.0825 17.4975H23.25L18.8325 9L17.055 9.915L21 17.4975H8.86499L12.84 23.4975L12.495 23.7225C11.7906 24.2861 10.9217 24.6047 10.02 24.63V26.625C11.3088 26.6083 12.5579 26.177 13.5825 25.395C14.2661 24.8428 15.1116 24.5294 15.99 24.5025C16.8656 24.5321 17.7078 24.8453 18.39 25.395C19.4146 26.177 20.6637 26.6083 21.9525 26.625C22.4204 26.626 22.8866 26.568 23.34 26.4525L24.84 29.385C25.1921 30.0672 25.8008 30.5817 26.5322 30.8151C27.2635 31.0486 28.0577 30.982 28.74 30.63L28.9125 30.54C29.5952 30.1864 30.1098 29.5764 30.3432 28.8438C30.5766 28.1112 30.5098 27.3159 30.1575 26.6325L29.1975 24.75C29.5863 24.9309 29.9578 25.1468 30.3075 25.395C31.3356 26.1757 32.5867 26.6067 33.8775 26.625C35.1663 26.6083 36.4154 26.177 37.44 25.395C37.725 25.2075 37.995 25.0425 38.2575 24.9V22.71C37.5804 22.9485 36.9394 23.2791 36.3525 23.6925C35.773 24.1405 35.0936 24.4416 34.3725 24.57ZM22.4175 24.57C22.2627 24.582 22.1073 24.582 21.9525 24.57C21.062 24.5485 20.202 24.2408 19.5 23.6925C18.4874 22.9303 17.2573 22.5124 15.99 22.5C15.5501 22.4976 15.1117 22.5505 14.685 22.6575L12.585 19.5H22.005L23.0925 21.6C22.7173 21.9848 22.4558 22.4658 22.3367 22.9899C22.2176 23.514 22.2455 24.0608 22.4175 24.57ZM28.0125 28.74L27.84 28.8225C27.7131 28.8905 27.5715 28.9266 27.4275 28.9275C27.2622 28.9263 27.1002 28.8804 26.9589 28.7945C26.8176 28.7087 26.7022 28.5862 26.625 28.44L25.1625 25.5975L24.36 24.045C24.3213 23.964 24.2936 23.8783 24.2775 23.79C24.2407 23.6003 24.2669 23.4038 24.3522 23.2305C24.4375 23.0572 24.5772 22.9165 24.75 22.83L24.9225 22.74C25.0835 22.6579 25.2654 22.6262 25.4446 22.6489C25.6239 22.6717 25.7921 22.7478 25.9275 22.8675C26.0151 22.9394 26.0866 23.0288 26.1375 23.13L26.8875 24.63L28.3875 27.5325C28.4943 27.743 28.5149 27.9869 28.4449 28.2123C28.3749 28.4377 28.2198 28.627 28.0125 28.74ZM32.25 24.1875C31.9622 24.0404 31.6841 23.8751 31.4175 23.6925C30.4438 22.9539 29.2641 22.5371 28.0425 22.5L27.9 22.23C27.6577 21.7567 27.2891 21.3598 26.835 21.0831C26.381 20.8064 25.8592 20.6608 25.3275 20.6625C25.1739 20.6626 25.0207 20.6777 24.87 20.7075L24.255 19.5H35.3625L32.25 24.1875Z" fill="#1A1A1A"/>
<path d="M24 46.25C25.2426 46.25 26.25 45.2426 26.25 44C26.25 42.7574 25.2426 41.75 24 41.75C22.7574 41.75 21.75 42.7574 21.75 44C21.75 45.2426 22.7574 46.25 24 46.25Z" fill="#1A1A1A"/>
<path d="M24 42.5C24.2967 42.5 24.5867 42.588 24.8334 42.7528C25.08 42.9176 25.2723 43.1519 25.3858 43.426C25.4994 43.7001 25.5291 44.0017 25.4712 44.2926C25.4133 44.5836 25.2704 44.8509 25.0607 45.0607C24.8509 45.2704 24.5836 45.4133 24.2926 45.4712C24.0017 45.5291 23.7001 45.4994 23.426 45.3858C23.1519 45.2723 22.9176 45.08 22.7528 44.8334C22.588 44.5867 22.5 44.2967 22.5 44C22.5 43.6022 22.658 43.2206 22.9393 42.9393C23.2206 42.658 23.6022 42.5 24 42.5ZM24 41C23.4067 41 22.8266 41.1759 22.3333 41.5056C21.8399 41.8352 21.4554 42.3038 21.2284 42.852C21.0013 43.4001 20.9419 44.0033 21.0576 44.5853C21.1734 45.1672 21.4591 45.7018 21.8787 46.1213C22.2982 46.5409 22.8328 46.8266 23.4147 46.9424C23.9967 47.0581 24.5999 46.9987 25.1481 46.7716C25.6962 46.5446 26.1648 46.1601 26.4944 45.6667C26.8241 45.1734 27 44.5933 27 44C27 43.2044 26.6839 42.4413 26.1213 41.8787C25.5587 41.3161 24.7957 41 24 41Z" fill="#1A1A1A"/>
</svg>
