<svg viewBox="0 0 48 48" fill="none" xmlns="http://www.w3.org/2000/svg">
<path d="M13.3075 29.5386L13.306 29.5368C7.7408 23.2594 7.40729 14.17 13.2605 8.3816C16.1051 5.57414 19.941 4 23.9377 4C27.9342 4 31.7699 5.574 34.6145 8.38123C40.459 14.1704 40.1338 23.2603 34.5694 29.5368L34.5689 29.5374C29.3027 35.486 26.132 39.534 23.9339 43.3819C21.7429 39.5075 18.555 35.4857 13.3075 29.5386Z" fill="#E9F1F6" stroke="black" stroke-width="2"/>
<path d="M30.9149 22.38L34.0549 17.665H23.4999L20.5549 12L19.3699 12.61L21.9999 17.665H13.9099L16.5599 21.665L16.3299 21.815C15.8603 22.1907 15.2811 22.4031 14.6799 22.42V23.75C15.5391 23.7389 16.3719 23.4513 17.0549 22.93C17.5107 22.5619 18.0743 22.3529 18.6599 22.335C19.2436 22.3547 19.8051 22.5635 20.2599 22.93C20.943 23.4513 21.7757 23.7389 22.6349 23.75C22.9469 23.7507 23.2576 23.712 23.5599 23.635L24.5599 25.59C24.7947 26.0448 25.2004 26.3878 25.688 26.5434C26.1756 26.6991 26.7051 26.6547 27.1599 26.42L27.2749 26.36C27.7301 26.1243 28.0731 25.7176 28.2287 25.2292C28.3843 24.7408 28.3398 24.2106 28.1049 23.755L27.4649 22.5C27.7241 22.6206 27.9718 22.7645 28.2049 22.93C28.8903 23.4505 29.7244 23.7378 30.5849 23.75C31.4441 23.7389 32.2769 23.4513 32.9599 22.93C33.1499 22.805 33.3299 22.695 33.5049 22.6V21.14C33.0535 21.299 32.6262 21.5194 32.2349 21.795C31.8486 22.0937 31.3957 22.2944 30.9149 22.38V22.38ZM22.9449 22.38C22.8417 22.388 22.7381 22.388 22.6349 22.38C22.0412 22.3656 21.4679 22.1605 20.9999 21.795C20.3249 21.2868 19.5048 21.0082 18.6599 21C18.3667 20.9984 18.0744 21.0337 17.7899 21.105L16.3899 19H22.6699L23.3949 20.4C23.1448 20.6566 22.9704 20.9772 22.891 21.3266C22.8116 21.676 22.8303 22.0405 22.9449 22.38ZM26.6749 25.16L26.5599 25.215C26.4753 25.2604 26.3809 25.2844 26.2849 25.285C26.1747 25.2842 26.0667 25.2536 25.9725 25.1964C25.8783 25.1391 25.8014 25.0575 25.7499 24.96L24.7749 23.065L24.2399 22.03C24.2141 21.976 24.1956 21.9189 24.1849 21.86C24.1604 21.7336 24.1779 21.6026 24.2347 21.487C24.2916 21.3714 24.3847 21.2777 24.4999 21.22L24.6149 21.16C24.7222 21.1053 24.8435 21.0841 24.963 21.0993C25.0825 21.1144 25.1947 21.1652 25.2849 21.245C25.3433 21.2929 25.391 21.3525 25.4249 21.42L25.9249 22.42L26.9249 24.355C26.9961 24.4953 27.0099 24.6579 26.9632 24.8082C26.9165 24.9585 26.8131 25.0847 26.6749 25.16V25.16ZM29.4999 22.125C29.3081 22.027 29.1227 21.9167 28.9449 21.795C28.2958 21.3026 27.5093 21.0247 26.6949 21L26.5999 20.82C26.4384 20.5045 26.1926 20.2398 25.8899 20.0554C25.5872 19.8709 25.2394 19.7739 24.8849 19.775C24.7825 19.7751 24.6804 19.7851 24.5799 19.805L24.1699 19H31.5749L29.4999 22.125Z" fill="#1A1A1A"/>
</svg>
