<svg fill="none" viewBox="0 0 48 48" xmlns="http://www.w3.org/2000/svg">
<path d="M24 46.25C25.2426 46.25 26.25 45.2426 26.25 44C26.25 42.7574 25.2426 41.75 24 41.75C22.7574 41.75 21.75 42.7574 21.75 44C21.75 45.2426 22.7574 46.25 24 46.25Z" fill="#1A1A1A"/>
<path d="M24 42.5C24.2967 42.5 24.5867 42.588 24.8334 42.7528C25.08 42.9176 25.2723 43.1519 25.3858 43.426C25.4994 43.7001 25.5291 44.0017 25.4712 44.2926C25.4133 44.5836 25.2704 44.8509 25.0607 45.0607C24.8509 45.2704 24.5836 45.4133 24.2926 45.4712C24.0017 45.5291 23.7001 45.4994 23.426 45.3858C23.1519 45.2723 22.9176 45.08 22.7528 44.8334C22.588 44.5867 22.5 44.2967 22.5 44C22.5 43.6022 22.658 43.2206 22.9393 42.9393C23.2206 42.658 23.6022 42.5 24 42.5ZM24 41C23.4067 41 22.8266 41.1759 22.3333 41.5056C21.8399 41.8352 21.4554 42.3038 21.2284 42.852C21.0013 43.4001 20.9419 44.0033 21.0576 44.5853C21.1734 45.1672 21.4591 45.7018 21.8787 46.1213C22.2982 46.5409 22.8328 46.8266 23.4147 46.9424C23.9967 47.0581 24.5999 46.9987 25.1481 46.7716C25.6962 46.5446 26.1648 46.1601 26.4944 45.6667C26.8241 45.1734 27 44.5933 27 44C27 43.2044 26.6839 42.4413 26.1213 41.8787C25.5587 41.3161 24.7957 41 24 41Z" fill="#1A1A1A"/>
<path d="M36.0001 23.1825C35.493 23.5475 34.9377 23.8403 34.3501 24.0525V20.625H11.8501L13.7251 22.3425C13.1633 22.5525 12.6313 22.8349 12.1426 23.1825C11.2848 23.855 10.2322 24.2313 9.14258 24.255V26.25C10.6286 26.2282 12.0697 25.7373 13.2601 24.8475C13.7748 24.3997 14.4239 24.1359 15.1051 24.0975C15.3364 24.0925 15.5669 24.1254 15.7876 24.195C16.2035 24.3528 16.5969 24.5646 16.9576 24.825C18.1211 25.7143 19.536 26.2131 21.0001 26.25C21.2099 26.2616 21.4202 26.2616 21.6301 26.25C22.8949 26.1052 24.0997 25.632 25.1251 24.8775C25.6378 24.4313 26.284 24.1675 26.9626 24.1275C27.6554 24.1639 28.317 24.4275 28.8451 24.8775C29.7206 25.508 30.7202 25.9452 31.7776 26.16C32.1591 26.2251 32.5455 26.2577 32.9326 26.2575C33.3914 26.2594 33.8491 26.2116 34.2976 26.115C35.2978 25.8738 36.2407 25.438 37.0726 24.8325C37.5875 24.4061 38.2272 24.1586 38.8951 24.1275V22.125C37.843 22.165 36.8302 22.535 36.0001 23.1825ZM24.0001 23.19C23.1417 23.8603 22.089 24.234 21.0001 24.255C20.287 24.2634 19.5831 24.0932 18.9526 23.76L18.2851 23.145H24.0751L24.0001 23.19ZM29.8876 23.19H29.8501H31.7701V24.15C31.0989 23.9303 30.4699 23.598 29.9101 23.1675L29.8876 23.19Z" fill="#1A1A1A"/>
<path d="M14.1825 17.13C14.5853 16.0968 15.2904 15.2092 16.2056 14.583C17.1208 13.9568 18.2036 13.6212 19.3125 13.62V11.625C17.3234 11.625 15.4157 12.4152 14.0092 13.8217C12.6027 15.2282 11.8125 17.1359 11.8125 19.125H34.3125L29.8125 17.13H14.1825Z" fill="#1A1A1A"/>
<path d="M18.825 12.6375L18.3 12.1125L21.4051 9H23.8125V9.75H21.72L18.825 12.6375Z" fill="#1A1A1A"/>
</svg>
