<svg viewBox="0 0 48 48" fill="none" xmlns="http://www.w3.org/2000/svg">
<path d="M13.3075 29.5386L13.306 29.5368C7.7408 23.2594 7.40729 14.17 13.2605 8.3816C16.1051 5.57414 19.941 4 23.9377 4C27.9342 4 31.7699 5.574 34.6145 8.38123C40.459 14.1704 40.1338 23.2603 34.5694 29.5368L34.5689 29.5374C29.3027 35.486 26.132 39.534 23.9339 43.3819C21.7429 39.5075 18.555 35.4857 13.3075 29.5386Z" fill="#E9F1F6" stroke="black" stroke-width="2"/>
<path d="M32 21.455C31.6619 21.6983 31.2917 21.8935 30.9 22.035V19.75H15.9L17.15 20.895C16.7755 21.035 16.4208 21.2233 16.095 21.455C15.5232 21.9033 14.8214 22.1542 14.095 22.17V23.5C15.0857 23.4855 16.0464 23.1582 16.84 22.565C17.1832 22.2665 17.6159 22.0906 18.07 22.065C18.2242 22.0616 18.3779 22.0836 18.525 22.13C18.8023 22.2352 19.0645 22.3764 19.305 22.55C20.0807 23.1429 21.0239 23.4754 22 23.5C22.1399 23.5077 22.2801 23.5077 22.42 23.5C23.2632 23.4035 24.0664 23.088 24.75 22.585C25.0918 22.2875 25.5226 22.1117 25.975 22.085C26.4369 22.1093 26.8779 22.285 27.23 22.585C27.8137 23.0053 28.4801 23.2968 29.185 23.44C29.4393 23.4834 29.6969 23.5052 29.955 23.505C30.2608 23.5062 30.566 23.4744 30.865 23.41C31.5318 23.2492 32.1604 22.9587 32.715 22.555C33.0583 22.2707 33.4847 22.1058 33.93 22.085V20.75C33.2286 20.7767 32.5534 21.0233 32 21.455V21.455ZM24 21.46C23.4277 21.9068 22.7259 22.156 22 22.17C21.5246 22.1756 21.0553 22.0621 20.635 21.84L20.19 21.43H24.05L24 21.46ZM27.925 21.46H27.9H29.18V22.1C28.7325 21.9535 28.3132 21.732 27.94 21.445L27.925 21.46Z" fill="#1A1A1A"/>
<path d="M17.455 17.42C17.7236 16.7312 18.1936 16.1395 18.8037 15.722C19.4139 15.3045 20.1357 15.0808 20.875 15.08V13.75C19.5489 13.75 18.2771 14.2768 17.3395 15.2145C16.4018 16.1521 15.875 17.4239 15.875 18.75H30.875L27.875 17.42H17.455Z" fill="#1A1A1A"/>
<path d="M20.55 14.425L20.2 14.075L22.27 12H23.875V12.5H22.48L20.55 14.425Z" fill="#1A1A1A"/>
</svg>
