<svg fill="none" viewBox="0 0 48 48" xmlns="http://www.w3.org/2000/svg">
<path d="M39.75 31.5899C38.4075 31.5925 37.0973 31.1784 36 30.4049C34.9016 31.1763 33.5921 31.5902 32.25 31.5902C30.9079 31.5902 29.5984 31.1763 28.5 30.4049C27.4016 31.1763 26.0921 31.5902 24.75 31.5902C23.4079 31.5902 22.0984 31.1763 21 30.4049C19.9016 31.1763 18.5921 31.5902 17.25 31.5902C15.9079 31.5902 14.5984 31.1763 13.5 30.4049C12.4027 31.1784 11.0925 31.5925 9.75 31.5899V29.7149C10.9042 29.7085 12.0154 29.2758 12.87 28.4999L13.5 27.9299L14.13 28.4999C14.9858 29.272 16.0974 29.6994 17.25 29.6994C18.4026 29.6994 19.5142 29.272 20.37 28.4999L21 27.9299L21.63 28.4999C22.4858 29.272 23.5974 29.6994 24.75 29.6994C25.9026 29.6994 27.0142 29.272 27.87 28.4999L28.5 27.9299L29.13 28.4999C29.9858 29.272 31.0974 29.6994 32.25 29.6994C33.4026 29.6994 34.5142 29.272 35.37 28.4999L36 27.9299L36.63 28.4999C37.4846 29.2758 38.5958 29.7085 39.75 29.7149V31.5899Z" fill="#1A1A1A"/>
<path d="M28.5001 13.6349C28.7146 13.6804 28.9333 13.703 29.1526 13.7024C29.533 13.7038 29.9099 13.6296 30.2614 13.4841C30.6128 13.3386 30.9319 13.1247 31.2001 12.8549L34.7026 9.35243C35.2439 8.80851 35.5479 8.07234 35.5479 7.30493C35.5479 6.53753 35.2439 5.80136 34.7026 5.25743L34.5676 5.12243C34.0234 4.5788 33.2856 4.27344 32.5163 4.27344C31.7471 4.27344 31.0093 4.5788 30.4651 5.12243L27.0001 8.61743C26.6512 8.9729 26.399 9.41179 26.2677 9.89229C26.1365 10.3728 26.1304 10.8789 26.2501 11.3624C22.4376 7.99441 17.7634 5.75337 12.7501 4.88993C13.6317 9.97018 15.9329 14.6973 19.3876 18.5249C19.1731 18.4795 18.9544 18.4568 18.7351 18.4574C18.3547 18.4561 17.9778 18.5303 17.6263 18.6758C17.2749 18.8213 16.9558 19.0351 16.6876 19.3049L13.1851 22.8074C12.6438 23.3514 12.3398 24.0875 12.3398 24.8549C12.3398 25.6223 12.6438 26.3585 13.1851 26.9024L13.3201 27.0374C13.8643 27.5811 14.6021 27.8864 15.3713 27.8864C16.1406 27.8864 16.8784 27.5811 17.4226 27.0374L20.9176 23.5424C21.2665 23.187 21.5187 22.7481 21.65 22.2676C21.7812 21.7871 21.7873 21.281 21.6676 20.7974C25.4675 24.158 30.1252 26.3986 35.1226 27.2699C34.2453 22.1913 31.9494 17.4644 28.5001 13.6349ZM28.3801 10.0274L31.8751 6.53243C31.9589 6.44893 32.0583 6.38276 32.1677 6.33772C32.2771 6.29268 32.3943 6.26964 32.5126 6.26993C32.7509 6.27253 32.9791 6.36649 33.1501 6.53243L33.2851 6.66743C33.369 6.75105 33.4356 6.8504 33.481 6.9598C33.5264 7.06919 33.5498 7.18648 33.5498 7.30493C33.5498 7.42339 33.5264 7.54067 33.481 7.65007C33.4356 7.75947 33.369 7.85882 33.2851 7.94243L29.7826 11.4449C29.6988 11.5284 29.5994 11.5946 29.49 11.6396C29.3806 11.6847 29.2634 11.7077 29.1451 11.7074C28.9068 11.7048 28.6786 11.6109 28.5076 11.4449L28.3726 11.3099C28.2027 11.1398 28.1072 10.9091 28.1072 10.6687C28.1072 10.4282 28.2027 10.1976 28.3726 10.0274H28.3801ZM19.5001 22.1324L15.9976 25.6274C15.9138 25.7109 15.8144 25.7771 15.705 25.8221C15.5956 25.8672 15.4784 25.8902 15.3601 25.8899C15.1218 25.8873 14.8936 25.7934 14.7226 25.6274L14.5951 25.4999C14.5112 25.4163 14.4446 25.317 14.3992 25.2076C14.3538 25.0982 14.3304 24.9809 14.3304 24.8624C14.3304 24.744 14.3538 24.6267 14.3992 24.5173C14.4446 24.4079 14.5112 24.3085 14.5951 24.2249L18.0976 20.7224C18.1814 20.6389 18.2808 20.5728 18.3902 20.5277C18.4996 20.4827 18.6168 20.4596 18.7351 20.4599C18.9734 20.4625 19.2016 20.5565 19.3726 20.7224L19.5076 20.8574C19.6742 21.0283 19.7669 21.2578 19.7655 21.4965C19.7641 21.7351 19.6687 21.9636 19.5001 22.1324ZM32.4301 24.5774C28.8007 23.4694 25.468 21.5569 22.6801 18.9824C22.3951 18.7349 22.1176 18.4649 21.8476 18.2324C21.5776 17.9999 21.4501 17.8274 21.2626 17.6174C18.5691 14.766 16.5743 11.3283 15.4351 7.57493C19.0779 8.67782 22.4239 10.5906 25.2226 13.1699C25.5076 13.4174 25.7851 13.6874 26.0551 13.9574C26.3251 14.2274 26.4526 14.3624 26.6401 14.5724C29.3178 17.4161 31.3019 20.8402 32.4376 24.5774H32.4301Z" fill="#1A1A1A"/>
<path d="M26.3772 16.2443L24.0755 13.9427C23.478 13.3452 22.5093 13.3452 21.9118 13.9427C21.3143 14.5402 21.3143 15.509 21.9118 16.1065L24.2134 18.4081C24.8109 19.0056 25.7797 19.0056 26.3772 18.4081C26.9747 17.8106 26.9747 16.8418 26.3772 16.2443Z" fill="#1A1A1A"/>
<path d="M24 46.25C25.2426 46.25 26.25 45.2426 26.25 44C26.25 42.7574 25.2426 41.75 24 41.75C22.7574 41.75 21.75 42.7574 21.75 44C21.75 45.2426 22.7574 46.25 24 46.25Z" fill="#1A1A1A"/>
<path d="M24 42.5C24.2967 42.5 24.5867 42.588 24.8334 42.7528C25.08 42.9176 25.2723 43.1519 25.3858 43.426C25.4994 43.7001 25.5291 44.0017 25.4712 44.2926C25.4133 44.5836 25.2704 44.8509 25.0607 45.0607C24.8509 45.2704 24.5836 45.4133 24.2926 45.4712C24.0017 45.5291 23.7001 45.4994 23.426 45.3858C23.1519 45.2723 22.9176 45.08 22.7528 44.8334C22.588 44.5867 22.5 44.2967 22.5 44C22.5 43.6022 22.658 43.2206 22.9393 42.9393C23.2206 42.658 23.6022 42.5 24 42.5ZM24 41C23.4067 41 22.8266 41.1759 22.3333 41.5056C21.8399 41.8352 21.4554 42.3038 21.2284 42.852C21.0013 43.4001 20.9419 44.0033 21.0576 44.5853C21.1734 45.1672 21.4591 45.7018 21.8787 46.1213C22.2982 46.5409 22.8328 46.8266 23.4147 46.9424C23.9967 47.0581 24.5999 46.9987 25.1481 46.7716C25.6962 46.5446 26.1648 46.1601 26.4944 45.6667C26.8241 45.1734 27 44.5933 27 44C27 43.2044 26.6839 42.4413 26.1213 41.8787C25.5587 41.3161 24.7957 41 24 41Z" fill="#1A1A1A"/>
</svg>
