<svg viewBox="0 0 48 48" fill="none" xmlns="http://www.w3.org/2000/svg">
<path d="M13.3075 29.5386L13.306 29.5368C7.7408 23.2594 7.40729 14.17 13.2605 8.3816C16.1051 5.57414 19.941 4 23.9377 4C27.9342 4 31.7699 5.574 34.6145 8.38123C40.459 14.1704 40.1338 23.2603 34.5694 29.5368L34.5689 29.5374C29.3027 35.486 26.132 39.534 23.9339 43.3819C21.7429 39.5075 18.555 35.4857 13.3075 29.5386Z" fill="#E9F1F6" stroke="black" stroke-width="2"/>
<path d="M32.835 18.335H31.47C31.3363 16.8109 30.7356 15.3652 29.75 14.195L30.72 13.225C30.8414 13.0976 30.909 12.9284 30.909 12.7525C30.909 12.5766 30.8414 12.4074 30.72 12.28C30.5932 12.1575 30.4238 12.089 30.2475 12.089C30.0712 12.089 29.9018 12.1575 29.775 12.28L28.805 13.25C27.6348 12.2644 26.1891 11.6637 24.665 11.53V10.165C24.665 9.98863 24.5949 9.81949 24.4702 9.69477C24.3455 9.57006 24.1764 9.5 24 9.5C23.8236 9.5 23.6545 9.57006 23.5298 9.69477C23.4051 9.81949 23.335 9.98863 23.335 10.165V11.53C21.8109 11.6637 20.3652 12.2644 19.195 13.25L18.225 12.28C18.1648 12.2103 18.0909 12.1538 18.0078 12.1139C17.9248 12.0741 17.8344 12.0518 17.7424 12.0484C17.6504 12.045 17.5586 12.0607 17.4729 12.0944C17.3872 12.1281 17.3093 12.1791 17.2442 12.2442C17.1791 12.3093 17.1281 12.3872 17.0944 12.4729C17.0607 12.5586 17.045 12.6504 17.0484 12.7424C17.0518 12.8344 17.0741 12.9248 17.1139 13.0078C17.1538 13.0909 17.2103 13.1648 17.28 13.225L18.25 14.195C17.2644 15.3652 16.6637 16.8109 16.53 18.335H15.165C14.9886 18.335 14.8195 18.4051 14.6948 18.5298C14.5701 18.6545 14.5 18.8236 14.5 19C14.5 19.1764 14.5701 19.3455 14.6948 19.4702C14.8195 19.5949 14.9886 19.665 15.165 19.665H16.53C16.6637 21.1891 17.2644 22.6348 18.25 23.805L17.28 24.775C17.2103 24.8352 17.1538 24.9091 17.1139 24.9922C17.0741 25.0752 17.0518 25.1656 17.0484 25.2576C17.045 25.3496 17.0607 25.4414 17.0944 25.5271C17.1281 25.6128 17.1791 25.6907 17.2442 25.7558C17.3093 25.8209 17.3872 25.8719 17.4729 25.9056C17.5586 25.9393 17.6504 25.955 17.7424 25.9516C17.8344 25.9482 17.9248 25.9259 18.0078 25.8861C18.0909 25.8462 18.1648 25.7897 18.225 25.72L19.195 24.75C20.3652 25.7356 21.8109 26.3363 23.335 26.47V27.835C23.335 28.0114 23.4051 28.1805 23.5298 28.3052C23.6545 28.4299 23.8236 28.5 24 28.5C24.1764 28.5 24.3455 28.4299 24.4702 28.3052C24.5949 28.1805 24.665 28.0114 24.665 27.835V26.47C26.1891 26.3363 27.6348 25.7356 28.805 24.75L29.775 25.72C29.9024 25.8414 30.0716 25.909 30.2475 25.909C30.4234 25.909 30.5926 25.8414 30.72 25.72C30.8425 25.5932 30.911 25.4238 30.911 25.2475C30.911 25.0712 30.8425 24.9018 30.72 24.775L29.75 23.805C30.7356 22.6348 31.3363 21.1891 31.47 19.665H32.835C33.0114 19.665 33.1805 19.5949 33.3052 19.4702C33.4299 19.3455 33.5 19.1764 33.5 19C33.5 18.8236 33.4299 18.6545 33.3052 18.5298C33.1805 18.4051 33.0114 18.335 32.835 18.335V18.335ZM24.665 12.87C25.8363 12.9888 26.9462 13.4516 27.855 14.2L25.23 16.825C25.0725 16.7338 24.9046 16.6616 24.73 16.61H24.675L24.665 12.87ZM23.335 12.87V16.595H23.28C23.1054 16.6466 22.9375 16.7188 22.78 16.81L20.15 14.18C21.062 13.4435 22.1687 12.9883 23.335 12.87V12.87ZM19.2 15.145L21.825 17.77C21.7326 17.927 21.6603 18.095 21.61 18.27C21.6061 18.2881 21.6061 18.3069 21.61 18.325H17.87C17.9907 17.1572 18.4534 16.051 19.2 15.145V15.145ZM17.87 19.645H21.595C21.5911 19.6631 21.5911 19.6819 21.595 19.7C21.6466 19.8746 21.7188 20.0425 21.81 20.2L19.18 22.83C18.4471 21.9235 17.9921 20.8243 17.87 19.665V19.645ZM23.335 25.13C22.1637 25.0112 21.0538 24.5484 20.145 23.8L22.77 21.175C22.927 21.2674 23.095 21.3397 23.27 21.39H23.325L23.335 25.13ZM24.205 20.13C24.0696 20.1567 23.9304 20.1567 23.795 20.13C23.6295 20.1013 23.4725 20.0364 23.335 19.94C23.2199 19.86 23.12 19.7601 23.04 19.645C22.9436 19.5075 22.8787 19.3505 22.85 19.185C22.8233 19.0496 22.8233 18.9104 22.85 18.775C22.8787 18.6095 22.9436 18.4525 23.04 18.315C23.12 18.1999 23.2199 18.1 23.335 18.02C23.4725 17.9236 23.6295 17.8587 23.795 17.83C23.9304 17.8033 24.0696 17.8033 24.205 17.83C24.3705 17.8587 24.5275 17.9236 24.665 18.02C24.7801 18.1 24.88 18.1999 24.96 18.315C25.0564 18.4525 25.1213 18.6095 25.15 18.775C25.1767 18.9104 25.1767 19.0496 25.15 19.185C25.1213 19.3505 25.0564 19.5075 24.96 19.645C24.88 19.7601 24.7801 19.86 24.665 19.94C24.5293 20.0436 24.3721 20.1153 24.205 20.15V20.13ZM24.665 25.13V21.405H24.72C24.8946 21.3534 25.0625 21.2812 25.22 21.19L27.85 23.82C26.938 24.5565 25.8313 25.0117 24.665 25.13V25.13ZM28.8 22.855L26.175 20.23C26.2662 20.0725 26.3384 19.9046 26.39 19.73C26.3939 19.7119 26.3939 19.6931 26.39 19.675H30.115C29.9986 20.8412 29.5412 21.9472 28.8 22.855V22.855ZM26.405 18.355C26.4089 18.3369 26.4089 18.3181 26.405 18.3C26.3534 18.1254 26.2812 17.9575 26.19 17.8L28.82 15.17C29.5637 16.0831 30.0242 17.1936 30.145 18.365L26.405 18.355Z" fill="#1A1A1A"/>
<path d="M26.39 18.2801C26.3939 18.2982 26.3939 18.317 26.39 18.3351V18.3351C26.3928 18.3169 26.3928 18.2983 26.39 18.2801V18.2801ZM26.39 19.6651C26.3939 19.6832 26.3939 19.702 26.39 19.7201C26.3928 19.7019 26.3928 19.6833 26.39 19.6651V19.6651ZM24.65 21.4051H24.705H24.65ZM24.65 16.5901H24.705H24.65ZM23.265 21.3901H23.32H23.265ZM23.265 16.6101H23.32H23.265ZM21.575 18.3351C21.571 18.317 21.571 18.2982 21.575 18.2801C21.577 18.2991 21.5821 18.3177 21.59 18.3351H21.575ZM21.575 19.6651C21.5721 19.6833 21.5721 19.7019 21.575 19.7201C21.5774 19.7005 21.5842 19.6817 21.595 19.6651H21.575Z" fill="#1A1A1A"/>
</svg>
