<svg fill="none" viewBox="0 0 48 48" xmlns="http://www.w3.org/2000/svg">
<path d="M37.2525 17.0025H35.205C35.0044 14.7164 34.1035 12.5477 32.625 10.7925L34.08 9.3375C34.262 9.14643 34.3636 8.89265 34.3636 8.62875C34.3636 8.36485 34.262 8.11107 34.08 7.92C33.8898 7.73624 33.6357 7.63353 33.3713 7.63353C33.1068 7.63353 32.8527 7.73624 32.6625 7.92L31.2075 9.375C29.4523 7.89655 27.2836 6.99558 24.9975 6.795V4.7475C24.9975 4.48295 24.8924 4.22923 24.7053 4.04216C24.5183 3.85509 24.2646 3.75 24 3.75C23.7354 3.75 23.4817 3.85509 23.2947 4.04216C23.1076 4.22923 23.0025 4.48295 23.0025 4.7475V6.795C20.7164 6.99558 18.5477 7.89655 16.7925 9.375L15.3375 7.92C15.2472 7.81545 15.1363 7.73063 15.0117 7.67086C14.8872 7.61109 14.7517 7.57763 14.6136 7.57259C14.4755 7.56755 14.3379 7.59103 14.2093 7.64156C14.0808 7.69209 13.964 7.76859 13.8663 7.86628C13.7686 7.96397 13.6921 8.08075 13.6416 8.20933C13.591 8.33791 13.5676 8.47553 13.5726 8.6136C13.5776 8.75166 13.6111 8.8872 13.6709 9.01175C13.7306 9.1363 13.8154 9.24719 13.92 9.3375L15.375 10.7925C13.8965 12.5477 12.9956 14.7164 12.795 17.0025H10.7475C10.4829 17.0025 10.2292 17.1076 10.0422 17.2947C9.85509 17.4817 9.75 17.7354 9.75 18C9.75 18.2646 9.85509 18.5183 10.0422 18.7053C10.2292 18.8924 10.4829 18.9975 10.7475 18.9975H12.795C12.9956 21.2836 13.8965 23.4523 15.375 25.2075L13.92 26.6625C13.8154 26.7528 13.7306 26.8637 13.6709 26.9883C13.6111 27.1128 13.5776 27.2483 13.5726 27.3864C13.5676 27.5245 13.591 27.6621 13.6416 27.7907C13.6921 27.9192 13.7686 28.036 13.8663 28.1337C13.964 28.2314 14.0808 28.3079 14.2093 28.3584C14.3379 28.409 14.4755 28.4324 14.6136 28.4274C14.7517 28.4224 14.8872 28.3889 15.0117 28.3291C15.1363 28.2694 15.2472 28.1846 15.3375 28.08L16.7925 26.625C18.5477 28.1035 20.7164 29.0044 23.0025 29.205V31.2525C23.0025 31.5171 23.1076 31.7708 23.2947 31.9578C23.4817 32.1449 23.7354 32.25 24 32.25C24.2646 32.25 24.5183 32.1449 24.7053 31.9578C24.8924 31.7708 24.9975 31.5171 24.9975 31.2525V29.205C27.2836 29.0044 29.4523 28.1035 31.2075 26.625L32.6625 28.08C32.8536 28.262 33.1073 28.3636 33.3713 28.3636C33.6351 28.3636 33.8889 28.262 34.08 28.08C34.2638 27.8898 34.3665 27.6357 34.3665 27.3713C34.3665 27.1068 34.2638 26.8527 34.08 26.6625L32.625 25.2075C34.1035 23.4523 35.0044 21.2836 35.205 18.9975H37.2525C37.5171 18.9975 37.7708 18.8924 37.9578 18.7053C38.1449 18.5183 38.25 18.2646 38.25 18C38.25 17.7354 38.1449 17.4817 37.9578 17.2947C37.7708 17.1076 37.5171 17.0025 37.2525 17.0025ZM24.9975 8.805C26.7544 8.98323 28.4193 9.67737 29.7825 10.8L25.845 14.7375C25.6087 14.6006 25.3569 14.4924 25.095 14.415H25.0125L24.9975 8.805ZM23.0025 8.805V14.3925H22.92C22.6581 14.4699 22.4063 14.5781 22.17 14.715L18.225 10.77C19.5931 9.66525 21.2531 8.9825 23.0025 8.805ZM16.8 12.2175L20.7375 16.155C20.5989 16.3904 20.4905 16.6424 20.415 16.905C20.4091 16.9322 20.4091 16.9603 20.415 16.9875H14.805C14.9861 15.2358 15.6801 13.5765 16.8 12.2175ZM14.805 18.9675H20.3925C20.3866 18.9947 20.3866 19.0228 20.3925 19.05C20.4699 19.3119 20.5781 19.5637 20.715 19.8L16.77 23.745C15.6706 22.3853 14.9881 20.7365 14.805 18.9975V18.9675ZM23.0025 27.195C21.2456 27.0168 19.5807 26.3226 18.2175 25.2L22.155 21.2625C22.3904 21.4011 22.6424 21.5095 22.905 21.585H22.9875L23.0025 27.195ZM24.3075 19.695C24.1045 19.735 23.8955 19.735 23.6925 19.695C23.4443 19.652 23.2087 19.5547 23.0025 19.41C22.8299 19.29 22.68 19.1401 22.56 18.9675C22.4153 18.7613 22.318 18.5257 22.275 18.2775C22.235 18.0745 22.235 17.8655 22.275 17.6625C22.318 17.4143 22.4153 17.1787 22.56 16.9725C22.68 16.7999 22.8299 16.65 23.0025 16.53C23.2087 16.3853 23.4443 16.288 23.6925 16.245C23.8955 16.205 24.1045 16.205 24.3075 16.245C24.5557 16.288 24.7913 16.3853 24.9975 16.53C25.1701 16.65 25.32 16.7999 25.44 16.9725C25.5847 17.1787 25.682 17.4143 25.725 17.6625C25.765 17.8655 25.765 18.0745 25.725 18.2775C25.682 18.5257 25.5847 18.7613 25.44 18.9675C25.32 19.1401 25.1701 19.29 24.9975 19.41C24.794 19.5653 24.5582 19.673 24.3075 19.725V19.695ZM24.9975 27.195V21.6075H25.08C25.3419 21.5301 25.5937 21.4219 25.83 21.285L29.775 25.23C28.4069 26.3347 26.7469 27.0175 24.9975 27.195ZM31.2 23.7825L27.2625 19.845C27.3994 19.6087 27.5076 19.3569 27.585 19.095C27.5909 19.0678 27.5909 19.0397 27.585 19.0125H33.1725C32.9979 20.7617 32.3118 22.4208 31.2 23.7825ZM27.6075 17.0325C27.6134 17.0053 27.6134 16.9772 27.6075 16.95C27.5301 16.6881 27.4219 16.4363 27.285 16.2L31.23 12.255C32.3455 13.6246 33.0364 15.2904 33.2175 17.0475L27.6075 17.0325Z" fill="#1A1A1A"/>
<path d="M27.5849 16.92C27.5908 16.9472 27.5908 16.9753 27.5849 17.0025C27.5892 16.9752 27.5892 16.9473 27.5849 16.92ZM27.5849 18.9975C27.5908 19.0247 27.5908 19.0528 27.5849 19.08C27.5892 19.0527 27.5892 19.0248 27.5849 18.9975ZM24.9749 21.6075H25.0574H24.9749ZM24.9749 14.385H25.0574H24.9749ZM22.8974 21.585H22.9799H22.8974ZM22.8974 14.415H22.9799H22.8974ZM20.3624 17.0025C20.3566 16.9753 20.3566 16.9472 20.3624 16.92C20.3655 16.9485 20.3731 16.9764 20.3849 17.0025H20.3624ZM20.3624 18.9975C20.3582 19.0248 20.3582 19.0527 20.3624 19.08C20.366 19.0506 20.3763 19.0224 20.3924 18.9975H20.3624Z" fill="#1A1A1A"/>
<path d="M24 46.25C25.2426 46.25 26.25 45.2426 26.25 44C26.25 42.7574 25.2426 41.75 24 41.75C22.7574 41.75 21.75 42.7574 21.75 44C21.75 45.2426 22.7574 46.25 24 46.25Z" fill="#1A1A1A"/>
<path d="M24 42.5C24.2967 42.5 24.5867 42.588 24.8334 42.7528C25.08 42.9176 25.2723 43.1519 25.3858 43.426C25.4994 43.7001 25.5291 44.0017 25.4712 44.2926C25.4133 44.5836 25.2704 44.8509 25.0607 45.0607C24.8509 45.2704 24.5836 45.4133 24.2926 45.4712C24.0017 45.5291 23.7001 45.4994 23.426 45.3858C23.1519 45.2723 22.9176 45.08 22.7528 44.8334C22.588 44.5867 22.5 44.2967 22.5 44C22.5 43.6022 22.658 43.2206 22.9393 42.9393C23.2206 42.658 23.6022 42.5 24 42.5ZM24 41C23.4067 41 22.8266 41.1759 22.3333 41.5056C21.8399 41.8352 21.4554 42.3038 21.2284 42.852C21.0013 43.4001 20.9419 44.0033 21.0576 44.5853C21.1734 45.1672 21.4591 45.7018 21.8787 46.1213C22.2982 46.5409 22.8328 46.8266 23.4147 46.9424C23.9967 47.0581 24.5999 46.9987 25.1481 46.7716C25.6962 46.5446 26.1648 46.1601 26.4944 45.6667C26.8241 45.1734 27 44.5933 27 44C27 43.2044 26.6839 42.4413 26.1213 41.8787C25.5587 41.3161 24.7957 41 24 41Z" fill="#1A1A1A"/>
</svg>
