<svg viewBox="0 0 48 48" fill="none" xmlns="http://www.w3.org/2000/svg">
<path d="M13.3075 29.5386L13.306 29.5368C7.7408 23.2594 7.40729 14.17 13.2605 8.3816C16.1051 5.57414 19.941 4 23.9377 4C27.9342 4 31.7699 5.574 34.6145 8.38123C40.459 14.1704 40.1338 23.2603 34.5694 29.5368L34.5689 29.5374C29.3027 35.486 26.132 39.534 23.9339 43.3819C21.7429 39.5075 18.555 35.4857 13.3075 29.5386Z" fill="#E9F1F6" stroke="black" stroke-width="2"/>
<path d="M24.0094 13C22.8223 12.9981 21.6614 13.3485 20.6734 14.0066C19.6855 14.6648 18.915 15.6012 18.4594 16.6974C18.0039 17.7936 17.8837 19.0003 18.1141 20.1648C18.3446 21.3293 18.9153 22.3993 19.754 23.2393C20.5928 24.0794 21.6619 24.6517 22.826 24.884C23.9901 25.1163 25.197 24.998 26.2939 24.5442C27.3908 24.0903 28.3285 23.3213 28.9882 22.3344C29.6479 21.3475 30 20.1871 30 19C30 17.4103 29.3692 15.8856 28.246 14.7607C27.1228 13.6357 25.5991 13.0025 24.0094 13ZM24.0094 21.9906C23.4153 21.9925 22.834 21.8179 22.3392 21.4889C21.8444 21.16 21.4584 20.6916 21.2302 20.143C21.002 19.5944 20.9417 18.9905 21.0572 18.4076C21.1727 17.8248 21.4586 17.2894 21.8787 16.8693C22.2988 16.4492 22.8342 16.1633 23.417 16.0478C23.9999 15.9323 24.6038 15.9926 25.1524 16.2208C25.701 16.449 26.1694 16.835 26.4983 17.3298C26.8273 17.8246 27.0019 18.4059 27 19C26.9975 19.7924 26.6816 20.5516 26.1213 21.1119C25.561 21.6722 24.8018 21.9881 24.0094 21.9906" fill="#1A1A1A"/>
</svg>
