<svg viewBox="0 0 48 48" fill="none" xmlns="http://www.w3.org/2000/svg">
<path d="M13.3075 29.5386L13.306 29.5368C7.7408 23.2594 7.40729 14.17 13.2605 8.3816C16.1051 5.57414 19.941 4 23.9377 4C27.9342 4 31.7699 5.574 34.6145 8.38123C40.459 14.1704 40.1338 23.2603 34.5694 29.5368L34.5689 29.5374C29.3027 35.486 26.132 39.534 23.9339 43.3819C21.7429 39.5075 18.555 35.4857 13.3075 29.5386Z" fill="#E9F1F6" stroke="black" stroke-width="2"/>
<path d="M32.675 24.0701L31.325 20.4301H23.2L21.42 17.4651L17.86 20.4301H13.5L16.15 24.4301L15.925 24.5751C15.4546 24.9528 14.8731 25.1654 14.27 25.1801V26.5001C15.1315 26.4886 15.9662 26.1992 16.65 25.6751C17.1032 25.3093 17.6629 25.1005 18.245 25.0801C18.8219 25.1037 19.3758 25.3123 19.825 25.6751C20.5142 26.2033 21.3567 26.4929 22.225 26.5001C23.0848 26.4875 23.9176 26.1982 24.6 25.6751C25.0546 25.3083 25.6162 25.0994 26.2 25.0801C26.7922 25.0951 27.3631 25.3042 27.825 25.6751C28.5024 26.2092 29.3399 26.4996 30.2025 26.4996C31.0651 26.4996 31.9026 26.2092 32.58 25.6751C33.0332 25.3093 33.5929 25.1005 34.175 25.0801V23.7501C33.6572 23.742 33.1444 23.8514 32.675 24.0701ZM21.08 19.5001L21.65 20.4501H19.94L21.08 19.5001ZM30.175 25.1651C29.5734 25.1504 28.9935 24.9378 28.525 24.5601C27.8637 24.0352 27.0443 23.7496 26.2 23.7496C25.3557 23.7496 24.5363 24.0352 23.875 24.5601C23.4065 24.9378 22.8266 25.1504 22.225 25.1651C21.6218 25.1512 21.04 24.9385 20.57 24.5601C19.9018 24.048 19.0868 23.7641 18.245 23.7501C17.9534 23.7489 17.6628 23.7842 17.38 23.8551L15.985 21.7601H30.415L31.51 24.7601C31.1164 25.0274 30.6508 25.1686 30.175 25.1651V25.1651Z" fill="#1A1A1A"/>
<path d="M28.45 9.5C27.9042 9.50068 27.3673 9.63838 26.8886 9.90045C26.4099 10.1625 26.0046 10.5406 25.71 11H17.21L15.71 12.5L17.71 14.5L19.71 13.5L21.21 14.5L23.21 13.5L24.71 14.5H25.71C26.0138 14.9755 26.4361 15.3636 26.9355 15.6263C27.4349 15.889 27.994 16.0171 28.5579 15.9982C29.1218 15.9792 29.6711 15.8137 30.1517 15.518C30.6322 15.2224 31.0275 14.8067 31.2987 14.3119C31.5698 13.817 31.7075 13.2602 31.6981 12.696C31.6888 12.1319 31.5327 11.5799 31.2452 11.0943C30.9578 10.6088 30.5489 10.2065 30.0588 9.92692C29.5686 9.64737 29.0142 9.50024 28.45 9.5V9.5ZM29.45 14C29.2027 14 28.9611 13.9267 28.7555 13.7893C28.5499 13.652 28.3897 13.4568 28.2951 13.2284C28.2005 12.9999 28.1757 12.7486 28.224 12.5061C28.2722 12.2637 28.3913 12.0409 28.5661 11.8661C28.7409 11.6913 28.9636 11.5722 29.2061 11.524C29.4486 11.4758 29.6999 11.5005 29.9283 11.5952C30.1567 11.6898 30.3519 11.85 30.4893 12.0555C30.6266 12.2611 30.7 12.5028 30.7 12.75C30.7 13.0815 30.5683 13.3995 30.3338 13.6339C30.0994 13.8683 29.7815 14 29.45 14Z" fill="#1A1A1A"/>
</svg>
