<svg fill="none" viewBox="0 0 48 48" xmlns="http://www.w3.org/2000/svg">
<path d="M37.0125 27.105L34.9875 21.645H22.8L20.13 17.1975L14.79 21.645H8.25L12.225 27.645L11.8875 27.8625C11.1819 28.4291 10.3096 28.748 9.405 28.77V30.75C10.6972 30.7327 11.9493 30.2987 12.975 29.5125C13.6549 28.9639 14.4944 28.6507 15.3675 28.62C16.2328 28.6555 17.0637 28.9684 17.7375 29.5125C18.7714 30.3048 20.035 30.7392 21.3375 30.75C22.6271 30.7311 23.8764 30.2972 24.9 29.5125C25.5819 28.9623 26.4243 28.6491 27.3 28.62C28.1883 28.6426 29.0446 28.9561 29.7375 29.5125C30.7536 30.3136 32.0098 30.7493 33.3038 30.7493C34.5977 30.7493 35.8539 30.3136 36.87 29.5125C37.5499 28.9639 38.3894 28.6507 39.2625 28.62V26.625C38.4859 26.6129 37.7166 26.777 37.0125 27.105ZM19.62 20.25L20.475 21.675H17.91L19.62 20.25ZM33.2625 28.7475C32.3601 28.7255 31.4902 28.4065 30.7875 27.84C29.7955 27.0527 28.5664 26.6243 27.3 26.6243C26.0336 26.6243 24.8045 27.0527 23.8125 27.84C23.1098 28.4065 22.2399 28.7255 21.3375 28.7475C20.4326 28.7266 19.56 28.4076 18.855 27.84C17.8526 27.0719 16.6301 26.646 15.3675 26.625C14.9301 26.6233 14.4943 26.6762 14.07 26.7825L11.9775 23.64H33.6225L35.265 28.14C34.6746 28.541 33.9762 28.7529 33.2625 28.7475Z" fill="#1A1A1A"/>
<path d="M30.6749 5.25C29.8563 5.25103 29.051 5.45757 28.3329 5.85068C27.6148 6.2438 27.0069 6.8109 26.5649 7.5H13.8149L11.5649 9.75L14.5649 12.75L17.5649 11.25L19.8149 12.75L22.8149 11.25L25.0649 12.75H26.5649C27.0207 13.4632 27.6542 14.0454 28.4033 14.4395C29.1523 14.8335 29.991 15.0257 30.8369 14.9972C31.6828 14.9688 32.5066 14.7206 33.2275 14.277C33.9483 13.8335 34.5413 13.21 34.948 12.4678C35.3548 11.7256 35.5612 10.8903 35.5472 10.044C35.5331 9.19778 35.299 8.36978 34.8678 7.64149C34.4367 6.9132 33.8233 6.3097 33.0881 5.89038C32.353 5.47106 31.5213 5.25036 30.6749 5.25ZM32.1749 12C31.8041 12 31.4416 11.89 31.1332 11.684C30.8249 11.478 30.5846 11.1851 30.4427 10.8425C30.3008 10.4999 30.2636 10.1229 30.336 9.75921C30.4083 9.39549 30.5869 9.0614 30.8491 8.79917C31.1113 8.53695 31.4454 8.35837 31.8091 8.28603C32.1729 8.21368 32.5499 8.25081 32.8925 8.39273C33.2351 8.53464 33.5279 8.77496 33.7339 9.08331C33.94 9.39165 34.0499 9.75416 34.0499 10.125C34.0499 10.6223 33.8524 11.0992 33.5008 11.4508C33.1491 11.8025 32.6722 12 32.1749 12Z" fill="#1A1A1A"/>
<path d="M24 46.25C25.2426 46.25 26.25 45.2426 26.25 44C26.25 42.7574 25.2426 41.75 24 41.75C22.7574 41.75 21.75 42.7574 21.75 44C21.75 45.2426 22.7574 46.25 24 46.25Z" fill="#1A1A1A"/>
<path d="M24 42.5C24.2967 42.5 24.5867 42.588 24.8334 42.7528C25.08 42.9176 25.2723 43.1519 25.3858 43.426C25.4994 43.7001 25.5291 44.0017 25.4712 44.2926C25.4133 44.5836 25.2704 44.8509 25.0607 45.0607C24.8509 45.2704 24.5836 45.4133 24.2926 45.4712C24.0017 45.5291 23.7001 45.4994 23.426 45.3858C23.1519 45.2723 22.9176 45.08 22.7528 44.8334C22.588 44.5867 22.5 44.2967 22.5 44C22.5 43.6022 22.658 43.2206 22.9393 42.9393C23.2206 42.658 23.6022 42.5 24 42.5ZM24 41C23.4067 41 22.8266 41.1759 22.3333 41.5056C21.8399 41.8352 21.4554 42.3038 21.2284 42.852C21.0013 43.4001 20.9419 44.0033 21.0576 44.5853C21.1734 45.1672 21.4591 45.7018 21.8787 46.1213C22.2982 46.5409 22.8328 46.8266 23.4147 46.9424C23.9967 47.0581 24.5999 46.9987 25.1481 46.7716C25.6962 46.5446 26.1648 46.1601 26.4944 45.6667C26.8241 45.1734 27 44.5933 27 44C27 43.2044 26.6839 42.4413 26.1213 41.8787C25.5587 41.3161 24.7957 41 24 41Z" fill="#1A1A1A"/>
</svg>
