<svg fill="none" viewBox="0 0 48 48" xmlns="http://www.w3.org/2000/svg">
<path d="M20.6775 3.35252C19.9754 2.64241 19.0199 2.24031 18.0212 2.23468C17.0226 2.22905 16.0626 2.62036 15.3525 3.32252C14.6424 4.02468 14.2403 4.98018 14.2347 5.97881C14.2291 6.97744 14.6204 7.9374 15.3225 8.64752C16.365 9.7283 17.2649 10.9381 18 12.2475C18.7378 10.9399 19.6374 9.73034 20.6775 8.64752C21.3657 7.93803 21.7506 6.98845 21.7506 6.00002C21.7506 5.0116 21.3657 4.06201 20.6775 3.35252ZM18 7.50002C17.7034 7.50002 17.4133 7.41205 17.1667 7.24723C16.92 7.0824 16.7277 6.84814 16.6142 6.57405C16.5007 6.29996 16.471 5.99836 16.5288 5.70739C16.5867 5.41642 16.7296 5.14914 16.9394 4.93936C17.1491 4.72958 17.4164 4.58672 17.7074 4.52884C17.9984 4.47097 18.3 4.50067 18.574 4.6142C18.8481 4.72773 19.0824 4.91999 19.2472 5.16667C19.412 5.41334 19.5 5.70335 19.5 6.00002C19.5 6.39785 19.342 6.77938 19.0607 7.06068C18.7794 7.34199 18.3978 7.50002 18 7.50002Z" fill="#1A1A1A"/>
<path d="M35.6775 22.1025C34.9754 21.3924 34.0199 20.9903 33.0212 20.9847C32.0226 20.9791 31.0626 21.3704 30.3525 22.0725C29.6424 22.7747 29.2403 23.7302 29.2347 24.7288C29.2291 25.7274 29.6204 26.6874 30.3225 27.3975C31.3651 28.4783 32.2649 29.6881 33 30.9975C33.7378 29.6899 34.6374 28.4803 35.6775 27.3975C36.3657 26.688 36.7506 25.7384 36.7506 24.75C36.7506 23.7616 36.3657 22.812 35.6775 22.1025ZM33 26.25C32.7034 26.25 32.4133 26.1621 32.1667 25.9972C31.92 25.8324 31.7277 25.5981 31.6142 25.324C31.5007 25.05 31.471 24.7484 31.5288 24.4574C31.5867 24.1664 31.7296 23.8991 31.9394 23.6894C32.1491 23.4796 32.4164 23.3367 32.7074 23.2788C32.9984 23.221 33.3 23.2507 33.574 23.3642C33.8481 23.4777 34.0824 23.67 34.2472 23.9167C34.4121 24.1633 34.5 24.4534 34.5 24.75C34.5 25.1478 34.342 25.5294 34.0607 25.8107C33.7794 26.092 33.3978 26.25 33 26.25Z" fill="#1A1A1A"/>
<path d="M33 31.2524H31.125V33.2474H33V31.2524Z" fill="#1A1A1A"/>
<path d="M29.6625 33.2474H26.0175V31.2524H29.6625V33.2474ZM24.5625 33.2474H20.91V31.2524H24.5625V33.2474ZM19.38 33.2474C17.9396 33.1418 16.5742 32.5646 15.495 31.6049L16.815 30.1049C17.5626 30.765 18.5055 31.1627 19.5 31.2374L19.38 33.2474ZM14.37 30.2999C13.638 29.2144 13.2487 27.9342 13.2525 26.6249C13.2525 26.4899 13.2525 26.3624 13.2525 26.2274L15.24 26.3474C15.24 26.4374 15.24 26.5349 15.24 26.6249C15.2287 27.5356 15.4898 28.4288 15.99 29.1899L14.37 30.2999ZM15.48 25.1774L13.5825 24.5474C14.0406 23.1781 14.93 21.994 16.1175 21.1724L17.25 22.8149C16.4183 23.3885 15.7967 24.2181 15.48 25.1774ZM18.315 22.2674L17.64 20.3924C18.3606 20.129 19.1227 19.9969 19.89 20.0024H21.6075V21.9974H19.8675C19.3382 21.9962 18.8128 22.0876 18.315 22.2674ZM23.25 21.9974H23.04V20.0024H23.25C23.6727 20.0048 24.0902 19.9084 24.4691 19.7209C24.848 19.5334 25.1779 19.26 25.4325 18.9224L27 20.1374C26.5606 20.7156 25.9935 21.1843 25.343 21.5069C24.6924 21.8296 23.9761 21.9975 23.25 21.9974ZM27.8325 18.4949L25.905 17.9999C25.9743 17.7561 26.0072 17.5034 26.0025 17.2499C26.0044 16.5949 25.77 15.9612 25.3425 15.4649L26.8425 14.1674C27.5839 15.0236 27.9937 16.1173 27.9975 17.2499C27.999 17.6705 27.9435 18.0893 27.8325 18.4949ZM24.51 14.8049C24.1209 14.6024 23.6886 14.4969 23.25 14.4974H21.3825V12.5024H23.25C24.0064 12.5017 24.7521 12.6817 25.425 13.0274L24.51 14.8049Z" fill="#1A1A1A"/>
<path d="M19.875 12.5024H18V14.4974H19.875V12.5024Z" fill="#1A1A1A"/>
<path d="M24 46.25C25.2426 46.25 26.25 45.2426 26.25 44C26.25 42.7574 25.2426 41.75 24 41.75C22.7574 41.75 21.75 42.7574 21.75 44C21.75 45.2426 22.7574 46.25 24 46.25Z" fill="#1A1A1A"/>
<path d="M24 42.5C24.2967 42.5 24.5867 42.588 24.8334 42.7528C25.08 42.9176 25.2723 43.1519 25.3858 43.426C25.4994 43.7001 25.5291 44.0017 25.4712 44.2926C25.4133 44.5836 25.2704 44.8509 25.0607 45.0607C24.8509 45.2704 24.5836 45.4133 24.2926 45.4712C24.0017 45.5291 23.7001 45.4994 23.426 45.3858C23.1519 45.2723 22.9176 45.08 22.7528 44.8334C22.588 44.5867 22.5 44.2967 22.5 44C22.5 43.6022 22.658 43.2206 22.9393 42.9393C23.2206 42.658 23.6022 42.5 24 42.5ZM24 41C23.4067 41 22.8266 41.1759 22.3333 41.5056C21.8399 41.8352 21.4554 42.3038 21.2284 42.852C21.0013 43.4001 20.9419 44.0033 21.0576 44.5853C21.1734 45.1672 21.4591 45.7018 21.8787 46.1213C22.2982 46.5409 22.8328 46.8266 23.4147 46.9424C23.9967 47.0581 24.5999 46.9987 25.1481 46.7716C25.6962 46.5446 26.1648 46.1601 26.4944 45.6667C26.8241 45.1734 27 44.5933 27 44C27 43.2044 26.6839 42.4413 26.1213 41.8787C25.5587 41.3161 24.7957 41 24 41Z" fill="#1A1A1A"/>
</svg>
