<svg viewBox="0 0 48 48" fill="none" xmlns="http://www.w3.org/2000/svg">
<path d="M13.3075 29.5386L13.306 29.5368C7.7408 23.2594 7.40729 14.17 13.2605 8.3816C16.1051 5.57414 19.941 4 23.9377 4C27.9342 4 31.7699 5.574 34.6145 8.38123C40.459 14.1704 40.1338 23.2603 34.5694 29.5368L34.5689 29.5374C29.3027 35.486 26.132 39.534 23.9339 43.3819C21.7429 39.5075 18.555 35.4857 13.3075 29.5386Z" fill="#E9F1F6" stroke="black" stroke-width="2"/>
<path d="M21.785 8.23501C21.3169 7.7616 20.6799 7.49354 20.0142 7.48979C19.3484 7.48604 18.7084 7.74691 18.235 8.21501C17.7616 8.68312 17.4935 9.32012 17.4898 9.98587C17.486 10.6516 17.7469 11.2916 18.215 11.765C18.91 12.4855 19.5099 13.2921 20 14.165C20.4919 13.2932 21.0916 12.4869 21.785 11.765C22.2438 11.292 22.5004 10.659 22.5004 10C22.5004 9.34106 22.2438 8.70801 21.785 8.23501V8.23501ZM20 11C19.8022 11 19.6089 10.9414 19.4444 10.8315C19.28 10.7216 19.1518 10.5654 19.0761 10.3827C19.0004 10.2 18.9806 9.99891 19.0192 9.80492C19.0578 9.61094 19.1531 9.43276 19.2929 9.29291C19.4328 9.15306 19.6109 9.05781 19.8049 9.01923C19.9989 8.98064 20.2 9.00045 20.3827 9.07614C20.5654 9.15182 20.7216 9.28 20.8315 9.44444C20.9414 9.60889 21 9.80223 21 10C21 10.2652 20.8947 10.5196 20.7071 10.7071C20.5196 10.8947 20.2652 11 20 11V11Z" fill="#1A1A1A"/>
<path d="M31.785 20.735C31.3169 20.2616 30.6799 19.9935 30.0142 19.9898C29.3484 19.986 28.7084 20.2469 28.235 20.715C27.7616 21.1831 27.4935 21.8201 27.4898 22.4859C27.486 23.1516 27.7469 23.7916 28.215 24.265C28.91 24.9855 29.5099 25.7921 30 26.665C30.4919 25.7932 31.0916 24.9869 31.785 24.265C32.2438 23.792 32.5004 23.159 32.5004 22.5C32.5004 21.8411 32.2438 21.208 31.785 20.735V20.735ZM30 23.5C29.8022 23.5 29.6089 23.4414 29.4444 23.3315C29.28 23.2216 29.1518 23.0654 29.0761 22.8827C29.0004 22.7 28.9806 22.4989 29.0192 22.3049C29.0578 22.1109 29.1531 21.9328 29.2929 21.7929C29.4328 21.6531 29.6109 21.5578 29.8049 21.5192C29.9989 21.4806 30.2 21.5004 30.3827 21.5761C30.5654 21.6518 30.7216 21.78 30.8315 21.9444C30.9414 22.1089 31 22.3022 31 22.5C31 22.7652 30.8947 23.0196 30.7071 23.2071C30.5196 23.3947 30.2652 23.5 30 23.5Z" fill="#1A1A1A"/>
<path d="M30 26.835H28.75V28.165H30V26.835Z" fill="#1A1A1A"/>
<path d="M27.775 28.165H25.345V26.835H27.775V28.165ZM24.375 28.165H21.94V26.835H24.375V28.165ZM20.92 28.165C19.9598 28.0945 19.0495 27.7097 18.33 27.07L19.21 26.07C19.7084 26.51 20.337 26.7751 21 26.825L20.92 28.165ZM17.58 26.2C17.092 25.4763 16.8325 24.6228 16.835 23.75C16.835 23.66 16.835 23.575 16.835 23.485L18.16 23.565C18.16 23.625 18.16 23.69 18.16 23.75C18.1524 24.3571 18.3266 24.9526 18.66 25.46L17.58 26.2ZM18.32 22.785L17.055 22.365C17.3604 21.4521 17.9534 20.6627 18.745 20.115L19.5 21.21C18.9455 21.5923 18.5311 22.1454 18.32 22.785V22.785ZM20.21 20.845L19.76 19.595C20.2404 19.4194 20.7485 19.3313 21.26 19.335H22.405V20.665H21.245C20.8921 20.6641 20.5418 20.7251 20.21 20.845V20.845ZM23.5 20.665H23.36V19.335H23.5C23.7818 19.3365 24.0601 19.2722 24.3127 19.1472C24.5653 19.0222 24.7853 18.84 24.955 18.615L26 19.425C25.7071 19.8104 25.329 20.1228 24.8953 20.338C24.4616 20.5531 23.9841 20.665 23.5 20.665V20.665ZM26.555 18.33L25.27 18C25.3162 17.8374 25.3381 17.6689 25.335 17.5C25.3362 17.0633 25.18 16.6408 24.895 16.31L25.895 15.445C26.3893 16.0158 26.6625 16.7449 26.665 17.5C26.666 17.7803 26.629 18.0595 26.555 18.33ZM24.34 15.87C24.0806 15.735 23.7924 15.6646 23.5 15.665H22.255V14.335H23.5C24.0043 14.3344 24.5014 14.4544 24.95 14.685L24.34 15.87Z" fill="#1A1A1A"/>
<path d="M21.25 14.335H20V15.665H21.25V14.335Z" fill="#1A1A1A"/>
</svg>
