<svg viewBox="0 0 48 48" fill="none" xmlns="http://www.w3.org/2000/svg">
<path d="M13.3075 29.5386L13.306 29.5368C7.7408 23.2594 7.40729 14.17 13.2605 8.3816C16.1051 5.57414 19.941 4 23.9377 4C27.9342 4 31.7699 5.574 34.6145 8.38123C40.459 14.1704 40.1338 23.2603 34.5694 29.5368L34.5689 29.5374C29.3027 35.486 26.132 39.534 23.9339 43.3819C21.7429 39.5075 18.555 35.4857 13.3075 29.5386Z" fill="#E9F1F6" stroke="black" stroke-width="2"/>
<path d="M26.895 16.6699C26.4163 15.8616 26.1642 14.9393 26.165 13.9999V9.33491C26.1779 8.76799 25.9713 8.21801 25.5884 7.79972C25.2055 7.38143 24.6759 7.12714 24.11 7.08991C23.8155 7.07254 23.5206 7.11596 23.2437 7.21746C22.9667 7.31896 22.7136 7.47638 22.5 7.67991C22.2894 7.8835 22.1219 8.12745 22.0077 8.3972C21.8934 8.66695 21.8347 8.95696 21.835 9.24991V13.9999C21.8359 14.9393 21.5837 15.8616 21.105 16.6699H15.03L15.175 18.1299L16.175 28.1299L16.295 29.3299H31.705L31.825 28.1299L32.825 18.1299L32.97 16.6699H26.895ZM23.165 13.9999V9.24991C23.1656 9.13657 23.1891 9.02452 23.234 8.92049C23.279 8.81647 23.3446 8.72263 23.4268 8.64461C23.5091 8.5666 23.6062 8.50603 23.7124 8.46656C23.8187 8.42708 23.9318 8.40951 24.045 8.41491C24.2681 8.44113 24.4732 8.5503 24.6196 8.72073C24.7659 8.89116 24.8428 9.1104 24.835 9.33491V13.9999C24.833 14.9086 25.0203 15.8077 25.385 16.6399H22.615C22.9798 15.8077 23.1671 14.9086 23.165 13.9999V13.9999ZM17.5 27.9999L16.5 17.9999H18.73L19.185 27.9999H17.5ZM23.335 27.9999H20.5L20.045 17.9999H23.315L23.335 27.9999ZM27.42 27.9999H24.665V17.9999H27.875L27.42 27.9999ZM30.5 27.9999H28.75L29.205 17.9999H31.5L30.5 27.9999Z" fill="#1A1A1A"/>
<path d="M24 9.75C24.2761 9.75 24.5 9.52614 24.5 9.25C24.5 8.97386 24.2761 8.75 24 8.75C23.7239 8.75 23.5 8.97386 23.5 9.25C23.5 9.52614 23.7239 9.75 24 9.75Z" fill="#1A1A1A"/>
</svg>
