<svg viewBox="0 0 48 48" fill="none" xmlns="http://www.w3.org/2000/svg">
<path d="M13.3075 29.5386L13.306 29.5368C7.7408 23.2594 7.40729 14.17 13.2605 8.3816C16.1051 5.57414 19.941 4 23.9377 4C27.9342 4 31.7699 5.574 34.6145 8.38123C40.459 14.1704 40.1338 23.2603 34.5694 29.5368L34.5689 29.5374C29.3027 35.486 26.132 39.534 23.9339 43.3819C21.7429 39.5075 18.555 35.4857 13.3075 29.5386Z" fill="#E9F1F6" stroke="black" stroke-width="2"/>
<path d="M21.935 9.24453C21.7029 9.01012 21.4268 8.82372 21.1227 8.69598C20.8186 8.56824 20.4922 8.50166 20.1623 8.50003C19.4961 8.49675 18.8559 8.75826 18.3825 9.22703C17.9091 9.6958 17.6413 10.3334 17.638 10.9997C17.6347 11.6659 17.8962 12.3061 18.365 12.7795C19.0623 13.4981 19.6624 14.305 20.15 15.1795C20.6393 14.3061 21.2393 13.4995 21.935 12.7795C22.3929 12.3051 22.6489 11.6714 22.6489 11.012C22.6489 10.3526 22.3929 9.71896 21.935 9.24453V9.24453ZM20.15 12.0145C19.9522 12.0145 19.7588 11.9559 19.5944 11.846C19.4299 11.7361 19.3018 11.5799 19.2261 11.3972C19.1504 11.2145 19.1306 11.0134 19.1692 10.8194C19.2078 10.6255 19.303 10.4473 19.4429 10.3074C19.5827 10.1676 19.7609 10.0723 19.9549 10.0337C20.1489 9.99516 20.3499 10.015 20.5327 10.0906C20.7154 10.1663 20.8716 10.2945 20.9814 10.459C21.0913 10.6234 21.15 10.8167 21.15 11.0145C21.15 11.2797 21.0446 11.5341 20.8571 11.7216C20.6695 11.9092 20.4152 12.0145 20.15 12.0145V12.0145Z" fill="#1A1A1A"/>
<path d="M28.4 27.3444H27.435V26.0144H28.4C28.6568 26.0128 28.9111 25.9637 29.15 25.8694L29.65 27.1044C29.2525 27.2635 28.8282 27.3449 28.4 27.3444V27.3444ZM26.435 27.3444H24.435V26.0144H26.435V27.3444ZM23.435 27.3444H21.435V26.0144H23.435V27.3444ZM20.435 27.3444H19.4C19.001 27.3451 18.605 27.2757 18.23 27.1394L18.685 25.8894C18.9145 25.9713 19.1563 26.0136 19.4 26.0144H20.435V27.3444ZM17.15 26.5094C16.5158 25.9624 16.1062 25.2002 16 24.3694L17.335 24.1794C17.4008 24.6854 17.6498 25.1497 18.035 25.4844L17.15 26.5094ZM30.69 26.4494L29.79 25.4494C30.1684 25.1049 30.4068 24.6333 30.46 24.1244L31.78 24.2594C31.7059 25.0975 31.3227 25.8781 30.705 26.4494H30.69ZM17.355 23.4494L16.06 23.1394C16.2576 22.3294 16.7427 21.6186 17.425 21.1394L18.19 22.2294C17.7783 22.5237 17.487 22.9571 17.37 23.4494H17.355ZM31.8 23.2144H30.485V21.2144H31.815L31.8 23.2144ZM18.89 21.9094L18.565 20.6194C18.8379 20.5498 19.1184 20.5145 19.4 20.5144H20.72V21.8444H19.4C19.2279 21.8436 19.0564 21.8654 18.89 21.9094V21.9094ZM21.815 21.8144L21.65 20.4994C21.8834 20.4659 22.1065 20.3808 22.3028 20.2502C22.4992 20.1196 22.6639 19.9468 22.785 19.7444L23.9 20.4294C23.6774 20.8009 23.3747 21.118 23.014 21.3576C22.6533 21.5972 22.2437 21.7533 21.815 21.8144V21.8144ZM31.815 20.2144H30.485V18.2144H31.815V20.2144ZM24.315 19.2144L22.995 19.0844C22.995 19.0344 22.995 18.9844 22.995 18.9344C22.9921 18.7221 22.9464 18.5125 22.8604 18.3183C22.7745 18.1242 22.6502 17.9493 22.495 17.8044L23.43 16.8594C23.7062 17.1297 23.9254 17.4526 24.0748 17.809C24.2243 18.1653 24.3008 18.548 24.3 18.9344C24.3048 19.026 24.3048 19.1178 24.3 19.2094L24.315 19.2144ZM21.92 17.4294C21.7587 17.3754 21.5901 17.3467 21.42 17.3444H20.15V16.0144H21.4C21.725 16.0151 22.0476 16.0691 22.355 16.1744L21.92 17.4294ZM30.48 17.2644C30.4392 16.7552 30.2133 16.2785 29.845 15.9244L30.765 14.9694C31.373 15.5521 31.7436 16.3395 31.805 17.1794L30.48 17.2644ZM29.215 15.5094C28.9575 15.3992 28.6801 15.343 28.4 15.3444H27.505V14.0144H28.4C28.8587 14.0126 29.313 14.1045 29.735 14.2844L29.215 15.5094ZM26.505 15.3444H24.505V14.0144H26.505V15.3444ZM23.505 15.3444H22.15V14.0144H23.505V15.3444Z" fill="#1A1A1A"/>
</svg>
