<svg fill="none" viewBox="0 0 48 48" xmlns="http://www.w3.org/2000/svg">
<path d="M20.9025 4.86679C20.5543 4.51518 20.1403 4.23558 19.684 4.04397C19.2278 3.85236 18.7383 3.75248 18.2435 3.75005C17.2442 3.74512 16.2838 4.13739 15.5737 4.84054C14.8636 5.5437 14.4619 6.50014 14.457 7.49948C14.452 8.49881 14.8443 9.45917 15.5475 10.1693C16.5934 11.2472 17.4936 12.4575 18.225 13.7693C18.959 12.4592 19.8589 11.2492 20.9025 10.1693C21.5894 9.45764 21.9733 8.50714 21.9733 7.51804C21.9733 6.52894 21.5894 5.57844 20.9025 4.86679ZM18.225 9.02179C17.9283 9.02179 17.6383 8.93382 17.3916 8.769C17.1449 8.60417 16.9527 8.3699 16.8391 8.09582C16.7256 7.82173 16.6959 7.52013 16.7538 7.22916C16.8117 6.93818 16.9545 6.67091 17.1643 6.46113C17.3741 6.25135 17.6413 6.10849 17.9323 6.05061C18.2233 5.99274 18.5249 6.02244 18.799 6.13597C19.0731 6.2495 19.3073 6.44176 19.4722 6.68844C19.637 6.93511 19.725 7.22512 19.725 7.52179C19.725 7.91962 19.5669 8.30115 19.2856 8.58245C19.0043 8.86376 18.6228 9.02179 18.225 9.02179Z" fill="#1A1A1A"/>
<path d="M30.6 32.0168H29.1525V30.0218H30.6C30.9852 30.0193 31.3666 29.9456 31.725 29.8043L32.475 31.6568C31.8787 31.8953 31.2422 32.0175 30.6 32.0168ZM27.6525 32.0168H24.6525V30.0218H27.6525V32.0168ZM23.1525 32.0168H20.1525V30.0218H23.1525V32.0168ZM18.6525 32.0168H17.1C16.5015 32.0177 15.9075 31.9137 15.345 31.7093L16.0275 29.8343C16.3718 29.9571 16.7345 30.0205 17.1 30.0218H18.6525V32.0168ZM13.725 30.7643C12.7737 29.9437 12.1594 28.8004 12 27.5543L14.0025 27.2693C14.1012 28.0283 14.4748 28.7247 15.0525 29.2268L13.725 30.7643ZM34.035 30.6743L32.685 29.1743C33.2525 28.6575 33.6102 27.9501 33.69 27.1868L35.67 27.3893C35.5588 28.6464 34.984 29.8173 34.0575 30.6743H34.035ZM14.0325 26.1743L12.09 25.7093C12.3864 24.4942 13.114 23.4281 14.1375 22.7093L15.285 24.3443C14.6674 24.7857 14.2305 25.4357 14.055 26.1743H14.0325ZM35.7 25.8218H33.7275V22.8218H35.7225L35.7 25.8218ZM16.335 23.8643L15.8475 21.9293C16.2568 21.8248 16.6776 21.7719 17.1 21.7718H19.08V23.7668H17.1C16.8418 23.7655 16.5846 23.7982 16.335 23.8643ZM20.7225 23.7218L20.475 21.7493C20.8252 21.699 21.1597 21.5713 21.4542 21.3754C21.7487 21.1795 21.9958 20.9203 22.1775 20.6168L23.85 21.6443C23.5161 22.2014 23.0621 22.6771 22.521 23.0365C21.98 23.3959 21.3655 23.63 20.7225 23.7218ZM35.7225 21.3218H33.7275V18.3218H35.7225V21.3218ZM24.4725 19.8218L22.4925 19.6268C22.4925 19.5518 22.4925 19.4768 22.4925 19.4018C22.4882 19.0833 22.4196 18.7689 22.2907 18.4776C22.1618 18.1864 21.9753 17.9241 21.7425 17.7068L23.145 16.2893C23.5592 16.6947 23.8881 17.179 24.1122 17.7136C24.3364 18.2481 24.4512 18.8221 24.45 19.4018C24.4572 19.5392 24.4572 19.6769 24.45 19.8143L24.4725 19.8218ZM20.88 17.1443C20.6381 17.0633 20.3851 17.0202 20.13 17.0168H18.225V15.0218H20.1C20.5874 15.0227 21.0714 15.1038 21.5325 15.2618L20.88 17.1443ZM33.72 16.8968C33.6588 16.1329 33.32 15.4178 32.7675 14.8868L34.1475 13.4543C35.0596 14.3283 35.6153 15.5094 35.7075 16.7693L33.72 16.8968ZM31.8225 14.2643C31.4362 14.0989 31.0201 14.0147 30.6 14.0168H29.2575V12.0218H30.6C31.2881 12.0191 31.9695 12.1569 32.6025 12.4268L31.8225 14.2643ZM27.7575 14.0168H24.7575V12.0218H27.7575V14.0168ZM23.2575 14.0168H21.225V12.0218H23.2575V14.0168Z" fill="#1A1A1A"/>
<path d="M24 46.25C25.2426 46.25 26.25 45.2426 26.25 44C26.25 42.7574 25.2426 41.75 24 41.75C22.7574 41.75 21.75 42.7574 21.75 44C21.75 45.2426 22.7574 46.25 24 46.25Z" fill="#1A1A1A"/>
<path d="M24 42.5C24.2967 42.5 24.5867 42.588 24.8334 42.7528C25.08 42.9176 25.2723 43.1519 25.3858 43.426C25.4994 43.7001 25.5291 44.0017 25.4712 44.2926C25.4133 44.5836 25.2704 44.8509 25.0607 45.0607C24.8509 45.2704 24.5836 45.4133 24.2926 45.4712C24.0017 45.5291 23.7001 45.4994 23.426 45.3858C23.1519 45.2723 22.9176 45.08 22.7528 44.8334C22.588 44.5867 22.5 44.2967 22.5 44C22.5 43.6022 22.658 43.2206 22.9393 42.9393C23.2206 42.658 23.6022 42.5 24 42.5ZM24 41C23.4067 41 22.8266 41.1759 22.3333 41.5056C21.8399 41.8352 21.4554 42.3038 21.2284 42.852C21.0013 43.4001 20.9419 44.0033 21.0576 44.5853C21.1734 45.1672 21.4591 45.7018 21.8787 46.1213C22.2982 46.5409 22.8328 46.8266 23.4147 46.9424C23.9967 47.0581 24.5999 46.9987 25.1481 46.7716C25.6962 46.5446 26.1648 46.1601 26.4944 45.6667C26.8241 45.1734 27 44.5933 27 44C27 43.2044 26.6839 42.4413 26.1213 41.8787C25.5587 41.3161 24.7957 41 24 41Z" fill="#1A1A1A"/>
</svg>
