<svg viewBox="0 0 48 48" fill="none" xmlns="http://www.w3.org/2000/svg">
<path d="M13.3075 29.5386L13.306 29.5368C7.7408 23.2594 7.40729 14.17 13.2605 8.3816C16.1051 5.57414 19.941 4 23.9377 4C27.9342 4 31.7699 5.574 34.6145 8.38123C40.459 14.1704 40.1338 23.2603 34.5694 29.5368L34.5689 29.5374C29.3027 35.486 26.132 39.534 23.9339 43.3819C21.7429 39.5075 18.555 35.4857 13.3075 29.5386Z" fill="#E9F1F6" stroke="black" stroke-width="2"/>
<path d="M33 24H15.5V25.5H33V24Z" fill="#1A1A1A"/>
<path d="M15.5 10.5V25H23V10.5H15.5ZM21.5 16H17V11.5H21.5V16Z" fill="#1A1A1A"/>
<path d="M29.25 22.6651C28.2121 22.6638 27.2171 22.2509 26.4831 21.5169C25.7492 20.783 25.3363 19.788 25.335 18.7501V18.5001C25.335 18.1934 25.2746 17.8898 25.1573 17.6065C25.0399 17.3232 24.8679 17.0658 24.6511 16.849C24.4343 16.6322 24.1769 16.4602 23.8936 16.3428C23.6103 16.2255 23.3066 16.1651 23 16.1651V14.8351C23.9716 14.8364 24.9031 15.223 25.5901 15.91C26.2771 16.597 26.6637 17.5285 26.665 18.5001V18.7501C26.665 19.4357 26.9373 20.0932 27.4221 20.5779C27.9069 21.0627 28.5644 21.3351 29.25 21.3351C29.9356 21.3351 30.5931 21.0627 31.0779 20.5779C31.5627 20.0932 31.835 19.4357 31.835 18.7501V14.6551L30.405 11.7951L31.595 11.2051L33.165 14.3451V18.7501C33.1637 19.788 32.7508 20.783 32.0169 21.5169C31.2829 22.2509 30.2879 22.6638 29.25 22.6651Z" fill="#1A1A1A"/>
<path d="M32 13H31V15.5H32V13Z" fill="#1A1A1A"/>
</svg>
