<svg fill="none" viewBox="0 0 48 48" xmlns="http://www.w3.org/2000/svg">
<path d="M37.5 27H11.25V29.25H37.5V27Z" fill="#1A1A1A"/>
<path d="M11.25 6.75V28.5H22.5V6.75H11.25ZM20.25 15H13.5V8.25H20.25V15Z" fill="#1A1A1A"/>
<path d="M31.875 24.9976C30.3181 24.9956 28.8256 24.3763 27.7247 23.2754C26.6238 22.1745 26.0045 20.682 26.0025 19.1251V18.7501C26.0025 18.2902 25.9119 17.8347 25.7359 17.4098C25.5599 16.9848 25.3019 16.5987 24.9766 16.2735C24.6514 15.9482 24.2653 15.6902 23.8403 15.5142C23.4154 15.3382 22.96 15.2476 22.5 15.2476V13.2526C23.9574 13.2546 25.3546 13.8344 26.3851 14.865C27.4157 15.8955 27.9955 17.2927 27.9975 18.7501V19.1251C27.9975 20.1535 28.406 21.1398 29.1332 21.8669C29.8604 22.5941 30.8466 23.0026 31.875 23.0026C32.9034 23.0026 33.8896 22.5941 34.6168 21.8669C35.344 21.1398 35.7525 20.1535 35.7525 19.1251V12.9826L33.6075 8.69262L35.3925 7.80762L37.7475 12.5176V19.1251C37.7455 20.682 37.1262 22.1745 36.0253 23.2754C34.9244 24.3763 33.4319 24.9956 31.875 24.9976Z" fill="#1A1A1A"/>
<path d="M36 10.5H34.5V14.25H36V10.5Z" fill="#1A1A1A"/>
<path d="M24 46.25C25.2426 46.25 26.25 45.2426 26.25 44C26.25 42.7574 25.2426 41.75 24 41.75C22.7574 41.75 21.75 42.7574 21.75 44C21.75 45.2426 22.7574 46.25 24 46.25Z" fill="#1A1A1A"/>
<path d="M24 42.5C24.2967 42.5 24.5867 42.588 24.8334 42.7528C25.08 42.9176 25.2723 43.1519 25.3858 43.426C25.4994 43.7001 25.5291 44.0017 25.4712 44.2926C25.4133 44.5836 25.2704 44.8509 25.0607 45.0607C24.8509 45.2704 24.5836 45.4133 24.2926 45.4712C24.0017 45.5291 23.7001 45.4994 23.426 45.3858C23.1519 45.2723 22.9176 45.08 22.7528 44.8334C22.588 44.5867 22.5 44.2967 22.5 44C22.5 43.6022 22.658 43.2206 22.9393 42.9393C23.2206 42.658 23.6022 42.5 24 42.5ZM24 41C23.4067 41 22.8266 41.1759 22.3333 41.5056C21.8399 41.8352 21.4554 42.3038 21.2284 42.852C21.0013 43.4001 20.9419 44.0033 21.0576 44.5853C21.1734 45.1672 21.4591 45.7018 21.8787 46.1213C22.2982 46.5409 22.8328 46.8266 23.4147 46.9424C23.9967 47.0581 24.5999 46.9987 25.1481 46.7716C25.6962 46.5446 26.1648 46.1601 26.4944 45.6667C26.8241 45.1734 27 44.5933 27 44C27 43.2044 26.6839 42.4413 26.1213 41.8787C25.5587 41.3161 24.7957 41 24 41Z" fill="#1A1A1A"/>
</svg>
