<svg viewBox="0 0 48 48" fill="none" xmlns="http://www.w3.org/2000/svg">
<path d="M13.3075 29.5386L13.306 29.5368C7.7408 23.2594 7.40729 14.17 13.2605 8.3816C16.1051 5.57414 19.941 4 23.9377 4C27.9342 4 31.7699 5.574 34.6145 8.38123C40.459 14.1704 40.1338 23.2603 34.5694 29.5368L34.5689 29.5374C29.3027 35.486 26.132 39.534 23.9339 43.3819C21.7429 39.5075 18.555 35.4857 13.3075 29.5386Z" fill="#E9F1F6" stroke="black" stroke-width="2"/>
<path d="M34.5 27.0599C33.605 27.0616 32.7315 26.7855 32 26.2699C31.2678 26.7841 30.3948 27.06 29.5 27.06C28.6052 27.06 27.7322 26.7841 27 26.2699C26.2678 26.7841 25.3948 27.06 24.5 27.06C23.6052 27.06 22.7322 26.7841 22 26.2699C21.2678 26.7841 20.3948 27.06 19.5 27.06C18.6052 27.06 17.7322 26.7841 17 26.2699C16.2685 26.7855 15.395 27.0616 14.5 27.0599V25.8099C15.2695 25.8056 16.0103 25.5171 16.58 24.9999L17 24.6199L17.42 24.9999C17.9905 25.5146 18.7316 25.7995 19.5 25.7995C20.2684 25.7995 21.0095 25.5146 21.58 24.9999L22 24.6199L22.42 24.9999C22.9905 25.5146 23.7316 25.7995 24.5 25.7995C25.2684 25.7995 26.0095 25.5146 26.58 24.9999L27 24.6199L27.42 24.9999C27.9905 25.5146 28.7316 25.7995 29.5 25.7995C30.2684 25.7995 31.0095 25.5146 31.58 24.9999L32 24.6199L32.42 24.9999C32.9897 25.5171 33.7305 25.8056 34.5 25.8099V27.0599Z" fill="#1A1A1A"/>
<path d="M26.8401 14.7849L31.5001 10.1299L30.5601 9.18988L25.9051 13.8399C23.3001 11.3811 20.0293 9.74313 16.5001 9.12988C17.0878 12.5167 18.6219 15.6681 20.9251 18.2199C20.7821 18.1896 20.6362 18.1745 20.4901 18.1749C20.2365 18.174 19.9852 18.2235 19.7509 18.3205C19.5166 18.4174 19.3038 18.56 19.1251 18.7399L16.7901 21.0749C16.4292 21.4375 16.2266 21.9283 16.2266 22.4399C16.2266 22.9515 16.4292 23.4423 16.7901 23.8049L16.8801 23.8949C17.2429 24.2573 17.7347 24.4609 18.2476 24.4609C18.7604 24.4609 19.2522 24.2573 19.6151 23.8949L21.9451 21.5649C22.1777 21.3279 22.3458 21.0353 22.4333 20.715C22.5208 20.3946 22.5249 20.0572 22.4451 19.7349C24.9798 21.9761 28.0867 23.4699 31.4201 24.0499C30.8159 20.5855 29.2257 17.3687 26.8401 14.7849V14.7849ZM21.0001 20.6249L18.6651 22.9549C18.6092 23.0106 18.5429 23.0547 18.47 23.0847C18.3971 23.1147 18.3189 23.1301 18.2401 23.1299C18.0812 23.1282 17.9291 23.0655 17.8151 22.9549L17.7251 22.8649C17.6691 22.8091 17.6247 22.7429 17.5945 22.67C17.5642 22.597 17.5486 22.5189 17.5486 22.4399C17.5486 22.3609 17.5642 22.2827 17.5945 22.2098C17.6247 22.1369 17.6691 22.0706 17.7251 22.0149L20.0601 19.6799C20.1173 19.6215 20.1858 19.5754 20.2615 19.5444C20.3371 19.5135 20.4183 19.4983 20.5001 19.4999C20.6589 19.5016 20.8111 19.5643 20.9251 19.6749L21.0151 19.7649C21.0709 19.8221 21.1149 19.8899 21.1444 19.9642C21.1739 20.0386 21.1884 20.118 21.187 20.198C21.1856 20.278 21.1684 20.3569 21.1363 20.4302C21.1042 20.5034 21.0579 20.5696 21.0001 20.6249ZM22.5451 17.9999C22.4101 17.8649 22.2801 17.7299 22.1551 17.5899C20.3699 15.6941 19.0472 13.4114 18.2901 10.9199C20.7815 11.677 23.0643 12.9998 24.9601 14.7849C25.1001 14.9099 25.2351 15.0399 25.3701 15.1749C25.5051 15.3099 25.7301 15.5399 25.9001 15.7299C27.6131 17.5901 28.8861 19.8115 29.6251 22.2299C27.2055 21.4912 24.9837 20.2162 23.1251 18.4999C22.9101 18.3599 22.7251 18.1799 22.5451 17.9999Z" fill="#1A1A1A"/>
</svg>
