<svg fill="none" viewBox="0 0 48 48" xmlns="http://www.w3.org/2000/svg">
<path d="M39.75 31.5902C38.4075 31.5927 37.0973 31.1787 36 30.4052C34.9016 31.1765 33.5921 31.5904 32.25 31.5904C30.9079 31.5904 29.5984 31.1765 28.5 30.4052C27.4016 31.1765 26.0921 31.5904 24.75 31.5904C23.4079 31.5904 22.0984 31.1765 21 30.4052C19.9016 31.1765 18.5921 31.5904 17.25 31.5904C15.9079 31.5904 14.5984 31.1765 13.5 30.4052C12.4027 31.1787 11.0925 31.5927 9.75 31.5902V29.7152C10.9042 29.7088 12.0154 29.2761 12.87 28.5002L13.5 27.9302L14.13 28.5002C14.9858 29.2723 16.0974 29.6997 17.25 29.6997C18.4026 29.6997 19.5142 29.2723 20.37 28.5002L21 27.9302L21.63 28.5002C22.4858 29.2723 23.5974 29.6997 24.75 29.6997C25.9026 29.6997 27.0142 29.2723 27.87 28.5002L28.5 27.9302L29.13 28.5002C29.9858 29.2723 31.0974 29.6997 32.25 29.6997C33.4026 29.6997 34.5142 29.2723 35.37 28.5002L36 27.9302L36.63 28.5002C37.4846 29.2761 38.5958 29.7088 39.75 29.7152V31.5902Z" fill="#1A1A1A"/>
<path d="M28.2601 13.1776L35.2501 6.19507L33.8401 4.78507L26.8576 11.7601C22.9501 8.07195 18.0439 5.61494 12.7501 4.69507C13.6317 9.77532 15.9329 14.5024 19.3876 18.3301C19.1731 18.2846 18.9544 18.262 18.7351 18.2626C18.3547 18.2612 17.9778 18.3354 17.6263 18.4809C17.2749 18.6264 16.9558 18.8403 16.6876 19.1101L13.1851 22.6126C12.6438 23.1565 12.3398 23.8927 12.3398 24.6601C12.3398 25.4275 12.6438 26.1636 13.1851 26.7076L13.3201 26.8426C13.8643 27.3862 14.6021 27.6916 15.3713 27.6916C16.1406 27.6916 16.8784 27.3862 17.4226 26.8426L20.9176 23.3476C21.2665 22.9921 21.5187 22.5532 21.65 22.0727C21.7812 21.5922 21.7873 21.0861 21.6676 20.6026C25.4696 23.9644 30.1301 26.205 35.1301 27.0751C34.2238 21.8784 31.8385 17.0533 28.2601 13.1776ZM19.5001 21.9376L15.9976 25.4326C15.9138 25.5161 15.8144 25.5822 15.705 25.6273C15.5956 25.6723 15.4784 25.6954 15.3601 25.6951C15.1218 25.6925 14.8936 25.5985 14.7226 25.4326L14.5876 25.2976C14.5037 25.214 14.4371 25.1146 14.3917 25.0052C14.3463 24.8958 14.3229 24.7785 14.3229 24.6601C14.3229 24.5416 14.3463 24.4243 14.3917 24.3149C14.4371 24.2055 14.5037 24.1062 14.5876 24.0226L18.0901 20.5201C18.1759 20.4325 18.2787 20.3633 18.3922 20.3169C18.5057 20.2705 18.6275 20.2477 18.7501 20.2501C18.9884 20.2527 19.2166 20.3466 19.3876 20.5126L19.5226 20.6476C19.6064 20.7334 19.6724 20.8351 19.7166 20.9466C19.7609 21.0581 19.7826 21.1773 19.7805 21.2973C19.7784 21.4172 19.7526 21.5356 19.7044 21.6455C19.6563 21.7554 19.5869 21.8547 19.5001 21.9376ZM21.8176 18.0001C21.6151 17.7976 21.4201 17.5951 21.2326 17.3851C18.5549 14.5414 16.5708 11.1173 15.4351 7.38007C19.1723 8.51573 22.5964 10.4999 25.4401 13.1776C25.6501 13.3651 25.8526 13.5601 26.0551 13.7626C26.2576 13.9651 26.5951 14.3101 26.8501 14.5951C29.4196 17.3854 31.3292 20.7175 32.4376 24.3451C28.8082 23.237 25.4755 21.3246 22.6876 18.7501C22.3651 18.5401 22.0876 18.2701 21.8176 18.0001Z" fill="#1A1A1A"/>
<path d="M24 46.25C25.2426 46.25 26.25 45.2426 26.25 44C26.25 42.7574 25.2426 41.75 24 41.75C22.7574 41.75 21.75 42.7574 21.75 44C21.75 45.2426 22.7574 46.25 24 46.25Z" fill="#1A1A1A"/>
<path d="M24 42.5C24.2967 42.5 24.5867 42.588 24.8334 42.7528C25.08 42.9176 25.2723 43.1519 25.3858 43.426C25.4994 43.7001 25.5291 44.0017 25.4712 44.2926C25.4133 44.5836 25.2704 44.8509 25.0607 45.0607C24.8509 45.2704 24.5836 45.4133 24.2926 45.4712C24.0017 45.5291 23.7001 45.4994 23.426 45.3858C23.1519 45.2723 22.9176 45.08 22.7528 44.8334C22.588 44.5867 22.5 44.2967 22.5 44C22.5 43.6022 22.658 43.2206 22.9393 42.9393C23.2206 42.658 23.6022 42.5 24 42.5ZM24 41C23.4067 41 22.8266 41.1759 22.3333 41.5056C21.8399 41.8352 21.4554 42.3038 21.2284 42.852C21.0013 43.4001 20.9419 44.0033 21.0576 44.5853C21.1734 45.1672 21.4591 45.7018 21.8787 46.1213C22.2982 46.5409 22.8328 46.8266 23.4147 46.9424C23.9967 47.0581 24.5999 46.9987 25.1481 46.7716C25.6962 46.5446 26.1648 46.1601 26.4944 45.6667C26.8241 45.1734 27 44.5933 27 44C27 43.2044 26.6839 42.4413 26.1213 41.8787C25.5587 41.3161 24.7957 41 24 41Z" fill="#1A1A1A"/>
</svg>
