<svg viewBox="0 0 48 48" fill="none" xmlns="http://www.w3.org/2000/svg">
<path d="M13.3075 29.5386L13.306 29.5368C7.7408 23.2594 7.40729 14.17 13.2605 8.3816C16.1051 5.57414 19.941 4 23.9377 4C27.9342 4 31.7699 5.574 34.6145 8.38123C40.459 14.1704 40.1338 23.2603 34.5694 29.5368L34.5689 29.5374C29.3027 35.486 26.132 39.534 23.9339 43.3819C21.7429 39.5075 18.555 35.4857 13.3075 29.5386Z" fill="#E9F1F6" stroke="black" stroke-width="2"/>
<path d="M32.025 21.695L31.025 15.04C30.9021 14.1937 30.4779 13.4202 29.8303 12.8617C29.1827 12.3032 28.3552 11.9972 27.5 12H20.5C19.644 11.996 18.8153 12.3014 18.1666 12.86C17.5179 13.4187 17.093 14.1929 16.97 15.04L16 21.695C15.4408 22.1663 14.7313 22.4217 14 22.415V23.665C14.5975 23.6663 15.1886 23.5419 15.735 23.3C16.0045 23.1862 16.261 23.0437 16.5 22.875C16.7598 23.0557 17.038 23.2082 17.33 23.33C17.859 23.5512 18.4266 23.665 19 23.665C19.5734 23.665 20.141 23.5512 20.67 23.33C20.962 23.2082 21.2402 23.0557 21.5 22.875C21.7598 23.0557 22.038 23.2082 22.33 23.33C22.859 23.5512 23.4266 23.665 24 23.665C24.5734 23.665 25.141 23.5512 25.67 23.33C25.962 23.2082 26.2402 23.0557 26.5 22.875C26.7598 23.0557 27.038 23.2082 27.33 23.33C27.859 23.5512 28.4266 23.665 29 23.665C29.5734 23.665 30.141 23.5512 30.67 23.33C30.962 23.2082 31.2402 23.0557 31.5 22.875C31.739 23.0437 31.9955 23.1862 32.265 23.3C32.8114 23.5419 33.4025 23.6663 34 23.665V22.415C33.2773 22.4158 32.5777 22.1607 32.025 21.695ZM30.525 22C30.0573 22.2718 29.526 22.415 28.985 22.415C28.444 22.415 27.9127 22.2718 27.445 22C27.2509 21.8907 27.0698 21.7599 26.905 21.61L26.5 21.235L26.08 21.61C25.9152 21.7599 25.7341 21.8907 25.54 22C25.0723 22.2718 24.541 22.415 24 22.415C23.459 22.415 22.9277 22.2718 22.46 22C22.2659 21.8907 22.0848 21.7599 21.92 21.61L21.5 21.235L21.08 21.61C20.9152 21.7599 20.7341 21.8907 20.54 22C20.0723 22.2718 19.541 22.415 19 22.415C18.459 22.415 17.9277 22.2718 17.46 22C17.3988 21.9682 17.3403 21.9314 17.285 21.89L18.285 15.235C18.3622 14.7037 18.629 14.2182 19.036 13.8681C19.4431 13.518 19.9631 13.3269 20.5 13.33H27.5C28.0369 13.3269 28.5569 13.518 28.964 13.8681C29.371 14.2182 29.6378 14.7037 29.715 15.235L30.715 21.89C30.6597 21.9314 30.6012 21.9682 30.54 22H30.525Z" fill="#1A1A1A"/>
<path d="M18.9449 16.3601H21.7099V17.0001H20.7099V19.8051H19.9549V17.0001H18.9549L18.9449 16.3601Z" fill="black"/>
<path d="M23.7051 19.0301H22.4251L22.1601 19.8201H21.4301L22.6351 16.3601H23.5251L24.7301 19.8201H23.9701L23.7051 19.0301ZM22.6251 18.4251H23.5001L23.2051 17.5001C23.1401 17.3051 23.0751 17.0451 23.0751 17.0451C23.0751 17.0451 23.0101 17.3051 22.9451 17.5001L22.6251 18.4251Z" fill="black"/>
<path d="M26.3401 18.4501C26.3401 18.4501 26.2151 18.7001 26.1051 18.9051L25.6051 19.8201H24.8051L25.8051 18.0501L24.8701 16.3601H25.6851L26.1101 17.1701C26.2251 17.3901 26.3351 17.6401 26.3351 17.6401C26.3351 17.6401 26.4551 17.3851 26.5701 17.1701L27.0001 16.3601H27.7701L26.8501 18.0251L27.8501 19.8201H27.0751L26.5751 18.9051C26.4651 18.7001 26.3401 18.4501 26.3401 18.4501Z" fill="black"/>
<path d="M28.255 16.3601H29V19.8201H28.255V16.3601Z" fill="black"/>
</svg>
