<svg fill="none" viewBox="0 0 48 48" xmlns="http://www.w3.org/2000/svg">
<path d="M36.0375 23.5426L34.5375 13.5601C34.3532 12.2906 33.7169 11.1303 32.7454 10.2925C31.774 9.45473 30.5328 8.99579 29.25 9.00006H18.75C17.4659 8.99398 16.2229 9.4521 15.2499 10.29C14.2769 11.128 13.6395 12.2893 13.455 13.5601L12 23.5426C11.1612 24.2495 10.0969 24.6326 9 24.6226V26.4976C9.89627 26.4994 10.7829 26.3128 11.6025 25.9501C12.0067 25.7793 12.3914 25.5655 12.75 25.3126C13.1397 25.5835 13.557 25.8123 13.995 25.9951C14.7885 26.3268 15.64 26.4976 16.5 26.4976C17.36 26.4976 18.2115 26.3268 19.005 25.9951C19.443 25.8123 19.8603 25.5835 20.25 25.3126C20.6397 25.5835 21.057 25.8123 21.495 25.9951C22.2885 26.3268 23.14 26.4976 24 26.4976C24.86 26.4976 25.7115 26.3268 26.505 25.9951C26.943 25.8123 27.3603 25.5835 27.75 25.3126C28.1397 25.5835 28.557 25.8123 28.995 25.9951C29.7885 26.3268 30.64 26.4976 31.5 26.4976C32.36 26.4976 33.2115 26.3268 34.005 25.9951C34.443 25.8123 34.8603 25.5835 35.25 25.3126C35.6086 25.5655 35.9933 25.7793 36.3975 25.9501C37.2171 26.3128 38.1037 26.4994 39 26.4976V24.6226C37.9159 24.6237 36.8665 24.2411 36.0375 23.5426ZM33.7875 24.0001C33.0859 24.4078 32.2889 24.6225 31.4775 24.6225C30.6661 24.6225 29.8691 24.4078 29.1675 24.0001C28.8764 23.8361 28.6047 23.6398 28.3575 23.4151L27.75 22.8526L27.12 23.4151C26.8728 23.6398 26.6011 23.8361 26.31 24.0001C25.6084 24.4078 24.8114 24.6225 24 24.6225C23.1886 24.6225 22.3916 24.4078 21.69 24.0001C21.3989 23.8361 21.1272 23.6398 20.88 23.4151L20.25 22.8526L19.62 23.4151C19.3728 23.6398 19.1011 23.8361 18.81 24.0001C18.1084 24.4078 17.3114 24.6225 16.5 24.6225C15.6886 24.6225 14.8916 24.4078 14.19 24.0001C14.0982 23.9522 14.0104 23.897 13.9275 23.8351L15.4275 13.8526C15.5433 13.0555 15.9434 12.3273 16.5541 11.8021C17.1647 11.277 17.9446 10.9903 18.75 10.9951H29.25C30.0554 10.9903 30.8353 11.277 31.4459 11.8021C32.0566 12.3273 32.4567 13.0555 32.5725 13.8526L34.0725 23.8351C33.9896 23.897 33.9018 23.9522 33.81 24.0001H33.7875Z" fill="#1A1A1A"/>
<path d="M16.4175 15.54H20.565V16.5H19.065V20.7075H17.9325V16.5H16.4325L16.4175 15.54Z" fill="black"/>
<path d="M23.5575 19.545H21.6375L21.24 20.73H20.145L21.9525 15.54H23.2875L25.095 20.73H23.955L23.5575 19.545ZM21.9375 18.6375H23.25L22.8075 17.25C22.71 16.9575 22.6125 16.5675 22.6125 16.5675C22.6125 16.5675 22.515 16.9575 22.4175 17.25L21.9375 18.6375Z" fill="black"/>
<path d="M27.51 18.675C27.51 18.675 27.3225 19.05 27.1575 19.3575L26.4075 20.73H25.2075L26.7075 18.075L25.305 15.54H26.5275L27.165 16.755C27.3375 17.085 27.5025 17.46 27.5025 17.46C27.5025 17.46 27.6825 17.0775 27.855 16.755L28.5 15.54H29.655L28.275 18.0375L29.775 20.73H28.6125L27.8625 19.3575C27.6975 19.05 27.51 18.675 27.51 18.675Z" fill="black"/>
<path d="M30.3824 15.54H31.4999V20.73H30.3824V15.54Z" fill="black"/>
<path d="M24 46.25C25.2426 46.25 26.25 45.2426 26.25 44C26.25 42.7574 25.2426 41.75 24 41.75C22.7574 41.75 21.75 42.7574 21.75 44C21.75 45.2426 22.7574 46.25 24 46.25Z" fill="#1A1A1A"/>
<path d="M24 42.5C24.2967 42.5 24.5867 42.588 24.8334 42.7528C25.08 42.9176 25.2723 43.1519 25.3858 43.426C25.4994 43.7001 25.5291 44.0017 25.4712 44.2926C25.4133 44.5836 25.2704 44.8509 25.0607 45.0607C24.8509 45.2704 24.5836 45.4133 24.2926 45.4712C24.0017 45.5291 23.7001 45.4994 23.426 45.3858C23.1519 45.2723 22.9176 45.08 22.7528 44.8334C22.588 44.5867 22.5 44.2967 22.5 44C22.5 43.6022 22.658 43.2206 22.9393 42.9393C23.2206 42.658 23.6022 42.5 24 42.5ZM24 41C23.4067 41 22.8266 41.1759 22.3333 41.5056C21.8399 41.8352 21.4554 42.3038 21.2284 42.852C21.0013 43.4001 20.9419 44.0033 21.0576 44.5853C21.1734 45.1672 21.4591 45.7018 21.8787 46.1213C22.2982 46.5409 22.8328 46.8266 23.4147 46.9424C23.9967 47.0581 24.5999 46.9987 25.1481 46.7716C25.6962 46.5446 26.1648 46.1601 26.4944 45.6667C26.8241 45.1734 27 44.5933 27 44C27 43.2044 26.6839 42.4413 26.1213 41.8787C25.5587 41.3161 24.7957 41 24 41Z" fill="#1A1A1A"/>
</svg>
