<svg viewBox="0 0 48 48" fill="none" xmlns="http://www.w3.org/2000/svg">
<path d="M13.3075 29.5386L13.306 29.5368C7.7408 23.2594 7.40729 14.17 13.2605 8.3816C16.1051 5.57414 19.941 4 23.9377 4C27.9342 4 31.7699 5.574 34.6145 8.38123C40.459 14.1704 40.1338 23.2603 34.5694 29.5368L34.5689 29.5374C29.3027 35.486 26.132 39.534 23.9339 43.3819C21.7429 39.5075 18.555 35.4857 13.3075 29.5386Z" fill="#E9F1F6" stroke="black" stroke-width="2"/>
<path d="M14.63 23.6201C15.6392 25.1698 17.0192 26.4431 18.6449 27.3244C20.2707 28.2058 22.0907 28.6674 23.94 28.6674C25.7893 28.6674 27.6093 28.2058 29.2351 27.3244C30.8608 26.4431 32.2409 25.1698 33.25 23.6201H14.63Z" fill="#1A1A1A"/>
<path d="M23.9399 8V22.09H33.2499L23.9399 8Z" fill="#1A1A1A"/>
</svg>
