<svg fill="none" viewBox="0 0 48 48" xmlns="http://www.w3.org/2000/svg">
<path d="M14.63 23.25C15.6392 24.7997 17.0192 26.0729 18.6449 26.9543C20.2707 27.8357 22.0907 28.2973 23.94 28.2973C25.7893 28.2973 27.6093 27.8357 29.2351 26.9543C30.8608 26.0729 32.2409 24.7997 33.25 23.25H14.63Z" fill="#1A1A1A"/>
<path d="M35.32 6.66999C32.2882 3.67759 28.1998 1.99976 23.94 1.99976C19.6802 1.99976 15.5918 3.67759 12.56 6.66999C6.27 12.89 6.7 22.59 12.56 29.2C18.56 36 21.79 40.2 23.93 44.5C26.09 40.24 29.3 36 35.32 29.2C41.18 22.59 41.6 12.89 35.32 6.66999ZM32.93 27.09C29.6968 30.6193 26.6908 34.3501 23.93 38.26C21.1659 34.3526 18.16 30.622 14.93 27.09C12.6026 24.5257 11.2721 21.2117 11.18 17.75C11.1416 16.1095 11.4434 14.4789 12.0664 12.9609C12.6894 11.4429 13.6202 10.0704 14.8 8.92999C17.2332 6.52693 20.5152 5.17941 23.935 5.17941C27.3548 5.17941 30.6368 6.52693 33.07 8.92999C34.248 10.0713 35.1769 11.4442 35.7982 12.9621C36.4195 14.4801 36.7197 16.1103 36.68 17.75C36.5923 21.2127 35.2612 24.5281 32.93 27.09Z" fill="#1A1A1A"/>
<path d="M23.9399 7.62988V21.7199H33.2499L23.9399 7.62988Z" fill="#1A1A1A"/>
</svg>
