<svg width="48" height="48" viewBox="0 0 48 48" fill="none" xmlns="http://www.w3.org/2000/svg">
<path d="M41.4 31.3L38.7 24H3L8.3 32C8.1 32.1 8 32.2 7.8 32.3C6.8 33 5.9 33.5 4.5 33.5V36.2C6.7 36.2 8.1 35.3 9.3 34.6C10.3 33.9 11.1 33.4 12.5 33.4C13.9 33.4 14.7 33.9 15.7 34.6C16.9 35.4 18.2 36.2 20.5 36.2C22.7 36.2 24.1 35.3 25.3 34.6C26.3 33.9 27.1 33.4 28.5 33.4C29.9 33.4 30.7 33.9 31.7 34.6C32.9 35.4 34.2 36.2 36.5 36.2C38.7 36.2 40.1 35.3 41.3 34.6C42.3 33.9 43.1 33.4 44.5 33.4V30.7C43.1 30.6 42.2 30.9 41.4 31.3ZM33 32.3C31.8 31.5 30.5 30.7 28.4 30.7C26.2 30.7 24.9 31.6 23.8 32.3C22.8 33 21.9 33.5 20.5 33.5C19.1 33.5 18.2 33 17.2 32.3C16 31.5 14.7 30.7 12.6 30.7C12 30.7 11.4 30.8 10.9 30.9L8 26.7H36.9L39.1 32.7C38.3 33.2 37.6 33.5 36.4 33.5C34.9 33.5 34.1 32.9 33 32.3Z" fill="#2C2C2C"/>
<path d="M36 20.3V17.7V12H30.2L26.4 17.7H13.5L12 20.3H36ZM31.6 14.7H33.3V17.7H29.5L31.6 14.7Z" fill="#2C2C2C"/>
</svg>
