<svg width="48" height="48" viewBox="0 0 48 48" fill="none" xmlns="http://www.w3.org/2000/svg">
<path d="M37.8301 32.76L44.1101 23.33H23.0001L17.1101 12L14.7401 13.22L20.0001 23.33H3.82007L9.12007 31.33L8.66007 31.63C7.72093 32.3815 6.56239 32.8063 5.36007 32.84V35.5C7.07845 35.4777 8.74398 34.9027 10.1101 33.86C11.0216 33.1238 12.1489 32.7058 13.3201 32.67C14.4875 32.7094 15.6105 33.1271 16.5201 33.86C17.8862 34.9027 19.5517 35.4777 21.2701 35.5C21.8939 35.5013 22.5155 35.424 23.1201 35.27L25.1201 39.18C25.5895 40.0896 26.4011 40.7756 27.3763 41.0869C28.3515 41.3982 29.4104 41.3094 30.3201 40.84L30.5501 40.72C31.4604 40.2486 32.1465 39.4352 32.4577 38.4584C32.7689 37.4816 32.6799 36.4212 32.2101 35.51L30.9301 33C31.4485 33.2412 31.9438 33.5291 32.4101 33.86C33.7809 34.9009 35.449 35.4756 37.1701 35.5C38.8885 35.4777 40.554 34.9027 41.9201 33.86C42.3001 33.61 42.6601 33.39 43.0101 33.2V30.28C42.1073 30.5981 41.2526 31.0389 40.4701 31.59C39.6974 32.1874 38.7916 32.5888 37.8301 32.76ZM21.8901 32.76C21.6837 32.776 21.4764 32.776 21.2701 32.76C20.0827 32.7313 18.9361 32.321 18.0001 31.59C16.65 30.5737 15.0099 30.0165 13.3201 30C12.7336 29.9968 12.149 30.0674 11.5801 30.21L8.78007 26H21.3401L22.7901 28.8C22.2899 29.3131 21.9411 29.9545 21.7823 30.6532C21.6235 31.352 21.6608 32.0811 21.8901 32.76ZM29.3501 38.32L29.1201 38.43C28.9509 38.5207 28.7621 38.5688 28.5701 38.57C28.3496 38.5684 28.1337 38.5072 27.9453 38.3927C27.7569 38.2783 27.6031 38.1149 27.5001 37.92L25.5501 34.13L24.4801 32.06C24.4285 31.952 24.3915 31.8377 24.3701 31.72C24.321 31.4671 24.356 31.2051 24.4697 30.974C24.5835 30.7429 24.7697 30.5553 25.0001 30.44L25.2301 30.32C25.4447 30.2106 25.6873 30.1682 25.9263 30.1986C26.1653 30.2289 26.3896 30.3304 26.5701 30.49C26.6868 30.5858 26.7822 30.705 26.8501 30.84L27.8501 32.84L29.8501 36.71C29.9925 36.9907 30.0199 37.3158 29.9266 37.6164C29.8332 37.917 29.6264 38.1694 29.3501 38.32ZM35.0001 32.25C34.6164 32.0539 34.2456 31.8335 33.8901 31.59C32.5918 30.6052 31.0189 30.0495 29.3901 30L29.2001 29.64C28.877 29.009 28.3855 28.4797 27.7801 28.1108C27.1747 27.7419 26.479 27.5478 25.7701 27.55C25.5653 27.5501 25.361 27.5702 25.1601 27.61L24.3401 26H39.1501L35.0001 32.25Z" fill="#1A1A1A"/>
</svg>
