<svg width="42" height="40" viewBox="0 0 42 40" fill="none" xmlns="http://www.w3.org/2000/svg">
<mask id="mask0" mask-type="alpha" maskUnits="userSpaceOnUse" x="0" y="0" width="42" height="40">
<path d="M25.6 18.5535C26.0157 18.0961 26.6049 17.8354 27.2229 17.8354H29.7691C31.0141 17.8354 32.2004 17.3065 33.0323 16.3803L42 6.39754L40.6429 5.04044L34.0515 11.6318L33.0822 10.6625L39.4797 3.87724L38.1227 2.52022L31.3375 8.91768L30.3681 7.94846L36.9595 1.3571L35.6025 0L25.6197 8.96758C24.6935 9.79959 24.1645 10.9859 24.1645 12.2309V14.9377C24.1645 15.552 23.9069 16.138 23.4545 16.5534L20.3885 19.388L1.4992 0.438315C0.912142 -0.148833 -0.0922851 0.332961 0.00681975 1.15749C0.562018 5.7759 3.04624 11.1107 8.26359 16.328L12.1019 20.1664H16.2366L17.7116 21.863L2.41359 36.0068L6.186 39.7455L20.0764 24.5828L33.4433 39.9568L37.3101 36.3637L22.7058 21.7128L25.6 18.5535Z" fill="white"/>
</mask>
<g mask="url(#mask0)">
<path d="M25.6 18.5535C26.0157 18.0961 26.6049 17.8354 27.2229 17.8354H29.7691C31.0141 17.8354 32.2004 17.3065 33.0323 16.3803L42 6.39754L40.6429 5.04044L34.0515 11.6318L33.0822 10.6625L39.4797 3.87724L38.1227 2.52022L31.3375 8.91768L30.3681 7.94846L36.9595 1.3571L35.6025 0L25.6197 8.96758C24.6935 9.79959 24.1645 10.9859 24.1645 12.2309V14.9377C24.1645 15.552 23.9069 16.138 23.4545 16.5534L20.3885 19.388L1.4992 0.438315C0.912142 -0.148833 -0.0922851 0.332961 0.00681975 1.15749C0.562018 5.7759 3.04624 11.1107 8.26359 16.328L12.1019 20.1664H16.2366L17.7116 21.863L2.41359 36.0068L6.186 39.7455L20.0764 24.5828L33.4433 39.9568L37.3101 36.3637L22.7058 21.7128L25.6 18.5535Z" fill="#1A1A1A"/>
<path d="M45 -4H-3V44H45V-4Z" fill="#1A1A1A"/>
</g>
</svg>
