<svg width="48" height="48" viewBox="0 0 48 48" fill="none" xmlns="http://www.w3.org/2000/svg">
<path d="M39.9999 30.91C39.3238 31.3966 38.5834 31.787 37.7999 32.07V27.5H7.79994L10.2999 29.79C9.55092 30.07 8.84161 30.4466 8.18994 30.91C7.0463 31.8066 5.64282 32.3084 4.18994 32.34V35C6.1713 34.9709 8.09279 34.3164 9.67994 33.13C10.3663 32.533 11.2317 32.1812 12.1399 32.13C12.4483 32.1233 12.7558 32.1672 13.0499 32.26C13.6045 32.4703 14.129 32.7528 14.6099 33.1C16.1613 34.2858 18.0479 34.9508 19.9999 35C20.2797 35.0154 20.5602 35.0154 20.8399 35C22.5263 34.8069 24.1328 34.176 25.4999 33.17C26.1836 32.575 27.0452 32.2234 27.9499 32.17C28.8738 32.2185 29.7559 32.57 30.4599 33.17C31.6274 34.0106 32.9602 34.5935 34.3699 34.88C34.8787 34.9668 35.3939 35.0103 35.9099 35.01C36.5217 35.0125 37.1319 34.9488 37.7299 34.82C39.0636 34.4984 40.3208 33.9173 41.4299 33.11C42.1166 32.5414 42.9694 32.2115 43.8599 32.17V29.5C42.4572 29.5534 41.1068 30.0467 39.9999 30.91ZM23.9999 30.92C22.8554 31.8137 21.4518 32.312 19.9999 32.34C19.0491 32.3512 18.1106 32.1243 17.2699 31.68L16.3799 30.86H24.0999L23.9999 30.92ZM31.8499 30.92H31.7999H34.3599V32.2C33.465 31.907 32.6264 31.464 31.8799 30.89L31.8499 30.92Z" fill="#1A1A1A"/>
<path d="M10.91 22.84C11.4471 21.4624 12.3872 20.2789 13.6075 19.444C14.8277 18.6091 16.2714 18.1616 17.75 18.16V15.5C15.0978 15.5 12.5543 16.5536 10.6789 18.4289C8.80357 20.3043 7.75 22.8478 7.75 25.5H37.75L31.75 22.84H10.91Z" fill="#1A1A1A"/>
<path d="M17.0999 16.85L16.3999 16.15L20.5399 12H23.7499V13H20.9599L17.0999 16.85Z" fill="#1A1A1A"/>
</svg>
