<svg width="48" height="48" viewBox="0 0 48 48" fill="none" xmlns="http://www.w3.org/2000/svg">
<path d="M23.9401 11.5601C22.6778 11.5581 21.4433 11.9306 20.3928 12.6304C19.3423 13.3303 18.523 14.326 18.0386 15.4916C17.5542 16.6572 17.4264 17.9403 17.6714 19.1786C17.9165 20.4169 18.5233 21.5546 19.4152 22.4479C20.307 23.3411 21.4438 23.9497 22.6817 24.1967C23.9196 24.4437 25.2029 24.318 26.3693 23.8354C27.5356 23.3528 28.5326 22.535 29.2341 21.4856C29.9356 20.4362 30.31 19.2023 30.3101 17.9401C30.3101 16.2497 29.6392 14.6285 28.4449 13.4323C27.2506 12.2361 25.6304 11.5627 23.9401 11.5601ZM23.9401 21.1201C23.3083 21.122 22.6902 20.9364 22.164 20.5866C21.6379 20.2369 21.2275 19.7388 20.9848 19.1555C20.7421 18.5721 20.6781 17.9299 20.8009 17.3102C20.9236 16.6905 21.2277 16.1211 21.6744 15.6744C22.1211 15.2277 22.6904 14.9237 23.3102 14.8009C23.9299 14.6781 24.5721 14.7421 25.1554 14.9848C25.7387 15.2275 26.2368 15.6379 26.5866 16.164C26.9364 16.6902 27.122 17.3083 27.1201 17.9401C27.1174 18.7826 26.7815 19.59 26.1857 20.1858C25.5899 20.7815 24.7826 21.1174 23.9401 21.1201Z" fill="#1A1A1A"/>
<path d="M35.32 6.66999C32.2882 3.67759 28.1998 1.99976 23.94 1.99976C19.6802 1.99976 15.5918 3.67759 12.56 6.66999C6.27 12.89 6.7 22.59 12.56 29.2C18.56 36 21.79 40.2 23.93 44.5C26.09 40.24 29.3 36 35.32 29.2C41.18 22.59 41.6 12.89 35.32 6.66999ZM32.93 27.09C29.6968 30.6193 26.6908 34.3501 23.93 38.26C21.1659 34.3526 18.16 30.622 14.93 27.09C12.6026 24.5257 11.2721 21.2117 11.18 17.75C11.1416 16.1095 11.4434 14.4789 12.0664 12.9609C12.6894 11.4429 13.6202 10.0704 14.8 8.92999C17.2332 6.52693 20.5152 5.17941 23.935 5.17941C27.3548 5.17941 30.6368 6.52693 33.07 8.92999C34.248 10.0713 35.1769 11.4442 35.7982 12.9621C36.4195 14.4801 36.7197 16.1103 36.68 17.75C36.5923 21.2127 35.2612 24.5281 32.93 27.09Z" fill="#1A1A1A"/>
</svg>
