<svg width="48" height="48" viewBox="0 0 48 48" fill="none" xmlns="http://www.w3.org/2000/svg">
<path d="M45 42.12C43.21 42.1233 41.463 41.5713 40 40.54C38.5355 41.5685 36.7895 42.1203 35 42.1203C33.2105 42.1203 31.4645 41.5685 30 40.54C28.5355 41.5685 26.7895 42.1203 25 42.1203C23.2105 42.1203 21.4645 41.5685 20 40.54C18.5355 41.5685 16.7895 42.1203 15 42.1203C13.2105 42.1203 11.4645 41.5685 10 40.54C8.53696 41.5713 6.79 42.1233 5 42.12V39.62C6.539 39.6115 8.02056 39.0345 9.16 38L10 37.24L10.84 38C11.981 39.0295 13.4632 39.5993 15 39.5993C16.5368 39.5993 18.019 39.0295 19.16 38L20 37.24L20.84 38C21.981 39.0295 23.4632 39.5993 25 39.5993C26.5368 39.5993 28.019 39.0295 29.16 38L30 37.24L30.84 38C31.981 39.0295 33.4632 39.5993 35 39.5993C36.5368 39.5993 38.019 39.0295 39.16 38L40 37.24L40.84 38C41.9794 39.0345 43.461 39.6115 45 39.62V42.12Z" fill="#1A1A1A"/>
<path d="M29.9999 18.18C30.2859 18.2406 30.5775 18.2708 30.8699 18.27C31.3771 18.2718 31.8796 18.1728 32.3482 17.9788C32.8169 17.7849 33.2423 17.4997 33.5999 17.14L38.2699 12.47C38.9917 11.7448 39.3969 10.7632 39.3969 9.73999C39.3969 8.71679 38.9917 7.73522 38.2699 7.00999L38.0899 6.82999C37.3642 6.10515 36.3805 5.698 35.3549 5.698C34.3292 5.698 33.3455 6.10515 32.6199 6.82999L27.9999 11.49C27.5346 11.9639 27.1985 12.5491 27.0234 13.1898C26.8484 13.8305 26.8403 14.5053 26.9999 15.15C21.9166 10.6593 15.6843 7.67124 8.99989 6.51999C10.1754 13.2937 13.2436 19.5965 17.8499 24.7C17.5639 24.6394 17.2723 24.6092 16.9799 24.61C16.4727 24.6082 15.9702 24.7072 15.5015 24.9011C15.0329 25.0951 14.6074 25.3803 14.2499 25.74L9.57989 30.41C8.85809 31.1352 8.45288 32.1168 8.45288 33.14C8.45288 34.1632 8.85809 35.1448 9.57989 35.87L9.75989 36.05C10.4855 36.7748 11.4692 37.182 12.4949 37.182C13.5205 37.182 14.5042 36.7748 15.2299 36.05L19.8899 31.39C20.3552 30.916 20.6913 30.3309 20.8664 29.6902C21.0414 29.0495 21.0495 28.3747 20.8899 27.73C25.9565 32.2107 32.1667 35.1982 38.8299 36.36C37.6601 29.5885 34.599 23.2859 29.9999 18.18ZM29.8399 13.37L34.4999 8.70999C34.6116 8.59865 34.7442 8.51043 34.89 8.45037C35.0359 8.39032 35.1922 8.35961 35.3499 8.35999C35.6676 8.36345 35.9719 8.48874 36.1999 8.70999L36.3799 8.88999C36.4918 9.00148 36.5805 9.13395 36.6411 9.27981C36.7017 9.42567 36.7328 9.58206 36.7328 9.73999C36.7328 9.89793 36.7017 10.0543 36.6411 10.2002C36.5805 10.346 36.4918 10.4785 36.3799 10.59L31.7099 15.26C31.5982 15.3713 31.4656 15.4596 31.3197 15.5196C31.1739 15.5797 31.0176 15.6104 30.8599 15.61C30.5422 15.6065 30.2379 15.4812 30.0099 15.26L29.8299 15.08C29.6033 14.8531 29.4761 14.5456 29.4761 14.225C29.4761 13.9044 29.6033 13.5969 29.8299 13.37H29.8399ZM17.9999 29.51L13.3299 34.17C13.2182 34.2813 13.0856 34.3696 12.9397 34.4296C12.7939 34.4897 12.6376 34.5204 12.4799 34.52C12.1622 34.5165 11.8579 34.3912 11.6299 34.17L11.4599 34C11.348 33.8885 11.2593 33.756 11.1987 33.6102C11.1381 33.4643 11.1069 33.3079 11.1069 33.15C11.1069 32.9921 11.1381 32.8357 11.1987 32.6898C11.2593 32.5439 11.348 32.4115 11.4599 32.3L16.1299 27.63C16.2416 27.5187 16.3742 27.4304 16.52 27.3704C16.6659 27.3103 16.8222 27.2796 16.9799 27.28C17.2976 27.2835 17.6019 27.4087 17.8299 27.63L18.0099 27.81C18.2321 28.0378 18.3556 28.3439 18.3537 28.662C18.3519 28.9802 18.2247 29.2849 17.9999 29.51ZM35.2399 32.77C30.4007 31.2926 25.9571 28.7427 22.2399 25.31C21.8599 24.98 21.4899 24.62 21.1299 24.31C20.7699 24 20.5999 23.77 20.3499 23.49C16.7586 19.6881 14.0988 15.1045 12.5799 10.1C17.4369 11.5705 21.8983 14.1208 25.6299 17.56C26.0099 17.89 26.3799 18.25 26.7399 18.61C27.0999 18.97 27.2699 19.15 27.5199 19.43C31.0902 23.2215 33.7357 27.787 35.2499 32.77H35.2399Z" fill="#1A1A1A"/>
<path d="M27.1695 21.659L24.1007 18.5902C23.304 17.7935 22.0124 17.7935 21.2157 18.5902C20.419 19.3869 20.419 20.6785 21.2157 21.4752L24.2845 24.544C25.0812 25.3407 26.3729 25.3407 27.1695 24.544C27.9662 23.7474 27.9662 22.4557 27.1695 21.659Z" fill="#1A1A1A"/>
</svg>
