<svg width="48" height="48" viewBox="0 0 48 48" fill="none" xmlns="http://www.w3.org/2000/svg">
<path d="M41.67 22.67H38.94C38.6726 19.6218 37.4713 16.7303 35.5 14.39L37.44 12.45C37.6827 12.1952 37.8181 11.8569 37.8181 11.505C37.8181 11.1531 37.6827 10.8148 37.44 10.56C37.1864 10.315 36.8476 10.178 36.495 10.178C36.1424 10.178 35.8036 10.315 35.55 10.56L33.61 12.5C31.2697 10.5287 28.3782 9.32744 25.33 9.06V6.33C25.33 5.97726 25.1899 5.63897 24.9405 5.38955C24.691 5.14012 24.3527 5 24 5C23.6473 5 23.309 5.14012 23.0595 5.38955C22.8101 5.63897 22.67 5.97726 22.67 6.33V9.06C19.6218 9.32744 16.7303 10.5287 14.39 12.5L12.45 10.56C12.3296 10.4206 12.1817 10.3075 12.0157 10.2278C11.8496 10.1481 11.6689 10.1035 11.4848 10.0968C11.3007 10.0901 11.1172 10.1214 10.9458 10.1887C10.7743 10.2561 10.6186 10.3581 10.4884 10.4884C10.3581 10.6186 10.2561 10.7743 10.1887 10.9458C10.1214 11.1172 10.0901 11.3007 10.0968 11.4848C10.1035 11.6689 10.1481 11.8496 10.2278 12.0157C10.3075 12.1817 10.4206 12.3296 10.56 12.45L12.5 14.39C10.5287 16.7303 9.32744 19.6218 9.06 22.67H6.33C5.97726 22.67 5.63897 22.8101 5.38955 23.0595C5.14012 23.309 5 23.6473 5 24C5 24.3527 5.14012 24.691 5.38955 24.9405C5.63897 25.1899 5.97726 25.33 6.33 25.33H9.06C9.32744 28.3782 10.5287 31.2697 12.5 33.61L10.56 35.55C10.4206 35.6704 10.3075 35.8183 10.2278 35.9843C10.1481 36.1504 10.1035 36.3311 10.0968 36.5152C10.0901 36.6993 10.1214 36.8828 10.1887 37.0542C10.2561 37.2257 10.3581 37.3814 10.4884 37.5116C10.6186 37.6419 10.7743 37.7439 10.9458 37.8113C11.1172 37.8786 11.3007 37.9099 11.4848 37.9032C11.6689 37.8965 11.8496 37.8519 12.0157 37.7722C12.1817 37.6925 12.3296 37.5794 12.45 37.44L14.39 35.5C16.7303 37.4713 19.6218 38.6726 22.67 38.94V41.67C22.67 42.0227 22.8101 42.361 23.0595 42.6105C23.309 42.8599 23.6473 43 24 43C24.3527 43 24.691 42.8599 24.9405 42.6105C25.1899 42.361 25.33 42.0227 25.33 41.67V38.94C28.3782 38.6726 31.2697 37.4713 33.61 35.5L35.55 37.44C35.8048 37.6827 36.1431 37.8181 36.495 37.8181C36.8469 37.8181 37.1852 37.6827 37.44 37.44C37.685 37.1864 37.822 36.8476 37.822 36.495C37.822 36.1424 37.685 35.8036 37.44 35.55L35.5 33.61C37.4713 31.2697 38.6726 28.3782 38.94 25.33H41.67C42.0227 25.33 42.361 25.1899 42.6105 24.9405C42.8599 24.691 43 24.3527 43 24C43 23.6473 42.8599 23.309 42.6105 23.0595C42.361 22.8101 42.0227 22.67 41.67 22.67ZM25.33 11.74C27.6726 11.9776 29.8924 12.9032 31.71 14.4L26.46 19.65C26.1449 19.4675 25.8092 19.3232 25.46 19.22H25.35L25.33 11.74ZM22.67 11.74V19.19H22.56C22.2108 19.2932 21.8751 19.4375 21.56 19.62L16.3 14.36C18.1241 12.887 20.3374 11.9767 22.67 11.74ZM14.4 16.29L19.65 21.54C19.4652 21.8539 19.3207 22.1899 19.22 22.54C19.2122 22.5762 19.2122 22.6138 19.22 22.65H11.74C11.9815 20.3144 12.9068 18.102 14.4 16.29ZM11.74 25.29H19.19C19.1822 25.3262 19.1822 25.3638 19.19 25.4C19.2932 25.7492 19.4375 26.0849 19.62 26.4L14.36 31.66C12.8941 29.847 11.9842 27.6486 11.74 25.33V25.29ZM22.67 36.26C20.3274 36.0224 18.1076 35.0968 16.29 33.6L21.54 28.35C21.8539 28.5348 22.1899 28.6793 22.54 28.78H22.65L22.67 36.26ZM24.41 26.26C24.1393 26.3134 23.8607 26.3134 23.59 26.26C23.2591 26.2026 22.9449 26.0729 22.67 25.88C22.4399 25.7199 22.2401 25.5201 22.08 25.29C21.8871 25.0151 21.7574 24.7009 21.7 24.37C21.6466 24.0993 21.6466 23.8207 21.7 23.55C21.7574 23.2191 21.8871 22.9049 22.08 22.63C22.2401 22.3999 22.4399 22.2001 22.67 22.04C22.9449 21.8471 23.2591 21.7174 23.59 21.66C23.8607 21.6066 24.1393 21.6066 24.41 21.66C24.7409 21.7174 25.0551 21.8471 25.33 22.04C25.5601 22.2001 25.7599 22.3999 25.92 22.63C26.1129 22.9049 26.2426 23.2191 26.3 23.55C26.3534 23.8207 26.3534 24.0993 26.3 24.37C26.2426 24.7009 26.1129 25.0151 25.92 25.29C25.7599 25.5201 25.5601 25.7199 25.33 25.88C25.0586 26.0871 24.7442 26.2306 24.41 26.3V26.26ZM25.33 36.26V28.81H25.44C25.7892 28.7068 26.1249 28.5625 26.44 28.38L31.7 33.64C29.8759 35.113 27.6626 36.0233 25.33 36.26ZM33.6 31.71L28.35 26.46C28.5325 26.1449 28.6768 25.8092 28.78 25.46C28.7878 25.4238 28.7878 25.3862 28.78 25.35H36.23C35.9972 27.6823 35.0824 29.8944 33.6 31.71ZM28.81 22.71C28.8178 22.6738 28.8178 22.6362 28.81 22.6C28.7068 22.2508 28.5625 21.9151 28.38 21.6L33.64 16.34C35.1274 18.1661 36.0485 20.3872 36.29 22.73L28.81 22.71Z" fill="#1A1A1A"/>
<path d="M28.7801 22.5599C28.7879 22.5962 28.7879 22.6337 28.7801 22.6699C28.7857 22.6335 28.7857 22.5964 28.7801 22.5599ZM28.7801 25.3299C28.7879 25.3662 28.7879 25.4037 28.7801 25.4399C28.7857 25.4035 28.7857 25.3664 28.7801 25.3299ZM25.3 28.8099H25.41H25.3ZM25.3 19.1799H25.41H25.3ZM22.5301 28.7799H22.64H22.5301ZM22.5301 19.2199H22.64H22.5301ZM19.15 22.6699C19.1422 22.6337 19.1422 22.5962 19.15 22.5599C19.1541 22.598 19.1643 22.6351 19.18 22.6699H19.15ZM19.15 25.3299C19.1444 25.3664 19.1444 25.4035 19.15 25.4399C19.1548 25.4007 19.1685 25.3631 19.19 25.3299H19.15Z" fill="#1A1A1A"/>
</svg>
