<svg width="48" height="48" viewBox="0 0 48 48" fill="none" xmlns="http://www.w3.org/2000/svg">
<path d="M35.32 6.66999C32.2882 3.67759 28.1998 1.99976 23.94 1.99976C19.6802 1.99976 15.5918 3.67759 12.56 6.66999C6.27 12.89 6.7 22.59 12.56 29.21C18.56 36 21.79 40.21 23.93 44.5C26.09 40.24 29.3 36 35.32 29.21C41.18 22.59 41.6 12.89 35.32 6.66999ZM32.93 27.1C29.698 30.6267 26.692 34.3542 23.93 38.26C21.1686 34.3537 18.1625 30.6263 14.93 27.1C12.6035 24.5312 11.2732 21.2145 11.18 17.75C11.1429 16.1112 11.4454 14.4825 12.0684 12.9663C12.6914 11.4501 13.6214 10.0793 14.8 8.93999C17.2332 6.53693 20.5152 5.18941 23.935 5.18941C27.3548 5.18941 30.6368 6.53693 33.07 8.93999C34.2467 10.0801 35.1749 11.4514 35.7962 12.9675C36.4174 14.4837 36.7183 16.1119 36.68 17.75C36.5912 21.2154 35.2603 24.5336 32.93 27.1Z" fill="#1A1A1A"/>
<path d="M26 11H20V26H22.66V21H26C27.3261 21 28.5979 20.4732 29.5355 19.5355C30.4732 18.5979 31 17.3261 31 16C31 14.6739 30.4732 13.4021 29.5355 12.4645C28.5979 11.5268 27.3261 11 26 11ZM26 18.34H22.66V13.66H26C26.6206 13.66 27.2158 13.9065 27.6546 14.3454C28.0935 14.7842 28.34 15.3794 28.34 16C28.34 16.6206 28.0935 17.2158 27.6546 17.6546C27.2158 18.0935 26.6206 18.34 26 18.34Z" fill="#1A1A1A"/>
</svg>
