<svg width="48" height="48" viewBox="0 0 48 48" fill="none" xmlns="http://www.w3.org/2000/svg">
<path d="M41.7001 29.2099L39.0001 21.9299H3.3501L8.6501 29.9299L8.2001 30.2199C7.25548 30.9646 6.09278 31.3791 4.8901 31.3999V34.0699C6.61305 34.0469 8.28253 33.4682 9.6501 32.4199C10.5566 31.6884 11.676 31.2708 12.8401 31.2299C13.9938 31.2772 15.1018 31.6944 16.0001 32.4199C17.3677 33.4682 19.0371 34.0469 20.7601 34.0699C22.4796 34.0448 24.1453 33.4662 25.5101 32.4199C26.4193 31.6864 27.5425 31.2687 28.7101 31.2299C29.9083 31.2513 31.0655 31.6698 32.0001 32.4199C33.3549 33.4881 35.0299 34.069 36.7551 34.069C38.4803 34.069 40.1553 33.4881 41.5101 32.4199C42.4166 31.6884 43.536 31.2708 44.7001 31.2299V28.5699C43.6814 28.5612 42.6736 28.7799 41.7501 29.2099H41.7001ZM33.4501 30.2099C32.1275 29.1602 30.4886 28.5889 28.8001 28.5889C27.1116 28.5889 25.4727 29.1602 24.1501 30.2099C23.2132 30.9653 22.0533 31.3906 20.8501 31.4199C19.6436 31.3921 18.4801 30.9667 17.5401 30.2099C16.2036 29.1858 14.5736 28.6179 12.8901 28.5899C12.3069 28.5876 11.7258 28.6581 11.1601 28.7999L8.3201 24.5899H37.1801L39.3701 30.5899C38.5829 31.1245 37.6517 31.4071 36.7001 31.3999C35.4969 31.3706 34.337 30.9453 33.4001 30.1899" fill="#1A1A1A"/>
<path d="M23.71 24.04L22.01 21.99L29.2 16L33 22.33L30.72 23.7L28.52 20.03L23.71 24.04Z" fill="#1A1A1A"/>
</svg>
