<svg width="48" height="48" viewBox="0 0 48 48" fill="none" xmlns="http://www.w3.org/2000/svg">
<path d="M41.35 36.1399L38.65 28.8599H22.4L18.84 22.9299L11.72 28.8599H3L8.3 36.8599L7.85 37.1499C6.90925 37.9054 5.74619 38.3306 4.54 38.3599V40.9999C6.26296 40.9769 7.93243 40.3982 9.3 39.3499C10.2065 38.6184 11.3259 38.2008 12.49 38.1599C13.6437 38.2072 14.7517 38.6244 15.65 39.3499C17.0285 40.4064 18.7133 40.9855 20.45 40.9999C22.1695 40.9748 23.8352 40.3962 25.2 39.3499C26.1092 38.6164 27.2324 38.1987 28.4 38.1599C29.5844 38.19 30.7262 38.6081 31.65 39.3499C33.0048 40.4181 34.6798 40.999 36.405 40.999C38.1302 40.999 39.8052 40.4181 41.16 39.3499C42.0665 38.6184 43.1859 38.2008 44.35 38.1599V35.4999C43.3145 35.4837 42.2888 35.7026 41.35 36.1399ZM18.16 26.9999L19.3 28.8999H15.88L18.16 26.9999ZM36.35 38.3299C35.1468 38.3006 33.9869 37.8753 33.05 37.1199C31.7274 36.0702 30.0885 35.4989 28.4 35.4989C26.7115 35.4989 25.0726 36.0702 23.75 37.1199C22.8131 37.8753 21.6532 38.3006 20.45 38.3299C19.2435 38.3021 18.08 37.8767 17.14 37.1199C15.8035 36.0958 14.1735 35.5279 12.49 35.4999C11.9068 35.4976 11.3257 35.5681 10.76 35.7099L7.97 31.5199H36.83L39.02 37.5199C38.2328 38.0545 37.3016 38.3371 36.35 38.3299Z" fill="#1A1A1A"/>
<path d="M32.8999 7C31.8084 7.00137 30.7347 7.27676 29.7772 7.80091C28.8198 8.32506 28.0092 9.08121 27.4199 10H10.4199L7.41992 13L11.4199 17L15.4199 15L18.4199 17L22.4199 15L25.4199 17H27.4199C28.0276 17.9509 28.8723 18.7272 29.871 19.2526C30.8697 19.778 31.988 20.0343 33.1158 19.9963C34.2437 19.9584 35.3422 19.6274 36.3033 19.0361C37.2644 18.4447 38.055 17.6133 38.5974 16.6237C39.1397 15.6341 39.415 14.5203 39.3962 13.392C39.3775 12.2637 39.0653 11.1597 38.4904 10.1887C37.9156 9.2176 37.0978 8.41293 36.1175 7.85384C35.1373 7.29475 34.0284 7.00048 32.8999 7ZM34.8999 16C34.4055 16 33.9221 15.8534 33.511 15.5787C33.0999 15.304 32.7794 14.9135 32.5902 14.4567C32.401 13.9999 32.3515 13.4972 32.448 13.0123C32.5444 12.5273 32.7825 12.0819 33.1322 11.7322C33.4818 11.3826 33.9272 11.1445 34.4122 11.048C34.8972 10.9516 35.3998 11.0011 35.8566 11.1903C36.3134 11.3795 36.7039 11.7 36.9786 12.1111C37.2533 12.5222 37.3999 13.0055 37.3999 13.5C37.3999 14.163 37.1365 14.7989 36.6677 15.2678C36.1988 15.7366 35.563 16 34.8999 16Z" fill="#1A1A1A"/>
</svg>
