<svg width="48" height="48" viewBox="0 0 48 48" fill="none" xmlns="http://www.w3.org/2000/svg">
<path d="M19.57 4.47003C18.6338 3.52321 17.3598 2.98707 16.0283 2.97957C14.6968 2.97207 13.4169 3.49382 12.47 4.43003C11.5232 5.36624 10.9871 6.64024 10.9796 7.97175C10.9721 9.30325 11.4938 10.5832 12.43 11.53C13.8201 12.9711 15.0198 14.5842 16 16.33C16.9838 14.5865 18.1832 12.9738 19.57 11.53C20.4876 10.584 21.0008 9.31793 21.0008 8.00003C21.0008 6.68213 20.4876 5.41602 19.57 4.47003ZM16 10C15.6045 10 15.2178 9.88273 14.8889 9.66297C14.56 9.44321 14.3036 9.13085 14.1523 8.7654C14.0009 8.39994 13.9613 7.99781 14.0385 7.60985C14.1156 7.22189 14.3061 6.86552 14.5858 6.58582C14.8655 6.30611 15.2219 6.11563 15.6098 6.03846C15.9978 5.96129 16.3999 6.0009 16.7654 6.15227C17.1308 6.30365 17.4432 6.55999 17.663 6.88889C17.8827 7.21779 18 7.60447 18 8.00003C18 8.53046 17.7893 9.03917 17.4142 9.41424C17.0392 9.78932 16.5305 10 16 10Z" fill="#1A1A1A"/>
<path d="M39.57 29.47C38.6338 28.5232 37.3598 27.9871 36.0283 27.9796C34.6968 27.9721 33.4169 28.4938 32.47 29.43C31.5232 30.3662 30.9871 31.6402 30.9796 32.9717C30.9721 34.3033 31.4938 35.5832 32.43 36.53C33.8201 37.9711 35.0198 39.5842 36 41.33C36.9838 39.5865 38.1832 37.9738 39.57 36.53C40.4876 35.584 41.0008 34.3179 41.0008 33C41.0008 31.6821 40.4876 30.416 39.57 29.47ZM36 35C35.6045 35 35.2178 34.8827 34.8889 34.663C34.56 34.4432 34.3036 34.1308 34.1523 33.7654C34.0009 33.3999 33.9613 32.9978 34.0385 32.6098C34.1156 32.2219 34.3061 31.8655 34.5858 31.5858C34.8655 31.3061 35.2219 31.1156 35.6098 31.0385C35.9978 30.9613 36.3999 31.0009 36.7654 31.1523C37.1308 31.3036 37.4432 31.56 37.663 31.8889C37.8827 32.2178 38 32.6045 38 33C38 33.5305 37.7893 34.0392 37.4142 34.4142C37.0392 34.7893 36.5305 35 36 35Z" fill="#1A1A1A"/>
<path d="M36 41.6699H33.5V44.3299H36V41.6699Z" fill="#1A1A1A"/>
<path d="M31.55 44.3299H26.69V41.6699H31.55V44.3299ZM24.75 44.3299H19.88V41.6699H24.75V44.3299ZM17.84 44.3299C15.9195 44.1891 14.099 43.4194 12.66 42.1399L14.42 40.1399C15.4168 41.02 16.6739 41.5503 18 41.6499L17.84 44.3299ZM11.16 40.3999C10.184 38.9526 9.66496 37.2456 9.66996 35.4999C9.66996 35.3199 9.66996 35.1499 9.66996 34.9699L12.32 35.1299C12.32 35.2499 12.32 35.3799 12.32 35.4999C12.3049 36.7141 12.6531 37.9051 13.32 38.9199L11.16 40.3999ZM12.64 33.5699L10.11 32.7299C10.7209 30.9041 11.9067 29.3254 13.49 28.2299L15 30.4199C13.891 31.1847 13.0623 32.2908 12.64 33.5699ZM16.42 29.6899L15.52 27.1899C16.4808 26.8387 17.4969 26.6626 18.52 26.6699H20.81V29.3299H18.49C17.7842 29.3283 17.0837 29.4501 16.42 29.6899ZM23 29.3299H22.72V26.6699H23C23.5636 26.673 24.1202 26.5445 24.6255 26.2945C25.1307 26.0445 25.5705 25.6799 25.91 25.2299L28 26.8499C27.4141 27.6208 26.658 28.2457 25.7906 28.6759C24.9232 29.1061 23.9682 29.33 23 29.3299ZM29.11 24.6599L26.54 23.9999C26.6325 23.6748 26.6763 23.3379 26.67 22.9999C26.6725 22.1266 26.3601 21.2816 25.79 20.6199L27.79 18.8899C28.7786 20.0315 29.325 21.4898 29.33 22.9999C29.332 23.5607 29.258 24.1191 29.11 24.6599ZM24.68 19.7399C24.1612 19.4699 23.5848 19.3293 23 19.3299H20.51V16.6699H23C24.0086 16.6689 25.0029 16.9089 25.9 17.3699L24.68 19.7399Z" fill="#1A1A1A"/>
<path d="M18.5 16.6699H16V19.3299H18.5V16.6699Z" fill="#1A1A1A"/>
</svg>
