<svg width="48" height="48" viewBox="0 0 48 48" fill="none" xmlns="http://www.w3.org/2000/svg">
<path d="M29.7901 21.3401C28.8326 19.7235 28.3283 17.8789 28.3301 16.0001V6.67007C28.3557 5.53622 27.9425 4.43625 27.1768 3.59968C26.411 2.7631 25.3518 2.25453 24.2201 2.18007C23.6311 2.14533 23.0413 2.23217 22.4873 2.43517C21.9334 2.63817 21.4271 2.953 21.0001 3.36007C20.5788 3.76724 20.2439 4.25515 20.0153 4.79465C19.7868 5.33415 19.6694 5.91417 19.6701 6.50007V16.0001C19.6718 17.8789 19.1675 19.7235 18.2101 21.3401H6.06006L6.35006 24.2601L8.35006 44.2601L8.59006 46.6601H39.4101L39.6501 44.2601L41.6501 24.2601L41.9401 21.3401H29.7901ZM22.3301 16.0001V6.50007C22.3312 6.27339 22.3781 6.04928 22.4681 5.84123C22.5581 5.63318 22.6892 5.4455 22.8537 5.28947C23.0181 5.13344 23.2124 5.01231 23.4249 4.93336C23.6374 4.85441 23.8636 4.81927 24.0901 4.83007C24.5363 4.88251 24.9465 5.10083 25.2392 5.4417C25.5319 5.78257 25.6857 6.22105 25.6701 6.67007V16.0001C25.6659 17.8174 26.0406 19.6156 26.7701 21.2801H21.2301C21.9595 19.6156 22.3342 17.8174 22.3301 16.0001V16.0001ZM11.0001 44.0001L9.00006 24.0001H13.4601L14.3701 44.0001H11.0001ZM22.6701 44.0001H17.0001L16.0901 24.0001H22.6301L22.6701 44.0001ZM30.8401 44.0001H25.3301V24.0001H31.7501L30.8401 44.0001ZM37.0001 44.0001H33.5001L34.4101 24.0001H39.0001L37.0001 44.0001Z" fill="#1A1A1A"/>
<path d="M24 7.5C24.5523 7.5 25 7.05228 25 6.5C25 5.94772 24.5523 5.5 24 5.5C23.4477 5.5 23 5.94772 23 6.5C23 7.05228 23.4477 7.5 24 7.5Z" fill="#1A1A1A"/>
</svg>
