<svg width="42" height="25" viewBox="0 0 42 25" fill="none" xmlns="http://www.w3.org/2000/svg">
<path fill-rule="evenodd" clip-rule="evenodd" d="M38.352 19.527L35.697 12.25H0L5.308 20.212C5.152 20.31 5 20.408 4.851 20.506C3.806 21.184 2.981 21.72 1.544 21.72V24.381C3.769 24.381 5.114 23.507 6.3 22.736C7.322 22.072 8.129 21.548 9.498 21.548C10.865 21.548 11.672 22.072 12.694 22.736C13.88 23.507 15.225 24.381 17.45 24.381C19.674 24.381 21.019 23.507 22.206 22.736C23.227 22.072 24.034 21.548 25.402 21.548C26.77 21.548 27.577 22.072 28.599 22.736C29.786 23.507 31.131 24.381 33.355 24.381C35.58 24.381 36.925 23.507 38.111 22.736C39.133 22.072 39.94 21.548 41.308 21.548V18.888C40.101 18.888 39.155 19.157 38.352 19.527ZM30.049 20.506C28.881 19.747 27.559 18.888 25.402 18.888C23.246 18.888 21.924 19.747 20.756 20.506C19.711 21.184 18.886 21.72 17.45 21.72C16.013 21.72 15.188 21.184 14.143 20.506C12.976 19.747 11.653 18.888 9.498 18.888C8.849 18.888 8.277 18.966 7.761 19.096L4.97 14.91H33.836L36.025 20.91C35.243 21.385 34.49 21.72 33.355 21.72C31.919 21.72 31.093 21.184 30.049 20.506Z" fill="#1A1A1A"/>
<path fill-rule="evenodd" clip-rule="evenodd" d="M32.967 8.547V5.933V0.25H27.136L23.348 5.933H10.52L9 8.593H32.967V8.547ZM28.56 2.91H30.307V5.933H26.545L28.56 2.91Z" fill="#1A1A1A"/>
</svg>
