<svg width="48" height="48" viewBox="0 0 48 48" fill="none" xmlns="http://www.w3.org/2000/svg">
<path d="M19.8699 6.48905C19.4057 6.02024 18.8537 5.64744 18.2454 5.39196C17.6371 5.13648 16.9844 5.00331 16.3247 5.00006C14.9922 4.9935 13.7118 5.51651 12.7649 6.45405C11.8181 7.39159 11.2825 8.66686 11.2759 9.99931C11.2694 11.3318 11.7924 12.6122 12.7299 13.5591C14.1245 14.9962 15.3247 16.61 16.2999 18.3591C17.2787 16.6122 18.4785 14.9989 19.8699 13.5591C20.7858 12.6102 21.2977 11.3429 21.2977 10.0241C21.2977 8.70525 20.7858 7.43793 19.8699 6.48905ZM16.2999 12.0291C15.9044 12.0291 15.5177 11.9118 15.1888 11.692C14.8599 11.4722 14.6035 11.1599 14.4522 10.7944C14.3008 10.429 14.2612 10.0268 14.3384 9.63887C14.4155 9.25091 14.606 8.89455 14.8857 8.61484C15.1654 8.33514 15.5218 8.14465 15.9098 8.06748C16.2977 7.99031 16.6998 8.02992 17.0653 8.1813C17.4308 8.33267 17.7431 8.58902 17.9629 8.91791C18.1826 9.24681 18.2999 9.63349 18.2999 10.0291C18.2999 10.5595 18.0892 11.0682 17.7141 11.4433C17.3391 11.8183 16.8304 12.0291 16.2999 12.0291Z" fill="#1A1A1A"/>
<path d="M32.8 42.6891H30.87V40.0291H32.8C33.3136 40.0259 33.8222 39.9275 34.3 39.7391L35.3 42.2091C34.5049 42.5272 33.6563 42.6901 32.8 42.6891ZM28.87 42.6891H24.87V40.0291H28.87V42.6891ZM22.87 42.6891H18.87V40.0291H22.87V42.6891ZM16.87 42.6891H14.8C14.002 42.6904 13.21 42.5516 12.46 42.2791L13.37 39.7791C13.8291 39.9429 14.3126 40.0274 14.8 40.0291H16.87V42.6891ZM10.3 41.0191C9.03165 39.925 8.21249 38.4006 8 36.7391L10.67 36.3591C10.8016 37.3711 11.2997 38.2997 12.07 38.9691L10.3 41.0191ZM37.38 40.8991L35.58 38.8991C36.3367 38.2101 36.8136 37.2669 36.92 36.2491L39.56 36.5191C39.4117 38.1953 38.6454 39.7565 37.41 40.8991H37.38ZM10.71 34.8991L8.12 34.2791C8.51515 32.659 9.4853 31.2375 10.85 30.2791L12.38 32.4591C11.5566 33.0477 10.974 33.9144 10.74 34.8991H10.71ZM39.6 34.4291H36.97V30.4291H39.63L39.6 34.4291ZM13.78 31.8191L13.13 29.2391C13.6757 29.0998 14.2368 29.0293 14.8 29.0291H17.44V31.6891H14.8C14.4558 31.6873 14.1128 31.7311 13.78 31.8191ZM19.63 31.6291L19.3 28.9991C19.7669 28.9321 20.2129 28.7618 20.6056 28.5006C20.9983 28.2394 21.3278 27.8938 21.57 27.4891L23.8 28.8591C23.3548 29.602 22.7495 30.2362 22.028 30.7154C21.3066 31.1946 20.4874 31.5067 19.63 31.6291ZM39.63 28.4291H36.97V24.4291H39.63V28.4291ZM24.63 26.4291L21.99 26.1691C21.99 26.0691 21.99 25.9691 21.99 25.8691C21.9843 25.4444 21.8927 25.0253 21.7209 24.6369C21.549 24.2486 21.3004 23.8989 20.99 23.6091L22.86 21.7191C23.4123 22.2597 23.8508 22.9054 24.1497 23.6181C24.4485 24.3309 24.6016 25.0963 24.6 25.8691C24.6096 26.0523 24.6096 26.2359 24.6 26.4191L24.63 26.4291ZM19.84 22.8591C19.5175 22.7511 19.1801 22.6937 18.84 22.6891H16.3V20.0291H18.8C19.4499 20.0304 20.0952 20.1385 20.71 20.3491L19.84 22.8591ZM36.96 22.5291C36.8785 21.5106 36.4267 20.5572 35.69 19.8491L37.53 17.9391C38.7461 19.1045 39.4871 20.6792 39.61 22.3591L36.96 22.5291ZM34.43 19.0191C33.915 18.7986 33.3602 18.6863 32.8 18.6891H31.01V16.0291H32.8C33.7175 16.0255 34.626 16.2093 35.47 16.5691L34.43 19.0191ZM29.01 18.6891H25.01V16.0291H29.01V18.6891ZM23.01 18.6891H20.3V16.0291H23.01V18.6891Z" fill="#1A1A1A"/>
</svg>
