<svg width="48" height="48" viewBox="0 0 48 48" fill="none" xmlns="http://www.w3.org/2000/svg">
<path d="M42 36H7V39H42V36Z" fill="#1A1A1A"/>
<path d="M7 9V38H22V9H7ZM19 20H10V11H19V20Z" fill="#1A1A1A"/>
<path d="M34.5 33.3299C32.4242 33.3273 30.4341 32.5015 28.9663 31.0336C27.4984 29.5658 26.6726 27.5757 26.67 25.4999V24.9999C26.67 24.3866 26.5492 23.7794 26.3145 23.2128C26.0798 22.6462 25.7358 22.1314 25.3022 21.6977C24.8685 21.2641 24.3537 20.9201 23.7871 20.6854C23.2205 20.4507 22.6133 20.3299 22 20.3299V17.6699C23.9432 17.6726 25.8061 18.4457 27.1802 19.8197C28.5542 21.1938 29.3274 23.0567 29.33 24.9999V25.4999C29.33 26.8711 29.8747 28.1861 30.8443 29.1557C31.8138 30.1252 33.1288 30.6699 34.5 30.6699C35.8712 30.6699 37.1862 30.1252 38.1557 29.1557C39.1253 28.1861 39.67 26.8711 39.67 25.4999V17.3099L36.81 11.5899L39.19 10.4099L42.33 16.6899V25.4999C42.3274 27.5757 41.5016 29.5658 40.0337 31.0336C38.5659 32.5015 36.5758 33.3273 34.5 33.3299Z" fill="#1A1A1A"/>
<path d="M40 14H38V19H40V14Z" fill="#1A1A1A"/>
</svg>
