<svg width="48" height="48" viewBox="0 0 48 48" fill="none" xmlns="http://www.w3.org/2000/svg">
<path d="M29.7 40.3299C27.0937 40.3273 24.5949 39.2908 22.752 37.4479C20.9091 35.6049 19.8726 33.1062 19.87 30.4999V28.9999C19.8673 26.7013 18.953 24.4976 17.3276 22.8722C15.7023 21.2469 13.4986 20.3326 11.2 20.3299V17.6699C14.204 17.6726 17.0843 18.8671 19.2085 20.9913C21.3328 23.1155 22.5273 25.9958 22.53 28.9999V30.4999C22.53 32.4015 23.2854 34.2252 24.63 35.5699C25.9746 36.9145 27.7983 37.6699 29.7 37.6699C31.6016 37.6699 33.4253 36.9145 34.7699 35.5699C36.1145 34.2252 36.8699 32.4015 36.8699 30.4999V23.9999H39.5299V30.4999C39.5273 33.1062 38.4908 35.6049 36.6479 37.4479C34.805 39.2908 32.3062 40.3273 29.7 40.3299Z" fill="#1A1A1A"/>
<path d="M31.8199 7L30.3999 8.41L33.9999 12V22.18H39.9999V15.18L31.8199 7ZM34.9999 21.18V13L35.9999 14V21.16L34.9999 21.18Z" fill="#1A1A1A"/>
<path d="M40 23H36V24H40V23Z" fill="#1A1A1A"/>
<path d="M10.2 13H8.19995V29H10.2V13Z" fill="#1A1A1A"/>
<path d="M11.2 17H9.19995V21H11.2V17Z" fill="#1A1A1A"/>
</svg>
