<svg width="48" height="48" viewBox="0 0 48 48" fill="none" xmlns="http://www.w3.org/2000/svg">
<path d="M40.1199 31.33C38.9658 32.261 37.5277 32.7688 36.0449 32.7688C34.5621 32.7688 33.124 32.261 31.9699 31.33C31.2101 30.7728 30.3566 30.3562 29.4499 30.1L29.1999 29.62C28.8768 28.989 28.3854 28.4597 27.78 28.0908C27.1745 27.7219 26.4788 27.5278 25.7699 27.53C25.5651 27.5301 25.3608 27.5502 25.1599 27.59L17.1099 12L14.7399 13.22L22.7399 28.79C22.2552 29.2699 21.907 29.8703 21.7313 30.5294C21.5555 31.1884 21.5585 31.8825 21.7399 32.54C21.1902 32.696 20.6213 32.7734 20.0499 32.77C18.5727 32.7456 17.1438 32.24 15.9799 31.33C14.8723 30.4568 13.51 29.9687 12.0999 29.94C10.6898 29.9687 9.3275 30.4568 8.2199 31.33C7.05603 32.24 5.6271 32.7456 4.1499 32.77V35.27C6.1119 35.2542 8.01635 34.6053 9.5799 33.42C10.2882 32.8205 11.1733 32.4693 12.0999 32.42C13.0272 32.4663 13.9131 32.8179 14.6199 33.42C16.187 34.5973 18.0899 35.2421 20.0499 35.26C20.9915 35.2708 21.928 35.122 22.8199 34.82L25.0499 39.13C25.5194 40.0396 26.331 40.7256 27.3061 41.0369C28.2813 41.3482 29.3402 41.2594 30.2499 40.79L30.4799 40.67C30.9316 40.4376 31.333 40.1182 31.661 39.7303C31.989 39.3425 32.2373 38.8936 32.3915 38.4096C32.5457 37.9256 32.6029 37.4159 32.5597 36.9097C32.5165 36.4036 32.3739 35.9109 32.1399 35.46L31.4399 34C32.8173 34.8749 34.4182 35.3333 36.0499 35.32C38.0146 35.302 39.9216 34.6535 41.4899 33.47C42.1936 32.8693 43.0759 32.5178 43.9999 32.47V29.97C42.5932 29.9901 41.2313 30.4675 40.1199 31.33ZM29.3499 38.33L29.1199 38.44C28.9507 38.5307 28.7619 38.5788 28.5699 38.58C28.3495 38.5784 28.1336 38.5172 27.9452 38.4027C27.7568 38.2883 27.6029 38.1249 27.4999 37.93L25.2799 33.63L24.4799 32.07C24.3458 31.8116 24.3068 31.5142 24.3699 31.23C24.4113 31.0632 24.4882 30.9072 24.5951 30.7726C24.7021 30.638 24.8367 30.528 24.9899 30.45L25.2199 30.33C25.3899 30.2424 25.5787 30.1977 25.7699 30.2C25.9125 30.203 26.054 30.2265 26.1899 30.27C26.4706 30.3768 26.702 30.5833 26.8399 30.85L27.6799 32.48L29.8699 36.71C30.0108 36.9931 30.0353 37.3201 29.9381 37.621C29.8409 37.9219 29.6298 38.1728 29.3499 38.32V38.33Z" fill="#1A1A1A"/>
</svg>
