<svg width="48" height="48" viewBox="0 0 48 48" fill="none" xmlns="http://www.w3.org/2000/svg">
<path d="M45 42.12C43.21 42.1233 41.463 41.5713 40 40.54C38.5355 41.5685 36.7895 42.1203 35 42.1203C33.2105 42.1203 31.4645 41.5685 30 40.54C28.5355 41.5685 26.7895 42.1203 25 42.1203C23.2105 42.1203 21.4645 41.5685 20 40.54C18.5355 41.5685 16.7895 42.1203 15 42.1203C13.2105 42.1203 11.4645 41.5685 10 40.54C8.53696 41.5713 6.79 42.1233 5 42.12V39.62C6.539 39.6115 8.02056 39.0345 9.16 38L10 37.24L10.84 38C11.981 39.0295 13.4632 39.5993 15 39.5993C16.5368 39.5993 18.019 39.0295 19.16 38L20 37.24L20.84 38C21.981 39.0295 23.4632 39.5993 25 39.5993C26.5368 39.5993 28.019 39.0295 29.16 38L30 37.24L30.84 38C31.981 39.0295 33.4632 39.5993 35 39.5993C36.5368 39.5993 38.019 39.0295 39.16 38L40 37.24L40.84 38C41.9794 39.0345 43.461 39.6115 45 39.62V42.12Z" fill="#1A1A1A"/>
<path d="M29.6799 17.57L38.9999 8.26001L37.1199 6.38001L27.8099 15.68C22.5999 10.7625 16.0583 7.4865 8.99989 6.26001C10.1754 13.0337 13.2436 19.3365 17.8499 24.44C17.5639 24.3794 17.2723 24.3492 16.9799 24.35C16.4727 24.3482 15.9702 24.4472 15.5015 24.6412C15.0329 24.8351 14.6074 25.1203 14.2499 25.48L9.57989 30.15C8.85809 30.8752 8.45288 31.8568 8.45288 32.88C8.45288 33.9032 8.85809 34.8848 9.57989 35.61L9.75989 35.79C10.4855 36.5149 11.4692 36.922 12.4949 36.922C13.5205 36.922 14.5042 36.5149 15.2299 35.79L19.8899 31.13C20.3552 30.6561 20.6913 30.0709 20.8664 29.4302C21.0414 28.7895 21.0495 28.1147 20.8899 27.47C25.9593 31.9524 32.1732 34.94 38.8399 36.1C37.6315 29.1712 34.4512 22.7376 29.6799 17.57ZM17.9999 29.25L13.3299 33.91C13.2182 34.0213 13.0856 34.1096 12.9397 34.1696C12.7939 34.2297 12.6376 34.2604 12.4799 34.26C12.1622 34.2565 11.8579 34.1313 11.6299 33.91L11.4499 33.73C11.338 33.6185 11.2493 33.4861 11.1887 33.3402C11.1281 33.1943 11.0969 33.0379 11.0969 32.88C11.0969 32.7221 11.1281 32.5657 11.1887 32.4198C11.2493 32.274 11.338 32.1415 11.4499 32.03L16.1199 27.36C16.2343 27.2432 16.3714 27.151 16.5227 27.0891C16.674 27.0272 16.8364 26.9969 16.9999 27C17.3176 27.0035 17.6219 27.1288 17.8499 27.35L18.0299 27.53C18.1416 27.6445 18.2296 27.78 18.2886 27.9287C18.3476 28.0774 18.3766 28.2363 18.3738 28.3963C18.371 28.5562 18.3365 28.714 18.2723 28.8606C18.2082 29.0071 18.1156 29.1395 17.9999 29.25ZM21.0899 24C20.8199 23.73 20.5599 23.46 20.3099 23.18C16.7396 19.3885 14.0941 14.823 12.5799 9.84001C17.5628 11.3542 22.1283 13.9997 25.9199 17.57C26.1999 17.82 26.4699 18.08 26.7399 18.35C27.0099 18.62 27.4599 19.08 27.7999 19.46C31.2259 23.1804 33.772 27.6232 35.2499 32.46C30.4107 30.9826 25.9671 28.4327 22.2499 25C21.8199 24.72 21.4499 24.36 21.0899 24Z" fill="#1A1A1A"/>
</svg>
