<svg width="48" height="48" viewBox="0 0 48 48" fill="none" xmlns="http://www.w3.org/2000/svg">
<path d="M40.05 31.3901L38.05 18.0801C37.8043 16.3874 36.9558 14.8404 35.6606 13.7233C34.3653 12.6063 32.7104 11.9944 31 12.0001H17C15.2879 11.992 13.6305 12.6028 12.3332 13.7201C11.0359 14.8373 10.1859 16.3857 9.94 18.0801L8 31.3901C6.88158 32.3326 5.46257 32.8435 4 32.8301V35.3301C5.19503 35.3325 6.37724 35.0838 7.47 34.6001C8.00897 34.3723 8.52191 34.0874 9 33.7501C9.51957 34.1113 10.076 34.4164 10.66 34.6601C11.718 35.1023 12.8533 35.3301 14 35.3301C15.1467 35.3301 16.282 35.1023 17.34 34.6601C17.924 34.4164 18.4804 34.1113 19 33.7501C19.5196 34.1113 20.076 34.4164 20.66 34.6601C21.718 35.1023 22.8533 35.3301 24 35.3301C25.1467 35.3301 26.282 35.1023 27.34 34.6601C27.924 34.4164 28.4804 34.1113 29 33.7501C29.5196 34.1113 30.076 34.4164 30.66 34.6601C31.718 35.1023 32.8533 35.3301 34 35.3301C35.1467 35.3301 36.282 35.1023 37.34 34.6601C37.924 34.4164 38.4804 34.1113 39 33.7501C39.4781 34.0874 39.991 34.3723 40.53 34.6001C41.6228 35.0838 42.805 35.3325 44 35.3301V32.8301C42.5546 32.8316 41.1553 32.3215 40.05 31.3901ZM37.05 32.0001C36.1146 32.5437 35.0519 32.83 33.97 32.83C32.8881 32.83 31.8254 32.5437 30.89 32.0001C30.5019 31.7814 30.1396 31.5198 29.81 31.2201L29 30.4701L28.16 31.2201C27.8304 31.5198 27.4681 31.7814 27.08 32.0001C26.1446 32.5437 25.0819 32.83 24 32.83C22.9181 32.83 21.8554 32.5437 20.92 32.0001C20.5319 31.7814 20.1696 31.5198 19.84 31.2201L19 30.4701L18.16 31.2201C17.8304 31.5198 17.4681 31.7814 17.08 32.0001C16.1446 32.5437 15.0819 32.83 14 32.83C12.9181 32.83 11.8554 32.5437 10.92 32.0001C10.7976 31.9363 10.6805 31.8627 10.57 31.7801L12.57 18.4701C12.7244 17.4074 13.2579 16.4364 14.0721 15.7362C14.8863 15.0359 15.9262 14.6537 17 14.6601H31C32.0738 14.6537 33.1137 15.0359 33.9279 15.7362C34.7421 16.4364 35.2756 17.4074 35.43 18.4701L37.43 31.7801C37.3195 31.8627 37.2024 31.9363 37.08 32.0001H37.05Z" fill="#1A1A1A"/>
<path d="M13.89 20.72H19.42V22H17.42V27.61H15.91V22H13.91L13.89 20.72Z" fill="black"/>
<path d="M23.41 26.06H20.85L20.32 27.64H18.86L21.27 20.72H23.05L25.46 27.64H23.94L23.41 26.06ZM21.25 24.85H23L22.41 23C22.28 22.61 22.15 22.09 22.15 22.09C22.15 22.09 22.02 22.61 21.89 23L21.25 24.85Z" fill="black"/>
<path d="M28.68 24.9C28.68 24.9 28.43 25.4 28.21 25.81L27.21 27.64H25.61L27.61 24.1L25.74 20.72H27.37L28.22 22.34C28.45 22.78 28.67 23.28 28.67 23.28C28.67 23.28 28.91 22.77 29.14 22.34L30 20.72H31.54L29.7 24.05L31.7 27.64H30.15L29.15 25.81C28.93 25.4 28.68 24.9 28.68 24.9Z" fill="black"/>
<path d="M32.51 20.72H34V27.64H32.51V20.72Z" fill="black"/>
</svg>
