<svg width="76" height="15" viewBox="0 0 76 15" fill="none" xmlns="http://www.w3.org/2000/svg" role="img" aria-label="Back">
<g clip-path="url(#clip0)">
<path d="M31.008 13H35.792C38.272 13 39.824 11.752 39.824 9.832C39.824 8.184 38.688 7.448 37.76 7.208V7.144C38.496 6.856 39.408 6.12 39.408 4.744C39.408 2.904 37.728 1.928 35.376 1.928H31.008V13ZM37.072 5.096C37.072 5.912 36.512 6.392 35.52 6.392H33.344V3.848H35.52C36.512 3.848 37.072 4.28 37.072 5.096ZM37.456 9.672C37.456 10.536 36.896 11.08 35.856 11.08H33.344V8.312H35.856C36.896 8.312 37.456 8.808 37.456 9.672ZM44.5201 6.472C45.1761 6.472 45.6721 6.824 45.6721 7.352C45.6721 7.912 45.0481 8.056 43.9441 8.296C42.6481 8.552 40.9841 9.016 40.9841 10.824C40.9841 12.312 42.1041 13.192 43.5281 13.192C44.7601 13.192 45.4961 12.488 45.8161 11.992H45.8641C45.9601 12.376 46.0561 12.632 46.3121 13H48.0081C47.8481 12.392 47.8161 11.816 47.8161 10.968V7.752C47.8161 5.736 46.3761 4.744 44.5521 4.744C42.7601 4.744 41.3681 5.672 40.7441 7.016L42.7281 8.072C42.9521 7.112 43.5921 6.472 44.5201 6.472ZM45.7361 9.96C45.7361 10.952 45.0161 11.496 44.2161 11.496C43.5121 11.496 43.1601 11.16 43.1601 10.664C43.1601 10.024 43.7841 9.848 44.4721 9.672C45.0801 9.512 45.5121 9.336 45.7361 9.048V9.96ZM53.0551 6.472C54.0471 6.472 54.4631 7.352 54.4631 8.424L56.5271 7.368C56.2711 6.072 55.0551 4.744 53.0551 4.744C50.8471 4.744 49.2151 6.344 49.2151 8.968C49.2151 11.592 50.8471 13.192 53.0551 13.192C55.0551 13.192 56.2711 11.864 56.5271 10.568L54.4631 9.512C54.4631 10.584 54.0471 11.464 53.0551 11.464C51.9671 11.464 51.5031 10.408 51.5031 8.968C51.5031 7.528 51.9671 6.472 53.0551 6.472ZM65.339 4.936H62.699L60.971 7.24C60.523 7.864 59.995 8.744 59.995 8.744H59.947C59.947 8.744 60.059 7.752 60.059 6.76V1.416H57.803V13H60.059V11.128L61.131 9.768L63.115 13H65.579L62.619 8.136L65.339 4.936Z" fill="black"/>
<path d="M17.961 13L19.1044 11.9451L15.0952 8.2454H25V6.7529L15.0958 6.7529L19.1044 3.05437L17.961 2L12 7.5L17.961 13Z" fill="#1A1A1A"/>
</g>
<defs>
<clipPath id="clip0">
<rect width="76" height="15" fill="white"/>
</clipPath>
</defs>
</svg>
