<svg width="47" height="35" viewBox="0 0 47 35" fill="none" xmlns="http://www.w3.org/2000/svg">
<path fill-rule="evenodd" clip-rule="evenodd" d="M31.2428 21.0621L30.0208 19.8452C26.7217 16.5605 21.3548 16.5605 18.0571 19.8452L16.8376 21.0569L15.6221 19.8452C12.323 16.5592 6.95481 16.5605 3.65578 19.8452L2.43503 21.0621L0 18.6167L1.22076 17.3998C5.47719 13.1628 12.1764 12.8087 16.8376 16.3386C21.4988 12.8087 28.1994 13.1615 32.4558 17.3998L33.6778 18.6167L31.2428 21.0621Z" fill="#1A1A1A"/>
<path fill-rule="evenodd" clip-rule="evenodd" d="M44.4591 34.8661L43.2357 33.6492C40.1001 30.524 34.9966 30.524 31.8597 33.6492L30.6428 34.8609L29.4247 33.6492C26.2891 30.524 21.1855 30.524 18.0487 33.6492L16.8266 34.8661L14.3916 32.4194L15.6137 31.2038C19.7066 27.1277 26.1451 26.7762 30.6428 30.1478C35.1406 26.7762 41.5791 27.1277 45.672 31.2038L46.8941 32.4194L44.4591 34.8661Z" fill="#1A1A1A"/>
<path fill-rule="evenodd" clip-rule="evenodd" d="M44.4591 7.25792L43.2357 6.04105C40.1001 2.91716 34.9966 2.91716 31.8597 6.04105L30.6428 7.25273L29.4247 6.04105C26.2891 2.91716 21.1855 2.91716 18.0487 6.04105L16.8266 7.25792L14.3916 4.81251L15.6137 3.59565C19.7066 -0.480462 26.1451 -0.83203 30.6428 2.54094C35.1406 -0.83203 41.5791 -0.480462 45.672 3.59565L46.8941 4.81251L44.4591 7.25792Z" fill="#1A1A1A"/>
</svg>
