<?xml version="1.0" encoding="UTF-8"?>
<svg width="45px" height="45px" viewBox="0 0 45 45" version="1.1" xmlns="http://www.w3.org/2000/svg" xmlns:xlink="http://www.w3.org/1999/xlink">
    <!-- Generator: Sketch 60.1 (88133) - https://sketch.com -->
    <title>icon-kayak</title>
    <desc>Created with Sketch.</desc>
    <g id="icon-kayak" stroke="none" stroke-width="1" fill="none" fill-rule="evenodd">
        <g id="Group" transform="translate(8.000000, 9.000000)" fill="#1A1A1A" fill-rule="nonzero">
            <path d="M30,27.31646 C28.657,27.31906 27.347,26.90496 26.25,26.13146 C25.152,26.90286 23.842,27.31676 22.5,27.31676 C21.158,27.31676 19.848,26.90286 18.75,26.13146 C17.652,26.90286 16.342,27.31676 15,27.31676 C13.658,27.31676 12.348,26.90286 11.25,26.13146 C10.152,26.90286 8.842,27.31676 7.5,27.31676 C6.158,27.31676 4.848,26.90286 3.75,26.13146 C2.653,26.90496 1.343,27.31906 0,27.31646 L0,25.44146 C1.154,25.43506 2.265,25.00236 3.12,24.22646 L3.75,23.65646 L4.38,24.22646 C5.236,24.99856 6.347,25.42596 7.5,25.42596 C8.653,25.42596 9.764,24.99856 10.62,24.22646 L11.25,23.65646 L11.88,24.22646 C12.736,24.99856 13.847,25.42596 15,25.42596 C16.153,25.42596 17.264,24.99856 18.12,24.22646 L18.75,23.65646 L19.38,24.22646 C20.236,24.99856 21.347,25.42596 22.5,25.42596 C23.653,25.42596 24.764,24.99856 25.62,24.22646 L26.25,23.65646 L26.88,24.22646 C27.735,25.00236 28.846,25.43506 30,25.44146 L30,27.31646 Z" id="Path"></path>
            <path d="M22.766,-2.66453526e-14 C23.466,-2.66453526e-14 24.1387273,0.252363636 24.6647228,0.706685199 L24.818,0.84899 L24.953,0.98399 C25.494,1.52792 25.798,2.26409 25.798,3.03149 C25.798,3.72913545 25.5467603,4.40096273 25.0946191,4.92600262 L24.953,5.07899 L21.45,8.58146 C21.182,8.85126 20.863,9.06516 20.511,9.21066 C20.16,9.35616 19.783,9.43036 19.403,9.42896 C19.183,9.42956 18.965,9.40696 18.75,9.36146 C22.199,13.19096 24.495,17.91786 25.373,22.99646 C20.375,22.12516 15.718,19.88456 11.918,16.52396 C12.037,17.00756 12.031,17.51366 11.9,17.99416 C11.7877143,18.4060171 11.5865306,18.787311 11.3115627,19.1116556 L11.168,19.26896 L7.673,22.76396 C7.128,23.30766 6.391,23.61296 5.621,23.61296 C4.92190909,23.61296 4.24843802,23.360646 3.72305109,22.9062808 L3.57,22.76396 L3.435,22.62896 C2.894,22.08506 2.59,21.34886 2.59,20.58146 C2.59,19.8838236 2.84123967,19.212055 3.29338092,18.6869656 L3.435,18.53396 L6.938,15.03146 C7.206,14.76166 7.525,14.54786 7.876,14.40236 C8.228,14.25686 8.605,14.18266 8.985,14.18396 C9.204,14.18336 9.423,14.20606 9.638,14.25146 C6.183,10.42386 3.882,5.69674 3,0.61649 C8.013,1.47993 12.688,3.72097 16.5,7.08896 C16.38,6.60546 16.386,6.09936 16.518,5.61885 C16.6302857,5.20699286 16.8314694,4.82570633 17.1064373,4.50131974 L17.25,4.34399 L20.715,0.84899 C21.259,0.30536 21.997,-2.66453526e-14 22.766,-2.66453526e-14 Z M8.985,16.1864571 C8.867,16.18616 8.75,16.20926 8.64,16.25426 C8.56733333,16.2843267 8.49866667,16.3237267 8.43637037,16.3713933 L8.348,16.44896 L4.845,19.95146 C4.761,20.03506 4.695,20.13446 4.649,20.24386 C4.604,20.35326 4.58,20.47056 4.58,20.58896 C4.58,20.70746 4.604,20.82476 4.649,20.93416 C4.67966667,21.0070933 4.71922222,21.0755378 4.76707407,21.1378341 L4.845,21.22646 L4.973,21.35396 C5.144,21.51996 5.372,21.61386 5.61,21.6164629 C5.728,21.61676 5.846,21.59376 5.955,21.54866 C6.02766667,21.51866 6.09633333,21.4792378 6.15892593,21.4315489 L6.248,21.35396 L9.75,17.85896 C9.919,17.69016 10.014,17.46166 10.0150316,17.22306 C10.0166719,17.0241433 9.95236199,16.8316156 9.83481496,16.6740646 L9.758,16.58396 L9.623,16.44896 C9.452,16.28306 9.223,16.18906 8.985,16.1864571 Z M5.685,3.30149 C6.824,7.05486 8.819,10.49256 11.513,13.34396 C11.7,13.55396 11.828,13.72646 12.098,13.95896 C12.368,14.19146 12.645,14.46146 12.93,14.70896 C15.5852381,17.1608648 18.7348073,19.012316 22.1636119,20.1402169 L22.68,20.30396 C21.552,16.56676 19.568,13.14266 16.89,10.29896 C16.703,10.08896 16.575,9.95396 16.305,9.68396 C16.035,9.41396 15.758,9.14396 15.473,8.89646 C12.674,6.31716 9.328,4.40438 5.685,3.30149 Z M22.763,1.9964873 C22.644,1.9962 22.527,2.01924 22.418,2.06428 C22.308,2.10932 22.209,2.17549 22.125,2.25899 L22.125,2.25899 L18.63,5.75396 C18.453,5.92416 18.357,6.15476 18.357,6.39526 C18.357,6.63566 18.453,6.86636 18.623,7.03646 L18.623,7.03646 L18.758,7.17146 C18.929,7.33746 19.157,7.43136 19.395,7.4339629 C19.513,7.43426 19.631,7.41126 19.74,7.36616 C19.849,7.32116 19.949,7.25496 20.033,7.17146 L20.033,7.17146 L23.535,3.66899 C23.619,3.58538 23.686,3.48603 23.731,3.37663 C23.776,3.26723 23.8,3.14995 23.8,3.03149 C23.8,2.91304 23.776,2.79575 23.731,2.68636 C23.686,2.57696 23.619,2.47761 23.535,2.39399 L23.535,2.39399 L23.4,2.25899 C23.229,2.09305 23.001,1.99909 22.763,1.9964873 Z" id="Combined-Shape"></path>
            <path d="M16.627,11.97086 L14.326,9.66926 C13.728,9.07176 12.759,9.07176 12.162,9.66926 C11.564,10.26676 11.564,11.23556 12.162,11.83306 L14.463,14.13466 C15.061,14.73216 16.03,14.73216 16.627,14.13466 C17.225,13.53716 17.225,12.56836 16.627,11.97086 Z" id="Path"></path>
        </g>
    </g>
</svg>