<?xml version="1.0" encoding="UTF-8"?>
<svg width="45px" height="45px" viewBox="0 0 45 45" version="1.1" xmlns="http://www.w3.org/2000/svg" xmlns:xlink="http://www.w3.org/1999/xlink">
    <!-- Generator: Sketch 60.1 (88133) - https://sketch.com -->
    <title>icon-rowing-boat</title>
    <desc>Created with Sketch.</desc>
    <g id="icon-rowing-boat" stroke="none" stroke-width="1" fill="none" fill-rule="evenodd">
        <g id="Shape" transform="translate(7.000000, 12.000000)" fill="#1A1A1A" fill-rule="nonzero">
            <path d="M25.507,15.57 L30.217,8.4975 L14.385,8.4975 L9.967,1.42108547e-14 L8.19,0.915 L12.135,8.4975 L-1.70530257e-13,8.4975 L3.975,14.4975 L3.63,14.7225 C2.926,15.2861 2.057,15.6047 1.155,15.63 L1.155,17.625 C2.444,17.6083 3.693,17.177 4.717,16.395 C5.401,15.8428 6.247,15.5294 7.125,15.5025 C8.001,15.5321 8.843,15.8453 9.525,16.395 C10.55,17.177 11.799,17.6083 13.087,17.625 C13.555,17.626 14.022,17.568 14.475,17.4525 L15.975,20.385 C16.327,21.0672 16.936,21.5817 17.667,21.8151 C18.399,22.0486 19.193,21.982 19.875,21.63 L20.047,21.54 C20.73,21.1864 21.245,20.5764 21.478,19.8438 C21.712,19.1112 21.645,18.3159 21.292,17.6325 L20.332,15.75 C20.721,15.9309 21.093,16.1468 21.442,16.395 C22.471,17.1757 23.722,17.6067 25.012,17.625 C26.301,17.6083 27.55,17.177 28.575,16.395 C28.86,16.2075 29.13,16.0425 29.392,15.9 L29.392,13.71 C28.715,13.9485 28.074,14.2791 27.487,14.6925 C26.908,15.1405 26.229,15.4416 25.507,15.57 Z M13.552,15.57 C13.398,15.582 13.242,15.582 13.087,15.57 C12.197,15.5485 11.337,15.2408 10.635,14.6925 C9.622,13.9303 8.392,13.5124 7.125,13.5 C6.685,13.4976 6.247,13.5505 5.82,13.6575 L3.72,10.5 L13.14,10.5 L14.227,12.6 C13.852,12.9848 13.591,13.4658 13.472,13.9899 C13.353,14.514 13.381,15.0608 13.552,15.57 Z M19.147,19.74 L18.975,19.8225 C18.848,19.8905 18.706,19.9266 18.562,19.9275 C18.397,19.9263 18.235,19.8804 18.094,19.7945 C17.953,19.7087 17.837,19.5862 17.76,19.44 L16.297,16.5975 L15.495,15.045 C15.456,14.964 15.429,14.8783 15.412,14.79 C15.376,14.6003 15.402,14.4038 15.487,14.2305 C15.573,14.0572 15.712,13.9165 15.885,13.83 L16.057,13.74 C16.218,13.6579 16.4,13.6262 16.58,13.6489 C16.759,13.6717 16.927,13.7478 17.062,13.8675 C17.15,13.9394 17.222,14.0288 17.272,14.13 L18.022,15.63 L19.522,18.5325 C19.629,18.743 19.65,18.9869 19.58,19.2123 C19.51,19.4377 19.355,19.627 19.147,19.74 Z M23.385,15.1875 C23.097,15.0404 22.819,14.8751 22.552,14.6925 C21.579,13.9539 20.399,13.5371 19.177,13.5 L19.035,13.23 C18.793,12.7567 18.424,12.3598 17.97,12.0831 C17.516,11.8064 16.994,11.6608 16.462,11.6625 C16.309,11.6626 16.156,11.6777 16.005,11.7075 L15.39,10.5 L26.497,10.5 L23.385,15.1875 Z"></path>
        </g>
    </g>
</svg>