<?xml version="1.0" encoding="UTF-8"?>
<svg width="100%" height="100%" viewBox="0 0 45 45" version="1.1" xmlns="http://www.w3.org/2000/svg" xmlns:xlink="http://www.w3.org/1999/xlink">
    <!-- Generator: Sketch 60.1 (88133) - https://sketch.com -->
    <title>category-cafe</title>
    <desc>Created with Sketch.</desc>
    <g id="category-cafe" stroke="none" stroke-width="1" fill="none" fill-rule="evenodd">
        <g id="Group-7" transform="translate(11.000000, 8.000000)" fill="#1A1A1A">
            <path d="M11,10 L13.0002493,9.99910316 C13.0002493,8.01469819 14.3449651,6.40023916 16,6.39934232 L16,4 C14.664008,4.00089684 13.4077767,4.62509653 12.4643569,5.75795321 C11.5196909,6.8908099 11,8.39809671 11,10 Z" id="Path"></path>
            <path d="M8.84610592,6.01665955 C12.1892835,4.93632529 14,3.65722448 14,0 L11.8,0 C11.8,2.13872277 11.296947,2.9668144 8.15252336,3.98347394 C4.80934579,5.06367471 3,6.34197458 3,10 L5.2,10 C5.2,7.86135733 5.70168224,7.0331856 8.84610592,6.01665955 Z" id="Path"></path>
            <path d="M19.0773644,14.2770596 C18.0937065,14.2770596 17.2113468,14.5321525 16.4462796,15.0173474 L16.7581711,13 L0,13 L2.4698076,29 L14.2896963,29 L14.4283148,28.102323 C14.722879,26.2693496 16.298331,25.422319 18.1230297,24.4396996 C20.2956073,23.2700475 23,21.8141969 23,18.1883952 C23,16.0321359 21.2392791,14.2770596 19.0773644,14.2770596 Z M2.49379926,15.1336612 L14.2643718,15.1336612 L13.4113352,20.6558439 C13.4113352,20.6566415 13.4113352,20.6582367 13.4113352,20.6590343 L12.4530019,26.8662058 L4.30516922,26.8662058 L2.49379926,15.1336612 Z M17.1060501,22.5617959 C16.4436138,22.9195108 15.7505216,23.2925127 15.1027469,23.7337078 L15.5265994,20.9823203 C16.1077306,17.2040477 17.7764835,16.4107208 19.0773644,16.4107208 C20.0596894,16.4107208 20.8594112,17.2081686 20.8594112,18.1883952 C20.8594112,20.4272041 19.4345735,21.3095942 17.1060501,22.5617959 Z" id="Shape"></path>
        </g>
    </g>
</svg>
