<?xml version="1.0" encoding="UTF-8"?>
<svg width="45px" height="45px" viewBox="0 0 45 45" version="1.1" xmlns="http://www.w3.org/2000/svg" xmlns:xlink="http://www.w3.org/1999/xlink">
    <!-- Generator: Sketch 60.1 (88133) - https://sketch.com -->
    <title>icon-gas</title>
    <desc>Created with Sketch.</desc>
    <g id="icon-gas" stroke="none" stroke-width="1" fill="none" fill-rule="evenodd">
        <g id="Group" transform="translate(9.000000, 12.000000)" fill="#1A1A1A" fill-rule="nonzero">
            <polygon id="Path" points="26.25 9.25 0 9.25 0 11.5 26.25 11.5"></polygon>
            <path d="M0,0.25 L0,22 L11.25,22 L11.25,0.25 L0,0.25 Z M9,8.5 L2.25,8.5 L2.25,1.75 L9,1.75 L9,8.5 Z" id="Shape"></path>
            <path d="M20.38,19.43998 C18.82,19.43798 17.33,18.81868 16.22,17.71778 C15.12,16.61688 14.5,15.12438 14.5,13.56748 L14.5,13.19248 C14.5,12.73258 14.41,12.27708 14.24,11.85218 C14.06,11.42718 13.8,11.04108 13.48,10.71588 C13.15,10.39058 12.77,10.13258 12.34,9.95658 C11.92,9.78058 11.46,9.68998 11,9.68998 L11,7.69498 C12.46,7.69698 13.85,8.27678 14.89,9.30738 C15.92,10.33788 16.5,11.73508 16.5,13.19248 L16.5,13.56748 C16.5,14.59588 16.91,15.58218 17.63,16.30928 C18.36,17.03648 19.35,17.44498 20.38,17.44498 C21.4,17.44498 22.39,17.03648 23.12,16.30928 C23.84,15.58218 24.25,14.59588 24.25,13.56748 L24.25,7.42498 L22.11,3.135 L23.89,2.25 L26.25,6.95998 L26.25,13.56748 C26.25,15.12438 25.63,16.61688 24.53,17.71778 C23.42,18.81868 21.93,19.43798 20.38,19.43998 Z" id="Path"></path>
            <polygon id="Path" points="24.75 0 23.25 0 23.25 3.75 24.75 3.75"></polygon>
        </g>
    </g>
</svg>