<?xml version="1.0" encoding="UTF-8"?>
<svg width="100%" height="100%" viewBox="0 0 45 45" version="1.1" xmlns="http://www.w3.org/2000/svg" xmlns:xlink="http://www.w3.org/1999/xlink">
    <!-- Generator: Sketch 60.1 (88133) - https://sketch.com -->
    <title>icon-boat-with-key</title>
    <desc>Created with Sketch.</desc>
    <g id="icon-boat-with-key" stroke="none" stroke-width="1" fill="none" fill-rule="evenodd">
        <g id="Shape" transform="translate(7.000000, 10.000000)" fill="#1A1A1A" fill-rule="nonzero">
            <path d="M28.763,21.855 L26.738,16.395 L14.55,16.395 L11.88,11.9475 L6.54,16.395 L-2.84217094e-14,16.395 L3.975,22.395 L3.637,22.6125 C2.932,23.1791 2.06,23.498 1.155,23.52 L1.155,25.5 C2.447,25.4827 3.699,25.0487 4.725,24.2625 C5.405,23.7139 6.244,23.4007 7.117,23.37 C7.983,23.4055 8.814,23.7184 9.487,24.2625 C10.521,25.0548 11.785,25.4892 13.087,25.5 C14.377,25.4811 15.626,25.0472 16.65,24.2625 C17.332,23.7123 18.174,23.3991 19.05,23.37 C19.938,23.3926 20.795,23.7061 21.487,24.2625 C22.504,25.0636 23.76,25.4993 25.054,25.4993 C26.348,25.4993 27.604,25.0636 28.62,24.2625 C29.3,23.7139 30.139,23.4007 31.013,23.37 L31.013,21.375 C30.236,21.3629 29.467,21.527 28.763,21.855 Z M11.37,15 L12.225,16.425 L9.66,16.425 L11.37,15 Z M25.013,23.4975 C24.11,23.4755 23.24,23.1565 22.538,22.59 C21.546,21.8027 20.316,21.3743 19.05,21.3743 C17.784,21.3743 16.554,21.8027 15.562,22.59 C14.86,23.1565 13.99,23.4755 13.087,23.4975 C12.183,23.4766 11.31,23.1576 10.605,22.59 C9.603,21.8219 8.38,21.396 7.117,21.375 C6.68,21.3733 6.244,21.4262 5.82,21.5325 L3.727,18.39 L25.373,18.39 L27.015,22.89 C26.425,23.291 25.726,23.5029 25.013,23.4975 Z"></path>
            <path d="M22.425,-1.11910481e-13 C21.606,0.00103 20.801,0.20757 20.083,0.60068 C19.365,0.9938 18.757,1.5609 18.315,2.25 L5.565,2.25 L3.315,4.5 L6.315,7.5 L9.315,6 L11.565,7.5 L14.565,6 L16.815,7.5 L18.315,7.5 C18.771,8.2132 19.404,8.7954 20.153,9.1895 C20.902,9.5835 21.741,9.7757 22.587,9.7472 C23.433,9.7188 24.257,9.4706 24.977,9.027 C25.698,8.5835 26.291,7.96 26.698,7.2178 C27.105,6.4756 27.311,5.6403 27.297,4.794 C27.283,3.94778 27.049,3.11978 26.618,2.39149 C26.187,1.6632 25.573,1.0597 24.838,0.64038 C24.103,0.22106 23.271,0.00036 22.425,-1.11910481e-13 Z M23.925,6.75 C23.554,6.75 23.192,6.64 22.883,6.434 C22.575,6.228 22.335,5.9351 22.193,5.5925 C22.051,5.2499 22.014,4.8729 22.086,4.50921 C22.158,4.14549 22.337,3.8114 22.599,3.54917 C22.861,3.28695 23.195,3.10837 23.559,3.03603 C23.923,2.96368 24.3,3.00081 24.642,3.14273 C24.985,3.28464 25.278,3.52496 25.484,3.83331 C25.69,4.14165 25.8,4.50416 25.8,4.875 C25.8,5.3723 25.602,5.8492 25.251,6.2008 C24.899,6.5525 24.422,6.75 23.925,6.75 Z"></path>
        </g>
    </g>
</svg>
