<?xml version="1.0" encoding="UTF-8"?>
<svg width="45px" height="45px" viewBox="0 0 45 45" version="1.1" xmlns="http://www.w3.org/2000/svg" xmlns:xlink="http://www.w3.org/1999/xlink">
    <!-- Generator: Sketch 60.1 (88133) - https://sketch.com -->
    <title>icon-location</title>
    <desc>Created with Sketch.</desc>
    <g id="icon-location" stroke="none" stroke-width="1" fill="none" fill-rule="evenodd">
        <g id="Shape" transform="translate(10.000000, 6.000000)" fill="#1A1A1A" fill-rule="nonzero">
            <path d="M12.9493616,7.55933227 C11.9256116,7.55775721 10.9181116,7.85229209 10.0649866,8.40562233 C9.21186159,8.95903163 8.54561159,9.7463293 8.15561159,10.6679665 C7.75748659,11.5896037 7.65998659,12.6041479 7.85498659,13.5832688 C8.05811159,14.5623898 8.54561159,15.4619665 9.27686159,16.1682967 C9.99998659,16.8745479 10.9181116,17.3557665 11.9256116,17.5510688 C12.9331116,17.7463712 13.9731116,17.6469805 14.9237366,17.2653898 C15.8743616,16.8837991 16.6787366,16.2371665 17.2474866,15.4074084 C17.8243616,14.5776502 18.1249866,13.6020084 18.1249866,12.6039898 C18.1249866,11.2673944 17.5806116,9.98551535 16.6056116,9.03968279 C15.6387366,8.09385023 14.3224866,7.56139442 12.9493616,7.55933227 Z M12.9493616,15.1184198 C12.4374866,15.1199107 11.9337366,14.9731572 11.5031116,14.6965712 C11.0806116,14.4200642 10.7474866,14.0262177 10.5443616,13.5650037 C10.3493616,13.1037107 10.3006116,12.5959247 10.3981116,12.1059293 C10.4956116,11.615934 10.7474866,11.1657107 11.1049866,10.812506 C11.4706116,10.4593014 11.9337366,10.2189293 12.4374866,10.1218316 C12.9412366,10.024734 13.4612366,10.0753386 13.9406116,10.2672409 C14.4118616,10.4591433 14.8181116,10.7836456 15.1024866,11.1996316 C15.3868616,11.6156967 15.5331116,12.104427 15.5331116,12.6039898 C15.5331116,13.2701526 15.2568616,13.9085619 14.7774866,14.3796595 C14.2899866,14.8506781 13.6318616,15.1162735 12.9493616,15.1184198 Z"></path>
            <path d="M22.1956116,3.69274 C19.7337366,1.32665628 16.4106116,-7.46069873e-14 12.9493616,-7.46069873e-14 C9.48811159,-7.46069873e-14 6.16498659,1.32665628 3.70311159,3.69274 C-1.40751341,8.61088744 -1.05813841,16.2806549 3.70311159,21.5071665 C8.57811159,26.8839107 11.2024866,30.2048409 12.9412366,33.6048409 C14.6962366,30.2364688 17.3043616,26.8839107 22.1956116,21.5071665 C26.9568616,16.2806549 27.2981116,8.61088744 22.1956116,3.69274 Z M20.2537366,19.8387944 C17.6293616,22.6294037 15.1837366,25.5793386 12.9412366,28.6708874 C10.6987366,25.5813153 8.25311159,22.6315386 5.62873659,19.8387944 C3.73561159,17.8112084 2.65498659,15.1908363 2.58186159,12.4536781 C2.54936159,11.1565386 2.79311159,9.86722698 3.30498659,8.66694791 C3.80873659,7.46666884 4.56436159,6.38143628 5.52311159,5.47971674 C7.49748659,3.57962279 10.1706116,2.51414186 12.9412366,2.51414186 C15.7199866,2.51414186 18.3931116,3.57962279 20.3674866,5.47971674 C21.3262366,6.38214791 22.0818616,7.46769674 22.5856116,8.66789674 C23.0893616,9.86817581 23.3331116,11.1571712 23.3006116,12.4536781 C23.2274866,15.191627 22.1468616,17.813106 20.2537366,19.8387944 Z"></path>
        </g>
    </g>
</svg>