<?xml version="1.0" encoding="UTF-8"?>
<svg width="100%" height="100%" viewBox="0 0 45 45" version="1.1" xmlns="http://www.w3.org/2000/svg" xmlns:xlink="http://www.w3.org/1999/xlink">
    <!-- Generator: Sketch 60.1 (88133) - https://sketch.com -->
    <title>category-sauna</title>
    <desc>Created with Sketch.</desc>
    <g id="category-sauna" stroke="none" stroke-width="1" fill="none" fill-rule="evenodd">
        <g id="Group-5" transform="translate(10.000000, 8.000000)" fill="#1A1A1A" fill-rule="nonzero">
            <path d="M16.5342809,12.4946675 C15.8671962,11.4408555 15.5158863,10.2384173 15.5170011,9.01368511 L15.5170011,2.93175693 C15.5349777,2.19264136 15.2470736,1.47561113 14.7134894,0.930270249 C14.1799052,0.384929371 13.4418896,0.053401647 12.6532887,0.00486345373 C12.242893,-0.0177824882 11.8319398,0.0388258479 11.4460702,0.17115533 C11.0600613,0.303484812 10.7073579,0.508719365 10.409699,0.77406931 C10.1162207,1.03949748 9.88280379,1.35754455 9.72366221,1.70922807 C9.56438127,2.0609116 9.48258082,2.43900887 9.48299889,2.82093913 L9.48299889,9.01368511 C9.48425307,10.2384173 9.13280379,11.4408555 8.46571906,12.4946675 L0,12.4946675 L0.20206243,14.3981261 L1.59559643,27.4355135 L1.76282051,29 L23.2371795,29 L23.4044036,27.4355135 L24.7979376,14.3981261 L25,12.4946675 L16.5342809,12.4946675 Z M11.3363991,9.01368511 L11.3363991,2.82093913 C11.3372352,2.67317338 11.3699833,2.52708946 11.432553,2.39146152 C11.495262,2.25584661 11.5866778,2.13350377 11.7012263,2.03178607 C11.8159142,1.93008141 11.9512263,1.85111396 12.0992196,1.79965539 C12.2473523,1.74818379 12.404961,1.7252771 12.562709,1.73231728 C12.8736065,1.76650131 13.1594203,1.90883047 13.3634337,2.13102667 C13.5673077,2.35322286 13.6744705,2.63905454 13.6636009,2.93175693 L13.6636009,9.01368511 C13.6608138,10.1983925 13.9218227,11.370584 14.4300446,12.4555554 L10.5699554,12.4555554 C11.0783166,11.370584 11.3393255,10.1983925 11.3363991,9.01368511 Z M3.44202899,27.2660275 L2.04849498,14.2286401 L5.15607581,14.2286401 L5.79013378,27.2660275 L3.44202899,27.2660275 Z M11.5732999,27.2660275 L7.62263099,27.2660275 L6.98857302,14.2286401 L11.5454292,14.2286401 L11.5732999,27.2660275 Z M17.2658863,27.2660275 L13.4267001,27.2660275 L13.4267001,14.2286401 L17.8999443,14.2286401 L17.2658863,27.2660275 Z M21.557971,27.2660275 L19.1192865,27.2660275 L19.7533445,14.2286401 L22.951505,14.2286401 L21.557971,27.2660275 Z" id="Shape"></path>
            <path d="M13,4 C13.5522,4 14,3.77614 14,3.5 C14,3.22386 13.5522,3 13,3 C12.4478,3 12,3.22386 12,3.5 C12,3.77614 12.4478,4 13,4 Z" id="Path"></path>
        </g>
    </g>
</svg>
