<?xml version="1.0" encoding="UTF-8"?>
<svg width="45px" height="45px" viewBox="0 0 45 45" version="1.1" xmlns="http://www.w3.org/2000/svg" xmlns:xlink="http://www.w3.org/1999/xlink">
    <!-- Generator: Sketch 60.1 (88133) - https://sketch.com -->
    <title>icon</title>
    <desc>Created with Sketch.</desc>
    <g id="icon" stroke="none" stroke-width="1" fill="none" fill-rule="evenodd">
        <g id="Shape" transform="translate(8.000000, 14.000000)" fill="#1A1A1A" fill-rule="nonzero">
            <path d="M26.857,14.1825 C26.35,14.5475 25.795,14.8403 25.207,15.0525 L25.207,11.625 L2.707,11.625 L4.582,13.3425 C4.02,13.5525 3.488,13.8349 3,14.1825 C2.142,14.855 1.089,15.2313 2.27373675e-13,15.255 L2.27373675e-13,17.25 C1.486,17.2282 2.927,16.7373 4.117,15.8475 C4.632,15.3997 5.281,15.1359 5.962,15.0975 C6.193,15.0925 6.424,15.1254 6.645,15.195 C7.061,15.3528 7.454,15.5646 7.815,15.825 C8.978,16.7143 10.393,17.2131 11.857,17.25 C12.067,17.2616 12.277,17.2616 12.487,17.25 C13.752,17.1052 14.957,16.632 15.982,15.8775 C16.495,15.4313 17.141,15.1675 17.82,15.1275 C18.512,15.1639 19.174,15.4275 19.702,15.8775 C20.578,16.508 21.577,16.9452 22.635,17.16 C23.016,17.2251 23.403,17.2577 23.79,17.2575 C24.248,17.2594 24.706,17.2116 25.155,17.115 C26.155,16.8738 27.098,16.438 27.93,15.8325 C28.445,15.4061 29.084,15.1586 29.752,15.1275 L29.752,13.125 C28.7,13.165 27.687,13.535 26.857,14.1825 Z M14.857,14.19 C13.999,14.8603 12.946,15.234 11.857,15.255 C11.144,15.2634 10.44,15.0932 9.81,14.76 L9.142,14.145 L14.932,14.145 L14.857,14.19 Z M20.745,14.19 L20.707,14.19 L22.627,14.19 L22.627,15.15 C21.956,14.9303 21.327,14.598 20.767,14.1675 L20.745,14.19 Z"></path>
            <path d="M5.039,8.13 C5.442,7.0968 6.147,6.2092 7.063,5.583 C7.978,4.9568 9.061,4.6212 10.169,4.62 L10.169,2.625 C8.18,2.625 6.273,3.4152 4.866,4.8217 C3.46,6.2282 2.669,8.1359 2.669,10.125 L25.169,10.125 L20.669,8.13 L5.039,8.13 Z" id="Path"></path>
            <polygon id="Path" points="9.682 3.6375 9.157 3.1125 12.262 -9.05941988e-14 14.67 -9.05941988e-14 14.67 0.75 12.577 0.75"></polygon>
        </g>
    </g>
</svg>