<?xml version="1.0" encoding="UTF-8"?>
<svg width="45px" height="45px" viewBox="0 0 45 45" version="1.1" xmlns="http://www.w3.org/2000/svg" xmlns:xlink="http://www.w3.org/1999/xlink">
    <!-- Generator: Sketch 60.1 (88133) - https://sketch.com -->
    <title>icon-rudder</title>
    <desc>Created with Sketch.</desc>
    <g id="icon-rudder" stroke="none" stroke-width="1" fill="none" fill-rule="evenodd">
        <g id="Shape" transform="translate(8.000000, 8.000000)" fill="#000000">
            <path d="M27.5,13.2525 L25.45,13.2525 C25.25,10.9664 24.35,8.7977 22.87,7.0425 L24.33,5.5875 C24.51,5.39643 24.61,5.14265 24.61,4.87875 C24.61,4.61485 24.51,4.36107 24.33,4.17 C24.14,3.98624 23.89,3.88353 23.62,3.88353 C23.36,3.88353 23.1,3.98624 22.91,4.17 L21.46,5.625 C19.7,4.14655 17.53,3.24558 15.25,3.045 L15.25,0.9975 C15.25,0.73295 15.14,0.47923 14.96,0.29216 C14.77,0.10509 14.51,0 14.25,0 C13.99,0 13.73,0.10509 13.54,0.29216 C13.36,0.47923 13.25,0.73295 13.25,0.9975 L13.25,3.045 C10.97,3.24558 8.8,4.14655 7.04,5.625 L5.59,4.17 C5.5,4.06545 5.39,3.98063 5.26,3.92086 C5.14,3.86109 5,3.82763 4.86,3.82259 C4.73,3.81755 4.59,3.84103 4.46,3.89156 C4.33,3.94209 4.21,4.01859 4.12,4.11628 C4.02,4.21397 3.94,4.33075 3.89,4.45933 C3.84,4.58791 3.82,4.72553 3.82,4.8636 C3.83,5.00166 3.86,5.1372 3.92,5.26175 C3.98,5.3863 4.07,5.49719 4.17,5.5875 L5.63,7.0425 C4.15,8.7977 3.25,10.9664 3.05,13.2525 L1,13.2525 C0.73,13.2525 0.48,13.3576 0.29,13.5447 C0.11,13.7317 0,13.9854 0,14.25 C0,14.5146 0.11,14.7683 0.29,14.9553 C0.48,15.1424 0.73,15.2475 1,15.2475 L3.05,15.2475 C3.25,17.5336 4.15,19.7023 5.63,21.4575 L4.17,22.9125 C4.07,23.0028 3.98,23.1137 3.92,23.2383 C3.86,23.3628 3.83,23.4983 3.82,23.6364 C3.82,23.7745 3.84,23.9121 3.89,24.0407 C3.94,24.1692 4.02,24.286 4.12,24.3837 C4.21,24.4814 4.33,24.5579 4.46,24.6084 C4.59,24.659 4.73,24.6824 4.86,24.6774 C5,24.6724 5.14,24.6389 5.26,24.5791 C5.39,24.5194 5.5,24.4346 5.59,24.33 L7.04,22.875 C8.8,24.3535 10.97,25.2544 13.25,25.455 L13.25,27.5025 C13.25,27.7671 13.36,28.0208 13.54,28.2078 C13.73,28.3949 13.99,28.5 14.25,28.5 C14.51,28.5 14.77,28.3949 14.96,28.2078 C15.14,28.0208 15.25,27.7671 15.25,27.5025 L15.25,25.455 C17.53,25.2544 19.7,24.3535 21.46,22.875 L22.91,24.33 C23.1,24.512 23.36,24.6136 23.62,24.6136 C23.89,24.6136 24.14,24.512 24.33,24.33 C24.51,24.1398 24.62,23.8857 24.62,23.6213 C24.62,23.3568 24.51,23.1027 24.33,22.9125 L22.87,21.4575 C24.35,19.7023 25.25,17.5336 25.45,15.2475 L27.5,15.2475 C27.77,15.2475 28.02,15.1424 28.21,14.9553 C28.39,14.7683 28.5,14.5146 28.5,14.25 C28.5,13.9854 28.39,13.7317 28.21,13.5447 C28.02,13.3576 27.77,13.2525 27.5,13.2525 Z M15.25,5.055 C17,5.23323 18.67,5.92737 20.03,7.05 L16.09,10.9875 C15.86,10.8506 15.61,10.7424 15.34,10.665 L15.26,10.665 L15.25,5.055 Z M13.25,5.055 L13.25,10.6425 L13.17,10.6425 C12.91,10.7199 12.66,10.8281 12.42,10.965 L8.47,7.02 C9.84,5.91525 11.5,5.2325 13.25,5.055 Z M7.05,8.4675 L10.99,12.405 C10.85,12.6404 10.74,12.8924 10.66,13.155 C10.66,13.1822 10.66,13.2103 10.66,13.2375 L5.05,13.2375 C5.24,11.4858 5.93,9.8265 7.05,8.4675 Z M5.05,15.2175 L10.64,15.2175 C10.64,15.2447 10.64,15.2728 10.64,15.3 C10.72,15.5619 10.83,15.8137 10.97,16.05 L7.02,19.995 C5.92,18.6353 5.24,16.9865 5.05,15.2475 L5.05,15.2175 Z M13.25,23.445 C11.5,23.2668 9.83,22.5726 8.47,21.45 L12.41,17.5125 C12.64,17.6511 12.89,17.7595 13.16,17.835 L13.24,17.835 L13.25,23.445 Z M14.56,15.945 C14.35,15.985 14.15,15.985 13.94,15.945 C13.69,15.902 13.46,15.8047 13.25,15.66 C13.08,15.54 12.93,15.3901 12.81,15.2175 C12.67,15.0113 12.57,14.7757 12.53,14.5275 C12.48,14.3245 12.48,14.1155 12.53,13.9125 C12.57,13.6643 12.67,13.4287 12.81,13.2225 C12.93,13.0499 13.08,12.9 13.25,12.78 C13.46,12.6353 13.69,12.538 13.94,12.495 C14.15,12.455 14.35,12.455 14.56,12.495 C14.81,12.538 15.04,12.6353 15.25,12.78 C15.42,12.9 15.57,13.0499 15.69,13.2225 C15.83,13.4287 15.93,13.6643 15.97,13.9125 C16.02,14.1155 16.02,14.3245 15.97,14.5275 C15.93,14.7757 15.83,15.0113 15.69,15.2175 C15.57,15.3901 15.42,15.54 15.25,15.66 C15.04,15.8153 14.81,15.923 14.56,15.975 L14.56,15.945 Z M15.25,23.445 L15.25,17.8575 L15.33,17.8575 C15.59,17.7801 15.84,17.6719 16.08,17.535 L20.03,21.48 C18.66,22.5847 17,23.2675 15.25,23.445 Z M21.45,20.0325 L17.51,16.095 C17.65,15.8587 17.76,15.6069 17.84,15.345 C17.84,15.3178 17.84,15.2897 17.84,15.2625 L23.42,15.2625 C23.25,17.0117 22.56,18.6708 21.45,20.0325 Z M17.86,13.2825 C17.86,13.2553 17.86,13.2272 17.86,13.2 C17.78,12.9381 17.67,12.6863 17.53,12.45 L21.48,8.505 C22.6,9.8746 23.29,11.5404 23.47,13.2975 L17.86,13.2825 Z"></path>
        </g>
    </g>
</svg>