<?xml version="1.0" encoding="UTF-8"?>
<svg width="45px" height="45px" viewBox="0 0 45 45" version="1.1" xmlns="http://www.w3.org/2000/svg" xmlns:xlink="http://www.w3.org/1999/xlink">
    <!-- Generator: Sketch 60.1 (88133) - https://sketch.com -->
    <title>icon-food</title>
    <desc>Created with Sketch.</desc>
    <g id="icon-food" stroke="none" stroke-width="1" fill="none" fill-rule="evenodd">
        <path d="M25.847619,22.1441357 C26.1049571,21.869399 26.4697,21.7128098 26.8522714,21.7128098 L28.4284905,21.7128098 C29.1992048,21.7128098 29.933581,21.3951267 30.4485667,20.8388059 L36,14.8426741 L35.1598905,14.0275337 L31.0795,17.9866256 L30.4794571,17.4044168 L34.4398143,13.3288592 L33.5997667,12.5137669 L29.3994048,16.3563929 L28.7993,15.7742322 L32.8796905,11.8151404 L32.0396429,11 L25.8598143,16.3863653 C25.2864524,16.886111 24.9589762,17.5986666 24.9589762,18.3464742 L24.9589762,19.9723101 C24.9589762,20.3412886 24.7995095,20.6932687 24.5194524,20.9427782 L22.6214524,22.645377 L10.9280762,11.2632733 C10.5646593,10.9106037 9.94287113,11.1999926 10.0042217,11.6952449 C10.3479159,14.4692868 11.8857676,17.6736275 15.1155557,20.807392 L17.4916524,23.112922 L20.0512286,23.112922 L20.9643238,24.1319825 L11.4941271,32.6274376 L13.8294286,34.8730829 L22.4282476,25.7656269 L30.7029952,35 L33.0967286,32.8418092 L24.0559714,24.0417651 L25.847619,22.1441357 Z" id="Path" fill="#000000"></path>
    </g>
</svg>