<?xml version="1.0" encoding="UTF-8"?>
<svg width="100%" height="100%" viewBox="0 0 45 45" version="1.1" xmlns="http://www.w3.org/2000/svg" xmlns:xlink="http://www.w3.org/1999/xlink">
    <!-- Generator: Sketch 60.1 (88133) - https://sketch.com -->
    <title>icon-web</title>
    <desc>Created with Sketch.</desc>
    <g id="icon-web" stroke="none" stroke-width="1" fill="none" fill-rule="evenodd">
        <path d="M24,7 L24.0007451,7.03074606 C29.0858779,7.34432048 33.5278055,10.0326605 36.2315272,14.0003863 L36.5611541,14 L36.7632138,14.8349118 C38.1840752,17.2250397 39,20.0168984 39,22.9994264 C39,31.8359921 31.8377729,39 23.0005736,39 C14.1633743,39 7,31.8359921 7,22.9994264 C7,20.0164826 7.81628305,17.2242613 9.2376844,14.8339122 L9.43884593,14 L9.76884002,14.0003863 C12.4728426,10.0327108 16.9151028,7.34438865 22.0002039,7.03075798 L22,7 L24,7 Z M22.0005328,30.1427445 C20.6232585,30.1594957 19.246813,30.2109057 17.8744799,30.2969744 C18.8330732,32.4315637 20.2260687,34.3728931 21.9994612,36.0175885 Z M24.0007351,30.142781 L24.0015434,36.0166568 C25.7744573,34.3721599 27.1671079,32.4311608 28.1262318,30.2976266 C26.7538497,30.2110154 25.3776727,30.1595781 24.0007351,30.142781 Z M30.6003233,30.4903381 L30.5935455,30.5092429 C29.8215823,32.4441944 28.7436291,34.2513549 27.3890752,35.8736876 C30.1022524,34.9463248 32.4319843,33.1831684 34.0695688,30.8928692 C32.9183846,30.7326474 31.7615282,30.5989781 30.6003233,30.4903381 Z M15.3992915,30.4920279 L14.9269918,30.535875 C13.6685884,30.6611151 12.4156857,30.8158234 11.1708584,31 L11.9308221,30.8928692 C13.568227,33.182609 15.8974815,34.9454634 18.610488,35.8732066 C17.2515413,34.2461026 16.1715088,32.4332385 15.3992915,30.4920279 Z M14.0183656,24.0009714 L9.43648486,24.000425 C9.56397261,25.7445961 10.0218714,27.3985387 10.7477,28.8997458 C12.0592289,28.7037318 13.3787379,28.5408531 14.7039583,28.4094855 C14.3143102,26.9878218 14.0825492,25.5111857 14.0183656,24.0009714 Z M36.5635219,24.000425 L31.9816656,24.0000806 C31.9175159,25.5105259 31.6856824,26.9874494 31.2964753,28.4108416 C32.621262,28.5408747 33.941096,28.7037854 35.2522353,28.8980776 C35.9782405,27.3985387 36.4360574,25.7445961 36.5635219,24.000425 Z M29.6311584,24.0004925 L24,24 L24.0008469,28.0059424 C25.6385917,28.0253975 27.2761838,28.0926058 28.9080197,28.2073094 C29.3159223,26.8569581 29.5611125,25.4463066 29.6311584,24.0004925 Z M22,24 L16.3688416,24.0004925 C16.4388702,25.4459494 16.6839566,26.856261 17.092462,28.2087088 C19.0561704,28.0692426 21.0287851,28 23.000582,28 L22,28.006 L22,24 Z M11.2405935,16.1737796 L11.1144709,16.3942804 C10.1757283,18.0766872 9.58387715,19.9778784 9.43633842,22.0004401 L14.0315474,22.0005341 C14.1351199,20.1439536 14.4924187,18.3401729 15.0842065,16.6266159 C13.7974824,16.5058535 12.5150627,16.3545768 11.2405935,16.1737796 Z M28.481101,16.8212101 L28.4233824,16.8253934 C26.6195405,16.9416625 24.8089299,17 22.998836,17 L24,16.994 L24,22 L29.6160751,22.000121 C29.5016069,20.2021986 29.1157467,18.4611862 28.481101,16.8212101 Z M34.7599032,16.1734816 L33.8073169,16.3031969 C32.8471022,16.4279893 31.8828116,16.5360982 30.915583,16.6274602 C31.5077475,18.3396942 31.8649193,20.1436805 31.9684597,22.0003749 L36.5636683,22.0004401 C36.409666,19.8888857 35.7714775,17.9096173 34.7599032,16.1734816 Z M17.5200864,16.821699 L17.4682828,16.9536178 C16.8637144,18.5547831 16.4953176,20.2505056 16.3839249,22.000121 L22,22 L22.0007439,16.9940797 C20.5057969,16.9763496 19.0107732,16.9188129 17.5200864,16.821699 Z M21.9994612,10.2521281 C20.5743622,11.573806 19.3949136,13.0870424 18.4887717,14.7378534 C19.6577052,14.8038904 20.8287595,14.8432539 22.0003773,14.857529 Z M24.0015434,10.2530598 L24.0004895,14.857529 C25.1717588,14.843258 26.3424394,14.8039129 27.510508,14.7394937 C26.6052993,13.0874303 25.4261921,11.5745172 24.0015434,10.2530598 Z M18.9325045,10.0208449 L18.8190522,10.0572527 C16.3890342,10.8440912 14.2563092,12.2975658 12.637589,14.2009801 C13.7313172,14.3438325 14.8311046,14.4622577 15.93455,14.5581217 C16.7140426,12.9273596 17.71999,11.4028788 18.9325045,10.0208449 Z M27.0710135,10.0218483 L27.1008282,10.0562732 C28.2989657,11.4288525 29.2939072,12.9411438 30.0670903,14.5568393 C31.1699835,14.4621908 32.2693393,14.3437927 33.3632903,14.2028461 C31.7197844,12.2686443 29.5469474,10.8000253 27.0710135,10.0218483 Z" id="Color" fill="#000000"></path>
    </g>
</svg>
