<?xml version="1.0" encoding="UTF-8"?>
<svg width="100%" height="100%" viewBox="0 0 45 45" version="1.1" xmlns="http://www.w3.org/2000/svg" xmlns:xlink="http://www.w3.org/1999/xlink">
    <!-- Generator: Sketch 60.1 (88133) - https://sketch.com -->
    <title>icon-locate-user</title>
    <desc>Created with Sketch.</desc>
    <g id="icon-locate-user" stroke="none" stroke-width="1" fill="none" fill-rule="evenodd">
        <path d="M22.2842712,36.4512712 C22.2842712,36.4512712 23.9512712,38.1172712 23.9512712,39.7062712 C32.8342712,38.8662712 39.7842712,31.3872712 39.7842712,22.2842712 C39.7842712,13.1812712 32.8342712,5.70227125 23.9512712,4.86227125 C23.9512712,6.45127125 22.2842712,8.11727125 22.2842712,8.11727125 C22.2842712,8.11727125 20.6175712,6.45127125 20.6175712,4.86227125 C11.7343712,5.70227125 4.78427125,13.1812712 4.78427125,22.2842712 C4.78427125,31.3872712 11.7343712,38.8662712 20.6175712,39.7062712 C20.6175712,38.1172712 22.2842712,36.4512712 22.2842712,36.4512712 Z M22.2842712,42.2842712 C33.3302712,42.2842712 42.2842712,33.3302712 42.2842712,22.2842712 C42.2842712,11.2382712 33.3302712,2.28427125 22.2842712,2.28427125 C11.2385712,2.28427125 2.28427125,11.2382712 2.28427125,22.2842712 C2.28427125,33.3302712 11.2385712,42.2842712 22.2842712,42.2842712 Z" id="Shape" fill="#000000" transform="translate(22.284271, 22.284271) rotate(-45.000000) translate(-22.284271, -22.284271) "></path>
        <path d="M21.1058091,11.5224139 C21.6169091,11.5224139 22.0766091,11.8334139 22.2668091,12.3084139 L28.9328091,28.9744139 C29.1478091,29.5114139 28.9668091,30.1254139 28.4948091,30.4594139 C28.0238091,30.7934139 27.3838091,30.7604139 26.9498091,30.3794139 L21.1058091,25.2664139 L15.2623091,30.3794139 C14.8273091,30.7604139 14.1883091,30.7934139 13.7167091,30.4594139 C13.2451091,30.1254139 13.0639091,29.5114139 13.2785091,28.9744139 L19.9452091,12.3084139 C20.1350091,11.8334139 20.5947091,11.5224139 21.1058091,11.5224139 Z M21.1058091,16.1384139 L17.5325091,25.0714139 L20.2827091,22.6654139 C20.7539091,22.2524139 21.4576091,22.2524139 21.9289091,22.6654139 L24.6788091,25.0714139 L21.1058091,16.1384139 Z" id="Shape" fill="#000000" transform="translate(21.105800, 21.105813) rotate(-45.000000) translate(-21.105800, -21.105813) "></path>
    </g>
</svg>
