<?xml version="1.0" encoding="UTF-8"?>
<svg width="45px" height="45px" viewBox="0 0 45 45" version="1.1" xmlns="http://www.w3.org/2000/svg" xmlns:xlink="http://www.w3.org/1999/xlink">
    <!-- Generator: Sketch 60.1 (88133) - https://sketch.com -->
    <title>icon-sailboat-pin</title>
    <desc>Created with Sketch.</desc>
    <g id="icon-sailboat-pin" stroke="none" stroke-width="1" fill="none" fill-rule="evenodd">
        <g id="Group" transform="translate(12.000000, 8.000000)" fill="#1A1A1A" fill-rule="nonzero">
            <path d="M4.55652712,14.8257488 C5.25090212,15.9069349 6.19965212,16.795214 7.31340212,17.4101442 C8.43402712,18.0250744 9.68527712,18.3471209 10.9571521,18.3471209 C12.2290271,18.3471209 13.4802771,18.0250744 14.6009021,17.4101442 C15.7146521,16.795214 16.6634021,15.9069349 17.3577771,14.8257488 L4.55652712,14.8257488 Z" id="Path"></path>
            <path d="M18.7809021,3.2583 C16.6977771,1.17057907 13.8859021,-1.77635684e-14 10.9571521,-1.77635684e-14 C8.02840212,-1.77635684e-14 5.21652712,1.17057907 3.13340212,3.2583 C-1.19097288,7.59784186 -0.895347884,14.3652837 3.13340212,18.9769116 C7.25840212,23.7210977 9.47902712,26.6513302 10.9502771,29.6513302 C12.4352771,26.6792372 14.6421521,23.7210977 18.7809021,18.9769116 C22.8096521,14.3652837 23.0984021,7.59784186 18.7809021,3.2583 Z M17.1377771,17.5048186 C14.9171521,19.9671209 12.8477771,22.5700047 10.9502771,25.2978419 C9.05277712,22.5717488 6.98340212,19.9690047 4.76277712,17.5048186 C3.16090212,15.7157721 2.24652712,13.4036791 2.18465212,10.9885395 C2.15715212,9.84400465 2.36340212,8.70637674 2.79652712,7.64730698 C3.22277712,6.58823721 3.86215212,5.63067907 4.67340212,4.83504419 C6.34402712,3.1584907 8.60590212,2.21836047 10.9502771,2.21836047 C13.3015271,2.21836047 15.5634021,3.1584907 17.2340271,4.83504419 C18.0452771,5.63130698 18.6846521,6.58914419 19.1109021,7.64814419 C19.5371521,8.70721395 19.7434021,9.84456279 19.7159021,10.9885395 C19.6540271,13.4043767 18.7396521,15.7174465 17.1377771,17.5048186 Z" id="Shape"></path>
            <polygon id="Path" points="10.9571521 3.9279907 10.9571521 13.7582372 17.3577771 13.7582372"></polygon>
        </g>
    </g>
</svg>