<?xml version="1.0" encoding="UTF-8"?>
<svg width="100%" height="100%" viewBox="0 0 45 45" version="1.1" xmlns="http://www.w3.org/2000/svg" xmlns:xlink="http://www.w3.org/1999/xlink">
    <!-- Generator: Sketch 60.1 (88133) - https://sketch.com -->
    <title>icon-filters</title>
    <desc>Created with Sketch.</desc>
    <g id="icon-filters" stroke="none" stroke-width="1" fill="none" fill-rule="evenodd">
        <path d="M37,29.0028414 L37,26.9971586 L20.067,26.9971586 C19.8318,26.1387264 19.3061,25.3792412 18.5704,24.8363697 C17.8354,24.2941668 16.9324,24 16.0035,24 C15.0746,24 14.1716,24.2941668 13.4366,24.8363697 C12.7009,25.3792412 12.1752,26.1387264 11.94,26.9971586 L9,26.9971586 L9,29.0028414 L11.94,29.0028414 C12.1752,29.8612736 12.7009,30.6207588 13.4366,31.1636303 C14.1716,31.7058332 15.0746,32 16.0035,32 C16.9324,32 17.8354,31.7058332 18.5704,31.1636303 C19.3061,30.6207588 19.8318,29.8612736 20.067,29.0028414 L37,29.0028414 Z M18.1,28 C18.0986,28.351663 18.002,28.697309 17.82,29.0028414 C17.6359,29.3083737 17.3706,29.5624269 17.0514,29.7382584 C16.7315,29.9147585 16.3689,30.0076885 16,30.0076885 C15.6311,30.0076885 15.2685,29.9147585 14.9486,29.7382584 C14.6294,29.5624269 14.3641,29.3083737 14.18,29.0028414 C13.9959,28.6979776 13.8986,28.3523316 13.8986,28 C13.8986,27.6476684 13.9959,27.3020224 14.18,26.9971586 C14.3641,26.6916263 14.6294,26.4375731 14.9486,26.2617416 C15.2685,26.0852415 15.6311,25.9923115 16,25.9923115 C16.3689,25.9923115 16.7315,26.0852415 17.0514,26.2617416 C17.3706,26.4375731 17.6359,26.6916263 17.82,26.9971586 C18.002,27.302691 18.0986,27.648337 18.1,28 Z" id="Shape" fill="#1A1A1A" fill-rule="nonzero"></path>
        <path d="M37,19.0028414 L37,16.9971586 L34.067,16.9971586 C33.8318,16.1387264 33.3061,15.3792412 32.5704,14.8363697 C31.8354,14.2941668 30.9324,14 30.0035,14 C29.0746,14 28.1716,14.2941668 27.4366,14.8363697 C26.7009,15.3792412 26.1752,16.1387264 25.94,16.9971586 L9,16.9971586 L9,19.0028414 L25.94,19.0028414 C26.1752,19.8612736 26.7009,20.6207588 27.4366,21.1636303 C28.1716,21.7058332 29.0746,22 30.0035,22 C30.9324,22 31.8354,21.7058332 32.5704,21.1636303 C33.3061,20.6207588 33.8318,19.8612736 34.067,19.0028414 L37,19.0028414 Z M31.82,16.9971586 C32.0041,17.3020224 32.1014,17.6476684 32.1014,18 C32.1014,18.3523316 32.0041,18.6979776 31.82,19.0028414 C31.6359,19.3083737 31.3706,19.5624269 31.0514,19.7382584 C30.7315,19.9147585 30.3689,20.0076885 30,20.0076885 C29.6311,20.0076885 29.2685,19.9147585 28.9486,19.7382584 C28.6294,19.5624269 28.3641,19.3083737 28.18,19.0028414 C27.9959,18.6979776 27.8986,18.3523316 27.8986,18 C27.8986,17.6476684 27.9959,17.3020224 28.18,16.9971586 C28.3641,16.6916263 28.6294,16.4375731 28.9486,16.2617416 C29.2685,16.0852415 29.6311,15.9923115 30,15.9923115 C30.3689,15.9923115 30.7315,16.0852415 31.0514,16.2617416 C31.3706,16.4375731 31.6359,16.6916263 31.82,16.9971586 Z" id="Shape" fill="#1A1A1A" fill-rule="nonzero"></path>
    </g>
</svg>
