<?xml version="1.0" encoding="UTF-8"?>
<svg width="45px" height="45px" viewBox="0 0 45 45" version="1.1" xmlns="http://www.w3.org/2000/svg" xmlns:xlink="http://www.w3.org/1999/xlink">
    <!-- Generator: Sketch 60.1 (88133) - https://sketch.com -->
    <title>icon-info</title>
    <desc>Created with Sketch.</desc>
    <g id="icon-info" stroke="none" stroke-width="1" fill="none" fill-rule="evenodd">
        <g id="SVG-Layer" transform="translate(7.000000, 7.000000)" fill="#1A1A1A">
            <g id="Group">
                <path d="M0,16.0072 C0,24.8397333 7.16026667,32 15.9928,32 C24.8254667,32 31.9856,24.8397333 31.9856,16.0072 C31.9856,7.17452 24.8254667,0.0143229333 15.9928,0.0143229333 C7.16026667,0.0143229333 0,7.17452 0,16.0072 Z M15.9928,2.6798 C17.7932,2.6798 19.5382667,3.0318 21.1796,3.72602667 C22.7664,4.39716 24.1918667,5.35846667 25.4166667,6.58329333 C26.6414667,7.80810667 27.6028,9.23368 28.2738667,10.8204133 C28.9681333,12.4617333 29.3201333,14.2068 29.3201333,16.0072 C29.3201333,17.8076 28.9681333,19.5526667 28.2738667,21.194 C27.6028,22.7806667 26.6414667,24.2061333 25.4166667,25.4309333 C24.1918667,26.6558667 22.7664,27.6170667 21.1796,28.2882667 C19.5382667,28.9825333 17.7932,29.3345333 15.9928,29.3345333 C14.1925333,29.3345333 12.4474133,28.9825333 10.80608,28.2882667 C9.21934667,27.6170667 7.79385333,26.6558667 6.56896,25.4309333 C5.34414667,24.2061333 4.38284,22.7806667 3.71170667,21.194 C3.01748,19.5526667 2.66554667,17.8076 2.66554667,16.0072 C2.66554667,14.2068 3.01748,12.4617333 3.71170667,10.8204133 C4.38284,9.23368 5.34414667,7.80810667 6.56896,6.58329333 C7.79385333,5.35846667 9.21934667,4.39716 10.80608,3.72602667 C12.4474133,3.0318 14.1925333,2.6798 15.9928,2.6798 Z" id="Shape"></path>
                <path d="M17.9937333,7.32037333 C17.9937333,8.42441333 17.0986667,9.31946667 15.9946667,9.31946667 C14.8905333,9.31946667 13.9954667,8.42441333 13.9954667,7.32037333 C13.9954667,6.21626667 14.8905333,5.32129333 15.9946667,5.32129333 C17.0986667,5.32129333 17.9937333,6.21626667 17.9937333,7.32037333 Z" id="Path"></path>
                <polygon id="Path" points="11.59 24.8298667 11.59 22.2038667 15.1884 22.2038667 15.1884 14.4345333 11.59 14.4345333 11.59 11.8086 18.0142667 11.8086 18.0142667 22.2038667 21.0129333 22.2038667 21.0129333 24.8298667"></polygon>
            </g>
        </g>
    </g>
</svg>