<?xml version="1.0" encoding="UTF-8"?>
<svg width="45px" height="45px" viewBox="0 0 45 45" version="1.1" xmlns="http://www.w3.org/2000/svg" xmlns:xlink="http://www.w3.org/1999/xlink">
    <!-- Generator: Sketch 60.1 (88133) - https://sketch.com -->
    <title>icon-sightseeing</title>
    <desc>Created with Sketch.</desc>
    <g id="icon-sightseeing" stroke="none" stroke-width="1" fill="none" fill-rule="evenodd">
        <g id="Shape" transform="translate(11.000000, 8.000000)" fill="#1A1A1A" fill-rule="nonzero">
            <path d="M8.9,1.11678591 C8.55,0.765175914 8.14,0.485575914 7.68,0.293965914 C7.23,0.102355914 6.74,0.00247591359 6.24,1.42108547e-14 C5.24,-0.00488408641 4.28,0.387385914 3.57,1.09053591 C2.86,1.79369591 2.46,2.75013591 2.46,3.74947591 C2.45,4.74880591 2.84,5.70916591 3.55,6.41929591 C4.59,7.49719591 5.49,8.70749591 6.22,10.0192959 C6.96,8.70919591 7.86,7.49919591 8.9,6.41929591 C9.59,5.70763591 9.97,4.75713591 9.97,3.76803591 C9.97,2.77893591 9.59,1.82843591 8.9,1.11678591 Z M6.22,5.27178732 C5.93,5.27178732 5.64,5.18381591 5.39,5.01899591 C5.14,4.85416591 4.95,4.61989591 4.84,4.34581591 C4.73,4.07172591 4.7,3.77012591 4.75,3.47915591 C4.81,3.18817591 4.95,2.92090591 5.16,2.71112591 C5.37,2.50134591 5.64,2.35848591 5.93,2.30060591 C6.22,2.24273591 6.52,2.27243591 6.8,2.38596591 C7.07,2.49949591 7.31,2.69175591 7.47,2.93843591 C7.64,3.18510591 7.72,3.47511591 7.72,3.77178732 C7.72,4.16961591 7.57,4.55114591 7.29,4.83244591 C7,5.11375591 6.62,5.27178732 6.22,5.27178732 Z"></path>
            <path d="M18.6,28.2667989 L17.15,28.2667989 L17.15,26.2717959 L18.6,26.2717959 C18.99,26.2692959 19.37,26.1955959 19.72,26.0542959 L20.47,27.9067959 C19.88,28.1452959 19.24,28.2674959 18.6,28.2667989 Z M15.65,28.2667959 L12.65,28.2667959 L12.65,26.2717959 L15.65,26.2717959 L15.65,28.2667959 Z M11.15,28.2667959 L8.15,28.2667959 L8.15,26.2717959 L11.15,26.2717959 L11.15,28.2667959 Z M6.65,28.2668017 L5.1,28.2668017 C4.5,28.2676959 3.91,28.1636959 3.34,27.9592959 L4.03,26.0842959 C4.37,26.2070959 4.73,26.2704959 5.1,26.2717959 L6.65,26.2717959 L6.65,28.2668017 Z M1.73,27.0142959 C0.77,26.1936959 0.16,25.0503959 1.13686838e-13,23.8042959 L2,23.5192959 C2.1,24.2782959 2.47,24.9746959 3.05,25.4767959 L1.73,27.0142959 Z M22.03,26.9242959 L20.68,25.4242959 C21.25,24.9074959 21.61,24.2000959 21.69,23.4367959 L23.67,23.6392959 C23.56,24.8963959 22.98,26.0672959 22.06,26.9242959 L22.03,26.9242959 Z M2.03,22.4242959 L0.09,21.9592959 C0.39,20.7441959 1.11,19.6780959 2.14,18.9592959 L3.28,20.5942959 C2.67,21.0356959 2.23,21.6856959 2.05,22.4242959 L2.03,22.4242959 Z M23.7,22.0717959 L21.73,22.0717959 L21.73,19.0717959 L23.72,19.0717959 L23.7,22.0717959 Z M4.33,20.1142959 L3.85,18.1792959 C4.26,18.0747959 4.68,18.0218959 5.1,18.0217959 L7.08,18.0217959 L7.08,20.0167959 L5.1,20.0167959 C4.84,20.0154959 4.58,20.0481959 4.33,20.1142959 Z M8.72,19.9717959 L8.47,17.9992959 C8.83,17.9489959 9.16,17.8212959 9.45,17.6253959 C9.75,17.4294959 10,17.1702959 10.18,16.8667959 L11.85,17.8942959 C11.52,18.4513959 11.06,18.9270959 10.52,19.2864959 C9.98,19.6458959 9.37,19.8799959 8.72,19.9717959 Z M23.72,17.5717959 L21.73,17.5717959 L21.73,14.5717959 L23.72,14.5717959 L23.72,17.5717959 Z M12.47,16.0717959 L10.49,15.8767959 C10.49,15.8017959 10.49,15.7267959 10.49,15.6517959 C10.49,15.3332959 10.42,15.0188959 10.29,14.7275959 C10.16,14.4363959 9.98,14.1740959 9.74,13.9567959 L11.14,12.5392959 C11.56,12.9446959 11.89,13.4289959 12.11,13.9635959 C12.34,14.4980959 12.45,15.0720959 12.45,15.6517959 C12.46,15.7891959 12.46,15.9268959 12.45,16.0642959 L12.47,16.0717959 Z M8.88,13.3942959 C8.64,13.3132959 8.39,13.2701959 8.13,13.2667959 L6.22,13.2667959 L6.22,11.2717959 L8.1,11.2717959 C8.59,11.2726959 9.07,11.3537959 9.53,11.5117959 L8.88,13.3942959 Z M21.72,13.1467959 C21.66,12.3828959 21.32,11.6677959 20.77,11.1367959 L22.15,9.70429591 C23.06,10.5782959 23.62,11.7593959 23.71,13.0192959 L21.72,13.1467959 Z M19.82,10.5142959 C19.44,10.3488959 19.02,10.2646959 18.6,10.2667959 L17.26,10.2667959 L17.26,8.27179591 L18.6,8.27179591 C19.29,8.26909591 19.97,8.40689591 20.6,8.67679591 L19.82,10.5142959 Z M15.76,10.2667959 L12.76,10.2667959 L12.76,8.27179591 L15.76,8.27179591 L15.76,10.2667959 Z M11.26,10.2667959 L9.22,10.2667959 L9.22,8.27179591 L11.26,8.27179591 L11.26,10.2667959 Z"></path>
        </g>
    </g>
</svg>