<?xml version="1.0" encoding="UTF-8"?>
<svg width="100%" height="100%" viewBox="0 0 45 45" version="1.1" xmlns="http://www.w3.org/2000/svg" xmlns:xlink="http://www.w3.org/1999/xlink">
    <!-- Generator: Sketch 60.1 (88133) - https://sketch.com -->
    <title>icon-route</title>
    <desc>Created with Sketch.</desc>
    <g id="icon-route" stroke="none" stroke-width="1" fill="none" fill-rule="evenodd">
        <g id="Group-5" transform="translate(11.000000, 7.000000)" fill="#1A1A1A" fill-rule="nonzero">
            <path d="M7.42502756,1.11789992 C6.72292756,0.407789921 5.76742756,0.00568992059 4.76872756,-8.34887715e-14 C3.77012756,-0.00557007941 2.81012756,0.385739921 2.10002756,1.08789992 C1.38992756,1.79005992 0.987827556,2.74555992 0.982168266,3.74418992 C0.976627556,4.74281992 1.36792756,5.70277992 2.07002756,6.41289992 C3.11252756,7.49367992 4.01242756,8.70347992 4.74752756,10.0128799 C5.48532756,8.70527992 6.38492756,7.49571992 7.42502756,6.41289992 C8.11322756,5.70340992 8.49812756,4.75382992 8.49812756,3.76539992 C8.49812756,2.77697992 8.11322756,1.82738992 7.42502756,1.11789992 Z M4.74752756,5.26540132 C4.45092756,5.26540132 4.16082756,5.17742992 3.91422756,5.01260992 C3.66752756,4.84777992 3.47522756,4.61351992 3.36172756,4.33942992 C3.24822756,4.06533992 3.21852756,3.76373992 3.27632756,3.47276992 C3.33422756,3.18179992 3.47712756,2.91451992 3.68692756,2.70473992 C3.89662756,2.49495992 4.16392756,2.35209992 4.45492756,2.29421992 C4.74592756,2.23634992 5.04752756,2.26604992 5.32152756,2.37957992 C5.59562756,2.49310992 5.82992756,2.68536992 5.99472756,2.93204992 C6.15952756,3.17871992 6.24752756,3.46872992 6.24752756,3.76540132 C6.24752756,4.16322992 6.08952756,4.54475992 5.80822756,4.82605992 C5.52692756,5.10736992 5.14532756,5.26540132 4.74752756,5.26540132 Z" id="Shape"></path>
            <path d="M22.4250276,19.8678799 C21.7229276,19.1577799 20.7674276,18.7556799 19.7687276,18.7500206 C18.7701276,18.7444799 17.8101276,19.1357799 17.1000276,19.8378799 C16.3899276,20.5400799 15.9878276,21.4955799 15.9821683,22.4941799 C15.9766276,23.4927799 16.3679276,24.4527799 17.0700276,25.1628799 C18.1126276,26.2436799 19.0124276,27.4534799 19.7475276,28.7628799 C20.4853276,27.4552799 21.3849276,26.2456799 22.4250276,25.1628799 C23.1132276,24.4533799 23.4981276,23.5037799 23.4981276,22.5153799 C23.4981276,21.5269799 23.1132276,20.5773799 22.4250276,19.8678799 Z M19.7475276,24.0153799 C19.4509276,24.0153799 19.1608276,23.9274799 18.9142276,23.7625799 C18.6675276,23.5977799 18.4752276,23.3634799 18.3617276,23.0893799 C18.2482276,22.8153799 18.2185276,22.5137799 18.2763276,22.2227799 C18.3342276,21.9317799 18.4771276,21.6644799 18.6869276,21.4547799 C18.8966276,21.2449799 19.1639276,21.1020799 19.4549276,21.0441799 C19.7459276,20.9863799 20.0475276,21.0160799 20.3215276,21.1295799 C20.5956276,21.2430799 20.8299276,21.4353799 20.9947276,21.6820799 C21.1596276,21.9286799 21.2475276,22.2187799 21.2475276,22.5153799 C21.2475276,22.9131799 21.0895276,23.2947799 20.8082276,23.5760799 C20.5269276,23.8573799 20.1453276,24.0153799 19.7475276,24.0153799 Z" id="Shape"></path>
            <polygon id="Path" points="19.7475276 29.0177799 17.8725276 29.0177799 17.8725276 31.0127799 19.7475276 31.0127799"></polygon>
            <path d="M16.4100276,31.0127799 L12.7650276,31.0127799 L12.7650276,29.0177799 L16.4100276,29.0177799 L16.4100276,31.0127799 Z M11.3100276,31.0127799 L7.65752756,31.0127799 L7.65752756,29.0177799 L11.3100276,29.0177799 L11.3100276,31.0127799 Z M6.12752756,31.0127799 C4.68712756,30.9071799 3.32172756,30.3299799 2.24252756,29.3702799 L3.56252756,27.8702799 C4.31012756,28.5303799 5.25302756,28.9280799 6.24752756,29.0027799 L6.12752756,31.0127799 Z M1.11752756,28.0652799 C0.385527556,26.9797799 -0.00377244406,25.6995799 2.75559351e-05,24.3902799 C2.75559351e-05,24.2552799 2.75559351e-05,24.1277799 2.75559351e-05,23.9927799 L1.98752756,24.1127799 C1.98752756,24.2027799 1.98752756,24.3002799 1.98752756,24.3902799 C1.97622756,25.3009799 2.23732756,26.1941799 2.73752756,26.9552799 L1.11752756,28.0652799 Z M2.22752756,22.9427799 L0.330027556,22.3127799 C0.788127556,20.9434799 1.67752756,19.7593799 2.86502756,18.9377799 L3.99752756,20.5802799 C3.16582756,21.1538799 2.54422756,21.9834799 2.22752756,22.9427799 Z M5.06252756,20.0327799 L4.38752756,18.1577799 C5.10812756,17.8943799 5.87022756,17.7622799 6.63752756,17.7677799 L8.35502756,17.7677799 L8.35502756,19.7627799 L6.61502756,19.7627799 C6.08572756,19.7615799 5.56032756,19.8529799 5.06252756,20.0327799 Z M9.99752756,19.76278 L9.78752756,19.76278 L9.78752756,17.7677799 L9.99752756,17.7677799 C10.4202276,17.7701799 10.8377276,17.6737799 11.2166276,17.4862799 C11.5955276,17.2987799 11.9254276,17.0253799 12.1800276,16.6877799 L13.7475276,17.9027799 C13.3081276,18.4809799 12.7410276,18.9496799 12.0905276,19.2722799 C11.4399276,19.5949799 10.7236276,19.7628799 9.99752756,19.76278 Z M14.5800276,16.2602799 L12.6525276,15.7652799 C12.7218276,15.5214799 12.7547276,15.2687799 12.7500276,15.0152799 C12.7519276,14.3602799 12.5175276,13.7265799 12.0900276,13.2302799 L13.5900276,11.9327799 C14.3314276,12.7889799 14.7412276,13.8826799 14.7450276,15.0152799 C14.7465276,15.4358799 14.6910276,15.8546799 14.5800276,16.2602799 Z M11.2575276,12.5702799 C10.8684276,12.3677799 10.4361276,12.2622799 9.99752756,12.2627799 L8.13002756,12.2627799 L8.13002756,10.2677779 L9.99752756,10.2677779 C10.7539276,10.2670799 11.4996276,10.4470799 12.1725276,10.7927799 L11.2575276,12.5702799 Z" id="Shape"></path>
            <polygon id="Path" points="6.62252756 10.2677799 4.74752756 10.2677799 4.74752756 12.2627799 6.62252756 12.2627799"></polygon>
        </g>
    </g>
</svg>
