<?xml version="1.0" encoding="UTF-8"?>
<svg width="100%" height="100%" viewBox="0 0 45 45" version="1.1" xmlns="http://www.w3.org/2000/svg" xmlns:xlink="http://www.w3.org/1999/xlink">
    <!-- Generator: Sketch 60.1 (88133) - https://sketch.com -->
    <title>icon-boat</title>
    <desc>Created with Sketch.</desc>
    <g id="icon-boat" stroke="none" stroke-width="1" fill="none" fill-rule="evenodd">
        <g id="Shape" transform="translate(7.000000, 13.000000)" fill="#000000">
            <path d="M28.8,14.475 L26.775,9 L0,9 L3.975,15 C3.825,15.075 3.75,15.15 3.6,15.225 C2.85,15.75 2.175,16.125 1.125,16.125 L1.125,18.15 C2.775,18.15 3.825,17.475 4.725,16.95 C5.475,16.425 6.075,16.05 7.125,16.05 C8.175,16.05 8.775,16.425 9.525,16.95 C10.425,17.55 11.4,18.15 13.125,18.15 C14.775,18.15 15.825,17.475 16.725,16.95 C17.475,16.425 18.075,16.05 19.125,16.05 C20.175,16.05 20.775,16.425 21.525,16.95 C22.425,17.55 23.4,18.15 25.125,18.15 C26.775,18.15 27.825,17.475 28.725,16.95 C29.475,16.425 30.075,16.05 31.125,16.05 L31.125,14.025 C30.075,13.95 29.4,14.175 28.8,14.475 Z M22.5,15.225 C21.6,14.625 20.625,14.025 19.05,14.025 C17.4,14.025 16.425,14.7 15.6,15.225 C14.85,15.75 14.175,16.125 13.125,16.125 C12.075,16.125 11.4,15.75 10.65,15.225 C9.75,14.625 8.775,14.025 7.2,14.025 C6.75,14.025 6.3,14.1 5.925,14.175 L3.75,11.025 L25.425,11.025 L27.075,15.525 C26.475,15.9 25.95,16.125 25.05,16.125 C23.925,16.125 23.325,15.675 22.5,15.225 Z"></path>
            <path d="M24.75,6.225 L24.75,4.275 L24.75,-4.52970994e-14 L20.4,-4.52970994e-14 L17.55,4.275 L7.875,4.275 L6.75,6.225 L24.75,6.225 Z M21.45,2.025 L22.725,2.025 L22.725,4.275 L19.875,4.275 L21.45,2.025 Z"></path>
        </g>
    </g>
</svg>
