<?xml version="1.0" encoding="UTF-8"?>
<svg width="45px" height="45px" viewBox="0 0 45 45" version="1.1" xmlns="http://www.w3.org/2000/svg" xmlns:xlink="http://www.w3.org/1999/xlink">
    <!-- Generator: Sketch 60.1 (88133) - https://sketch.com -->
    <title>icon-water-taxi</title>
    <desc>Created with Sketch.</desc>
    <g id="icon-water-taxi" stroke="none" stroke-width="1" fill="none" fill-rule="evenodd">
        <g id="Shape" transform="translate(8.000000, 14.000000)" fill-rule="nonzero">
            <path d="M27.04,14.5425997 L25.54,4.56009975 C25.35,3.29059975 24.72,2.13029975 23.75,1.29249975 C22.77,0.45472975 21.53,-0.00421025029 20.25,9.05941988e-14 L9.75,9.05941988e-14 C8.47,-0.00602025029 7.22,0.45209975 6.25,1.28999975 C5.28,2.12799975 4.64,3.28929975 4.45,4.56009975 L3,14.5425997 C2.16,15.2494997 1.1,15.6325997 0,15.6225997 L0,17.4976126 C0.9,17.4993997 1.78,17.3127997 2.6,16.9500997 C3.01,16.7792997 3.39,16.5654997 3.75,16.3125997 C4.14,16.5834997 4.56,16.8122997 4.99,16.9950997 C5.79,17.3267997 6.64,17.4976126 7.5,17.4976126 C8.36,17.4976126 9.21,17.3267997 10.01,16.9950997 C10.44,16.8122997 10.86,16.5834997 11.25,16.3125997 C11.64,16.5834997 12.06,16.8122997 12.49,16.9950997 C13.29,17.3267997 14.14,17.4976126 15,17.4976126 C15.86,17.4976126 16.71,17.3267997 17.51,16.9950997 C17.94,16.8122997 18.36,16.5834997 18.75,16.3125997 C19.14,16.5834997 19.56,16.8122997 19.99,16.9950997 C20.79,17.3267997 21.64,17.4976126 22.5,17.4976126 C23.36,17.4976126 24.21,17.3267997 25.01,16.9950997 C25.44,16.8122997 25.86,16.5834997 26.25,16.3125997 C26.61,16.5654997 26.99,16.7792997 27.4,16.9500997 C28.22,17.3127997 29.1,17.4993997 30,17.4976126 L30,15.6225997 C28.92,15.6236997 27.87,15.2410997 27.04,14.5425997 Z M24.79,15.0000997 C24.09,15.4077997 23.29,15.6224997 22.48,15.6224997 C21.67,15.6224997 20.87,15.4077997 20.17,15.0000997 C19.88,14.8360997 19.6,14.6397997 19.36,14.4150997 L18.75,13.8525997 L18.12,14.4150997 C17.87,14.6397997 17.6,14.8360997 17.31,15.0000997 C16.61,15.4077997 15.81,15.6224997 15,15.6224997 C14.19,15.6224997 13.39,15.4077997 12.69,15.0000997 C12.4,14.8360997 12.13,14.6397997 11.88,14.4150997 L11.25,13.8525997 L10.62,14.4150997 C10.37,14.6397997 10.1,14.8360997 9.81,15.0000997 C9.11,15.4077997 8.31,15.6224997 7.5,15.6224997 C6.69,15.6224997 5.89,15.4077997 5.19,15.0000997 C5.1,14.9521997 5.01,14.8969997 4.93,14.8350997 L6.43,4.85259975 C6.54,4.05549975 6.94,3.32729975 7.55,2.80209975 C8.16,2.27699975 8.94,1.99029975 9.75,1.99504044 L20.25,1.99504044 C21.06,1.99029975 21.84,2.27699975 22.45,2.80209975 C23.06,3.32729975 23.46,4.05549975 23.57,4.85259975 L25.07,14.8350997 C24.99,14.8969997 24.9,14.9521997 24.81,15.0000997 L24.79,15.0000997 Z" fill="#1A1A1A"></path>
            <polygon id="Path" fill="#000000" points="7.42 6.53999975 11.56 6.53999975 11.56 7.49999975 10.06 7.49999975 10.06 11.7074997 8.93 11.7074997 8.93 7.49999975 7.43 7.49999975"></polygon>
            <path d="M14.56,10.5449997 L12.64,10.5449997 L12.24,11.7299997 L11.15,11.7299997 L12.95,6.53999975 L14.29,6.53999975 L16.1,11.7299997 L14.96,11.7299997 L14.56,10.5449997 Z M12.94,9.63749975 L14.25,9.63749975 L13.81,8.24999975 C13.71,7.95749975 13.61,7.56749975 13.61,7.56749975 C13.61,7.56749975 13.52,7.95749975 13.42,8.24999975 L12.94,9.63749975 Z" fill="#000000"></path>
            <path d="M18.51,9.67499975 C18.51,9.67499975 18.32,10.0499997 18.16,10.3574997 L17.41,11.7299997 L16.21,11.7299997 L17.71,9.07499975 L16.31,6.53999975 L17.53,6.53999975 L18.17,7.75499975 C18.34,8.08499975 18.5,8.45999975 18.5,8.45999975 C18.5,8.45999975 18.68,8.07749975 18.86,7.75499975 L19.5,6.53999975 L20.66,6.53999975 L19.28,9.03749975 L20.78,11.7299997 L19.61,11.7299997 L18.86,10.3574997 C18.7,10.0499997 18.51,9.67499975 18.51,9.67499975 Z" id="Path" fill="#000000"></path>
            <polygon id="Path" fill="#000000" points="21.38 6.53999975 22.5 6.53999975 22.5 11.7299997 21.38 11.7299997"></polygon>
        </g>
    </g>
</svg>