<svg fill="none" xmlns="http://www.w3.org/2000/svg">
<path d="M6 24C6 27.5601 7.05568 31.0402 9.03355 34.0003C11.0114 36.9603 13.8226 39.2675 17.1117 40.6298C20.4008 41.9922 24.02 42.3487 27.5116 41.6541C31.0033 40.9596 34.2106 39.2453 36.7279 36.7279C39.2453 34.2106 40.9596 31.0033 41.6541 27.5116C42.3487 24.02 41.9922 20.4008 40.6298 17.1117C39.2675 13.8226 36.9603 11.0114 34.0003 9.03355C31.0402 7.05568 27.5601 6 24 6C19.2261 6 14.6477 7.89642 11.2721 11.2721C7.89642 14.6477 6 19.2261 6 24ZM24 9C27.6767 9.01589 31.2165 10.3961 33.9336 12.8731C36.6507 15.3501 38.3515 18.7475 38.7065 22.4071C39.0615 26.0666 38.0454 29.7276 35.855 32.6806C33.6647 35.6337 30.4561 37.6685 26.851 38.3907C23.2459 39.113 19.5011 38.4712 16.3422 36.5899C13.1833 34.7085 10.8353 31.7215 9.75318 28.2076C8.67104 24.6938 8.93184 20.9033 10.485 17.5708C12.0382 14.2383 14.7732 11.601 18.16 10.17C20.0083 9.39172 21.9945 8.99381 24 9Z" fill="#1A1A1A"/>
<path d="M26.25 14.23C26.254 14.6758 26.1254 15.1128 25.8806 15.4854C25.6358 15.8581 25.2858 16.1496 24.875 16.3229C24.4642 16.4963 24.0112 16.5437 23.5734 16.4592C23.1357 16.3746 22.7329 16.1619 22.4162 15.8481C22.0995 15.5342 21.8833 15.1334 21.7948 14.6964C21.7064 14.2594 21.7497 13.8059 21.9194 13.3936C22.0891 12.9813 22.3775 12.6288 22.7479 12.3806C23.1183 12.1325 23.5541 12 24 12C24.5967 12 25.169 12.2371 25.591 12.659C26.0129 13.081 26.25 13.6533 26.25 14.25" fill="#1A1A1A"/>
<path d="M19.05 33.93V30.97H23.09V22.23H19.05V19.28H26.27V30.97H29.65V33.93H19.05Z" fill="#1A1A1A"/>
</svg>
