<svg fill="none" xmlns="http://www.w3.org/2000/svg">
<path d="M35.32 6.67C32.2882 3.67761 28.1998 1.99977 23.94 1.99977C19.6802 1.99977 15.5918 3.67761 12.56 6.67C6.27 12.89 6.7 22.59 12.56 29.2C18.56 36 21.79 40.2 23.93 44.5C26.09 40.24 29.3 36 35.32 29.2C41.18 22.59 41.6 12.89 35.32 6.67ZM23.94 24.31C22.6773 24.312 21.4424 23.9392 20.3917 23.2389C19.341 22.5387 18.5217 21.5423 18.0376 20.3761C17.5534 19.2099 17.4263 17.9263 17.6721 16.6878C17.918 15.4493 18.5258 14.3115 19.4187 13.4187C20.3115 12.5258 21.4492 11.918 22.6878 11.6721C23.9263 11.4263 25.2099 11.5534 26.3761 12.0376C27.5423 12.5217 28.5387 13.341 29.2389 14.3917C29.9392 15.4424 30.312 16.6773 30.31 17.94C30.31 19.6294 29.6389 21.2497 28.4443 22.4443C27.2497 23.6389 25.6294 24.31 23.94 24.31Z" fill="#1A1A1A"/>
</svg>
