<svg width="29" height="45" viewBox="0 0 29 45" fill="none" xmlns="http://www.w3.org/2000/svg">
<mask id="mask0" mask-type="alpha" maskUnits="userSpaceOnUse" x="0" y="0" width="29" height="45">
<path d="M25.0011 21.2142C25.0011 20.4811 25.494 19.837 26.2937 18.8489C27.2773 17.6387 28.5 16.1317 28.5 13.8792C28.5 9.99911 25.2075 8.45384 23.4389 7.62254C23.0374 7.43418 22.5828 7.22212 22.4249 7.09692C22.038 6.79576 21.6252 6.11223 21.1876 5.39035C20.0709 3.54165 18.3812 0.75 14.5 0.75C10.5567 0.75 8.93474 3.56534 7.8632 5.42531C7.45037 6.14043 7.06236 6.81381 6.69578 7.10707C6.54125 7.23115 6.04496 7.46012 5.64679 7.6451C3.84773 8.47527 0.5 10.0228 0.5 13.8792C0.5 16.1317 1.72269 17.6387 2.70512 18.8489C3.50709 19.837 3.99774 20.4811 3.99774 21.2142C3.99774 21.768 3.82179 22.041 3.38302 22.658C2.80325 23.478 2.00806 24.5981 2.00806 26.6825C2.00806 30.0629 4.84821 32.1677 7.59475 34.2058C10.374 36.2655 12.9987 38.2112 12.9987 41.2792V41.2837V44.2581H16.0013V41.2792C16.0013 38.2112 18.626 36.2655 21.4053 34.2058C24.1507 32.1677 26.9919 30.0629 26.9919 26.6825C26.9919 24.5981 26.1979 23.478 25.6159 22.658C25.1782 22.041 25.0011 21.768 25.0011 21.2142ZM23.1682 24.3928C23.6453 25.0673 23.9905 25.5545 23.9905 26.6825C23.9905 28.5526 21.9647 30.0539 19.6186 31.7954C18.3959 32.7012 17.1101 33.6543 16.0013 34.7585V30.9044L20.5694 26.334L18.4478 24.2123L16.0013 26.6599V20.9029L21.5609 15.341L19.4393 13.2183L16.0013 16.6585V9.27836H12.9987V16.6585L9.56075 13.2183L7.43909 15.341L12.9987 20.9029V26.6599L10.5511 24.2123L8.43055 26.334L12.9987 30.9044V34.7585C11.8888 33.6543 10.6041 32.7012 9.38253 31.7954C7.03529 30.0539 5.00838 28.5526 5.00838 26.6825C5.00838 25.5545 5.35353 25.0673 5.83065 24.3928C6.35176 23.6596 6.99807 22.746 6.99807 21.2142C6.99807 19.3779 5.95585 18.0932 5.03545 16.9596C4.21205 15.9434 3.50032 15.0681 3.50032 13.8792C3.50032 12.7806 3.75185 11.8264 6.90558 10.368C7.56316 10.0634 8.13165 9.80172 8.57042 9.44981C9.37802 8.8035 9.90364 7.88986 10.4608 6.92435C11.5989 4.94932 12.4393 3.75145 14.5 3.75145C16.5427 3.75145 17.4191 4.95609 18.6204 6.94352C19.2046 7.90678 19.7573 8.82042 20.5762 9.45996C21.0014 9.7927 21.5406 10.0465 22.1632 10.3386C24.1157 11.2568 25.4986 12.0463 25.4986 13.8792C25.4986 15.0681 24.7879 15.9434 23.9634 16.9596C23.0453 18.0932 22.0008 19.3779 22.0008 21.2142C22.0008 22.746 22.6482 23.6596 23.1682 24.3928Z" fill="white"/>
</mask>
<g mask="url(#mask0)">
<path d="M25.0011 21.2142C25.0011 20.4811 25.494 19.837 26.2937 18.8489C27.2773 17.6387 28.5 16.1317 28.5 13.8792C28.5 9.99911 25.2075 8.45384 23.4389 7.62254C23.0374 7.43418 22.5828 7.22212 22.4249 7.09692C22.038 6.79576 21.6252 6.11223 21.1876 5.39035C20.0709 3.54165 18.3812 0.75 14.5 0.75C10.5567 0.75 8.93474 3.56534 7.8632 5.42531C7.45037 6.14043 7.06236 6.81381 6.69578 7.10707C6.54125 7.23115 6.04496 7.46012 5.64679 7.6451C3.84773 8.47527 0.5 10.0228 0.5 13.8792C0.5 16.1317 1.72269 17.6387 2.70512 18.8489C3.50709 19.837 3.99774 20.4811 3.99774 21.2142C3.99774 21.768 3.82179 22.041 3.38302 22.658C2.80325 23.478 2.00806 24.5981 2.00806 26.6825C2.00806 30.0629 4.84821 32.1677 7.59475 34.2058C10.374 36.2655 12.9987 38.2112 12.9987 41.2792V41.2837V44.2581H16.0013V41.2792C16.0013 38.2112 18.626 36.2655 21.4053 34.2058C24.1507 32.1677 26.9919 30.0629 26.9919 26.6825C26.9919 24.5981 26.1979 23.478 25.6159 22.658C25.1782 22.041 25.0011 21.768 25.0011 21.2142ZM23.1682 24.3928C23.6453 25.0673 23.9905 25.5545 23.9905 26.6825C23.9905 28.5526 21.9647 30.0539 19.6186 31.7954C18.3959 32.7012 17.1101 33.6543 16.0013 34.7585V30.9044L20.5694 26.334L18.4478 24.2123L16.0013 26.6599V20.9029L21.5609 15.341L19.4393 13.2183L16.0013 16.6585V9.27836H12.9987V16.6585L9.56075 13.2183L7.43909 15.341L12.9987 20.9029V26.6599L10.5511 24.2123L8.43055 26.334L12.9987 30.9044V34.7585C11.8888 33.6543 10.6041 32.7012 9.38253 31.7954C7.03529 30.0539 5.00838 28.5526 5.00838 26.6825C5.00838 25.5545 5.35353 25.0673 5.83065 24.3928C6.35176 23.6596 6.99807 22.746 6.99807 21.2142C6.99807 19.3779 5.95585 18.0932 5.03545 16.9596C4.21205 15.9434 3.50032 15.0681 3.50032 13.8792C3.50032 12.7806 3.75185 11.8264 6.90558 10.368C7.56316 10.0634 8.13165 9.80172 8.57042 9.44981C9.37802 8.8035 9.90364 7.88986 10.4608 6.92435C11.5989 4.94932 12.4393 3.75145 14.5 3.75145C16.5427 3.75145 17.4191 4.95609 18.6204 6.94352C19.2046 7.90678 19.7573 8.82042 20.5762 9.45996C21.0014 9.7927 21.5406 10.0465 22.1632 10.3386C24.1157 11.2568 25.4986 12.0463 25.4986 13.8792C25.4986 15.0681 24.7879 15.9434 23.9634 16.9596C23.0453 18.0932 22.0008 19.3779 22.0008 21.2142C22.0008 22.746 22.6482 23.6596 23.1682 24.3928Z" fill="#1A1A1A"/>
<path d="M38.5 -1.25H-9.5V46.75H38.5V-1.25Z" fill="#1A1A1A"/>
</g>
</svg>
