<svg width="64" height="64" viewBox="0 0 64 64" fill="none" xmlns="http://www.w3.org/2000/svg">
<g filter="url(#filter0_d)">
<circle cx="32" cy="28" r="28" fill="white"/>
<path d="M45.51 22.75C44.9149 22.1607 44.2475 21.6491 43.5237 21.2275C43.2759 18.0438 41.8797 15.0586 39.595 12.8275C36.9422 10.2092 33.3648 8.74109 29.6375 8.74109C25.9101 8.74109 22.3328 10.2092 19.68 12.8275C14.1762 18.27 14.5525 26.7575 19.68 32.5413C24.93 38.4913 27.7562 42.1663 29.6287 45.9288C30.8537 43.5838 32.2981 41.3601 33.9425 39.2875C35.7297 41.3053 37.2743 43.5254 38.545 45.9025C39.8662 43.2775 41.8262 40.705 45.545 36.5488C49.2637 32.3925 49.36 26.5738 45.51 22.75ZM29.6375 40.4775C27.2189 37.0586 24.5888 33.7943 21.7625 30.7038C19.726 28.46 18.5618 25.5603 18.4812 22.5313C18.4465 21.0965 18.7092 19.6701 19.2528 18.3419C19.7965 17.0137 20.6092 15.8124 21.64 14.8138C23.769 12.7111 26.6408 11.532 29.6331 11.532C32.6254 11.532 35.4972 12.7111 37.6262 14.8138C39.1092 16.2537 40.1297 18.1027 40.5575 20.125C39.8948 19.9927 39.2208 19.9253 38.545 19.9238C37.2646 19.9253 35.9964 20.1719 34.8087 20.65C34.4457 19.7393 33.8489 18.9405 33.0785 18.3341C32.3082 17.7278 31.3915 17.3353 30.421 17.1964C29.4505 17.0575 28.4605 17.177 27.551 17.5429C26.6414 17.9088 25.8445 18.5081 25.2405 19.2804C24.6366 20.0527 24.2471 20.9706 24.1112 21.9415C23.9753 22.9125 24.098 23.902 24.4667 24.8104C24.8355 25.7188 25.4374 26.5139 26.2115 27.1154C26.9857 27.7169 27.9049 28.1035 28.8762 28.2363C28.7053 29.7387 28.8582 31.2603 29.3245 32.6986C29.7909 34.137 30.56 35.4588 31.58 36.575L32.0875 37.1525C31.125 38.3338 30.355 39.4363 29.6375 40.4775ZM29.6375 25.48C29.1109 25.4837 28.594 25.3383 28.1465 25.0607C27.699 24.7831 27.3392 24.3845 27.1086 23.9111C26.878 23.4377 26.7861 22.9086 26.8434 22.3852C26.9006 21.8617 27.1049 21.3651 27.4324 20.9527C27.76 20.5404 28.1975 20.2291 28.6944 20.0548C29.1914 19.8806 29.7275 19.8505 30.2408 19.968C30.7541 20.0855 31.2238 20.3458 31.5954 20.7189C31.9671 21.0919 32.2257 21.5625 32.3412 22.0763C32.0787 22.295 31.825 22.5138 31.58 22.7588C30.7807 23.5415 30.1313 24.4638 29.6637 25.48H29.6375ZM44.0487 35.2625C42.0733 37.4234 40.2352 39.7058 38.545 42.0963C37.5013 40.5786 36.3768 39.1182 35.1762 37.7213C34.6162 37.0563 34.0037 36.3475 33.33 35.5775L33.0412 35.2538C31.6177 33.6816 30.8044 31.6515 30.7487 29.5313C30.7392 29.0594 30.7743 28.5878 30.8537 28.1225C31.1139 26.6063 31.8493 25.2121 32.9537 24.1413C33.6048 23.4926 34.3663 22.9652 35.2025 22.5838C36.9434 21.7896 38.9109 21.6437 40.75 22.1725C41.7631 22.4646 42.7066 22.9587 43.5237 23.625C43.7337 23.8 43.9437 23.9838 44.1362 24.1763C44.8578 24.8729 45.4271 25.7115 45.8081 26.6392C46.1891 27.567 46.3737 28.5636 46.35 29.5663C46.2888 31.6791 45.4723 33.7001 44.0487 35.2625Z" fill="#1A1A1A"/>
<path d="M42.255 28.4463C42.0878 27.9353 41.8164 27.4647 41.4579 27.064C41.0994 26.6634 40.6617 26.3415 40.1725 26.1188C39.664 25.8779 39.1076 25.7552 38.545 25.76C37.5431 25.8075 36.5979 26.2389 35.9057 26.9648C35.2134 27.6906 34.8272 28.6551 34.8272 29.6581C34.8272 30.6612 35.2134 31.6257 35.9057 32.3515C36.5979 33.0774 37.5431 33.5088 38.545 33.5563H38.72C39.3176 33.5255 39.9001 33.3574 40.4222 33.0651C40.9443 32.7727 41.392 32.364 41.7306 31.8706C42.0691 31.3771 42.2894 30.8123 42.3743 30.22C42.4591 29.6276 42.4063 29.0237 42.22 28.455L42.255 28.4463ZM38.545 31.605C38.1591 31.605 37.7818 31.4906 37.4609 31.2762C37.14 31.0618 36.8899 30.757 36.7423 30.4005C36.5946 30.0439 36.5559 29.6516 36.6312 29.2731C36.7065 28.8946 36.8923 28.5469 37.1652 28.274C37.4381 28.0011 37.7858 27.8153 38.1643 27.74C38.5428 27.6647 38.9351 27.7034 39.2917 27.8511C39.6482 27.9987 39.953 28.2488 40.1674 28.5697C40.3818 28.8906 40.4962 29.2679 40.4962 29.6538C40.4917 30.1699 40.2846 30.6635 39.9197 31.0285C39.5547 31.3934 39.0611 31.6005 38.545 31.605Z" fill="#1A1A1A"/>
<circle cx="32" cy="28" r="28" fill="white"/>
<path d="M45.51 22.75C44.9149 22.1607 44.2475 21.6491 43.5237 21.2275C43.2759 18.0438 41.8797 15.0586 39.595 12.8275C36.9422 10.2092 33.3648 8.74109 29.6375 8.74109C25.9101 8.74109 22.3328 10.2092 19.68 12.8275C14.1762 18.27 14.5525 26.7575 19.68 32.5413C24.93 38.4913 27.7562 42.1663 29.6287 45.9288C30.8537 43.5838 32.2981 41.3601 33.9425 39.2875C35.7297 41.3053 37.2743 43.5254 38.545 45.9025C39.8662 43.2775 41.8262 40.705 45.545 36.5488C49.2637 32.3925 49.36 26.5738 45.51 22.75ZM29.6375 40.4775C27.2189 37.0586 24.5888 33.7943 21.7625 30.7038C19.726 28.46 18.5618 25.5603 18.4812 22.5313C18.4465 21.0965 18.7092 19.6701 19.2528 18.3419C19.7965 17.0137 20.6092 15.8124 21.64 14.8138C23.769 12.7111 26.6408 11.532 29.6331 11.532C32.6254 11.532 35.4972 12.7111 37.6262 14.8138C39.1092 16.2537 40.1297 18.1027 40.5575 20.125C39.8948 19.9927 39.2208 19.9253 38.545 19.9238C37.2646 19.9253 35.9964 20.1719 34.8087 20.65C34.4457 19.7393 33.8489 18.9405 33.0785 18.3341C32.3082 17.7278 31.3915 17.3353 30.421 17.1964C29.4505 17.0575 28.4605 17.177 27.551 17.5429C26.6414 17.9088 25.8445 18.5081 25.2405 19.2804C24.6366 20.0527 24.2471 20.9706 24.1112 21.9415C23.9753 22.9125 24.098 23.902 24.4667 24.8104C24.8355 25.7188 25.4374 26.5139 26.2115 27.1154C26.9857 27.7169 27.9049 28.1035 28.8762 28.2363C28.7053 29.7387 28.8582 31.2603 29.3245 32.6986C29.7909 34.137 30.56 35.4588 31.58 36.575L32.0875 37.1525C31.125 38.3338 30.355 39.4363 29.6375 40.4775ZM29.6375 25.48C29.1109 25.4837 28.594 25.3383 28.1465 25.0607C27.699 24.7831 27.3392 24.3845 27.1086 23.9111C26.878 23.4377 26.7861 22.9086 26.8434 22.3852C26.9006 21.8617 27.1049 21.3651 27.4324 20.9527C27.76 20.5404 28.1975 20.2291 28.6944 20.0548C29.1914 19.8806 29.7275 19.8505 30.2408 19.968C30.7541 20.0855 31.2238 20.3458 31.5954 20.7189C31.9671 21.0919 32.2257 21.5625 32.3412 22.0763C32.0787 22.295 31.825 22.5138 31.58 22.7588C30.7807 23.5415 30.1313 24.4638 29.6637 25.48H29.6375ZM44.0487 35.2625C42.0733 37.4234 40.2352 39.7058 38.545 42.0963C37.5013 40.5786 36.3768 39.1182 35.1762 37.7213C34.6162 37.0563 34.0037 36.3475 33.33 35.5775L33.0412 35.2538C31.6177 33.6816 30.8044 31.6515 30.7487 29.5313C30.7392 29.0594 30.7743 28.5878 30.8537 28.1225C31.1139 26.6063 31.8493 25.2121 32.9537 24.1413C33.6048 23.4926 34.3663 22.9652 35.2025 22.5838C36.9434 21.7896 38.9109 21.6437 40.75 22.1725C41.7631 22.4646 42.7066 22.9587 43.5237 23.625C43.7337 23.8 43.9437 23.9838 44.1362 24.1763C44.8578 24.8729 45.4271 25.7115 45.8081 26.6392C46.1891 27.567 46.3737 28.5636 46.35 29.5663C46.2888 31.6791 45.4723 33.7001 44.0487 35.2625Z" fill="#1A1A1A"/>
<path d="M42.255 28.4463C42.0878 27.9353 41.8164 27.4647 41.4579 27.064C41.0994 26.6634 40.6617 26.3415 40.1725 26.1188C39.664 25.8779 39.1076 25.7552 38.545 25.76C37.5431 25.8075 36.5979 26.2389 35.9057 26.9648C35.2134 27.6906 34.8272 28.6551 34.8272 29.6581C34.8272 30.6612 35.2134 31.6257 35.9057 32.3515C36.5979 33.0774 37.5431 33.5088 38.545 33.5563H38.72C39.3176 33.5255 39.9001 33.3574 40.4222 33.0651C40.9443 32.7727 41.392 32.364 41.7306 31.8706C42.0691 31.3771 42.2894 30.8123 42.3743 30.22C42.4591 29.6276 42.4063 29.0237 42.22 28.455L42.255 28.4463ZM38.545 31.605C38.1591 31.605 37.7818 31.4906 37.4609 31.2762C37.14 31.0618 36.8899 30.757 36.7423 30.4005C36.5946 30.0439 36.5559 29.6516 36.6312 29.2731C36.7065 28.8946 36.8923 28.5469 37.1652 28.274C37.4381 28.0011 37.7858 27.8153 38.1643 27.74C38.5428 27.6647 38.9351 27.7034 39.2917 27.8511C39.6482 27.9987 39.953 28.2488 40.1674 28.5697C40.3818 28.8906 40.4962 29.2679 40.4962 29.6538C40.4917 30.1699 40.2846 30.6635 39.9197 31.0285C39.5547 31.3934 39.0611 31.6005 38.545 31.605Z" fill="#1A1A1A"/>
</g>
<defs>
<filter id="filter0_d" x="0" y="0" width="64" height="64" filterUnits="userSpaceOnUse" color-interpolation-filters="sRGB">
<feFlood flood-opacity="0" result="BackgroundImageFix"/>
<feColorMatrix in="SourceAlpha" type="matrix" values="0 0 0 0 0 0 0 0 0 0 0 0 0 0 0 0 0 0 127 0"/>
<feOffset dy="4"/>
<feGaussianBlur stdDeviation="2"/>
<feColorMatrix type="matrix" values="0 0 0 0 0 0 0 0 0 0 0 0 0 0 0 0 0 0 0.25 0"/>
<feBlend mode="normal" in2="BackgroundImageFix" result="effect1_dropShadow"/>
<feBlend mode="normal" in="SourceGraphic" in2="effect1_dropShadow" result="shape"/>
</filter>
</defs>
</svg>
