<svg fill="none" xmlns="http://www.w3.org/2000/svg">
<path d="M39.44 18C38.7599 17.3264 37.9971 16.7418 37.17 16.26C36.8868 12.6214 35.2911 9.20975 32.68 6.66C29.6482 3.66761 25.5598 1.98977 21.3 1.98977C17.0402 1.98977 12.9518 3.66761 9.92 6.66C3.63 12.88 4.06 22.58 9.92 29.19C15.92 35.99 19.15 40.19 21.29 44.49C22.69 41.81 24.3407 39.2687 26.22 36.9C28.2625 39.206 30.0278 41.7433 31.48 44.46C32.99 41.46 35.23 38.52 39.48 33.77C43.73 29.02 43.84 22.37 39.44 18ZM21.3 38.26C18.5359 34.3526 15.53 30.622 12.3 27.09C9.97264 24.5257 8.6421 21.2118 8.55 17.75C8.51027 16.1103 8.81051 14.4801 9.43181 12.9621C10.0531 11.4442 10.982 10.0713 12.16 8.93C14.5932 6.52694 17.8752 5.17942 21.295 5.17942C24.7148 5.17942 27.9968 6.52694 30.43 8.93C32.1249 10.5756 33.2911 12.6888 33.78 15C33.0226 14.8488 32.2523 14.7717 31.48 14.77C30.0168 14.7718 28.5674 15.0535 27.21 15.6C26.7951 14.5592 26.1131 13.6462 25.2326 12.9532C24.3522 12.2603 23.3046 11.8117 22.1954 11.653C21.0863 11.4942 19.9549 11.6308 18.9154 12.049C17.8759 12.4671 16.9651 13.1521 16.2749 14.0347C15.5847 14.9173 15.1395 15.9664 14.9842 17.076C14.829 18.1856 14.9691 19.3166 15.3906 20.3547C15.812 21.3929 16.4999 22.3015 17.3846 22.9889C18.2694 23.6764 19.3199 24.1182 20.43 24.27C20.2347 25.987 20.4094 27.726 20.9424 29.3698C21.4754 31.0137 22.3543 32.5243 23.52 33.8L24.1 34.46C23 35.81 22.12 37.07 21.3 38.26ZM21.3 21.12C20.6982 21.1242 20.1074 20.9581 19.596 20.6408C19.0846 20.3235 18.6734 19.868 18.4099 19.3269C18.1463 18.7858 18.0412 18.1813 18.1067 17.583C18.1722 16.9847 18.4056 16.4172 18.7799 15.9459C19.1543 15.4747 19.6543 15.1189 20.2222 14.9198C20.7902 14.7206 21.4028 14.6862 21.9895 14.8205C22.5762 14.9548 23.1129 15.2523 23.5377 15.6786C23.9624 16.105 24.2579 16.6428 24.39 17.23C24.09 17.48 23.8 17.73 23.52 18.01C22.6066 18.9045 21.8644 19.9585 21.33 21.12H21.3ZM37.77 32.3C35.5124 34.7695 33.4116 37.378 31.48 40.11C30.2872 38.3755 29.002 36.7065 27.63 35.11C26.99 34.35 26.29 33.54 25.52 32.66L25.19 32.29C23.5631 30.4932 22.6336 28.1731 22.57 25.75C22.5591 25.2107 22.5992 24.6717 22.69 24.14C22.9873 22.4072 23.8278 20.8138 25.09 19.59C25.8341 18.8487 26.7044 18.2459 27.66 17.81C29.6497 16.9023 31.8982 16.7356 34 17.34C35.1578 17.6738 36.2362 18.2385 37.17 19C37.41 19.2 37.65 19.41 37.87 19.63C38.6946 20.4261 39.3453 21.3845 39.7807 22.4448C40.2162 23.5051 40.4271 24.6441 40.4 25.79C40.3301 28.2047 39.397 30.5143 37.77 32.3Z" fill="#1A1A1A"/>
<path d="M35.72 24.51C35.5289 23.9261 35.2187 23.3882 34.8091 22.9303C34.3994 22.4724 33.8992 22.1046 33.34 21.85C32.7589 21.5747 32.123 21.4345 31.48 21.44C30.335 21.4943 29.2548 21.9873 28.4636 22.8169C27.6725 23.6464 27.2311 24.7487 27.2311 25.895C27.2311 27.0413 27.6725 28.1436 28.4636 28.9731C29.2548 29.8027 30.335 30.2957 31.48 30.35H31.68C32.363 30.3149 33.0287 30.1228 33.6254 29.7887C34.2221 29.4545 34.7338 28.9874 35.1207 28.4235C35.5076 27.8595 35.7593 27.214 35.8563 26.5371C35.9533 25.8601 35.893 25.1699 35.68 24.52L35.72 24.51ZM31.48 28.12C31.0389 28.12 30.6078 27.9892 30.2411 27.7442C29.8744 27.4991 29.5885 27.1509 29.4197 26.7434C29.251 26.3359 29.2068 25.8875 29.2928 25.455C29.3789 25.0224 29.5913 24.625 29.9031 24.3132C30.215 24.0013 30.6124 23.7889 31.0449 23.7029C31.4775 23.6168 31.9259 23.661 32.3334 23.8298C32.7409 23.9985 33.0891 24.2844 33.3342 24.6511C33.5792 25.0178 33.71 25.4489 33.71 25.89C33.7048 26.4798 33.4682 27.044 33.0511 27.4611C32.634 27.8782 32.0698 28.1148 31.48 28.12Z" fill="#1A1A1A"/>
</svg>
