<svg xmlns="http://www.w3.org/2000/svg"><defs><style>.cls-1{fill:#1a1a1a;}</style></defs><title>Artboard 19</title><g id="Layer_11" data-name="Layer 11"><path class="cls-1" d="M39.44,18a11.33,11.33,0,0,0-2.27-1.74,15.05,15.05,0,0,0-4.49-9.6,16.2,16.2,0,0,0-22.76,0c-6.29,6.22-5.86,15.92,0,22.53,6,6.8,9.23,11,11.37,15.3a47.88,47.88,0,0,1,4.93-7.59,39.45,39.45,0,0,1,5.26,7.56c1.51-3,3.75-5.94,8-10.69S43.84,22.37,39.44,18Zm-18.19,6.3a5.55,5.55,0,0,1-.82-.06l-.56-.1H19.8a6.38,6.38,0,0,1,.85-12.55c.21,0,.43,0,.65,0l.57,0H22a2.82,2.82,0,0,1,.57.09l.52.13h0a4.59,4.59,0,0,1,.48.17,2.07,2.07,0,0,1,.46.2,3,3,0,0,1,.4.21l.25.16.18.12.26.19a6.38,6.38,0,0,1,2.5,5v.1a6.36,6.36,0,0,1-4.93,6.2A6.17,6.17,0,0,1,21.25,24.31Zm10.23-2.87a4.26,4.26,0,0,1,1.86.41,4.45,4.45,0,0,1-1.66,8.49h-.2a4.46,4.46,0,1,1,0-8.91Z"/></g></svg>