<svg width="24" height="24" viewBox="0 0 24 24" fill="none" xmlns="http://www.w3.org/2000/svg">
<path d="M16.535 4.465C15.3184 3.26347 13.6774 2.58971 11.9675 2.58971C10.2576 2.58971 8.61658 3.26347 7.4 4.465C6.811 5.03565 6.34655 5.72208 6.0359 6.48107C5.72525 7.24005 5.57513 8.05514 5.595 8.875C5.64105 10.6059 6.30632 12.2628 7.47 13.545C9.08501 15.311 10.588 17.1763 11.97 19.13C13.3504 17.175 14.8534 15.3096 16.47 13.545C17.6356 12.264 18.3012 10.6063 18.345 8.875C18.3642 8.05478 18.2133 7.23947 17.9018 6.48046C17.5903 5.72146 17.1249 5.03522 16.535 4.465V4.465Z" fill="#E9F1F6"/>
<path d="M7.31499 11.625C7.81957 12.3998 8.50958 13.0365 9.32245 13.4772C10.1353 13.9179 11.0453 14.1487 11.97 14.1487C12.8946 14.1487 13.8047 13.9179 14.6175 13.4772C15.4304 13.0365 16.1204 12.3998 16.625 11.625H7.31499Z" fill="#61D4AB"/>
<path d="M11.97 3.81499V10.86H16.625L11.97 3.81499Z" fill="#61D4AB"/>
<path d="M17.66 3.33499C16.1441 1.8388 14.0999 0.999878 11.97 0.999878C9.84009 0.999878 7.79588 1.8388 6.28 3.33499C3.135 6.44499 3.35 11.295 6.28 14.6C9.28 18 10.895 20.1 11.965 22.25C13.045 20.12 14.65 18 17.66 14.6C20.59 11.295 20.8 6.44499 17.66 3.33499V3.33499ZM16.465 13.545C14.8484 15.3096 13.3454 17.175 11.965 19.13C10.583 17.1763 9.08001 15.311 7.465 13.545C6.30132 12.2628 5.63605 10.6059 5.59 8.87499C5.57078 8.05477 5.72168 7.23946 6.0332 6.48046C6.34472 5.72145 6.8101 5.03521 7.4 4.46499C8.61658 3.26346 10.2576 2.5897 11.9675 2.5897C13.6774 2.5897 15.3184 3.26346 16.535 4.46499C17.124 5.03565 17.5884 5.72208 17.8991 6.48106C18.2097 7.24005 18.3599 8.05514 18.34 8.87499C18.2962 10.6063 17.6306 12.264 16.465 13.545" fill="#61D4AB"/>
</svg>
