<svg width="36" height="36" viewBox="0 0 36 36" fill="none" xmlns="http://www.w3.org/2000/svg">
<rect width="36" height="36" fill="white"/>
<path d="M36 0H0V36H36V0Z" fill="#99C9EA" fill-opacity="0.5"/>
<path d="M18 22.5C13.3 22.5 11 20.9 8.7 19.4C6.5 17.9 4.3 16.5 0 16.5V15.5C4.6 15.5 7 17.1 9.3 18.6C11.6 20.1 13.7 21.5 18 21.5C22.3 21.5 24.5 20.1 26.7 18.6C29 17.1 31.3 15.5 36 15.5V16.5C31.7 16.5 29.5 17.9 27.3 19.4C25 20.9 22.7 22.5 18 22.5Z" fill="#99C9EA"/>
<path d="M18 34.5C13.3 34.5 11 32.9 8.7 31.4C6.5 29.9 4.3 28.5 0 28.5V27.5C4.6 27.5 7 29.1 9.3 30.6C11.6 32.1 13.7 33.5 18 33.5C22.3 33.5 24.5 32.1 26.7 30.6C29 29.1 31.3 27.5 36 27.5V28.5C31.7 28.5 29.5 29.9 27.3 31.4C25 32.9 22.7 34.5 18 34.5Z" fill="#99C9EA"/>
<path d="M18 10.5C13.3 10.5 11 8.9 8.7 7.4C6.5 5.9 4.4 4.5 0 4.5V3.5C4.6 3.5 7 5.1 9.3 6.6C11.6 8.1 13.7 9.5 18 9.5C22.3 9.5 24.5 8.1 26.7 6.6C29 5.1 31.4 3.5 36 3.5V4.5C31.7 4.5 29.5 5.9 27.3 7.4C25 8.9 22.7 10.5 18 10.5Z" fill="#99C9EA"/>
</svg>
