<svg width="36" height="36" viewBox="0 0 36 36" fill="none" xmlns="http://www.w3.org/2000/svg">
<rect width="36" height="36" fill="white"/>
<path d="M9 11C6.65 11 5.5 10.3143 4.35 9.67143C3.25 9.02857 2.15 8.42857 0 8.42857V8C2.3 8 3.5 8.68571 4.65 9.32857C5.8 9.97143 6.85 10.5714 9 10.5714C11.15 10.5714 12.25 9.97143 13.35 9.32857C14.5 8.68571 15.65 8 18 8V8.42857C15.85 8.42857 14.75 9.02857 13.65 9.67143C12.5 10.3143 11.35 11 9 11Z" fill="#DEE7ED"/>
<path d="M9 17C6.65 17 5.5 16.3143 4.35 15.6714C3.25 15.0286 2.15 14.4286 0 14.4286V14C2.3 14 3.5 14.6857 4.65 15.3286C5.8 15.9714 6.85 16.5714 9 16.5714C11.15 16.5714 12.25 15.9714 13.35 15.3286C14.5 14.6857 15.65 14 18 14V14.4286C15.85 14.4286 14.75 15.0286 13.65 15.6714C12.5 16.3143 11.35 17 9 17Z" fill="#DEE7ED"/>
<path d="M9 5C6.65 5 5.5 4.31429 4.35 3.67143C3.25 3.02857 2.2 2.42857 0 2.42857V2C2.3 2 3.5 2.68571 4.65 3.32857C5.8 3.97143 6.85 4.57143 9 4.57143C11.15 4.57143 12.25 3.97143 13.35 3.32857C14.5 2.68571 15.7 2 18 2V2.42857C15.85 2.42857 14.75 3.02857 13.65 3.67143C12.5 4.31429 11.35 5 9 5Z" fill="#DEE7ED"/>
<path d="M27 11C24.65 11 23.5 10.3143 22.35 9.67143C21.25 9.02857 20.15 8.42857 18 8.42857V8C20.3 8 21.5 8.68571 22.65 9.32857C23.8 9.97143 24.85 10.5714 27 10.5714C29.15 10.5714 30.25 9.97143 31.35 9.32857C32.5 8.68571 33.65 8 36 8V8.42857C33.85 8.42857 32.75 9.02857 31.65 9.67143C30.5 10.3143 29.35 11 27 11Z" fill="#DEE7ED"/>
<path d="M27 17C24.65 17 23.5 16.3143 22.35 15.6714C21.25 15.0286 20.15 14.4286 18 14.4286V14C20.3 14 21.5 14.6857 22.65 15.3286C23.8 15.9714 24.85 16.5714 27 16.5714C29.15 16.5714 30.25 15.9714 31.35 15.3286C32.5 14.6857 33.65 14 36 14V14.4286C33.85 14.4286 32.75 15.0286 31.65 15.6714C30.5 16.3143 29.35 17 27 17Z" fill="#DEE7ED"/>
<path d="M27 5C24.65 5 23.5 4.31429 22.35 3.67143C21.25 3.02857 20.2 2.42857 18 2.42857V2C20.3 2 21.5 2.68571 22.65 3.32857C23.8 3.97143 24.85 4.57143 27 4.57143C29.15 4.57143 30.25 3.97143 31.35 3.32857C32.5 2.68571 33.7 2 36 2V2.42857C33.85 2.42857 32.75 3.02857 31.65 3.67143C30.5 4.31429 29.35 5 27 5Z" fill="#DEE7ED"/>
<path d="M27 29C24.65 29 23.5 28.3143 22.35 27.6714C21.25 27.0286 20.15 26.4286 18 26.4286V26C20.3 26 21.5 26.6857 22.65 27.3286C23.8 27.9714 24.85 28.5714 27 28.5714C29.15 28.5714 30.25 27.9714 31.35 27.3286C32.5 26.6857 33.65 26 36 26V26.4286C33.85 26.4286 32.75 27.0286 31.65 27.6714C30.5 28.3143 29.35 29 27 29Z" fill="#DEE7ED"/>
<path d="M27 35C24.65 35 23.5 34.3143 22.35 33.6714C21.25 33.0286 20.15 32.4286 18 32.4286V32C20.3 32 21.5 32.6857 22.65 33.3286C23.8 33.9714 24.85 34.5714 27 34.5714C29.15 34.5714 30.25 33.9714 31.35 33.3286C32.5 32.6857 33.65 32 36 32V32.4286C33.85 32.4286 32.75 33.0286 31.65 33.6714C30.5 34.3143 29.35 35 27 35Z" fill="#DEE7ED"/>
<path d="M27 23C24.65 23 23.5 22.3143 22.35 21.6714C21.25 21.0286 20.2 20.4286 18 20.4286V20C20.3 20 21.5 20.6857 22.65 21.3286C23.8 21.9714 24.85 22.5714 27 22.5714C29.15 22.5714 30.25 21.9714 31.35 21.3286C32.5 20.6857 33.7 20 36 20V20.4286C33.85 20.4286 32.75 21.0286 31.65 21.6714C30.5 22.3143 29.35 23 27 23Z" fill="#DEE7ED"/>
<path d="M9 29C6.65 29 5.5 28.3143 4.35 27.6714C3.25 27.0286 2.15 26.4286 0 26.4286V26C2.3 26 3.5 26.6857 4.65 27.3286C5.8 27.9714 6.85 28.5714 9 28.5714C11.15 28.5714 12.25 27.9714 13.35 27.3286C14.5 26.6857 15.65 26 18 26V26.4286C15.85 26.4286 14.75 27.0286 13.65 27.6714C12.5 28.3143 11.35 29 9 29Z" fill="#DEE7ED"/>
<path d="M9 35C6.65 35 5.5 34.3143 4.35 33.6714C3.25 33.0286 2.15 32.4286 0 32.4286V32C2.3 32 3.5 32.6857 4.65 33.3286C5.8 33.9714 6.85 34.5714 9 34.5714C11.15 34.5714 12.25 33.9714 13.35 33.3286C14.5 32.6857 15.65 32 18 32V32.4286C15.85 32.4286 14.75 33.0286 13.65 33.6714C12.5 34.3143 11.35 35 9 35Z" fill="#DEE7ED"/>
<path d="M9 23C6.65 23 5.5 22.3143 4.35 21.6714C3.25 21.0286 2.2 20.4286 0 20.4286V20C2.3 20 3.5 20.6857 4.65 21.3286C5.8 21.9714 6.85 22.5714 9 22.5714C11.15 22.5714 12.25 21.9714 13.35 21.3286C14.5 20.6857 15.7 20 18 20V20.4286C15.85 20.4286 14.75 21.0286 13.65 21.6714C12.5 22.3143 11.35 23 9 23Z" fill="#DEE7ED"/>
</svg>
