<svg width="16" height="22" viewBox="0 0 16 22" fill="none" xmlns="http://www.w3.org/2000/svg">
<path d="M3.04782 13.4299L3.0463 13.4281C0.387942 10.3362 0.264446 5.90945 3.00162 3.11807C4.33885 1.75729 6.13551 1 8.00096 1C9.8662 1 11.6627 1.75712 12.9998 3.11761C15.7333 5.90975 15.6133 10.337 12.9556 13.4281L12.9552 13.4286C10.6332 16.1331 9.10324 18.1002 8.00063 19.9172C6.89778 18.0908 5.36076 16.1328 3.04782 13.4299Z" fill="#E9F1F6" stroke="black" stroke-width="2"/>
<path d="M8.03697 5.17644C7.44104 5.17548 6.85821 5.35681 6.36226 5.69751C5.8663 6.0382 5.4795 6.52293 5.2508 7.09037C5.02209 7.6578 4.96177 8.28244 5.07746 8.88524C5.19315 9.48804 5.47965 10.0419 5.90071 10.4768C6.32177 10.9116 6.85846 11.2079 7.44288 11.3281C8.0273 11.4484 8.63317 11.3871 9.18383 11.1522C9.7345 10.9173 10.2052 10.5192 10.5364 10.0083C10.8676 9.49748 11.0443 8.8968 11.0443 8.28231C11.0443 7.45942 10.7276 6.67017 10.1638 6.08785C9.59993 5.50552 8.83501 5.17773 8.03697 5.17644ZM8.03697 9.83037C7.7387 9.83133 7.44687 9.74095 7.19848 9.57068C6.95009 9.40042 6.75633 9.15793 6.64176 8.87397C6.52718 8.59001 6.49696 8.27737 6.55492 7.97568C6.61288 7.67398 6.75641 7.39683 6.96732 7.17936C7.17823 6.96188 7.44701 6.81388 7.7396 6.75412C8.03218 6.69435 8.33539 6.72551 8.61077 6.84365C8.88616 6.9618 9.12132 7.16159 9.28645 7.41772C9.45158 7.67384 9.53923 7.97475 9.5383 8.28231C9.53705 8.69248 9.37848 9.08549 9.09719 9.37553C8.81591 9.66558 8.43476 9.82909 8.03697 9.83037" fill="#1A1A1A"/>
</svg>
