<svg width="48" height="48" viewBox="0 0 48 48" fill="none" xmlns="http://www.w3.org/2000/svg">
<path d="M35.3177 6.67023C32.2859 3.67784 28.1975 2 23.9377 2C19.6779 2 15.5895 3.67784 12.5577 6.67023C6.26768 12.8902 6.69768 22.5902 12.5577 29.2002C18.5577 36.0002 21.7877 40.2002 23.9277 44.5002C26.0877 40.2402 29.2977 36.0002 35.3177 29.2002C41.1777 22.5902 41.5977 12.8902 35.3177 6.67023Z" fill="#E9F1F6"/>
<path d="M23.9377 11.5602C22.6754 11.5582 21.4409 11.9307 20.3904 12.6306C19.3399 13.3304 18.5206 14.3261 18.0362 15.4918C17.5518 16.6574 17.424 17.9405 17.669 19.1788C17.9141 20.417 18.5209 21.5548 19.4128 22.448C20.3047 23.3413 21.4414 23.9499 22.6793 24.1969C23.9172 24.4439 25.2005 24.3181 26.3669 23.8355C27.5333 23.3529 28.5303 22.5352 29.2317 21.4858C29.9332 20.4364 30.3077 19.2025 30.3077 17.9402C30.3077 16.2499 29.6369 14.6286 28.4425 13.4324C27.2482 12.2362 25.628 11.5629 23.9377 11.5602ZM23.9377 21.1202C23.3059 21.1222 22.6878 20.9365 22.1616 20.5868C21.6355 20.237 21.2251 19.7389 20.9824 19.1556C20.7397 18.5723 20.6757 17.9301 20.7985 17.3103C20.9213 16.6906 21.2253 16.1213 21.672 15.6746C22.1187 15.2278 22.6881 14.9238 23.3078 14.801C23.9275 14.6783 24.5698 14.7423 25.1531 14.985C25.7364 15.2277 26.2345 15.6381 26.5842 16.1642C26.934 16.6903 27.1196 17.3084 27.1177 17.9402C27.115 18.7828 26.7792 19.5901 26.1834 20.1859C25.5876 20.7817 24.7802 21.1176 23.9377 21.1202" fill="#1A1A1A"/>
<path d="M35.3177 6.67023C32.2859 3.67784 28.1975 2 23.9377 2C19.6779 2 15.5895 3.67784 12.5577 6.67023C6.26768 12.8902 6.69768 22.5902 12.5577 29.2002C18.5577 36.0002 21.7877 40.2002 23.9277 44.5002C26.0877 40.2402 29.2977 36.0002 35.3177 29.2002C41.1777 22.5902 41.5977 12.8902 35.3177 6.67023V6.67023ZM32.9277 27.0902C29.6945 30.6195 26.6885 34.3503 23.9277 38.2602C21.1636 34.3528 18.1577 30.6222 14.9277 27.0902C12.6003 24.5259 11.2698 21.212 11.1777 17.7502C11.1392 16.1098 11.441 14.4792 12.0641 12.9612C12.6871 11.4432 13.6179 10.0707 14.7977 8.93023C17.2308 6.52717 20.5129 5.17965 23.9327 5.17965C27.3525 5.17965 30.6345 6.52717 33.0677 8.93023C34.2457 10.0715 35.1746 11.4444 35.7959 12.9624C36.4172 14.4803 36.7174 16.1105 36.6777 17.7502C36.59 21.2129 35.2589 24.5283 32.9277 27.0902" fill="#1A1A1A"/>
</svg>
