<svg xmlns="http://www.w3.org/2000/svg" viewBox="0 0 48 48"><defs><style>.cls-1{fill:#1a1a1a;}.cls-2{fill:#09f;}.cls-3{fill:#e9f1f6;}</style></defs><title>Artboard 1</title><g id="Layer_2" data-name="Layer 2"><path id="Fill-46" class="cls-1" d="M35.32,6.67a16.2,16.2,0,0,0-22.76,0c-6.29,6.22-5.86,15.92,0,22.53,6,6.8,9.23,11,11.37,15.3,2.16-4.26,5.37-8.5,11.39-15.3C41.18,22.59,41.6,12.89,35.32,6.67ZM32.93,27.09a113.18,113.18,0,0,0-9,11.17,114.74,114.74,0,0,0-9-11.17,14.47,14.47,0,0,1-3.75-9.34A11.88,11.88,0,0,1,14.8,8.93a13,13,0,0,1,18.27,0,11.88,11.88,0,0,1,3.61,8.82A14.42,14.42,0,0,1,32.93,27.09Z"/></g><g id="Layer_14" data-name="Layer 14"><path id="Fill-46-2" data-name="Fill-46" class="cls-2" d="M35.32,6.67a16.2,16.2,0,0,0-22.76,0c-6.29,6.22-5.86,15.92,0,22.53,6,6.8,9.23,11,11.37,15.3,2.16-4.26,5.37-8.5,11.39-15.3C41.18,22.59,41.6,12.89,35.32,6.67ZM32.93,27.09a113.18,113.18,0,0,0-9,11.17,114.74,114.74,0,0,0-9-11.17,14.47,14.47,0,0,1-3.75-9.34A11.88,11.88,0,0,1,14.8,8.93a13,13,0,0,1,18.27,0,11.88,11.88,0,0,1,3.61,8.82A14.42,14.42,0,0,1,32.93,27.09Z"/><path class="cls-3" d="M33.07,8.93a13,13,0,0,0-18.27,0,11.88,11.88,0,0,0-3.61,8.82,14.47,14.47,0,0,0,3.75,9.34,114.74,114.74,0,0,1,9,11.17,113.18,113.18,0,0,1,9-11.17,14.42,14.42,0,0,0,3.75-9.34A11.88,11.88,0,0,0,33.07,8.93ZM23.94,24.31a6.38,6.38,0,1,1,6.37-6.37A6.37,6.37,0,0,1,23.94,24.31Z"/><path id="Fill-45" class="cls-2" d="M23.94,11.56a6.38,6.38,0,1,0,6.37,6.38A6.38,6.38,0,0,0,23.94,11.56Zm0,9.56a3.19,3.19,0,1,1,3.18-3.18A3.19,3.19,0,0,1,23.94,21.12Z"/></g></svg>