<svg width="48" height="48" viewBox="0 0 48 48" fill="none" xmlns="http://www.w3.org/2000/svg">
<path d="M35.32 6.67C32.2882 3.67761 28.1998 1.99977 23.94 1.99977C19.6802 1.99977 15.5918 3.67761 12.56 6.67C6.27 12.89 6.7 22.59 12.56 29.2C18.56 36 21.79 40.2 23.93 44.5C26.09 40.24 29.3 36 35.32 29.2C41.18 22.59 41.6 12.89 35.32 6.67ZM32.93 27.09C29.6968 30.6193 26.6908 34.3501 23.93 38.26C21.1659 34.3526 18.16 30.622 14.93 27.09C12.6026 24.5257 11.2721 21.2118 11.18 17.75C11.1416 16.1096 11.4434 14.4789 12.0664 12.9609C12.6894 11.4429 13.6202 10.0704 14.8 8.93C17.2332 6.52694 20.5152 5.17942 23.935 5.17942C27.3548 5.17942 30.6368 6.52694 33.07 8.93C34.248 10.0713 35.1769 11.4442 35.7982 12.9621C36.4195 14.4801 36.7197 16.1103 36.68 17.75C36.5923 21.2127 35.2612 24.5281 32.93 27.09V27.09Z" fill="#1A1A1A"/>
<path d="M35.32 6.67C32.2882 3.67761 28.1998 1.99977 23.94 1.99977C19.6802 1.99977 15.5918 3.67761 12.56 6.67C6.27 12.89 6.7 22.59 12.56 29.2C18.56 36 21.79 40.2 23.93 44.5C26.09 40.24 29.3 36 35.32 29.2C41.18 22.59 41.6 12.89 35.32 6.67ZM32.93 27.09C29.6968 30.6193 26.6908 34.3501 23.93 38.26C21.1659 34.3526 18.16 30.622 14.93 27.09C12.6026 24.5257 11.2721 21.2118 11.18 17.75C11.1416 16.1096 11.4434 14.4789 12.0664 12.9609C12.6894 11.4429 13.6202 10.0704 14.8 8.93C17.2332 6.52694 20.5152 5.17942 23.935 5.17942C27.3548 5.17942 30.6368 6.52694 33.07 8.93C34.248 10.0713 35.1769 11.4442 35.7982 12.9621C36.4195 14.4801 36.7197 16.1103 36.68 17.75C36.5923 21.2127 35.2612 24.5281 32.93 27.09V27.09Z" fill="#0099FF"/>
<path d="M33.07 8.93001C30.6368 6.52695 27.3548 5.17943 23.935 5.17943C20.5152 5.17943 17.2332 6.52695 14.8 8.93001C13.622 10.0713 12.6931 11.4442 12.0718 12.9621C11.4505 14.4801 11.1503 16.1103 11.19 17.75C11.2821 21.2118 12.6126 24.5257 14.94 27.09C18.17 30.622 21.1759 34.3526 23.94 38.26C26.7008 34.3501 29.7068 30.6193 32.94 27.09C35.2712 24.5281 36.6023 21.2127 36.69 17.75C36.7284 16.1096 36.4266 14.4789 35.8036 12.9609C35.1806 11.4429 34.2498 10.0704 33.07 8.93001V8.93001ZM23.94 24.31C22.6773 24.312 21.4424 23.9392 20.3917 23.239C19.341 22.5387 18.5217 21.5424 18.0376 20.3762C17.5534 19.21 17.4263 17.9263 17.6721 16.6878C17.918 15.4493 18.5258 14.3115 19.4187 13.4187C20.3115 12.5258 21.4493 11.918 22.6878 11.6721C23.9263 11.4263 25.2099 11.5535 26.3761 12.0376C27.5423 12.5217 28.5387 13.341 29.2389 14.3917C29.9392 15.4424 30.312 16.6773 30.31 17.94C30.31 19.6294 29.6389 21.2497 28.4443 22.4443C27.2497 23.6389 25.6294 24.31 23.94 24.31V24.31Z" fill="#E9F1F6"/>
<path d="M23.94 11.56C22.6777 11.558 21.4432 11.9305 20.3927 12.6304C19.3422 13.3302 18.5229 14.3259 18.0385 15.4915C17.5541 16.6572 17.4263 17.9403 17.6714 19.1785C17.9164 20.4168 18.5233 21.5545 19.4151 22.4478C20.307 23.3411 21.4438 23.9497 22.6816 24.1967C23.9195 24.4437 25.2028 24.3179 26.3692 23.8353C27.5356 23.3527 28.5326 22.535 29.2341 21.4856C29.9356 20.4362 30.31 19.2023 30.31 17.94C30.31 16.2497 29.6392 14.6284 28.4449 13.4322C27.2506 12.236 25.6303 11.5627 23.94 11.56V11.56ZM23.94 21.12C23.3082 21.122 22.6901 20.9363 22.164 20.5866C21.6379 20.2368 21.2274 19.7387 20.9848 19.1554C20.7421 18.5721 20.6781 17.9299 20.8008 17.3101C20.9236 16.6904 21.2276 16.1211 21.6743 15.6743C22.1211 15.2276 22.6904 14.9236 23.3101 14.8008C23.9299 14.6781 24.5721 14.7421 25.1554 14.9848C25.7387 15.2274 26.2368 15.6379 26.5866 16.164C26.9363 16.6901 27.122 17.3082 27.12 17.94C27.1174 18.7826 26.7815 19.5899 26.1857 20.1857C25.5899 20.7815 24.7826 21.1174 23.94 21.12V21.12Z" fill="#0099FF"/>
</svg>
