<svg width="48" height="48" viewBox="0 0 48 48" fill="none" xmlns="http://www.w3.org/2000/svg">
<path d="M24 44C25.6569 44 27 42.6569 27 41C27 39.3431 25.6569 38 24 38C22.3431 38 21 39.3431 21 41C21 42.6569 22.3431 44 24 44Z" fill="#0016BC"/>
<path d="M24 39C24.3956 39 24.7822 39.1173 25.1111 39.3371C25.44 39.5568 25.6964 39.8692 25.8478 40.2346C25.9991 40.6001 26.0387 41.0022 25.9616 41.3902C25.8844 41.7781 25.6939 42.1345 25.4142 42.4142C25.1345 42.6939 24.7781 42.8844 24.3902 42.9616C24.0022 43.0387 23.6001 42.9991 23.2346 42.8478C22.8692 42.6964 22.5568 42.44 22.3371 42.1111C22.1173 41.7822 22 41.3956 22 41C22 40.4696 22.2107 39.9609 22.5858 39.5858C22.9609 39.2107 23.4696 39 24 39V39ZM24 37C23.2089 37 22.4355 37.2346 21.7777 37.6741C21.1199 38.1136 20.6072 38.7384 20.3045 39.4693C20.0017 40.2002 19.9225 41.0044 20.0769 41.7804C20.2312 42.5563 20.6122 43.269 21.1716 43.8284C21.731 44.3878 22.4437 44.7688 23.2196 44.9231C23.9956 45.0775 24.7998 44.9983 25.5307 44.6955C26.2616 44.3928 26.8864 43.8801 27.3259 43.2223C27.7654 42.5645 28 41.7911 28 41C28 39.9391 27.5786 38.9217 26.8284 38.1716C26.0783 37.4214 25.0609 37 24 37Z" fill="#0016BC"/>
<path d="M42.17 21.62L39.52 14.34H22.88L19.32 8.41L12.2 14.34H3.82L9.13 22.34C8.97 22.43 8.82 22.53 8.67 22.63C7.73307 23.3854 6.57316 23.8107 5.37 23.84V26.51C7.08952 26.4848 8.75517 25.9062 10.12 24.86C11.0292 24.1264 12.1524 23.7087 13.32 23.67C14.4871 23.7109 15.6097 24.1283 16.52 24.86C17.8848 25.9062 19.5505 26.4848 21.27 26.51C22.9861 26.4719 24.6444 25.8829 26 24.83C26.9065 24.0985 28.0259 23.6809 29.19 23.64C30.3576 23.6787 31.4808 24.0964 32.39 24.83C33.7448 25.8982 35.4198 26.4791 37.145 26.4791C38.8702 26.4791 40.5452 25.8982 41.9 24.83C42.8103 24.0983 43.9328 23.6809 45.1 23.64V21C44.0897 20.9897 43.0895 21.2013 42.17 21.62V21.62ZM18.64 12.44L19.78 14.34H16.36L18.64 12.44ZM37.18 23.81C35.9738 23.7806 34.8107 23.3555 33.87 22.6C32.549 21.5511 30.9118 20.9802 29.225 20.9802C27.5382 20.9802 25.901 21.5511 24.58 22.6C23.6393 23.3555 22.4762 23.7806 21.27 23.81C20.0772 23.7742 18.9288 23.3492 18 22.6C16.6528 21.577 15.0115 21.0158 13.32 21C12.7335 20.9978 12.1491 21.0683 11.58 21.21L8.79 17H37.66L39.85 23C39.062 23.5329 38.1313 23.8152 37.18 23.81Z" fill="#0016BC"/>
</svg>
