<svg width="48" height="48" viewBox="0 0 48 48" fill="none" xmlns="http://www.w3.org/2000/svg">
<path d="M24 44C25.6569 44 27 42.6569 27 41C27 39.3431 25.6569 38 24 38C22.3431 38 21 39.3431 21 41C21 42.6569 22.3431 44 24 44Z" fill="#0099FF"/>
<path d="M24 39C24.3956 39 24.7822 39.1173 25.1111 39.3371C25.44 39.5568 25.6964 39.8692 25.8478 40.2346C25.9991 40.6001 26.0387 41.0022 25.9616 41.3902C25.8844 41.7781 25.6939 42.1345 25.4142 42.4142C25.1345 42.6939 24.7781 42.8844 24.3902 42.9616C24.0022 43.0387 23.6001 42.9991 23.2346 42.8478C22.8692 42.6964 22.5568 42.44 22.3371 42.1111C22.1173 41.7822 22 41.3956 22 41C22 40.4696 22.2107 39.9609 22.5858 39.5858C22.9609 39.2107 23.4696 39 24 39V39ZM24 37C23.2089 37 22.4355 37.2346 21.7777 37.6741C21.1199 38.1136 20.6072 38.7384 20.3045 39.4693C20.0017 40.2002 19.9225 41.0044 20.0769 41.7804C20.2312 42.5563 20.6122 43.269 21.1716 43.8284C21.731 44.3878 22.4437 44.7688 23.2196 44.9231C23.9956 45.0775 24.7998 44.9983 25.5307 44.6955C26.2616 44.3928 26.8864 43.8801 27.3259 43.2223C27.7654 42.5645 28 41.7911 28 41C28 39.9391 27.5786 38.9217 26.8284 38.1716C26.0783 37.4214 25.0609 37 24 37Z" fill="#0099FF"/>
<path d="M37.83 23.78L44.11 14.35H23L17.11 3L14.74 4.24L20 14.35H3.82L9.12 22.35L8.66 22.65C7.72086 23.4015 6.56232 23.8263 5.36 23.86V26.52C7.07838 26.4977 8.74391 25.9227 10.11 24.88C11.0215 24.1437 12.1488 23.7258 13.32 23.69C14.4874 23.7294 15.6105 24.1471 16.52 24.88C17.8861 25.9227 19.5516 26.4977 21.27 26.52C21.8939 26.5213 22.5154 26.444 23.12 26.29L25.12 30.2C25.5895 31.1096 26.4011 31.7956 27.3762 32.1069C28.3514 32.4182 29.4103 32.3294 30.32 31.86L30.55 31.74C31.4603 31.2685 32.1464 30.4552 32.4576 29.4784C32.7689 28.5016 32.6798 27.4412 32.21 26.53L30.93 24C31.4484 24.2412 31.9438 24.5291 32.41 24.86C33.7808 25.9009 35.4489 26.4756 37.17 26.5C38.8884 26.4777 40.5539 25.9027 41.92 24.86C42.3 24.61 42.66 24.39 43.01 24.2V21.3C42.1072 21.6181 41.2525 22.0589 40.47 22.61C39.6973 23.2074 38.7915 23.6088 37.83 23.78ZM21.89 23.78C21.6836 23.796 21.4764 23.796 21.27 23.78C20.0826 23.7513 18.9361 23.341 18 22.61C16.6524 21.5865 15.0121 21.0223 13.32 21C12.7335 20.9968 12.1489 21.0674 11.58 21.21L8.78 17H21.34L22.79 19.8C22.2861 20.315 21.9352 20.9598 21.7763 21.6625C21.6173 22.3653 21.6567 23.0983 21.89 23.78V23.78ZM29.35 29.34L29.12 29.45C28.9508 29.5407 28.762 29.5888 28.57 29.59C28.3496 29.5884 28.1337 29.5272 27.9453 29.4127C27.7569 29.2983 27.603 29.1349 27.5 28.94L25.55 25.15L24.48 23.08C24.4284 22.972 24.3914 22.8577 24.37 22.74C24.3209 22.4871 24.3559 22.2251 24.4697 21.994C24.5834 21.7629 24.7697 21.5753 25 21.46L25.23 21.34C25.4446 21.2306 25.6872 21.1882 25.9262 21.2186C26.1652 21.2489 26.3895 21.3504 26.57 21.51C26.6868 21.6058 26.7822 21.725 26.85 21.86L27.85 23.86L29.85 27.73C29.9924 28.0107 30.0199 28.3358 29.9265 28.6364C29.8332 28.937 29.6264 29.1894 29.35 29.34V29.34ZM35 23.27C34.6163 23.0739 34.2455 22.8535 33.89 22.61C32.5941 21.6181 31.021 21.0552 29.39 21L29.2 20.64C28.8769 20.009 28.3855 19.4797 27.78 19.1108C27.1746 18.7419 26.4789 18.5478 25.77 18.55C25.5652 18.5501 25.3609 18.5702 25.16 18.61L24.34 17H39.15L35 23.27Z" fill="#0099FF"/>
</svg>
