<svg width="48" height="48" viewBox="0 0 48 48" fill="none" xmlns="http://www.w3.org/2000/svg">
<path d="M37.83 32.76L44.11 23.33H23L17.11 12L14.74 13.22L20 23.33H3.82L9.12 31.33L8.66 31.63C7.72086 32.3815 6.56232 32.8063 5.36 32.84V35.5C7.07838 35.4777 8.74391 34.9027 10.11 33.86C11.0215 33.1238 12.1488 32.7058 13.32 32.67C14.4874 32.7094 15.6105 33.1271 16.52 33.86C17.8861 34.9027 19.5516 35.4777 21.27 35.5C21.8939 35.5013 22.5154 35.424 23.12 35.27L25.12 39.18C25.5895 40.0896 26.4011 40.7756 27.3762 41.0869C28.3514 41.3982 29.4103 41.3094 30.32 40.84L30.55 40.72C31.4603 40.2485 32.1464 39.4352 32.4576 38.4584C32.7689 37.4816 32.6798 36.4212 32.21 35.51L30.93 33C31.4484 33.2412 31.9438 33.5291 32.41 33.86C33.7808 34.9009 35.4489 35.4756 37.17 35.5C38.8884 35.4777 40.5539 34.9027 41.92 33.86C42.3 33.61 42.66 33.39 43.01 33.2V30.28C42.1072 30.5981 41.2525 31.0389 40.47 31.59C39.6973 32.1874 38.7915 32.5888 37.83 32.76V32.76ZM21.89 32.76C21.6836 32.776 21.4764 32.776 21.27 32.76C20.0826 32.7313 18.9361 32.321 18 31.59C16.6499 30.5737 15.0098 30.0165 13.32 30C12.7335 29.9968 12.1489 30.0674 11.58 30.21L8.78 26H21.34L22.79 28.8C22.2898 29.3131 21.941 29.9545 21.7822 30.6532C21.6234 31.352 21.6607 32.0811 21.89 32.76ZM29.35 38.32L29.12 38.43C28.9508 38.5207 28.762 38.5688 28.57 38.57C28.3496 38.5684 28.1337 38.5072 27.9453 38.3927C27.7569 38.2783 27.603 38.1149 27.5 37.92L25.55 34.13L24.48 32.06C24.4284 31.952 24.3914 31.8377 24.37 31.72C24.3209 31.4671 24.3559 31.2051 24.4697 30.974C24.5834 30.7429 24.7697 30.5553 25 30.44L25.23 30.32C25.4446 30.2106 25.6872 30.1682 25.9262 30.1986C26.1652 30.2289 26.3895 30.3304 26.57 30.49C26.6868 30.5858 26.7822 30.705 26.85 30.84L27.85 32.84L29.85 36.71C29.9924 36.9907 30.0199 37.3158 29.9265 37.6164C29.8332 37.917 29.6264 38.1694 29.35 38.32V38.32ZM35 32.25C34.6163 32.0539 34.2455 31.8335 33.89 31.59C32.5917 30.6052 31.0188 30.0495 29.39 30L29.2 29.64C28.8769 29.009 28.3855 28.4797 27.78 28.1108C27.1746 27.7419 26.4789 27.5478 25.77 27.55C25.5652 27.5501 25.3609 27.5702 25.16 27.61L24.34 26H39.15L35 32.25Z" fill="#0099FF"/>
</svg>
