<?xml version="1.0" encoding="UTF-8"?>
<svg width="32px" height="42px" viewBox="0 0 32 42" version="1.1" xmlns="http://www.w3.org/2000/svg" xmlns:xlink="http://www.w3.org/1999/xlink">
    <!-- Generator: Sketch 60.1 (88133) - https://sketch.com -->
    <title>pin-kids</title>
    <desc>Created with Sketch.</desc>
    <g id="Symbols" stroke="none" stroke-width="1" fill="none" fill-rule="evenodd">
        <g id="category-kids" transform="translate(1.000000, 1.000000)">
            <g id="pin-kids">
                <path d="M4.32764585,25.2912752 L4.32764585,25.2892946 C-1.26686571,19.0721903 -1.59831793,10.0713524 4.27742582,4.3394952 C7.13996765,1.55873242 10.9868221,0 15.0044247,0 C19.0119832,0 22.8688817,1.55873242 25.7213795,4.3385049 C31.5971232,10.0713524 31.265671,19.0731806 25.6812035,25.2892946 L25.6812035,25.2892946 C20.3880121,31.1805901 17.2040621,35.1893251 14.9943807,39 C12.7947433,35.1635773 9.59070521,31.1805901 4.32764585,25.2912752 Z" id="Path-Copy-13" stroke="#000000" stroke-width="2" fill="#E9F1F6" fill-rule="nonzero"></path>
                <path d="M12.1488664,22.0363217 C13.2713532,22.0363217 14.1810923,22.9235048 14.1810923,24.0181608 C14.1810923,25.1128169 13.2713532,26 12.1488664,26 C11.0263796,26 10.1166405,25.1128169 10.1166405,24.0181608 C10.1166405,22.9235048 11.0263796,22.0363217 12.1488664,22.0363217 Z M19.3854271,22.0363217 C20.5079139,22.0363217 21.4176529,22.9235048 21.4176529,24.0181608 C21.4176529,25.1128169 20.5079139,26 19.3854271,26 C18.2623699,26 17.3532012,25.1128169 17.3532012,24.0181608 C17.3532012,22.9235048 18.2623699,22.0363217 19.3854271,22.0363217 Z M16.100385,6 C16.8236133,6 17.4875232,6.32316827 17.9232853,6.88495821 L17.9232853,6.88495821 L18.4776843,7.60026699 C18.5643804,7.71262498 18.7086839,7.77158511 18.8507058,7.75267337 L18.8507058,7.75267337 L19.5311564,7.6608958 C19.6440895,7.64532143 19.7581634,7.63809047 19.8710965,7.63809047 C20.5777841,7.63809047 21.2513903,7.93789718 21.7190931,8.46075119 C22.1873663,8.98471764 22.4001141,9.68055845 22.3031513,10.3702808 L22.3031513,10.3702808 L22.2096107,11.035529 C22.1896478,11.1773671 22.2495366,11.3192052 22.3653215,11.4048642 L22.3653215,11.4048642 L23.0971054,11.9482986 C23.6708969,12.3732566 24,13.0223743 24,13.7260023 L24,13.7260023 L24,15.5832464 L23.9840297,15.5832464 C23.7792671,18.3349047 21.4190789,20.5136484 18.5455582,20.5136484 L18.5455582,20.5136484 L13.0751462,20.5136484 C10.9305575,20.5136484 9.02552403,19.1086174 8.44260659,17.0961857 L8.44260659,17.0961857 L7.17011265,12.7030996 C6.89747612,11.7897738 6.02024811,11.1473308 5.03864252,11.1473308 L5.03864252,11.1473308 L4,11.1473308 L4,9.66776522 L5.03864252,9.66776522 C6.69043205,9.66776522 8.16654784,10.7485156 8.62854698,12.2953847 L8.62854698,12.2953847 L9.15328675,14.1070182 L14.1736775,14.1070182 L14.1736775,6 Z M22.4622843,15.58714 L9.58220448,15.58714 L9.90275203,16.6934768 C10.3020106,18.071809 11.6064452,19.0340829 13.0751462,19.0340829 L13.0751462,19.0340829 L18.5455582,19.0340829 C20.5812063,19.0340829 22.2603736,17.5200311 22.4622843,15.58714 L22.4622843,15.58714 Z M16.1015257,7.48012181 L15.6908598,7.48012181 L15.6908598,14.1036808 L22.4828176,14.1036808 L22.4828176,13.7260023 C22.4828176,13.4879368 22.3715956,13.2693393 22.1782404,13.1252764 L22.1782404,13.1252764 L21.4470269,12.5823982 C20.8960502,12.1735708 20.6125766,11.5049852 20.7066876,10.8352871 L20.7066876,10.8352871 L20.8002281,10.1689263 C20.8378725,9.8985997 20.7585912,9.63828515 20.5755026,9.43303714 C20.3667475,9.19942152 20.0541851,9.08372617 19.7387709,9.1265557 L19.7387709,9.1265557 L19.0577499,9.21833326 C18.9716241,9.22945782 18.8832169,9.23613255 18.7959504,9.23613255 C18.1993441,9.23613255 17.6272637,8.95801872 17.2673606,8.49301239 L17.2673606,8.49301239 L16.7129616,7.77714739 C16.5663767,7.58858621 16.3433623,7.48012181 16.1015257,7.48012181 L16.1015257,7.48012181 Z" id="Color-Copy" fill="#000000"></path>
            </g>
        </g>
    </g>
</svg>