<?xml version="1.0" encoding="UTF-8"?>
<svg width="32px" height="42px" viewBox="0 0 32 42" version="1.1" xmlns="http://www.w3.org/2000/svg" xmlns:xlink="http://www.w3.org/1999/xlink">
    <!-- Generator: Sketch 60.1 (88133) - https://sketch.com -->
    <title>pin-locked-pier</title>
    <desc>Created with Sketch.</desc>
    <g id="Symbols" stroke="none" stroke-width="1" fill="none" fill-rule="evenodd">
        <g id="category-locked-pier" transform="translate(1.000000, 1.000000)" fill-rule="nonzero">
            <g id="pin-locked-pier">
                <path d="M4.32649438,25.2912752 L4.32448576,25.2892946 C-1.26448918,19.0721903 -1.59992811,10.0713524 4.27828759,4.3394952 C7.13554432,1.55873242 10.9880705,0 15.0022902,0 C19.0155056,0 22.8680318,1.55873242 25.7242842,4.3385049 C31.5944654,10.0713524 31.2680653,19.0731806 25.6790903,25.2892946 L25.6790903,25.2892946 C20.3904035,31.1805901 17.2057423,35.1893251 14.998273,39 C12.7978338,35.1635773 9.59609933,31.1805901 4.32649438,25.2912752 Z" id="Path" stroke="#000000" stroke-width="2" fill="#E9F1F6"></path>
                <path d="M24.4764208,19.5794134 L23.1051995,15.9535141 L14.8524788,15.9535141 L13.0444982,13 L9.42853688,15.9535141 L5,15.9535141 L7.69165659,19.9380188 L7.46311971,20.0824571 C6.98573156,20.4589928 6.39458283,20.6701716 5.78210399,20.6851134 L5.78210399,22 C6.65663845,21.9890426 7.50476421,21.700166 8.19951632,21.1781959 C8.65963724,20.8136137 9.22844015,20.6064195 9.81958888,20.5855008 C10.405659,20.6094079 10.9683676,20.8166021 11.4244256,21.1781959 C12.1242563,21.7041505 12.9805079,21.9930271 13.8621524,22 C14.7356711,21.9880465 15.5817654,21.6991699 16.2744861,21.1781959 C16.7366385,20.8126176 17.3064571,20.6044272 17.8996372,20.5855008 C18.5009432,20.6004427 19.080919,20.8086331 19.5501814,21.1781959 C20.2378235,21.7101273 21.0889964,22 21.9655623,22 C22.8411125,22 23.6922854,21.7101273 24.3799274,21.1781959 C24.8400484,20.8136137 25.4088513,20.6064195 26,20.5855008 L26,19.260653 C25.4738573,19.252684 24.9527932,19.3612618 24.4764208,19.5794134 Z M12.6991536,15.0271168 L13.2781137,15.9734366 L11.5412334,15.9734366 L12.6991536,15.0271168 Z M21.9371221,20.6701716 C21.325659,20.6552297 20.7365417,20.4440509 20.261185,20.0675152 C19.5897944,19.544549 18.7569045,19.260653 17.8996372,19.260653 C17.04237,19.260653 16.20948,19.544549 15.5380895,20.0675152 C15.0627328,20.4440509 14.4736155,20.6552297 13.8621524,20.6701716 C13.2496735,20.6562258 12.6585248,20.4440509 12.1811366,20.0675152 C11.502636,19.5574986 10.6748247,19.2745988 9.81958888,19.260653 C9.52299879,19.2596569 9.22844015,19.2945213 8.94099154,19.3652463 L7.52406288,17.2783619 L22.1808948,17.2783619 L23.2931076,20.2667405 C22.8929141,20.5327061 22.4206046,20.6741561 21.9371221,20.6701716 Z" id="Shape" fill="#1A1A1A"></path>
                <path d="M19.7492301,6 C19.2028345,6.0009231 18.6654455,6.12738765 18.1870991,6.36923957 C17.7077521,6.61201459 17.3024587,6.96094598 17.007245,7.38464838 L8.50108674,7.38464838 L7,8.76929677 L9.00144899,10.6154946 L11.002898,9.69239569 L12.5039847,10.6154946 L14.5054337,9.69239569 L16.0065205,10.6154946 L17.007245,10.6154946 C17.3114652,11.0539666 17.7337709,11.4130521 18.2341332,11.654904 C18.7334947,11.897679 19.2928997,12.0158357 19.8573083,11.9982968 C20.4217169,11.9807579 20.9711147,11.8284466 21.4524632,11.5552093 C21.9328109,11.281972 22.3290978,10.898886 22.6002942,10.441952 C22.8714905,9.98501805 23.0085898,9.47085195 22.9995833,8.95022416 C22.9905767,8.42959636 22.8344637,7.92004576 22.5462551,7.47141968 C22.2590471,7.02371671 21.8497508,6.65170784 21.3593958,6.39416324 C20.8690408,6.13569554 20.3136387,6 19.7492301,6 Z M20.7499546,10.1539452 C20.5027756,10.1539452 20.2606003,10.0865589 20.0544511,9.95917128 C19.8493025,9.83270673 19.6891866,9.65270244 19.5941178,9.44131278 C19.5000497,9.23084623 19.4750316,8.9991484 19.5230663,8.77483536 C19.5711011,8.55144542 19.6901873,8.34559436 19.8653141,8.18405205 C20.0404409,8.02250974 20.2636025,7.91266097 20.5057778,7.86835222 C20.7489539,7.82404347 21.0001357,7.84712094 21.2283009,7.93389224 C21.4574668,8.02158664 21.6526081,8.16928247 21.7897073,8.35944085 C21.9278073,8.54867613 22.0008602,8.77206607 22.0008602,9.0000715 C22.0008602,9.30654034 21.8687646,9.5991627 21.634595,9.81609095 C21.3994248,10.0320961 21.0811944,10.1539452 20.7499546,10.1539452 Z" id="Shape" fill="#1A1A1A"></path>
            </g>
        </g>
    </g>
</svg>