<?xml version="1.0" encoding="UTF-8"?>
<svg width="32px" height="42px" viewBox="0 0 32 42" version="1.1" xmlns="http://www.w3.org/2000/svg" xmlns:xlink="http://www.w3.org/1999/xlink">
    <!-- Generator: Sketch 60.1 (88133) - https://sketch.com -->
    <title>pin-bar</title>
    <desc>Created with Sketch.</desc>
    <g id="Symbols" stroke="none" stroke-width="1" fill="none" fill-rule="evenodd">
        <g id="category-bar" transform="translate(1.000000, 1.000000)">
            <g id="pin-bar">
                <path d="M4.32764585,25.2912752 L4.32764585,25.2892946 C-1.26686571,19.0721903 -1.59831793,10.0713524 4.27742582,4.3394952 C7.13996765,1.55873242 10.9868221,0 15.0044247,0 C19.0119832,0 22.8688817,1.55873242 25.7213795,4.3385049 C31.5971232,10.0713524 31.265671,19.0731806 25.6812035,25.2892946 L25.6812035,25.2892946 C20.3880121,31.1805901 17.2040621,35.1893251 14.9943807,39 C12.7947433,35.1635773 9.59070521,31.1805901 4.32764585,25.2912752 Z" id="Path-Copy-18" stroke="#000000" stroke-width="2" fill="#E9F1F6" fill-rule="nonzero"></path>
                <path d="M20.4871625,5 L20.4871625,5.86840387 C20.4871625,7.29637324 20.8408963,8.58853208 21.2146394,9.95643141 C21.6005309,11.3654657 22,12.8228171 22,14.4649492 C22,17.3861815 19.3616457,19.8066125 15.9500791,20.1911913 L15.9500791,20.1911913 L15.9500791,25.2638452 L21.0431321,25.2631923 L21.0431321,27 L8.95686795,27 L8.95686795,25.2631923 L14.0499209,25.2638452 L14.0499209,20.1911913 C10.6376397,19.8066125 8,17.3861815 8,14.4649492 C8,12.8228171 8.39946914,11.3654657 8.78536062,9.95643141 C9.15910367,8.58853208 9.51212291,7.29637324 9.51212291,5.86840387 L9.51212291,5.86840387 L9.51212291,5 L20.4871625,5 Z M14.9996427,13.4907699 C14.5101322,13.4907699 14.2414374,13.5932807 13.8698382,13.7336618 C13.4346384,13.8982015 12.8951049,14.1038761 12.0518605,14.1038761 C11.2093308,14.1038761 10.6683681,13.8982015 10.2338829,13.7336618 C10.1309785,13.6951386 10.0359349,13.6592272 9.94160584,13.6272333 C9.91659435,13.9021191 9.90087285,14.1809224 9.90087285,14.4649492 C9.90087285,16.695376 12.1883518,18.5092301 14.9996427,18.5092301 C17.8109336,18.5092301 20.0984125,16.695376 20.0984125,14.4649492 C20.0984125,14.1809224 20.0834056,13.9021191 20.0583942,13.6272333 C19.9640651,13.6592272 19.8683069,13.6951386 19.7661171,13.7336618 C19.3309173,13.8982015 18.7906692,14.1038761 17.9474248,14.1038761 C17.1048951,14.1038761 16.564647,13.8982015 16.1301618,13.7336618 C15.757848,13.5932807 15.4891532,13.4907699 14.9996427,13.4907699 Z M18.6220203,6.73746068 L11.3779797,6.73746068 C11.270073,8.03288419 10.9449237,9.22122633 10.629779,10.3782276 C10.4890001,10.8888229 10.3517942,11.3896243 10.2353121,11.8897727 C10.51687,11.9615955 10.7526926,12.0497418 10.962789,12.1293999 C11.3250983,12.2665163 11.5880762,12.3670683 12.0518605,12.3670683 C12.5156449,12.3670683 12.7786228,12.2665163 13.1416467,12.1293999 C13.5825634,11.9622485 14.1321015,11.7539621 14.9996427,11.7539621 C15.8678985,11.7539621 16.416722,11.9622485 16.8583533,12.1293999 C17.2213772,12.2665163 17.4836404,12.3670683 17.9474248,12.3670683 C18.4112092,12.3670683 18.6749017,12.2665163 19.037211,12.1293999 C19.2473074,12.0497418 19.4824154,11.9615955 19.7639733,11.8897727 C19.6474912,11.3896243 19.5102853,10.8888229 19.370221,10.3782276 C19.0543617,9.22122633 18.7292124,8.03288419 18.6220203,6.73746068 L18.6220203,6.73746068 Z" id="Combined-Shape" fill="#000000"></path>
            </g>
        </g>
    </g>
</svg>