<?xml version="1.0" encoding="UTF-8"?>
<svg width="32px" height="42px" viewBox="0 0 32 42" version="1.1" xmlns="http://www.w3.org/2000/svg" xmlns:xlink="http://www.w3.org/1999/xlink">
    <!-- Generator: Sketch 60.1 (88133) - https://sketch.com -->
    <title>pin-ticket-office</title>
    <desc>Created with Sketch.</desc>
    <g id="Symbols" stroke="none" stroke-width="1" fill="none" fill-rule="evenodd">
        <g id="category-ticket-office" transform="translate(1.000000, 1.000000)">
            <g id="pin-ticket-office">
                <path d="M4.32764585,25.2912752 L4.32764585,25.2892946 C-1.26686571,19.0721903 -1.59831793,10.0713524 4.27742582,4.3394952 C7.13996765,1.55873242 10.9868221,0 15.0044247,0 C19.0119832,0 22.8688817,1.55873242 25.7213795,4.3385049 C31.5971232,10.0713524 31.265671,19.0731806 25.6812035,25.2892946 L25.6812035,25.2892946 C20.3880121,31.1805901 17.2040621,35.1893251 14.9943807,39 C12.7947433,35.1635773 9.59070521,31.1805901 4.32764585,25.2912752 Z" id="Path-Copy-14" stroke="#000000" stroke-width="2" fill="#E9F1F6" fill-rule="nonzero"></path>
                <path d="M14.7694868,6 L25,10.500061 C25,12.9499044 24.0340252,15.3399748 22.4681643,16.9453096 L22.4681643,16.9453096 L18.7848135,20.7263856 C17.2206166,22.3325743 16.2529778,24.5501565 16.2529778,27 L16.2529778,27 L6,22.4990851 C6,20.0500956 6.99010335,17.6583174 8.55430023,16.0529826 L8.55430023,16.0529826 L12.2376511,12.2736144 C13.801848,10.6674257 14.7694868,8.44984345 14.7694868,6 L14.7694868,6 Z M16.5059117,9.2115236 C16.3328516,9.80156955 16.1115344,10.3745375 15.8452881,10.9261578 C16.0008758,10.9816614 16.1448152,11.0704672 16.261298,11.1917212 C16.4659748,11.4000732 16.5841216,11.6903997 16.5841216,11.9867035 C16.5841216,12.2812996 16.4659748,12.57248 16.261298,12.7808319 C16.0574531,12.9917456 15.7745665,13.1121457 15.4866877,13.1121457 C15.2004729,13.1121457 14.9175863,12.9917456 14.7145735,12.7825397 C14.4308548,13.1608181 14.1221755,13.5220185 13.7877036,13.864433 L13.7877036,13.864433 L10.1051848,17.644655 C9.22241198,18.5489367 8.60255737,19.7725776 8.33797513,21.078193 L8.33797513,21.078193 L14.5165528,23.7901842 C15.0257488,22.0507868 15.9484586,20.4565527 17.2347609,19.135567 L17.2347609,19.135567 L20.4954458,15.7899809 C20.4355404,15.7498475 20.378963,15.7028829 20.3290419,15.6516488 C20.1251971,15.4415891 20.0078823,15.1521165 20.0078823,14.8549587 C20.0078823,14.5586549 20.1251971,14.2700362 20.3290419,14.0591225 C20.5337187,13.8490627 20.8157733,13.7295165 21.1044841,13.7295165 C21.3906989,13.7295165 21.6735856,13.8482088 21.8765984,14.0582686 C22.244351,13.405034 22.5164214,12.6792177 22.667017,11.921807 L22.667017,11.921807 Z M17.31555,12.9171146 C17.5867884,12.3620786 18.2457479,12.1366486 18.7865607,12.4158744 C19.3282055,12.6925385 19.5461946,13.3688285 19.2757882,13.9247184 C19.0827597,14.3192209 18.6975346,14.5446509 18.2956691,14.5446509 C18.1300972,14.5446509 17.9620293,14.5079332 17.8039455,14.4268125 C17.2639648,14.1475867 17.0443116,13.4712967 17.31555,12.9171146 Z" id="Color" fill="#000000"></path>
            </g>
        </g>
    </g>
</svg>