<?xml version="1.0" encoding="UTF-8"?>
<svg width="32px" height="42px" viewBox="0 0 32 42" version="1.1" xmlns="http://www.w3.org/2000/svg" xmlns:xlink="http://www.w3.org/1999/xlink">
    <!-- Generator: Sketch 60.1 (88133) - https://sketch.com -->
    <title>pin-rowing-boat-rental</title>
    <desc>Created with Sketch.</desc>
    <g id="Symbols" stroke="none" stroke-width="1" fill="none" fill-rule="evenodd">
        <g id="category-rowing-boat-rental" transform="translate(1.000000, 1.000000)" fill-rule="nonzero">
            <g id="pin-rowing-boat-rental">
                <path d="M4.32589846,25.2912752 L4.32439199,25.2892946 C-1.26479561,19.0721903 -1.59974314,10.0713524 4.27869587,4.3394952 C7.13555691,1.55873242 10.9879907,0 15.0019177,0 C19.0156437,0 22.8678767,1.55873242 25.7247377,4.3385049 C31.5944292,10.0713524 31.2678275,19.0731806 25.6794433,25.2892946 L25.6789412,25.2892946 C20.3900423,31.1805901 17.2056757,35.1893251 14.9981013,39 C12.7976574,35.1635773 9.59601668,31.1805901 4.32589846,25.2912752 Z" id="Path" stroke="#000000" stroke-width="2" fill="#E9F1F6"></path>
                <path d="M21.8826011,18.639024 L25,13.8063652 L14.5209729,13.8063652 L11.5971705,8 L10.4206999,8.62522203 L13.0317697,13.8063652 L5,13.8063652 L7.63092579,17.9061818 L7.40258129,18.059925 C6.93636138,18.4453077 6.36133035,18.662598 5.76445768,18.6800222 L5.76445768,20.0432112 C6.61747332,20.0319367 7.44427898,19.7367499 8.12236287,19.2027488 C8.5748821,18.8255657 9.13442542,18.6113503 9.71581037,18.5929011 C10.295309,18.6134002 10.8527674,18.8276156 11.3042939,19.2027488 C11.982477,19.7367499 12.8091834,20.0319367 13.6621991,20.0432112 C13.9719533,20.0442362 14.280417,20.004263 14.5805411,19.9253415 L15.5733433,21.9291269 C15.8064532,22.395481 16.2092331,22.7470403 16.6933234,22.9059082 C17.1774138,23.065801 17.7031025,23.020703 18.1546289,22.7798388 L18.2688012,22.7183416 C18.7207247,22.4764524 19.0612559,22.060321 19.2157359,21.5591184 C19.3702159,21.0589408 19.3260362,20.5157151 19.092827,20.048336 L18.4574336,18.7620185 C18.7147679,18.886038 18.960685,19.0336314 19.1921072,19.2027488 C19.8725738,19.735725 20.7006701,20.0309118 21.5549764,20.0432112 C22.4079921,20.0319367 23.2347977,19.7367499 23.9128816,19.2027488 C24.101514,19.0746296 24.2802184,18.9618846 24.4539588,18.864514 L24.4539588,17.3680809 C24.0058079,17.5310486 23.5815835,17.7565385 23.1931,18.0394259 C22.8095805,18.3458872 22.3599404,18.550878 21.8826011,18.639024 Z M13.9699677,18.639024 C13.8675105,18.6472237 13.7646562,18.6472237 13.6621991,18.639024 C13.0727724,18.6246747 12.5035989,18.4145591 12.0389675,18.0394259 C11.368826,17.5187492 10.5546289,17.232787 9.71581037,17.2245873 C9.42472077,17.2225374 9.1345247,17.2594358 8.85207247,17.3322075 L7.46214942,15.174679 L13.6969471,15.174679 L14.4167287,16.6096148 C14.1684289,16.8730281 13.9952842,17.2010134 13.9164557,17.5597473 C13.8376272,17.9174563 13.8561926,18.2915646 13.9699677,18.639024 Z M17.6731199,21.4883966 L17.5589476,21.5447691 C17.4749566,21.590892 17.381236,21.6154909 17.285927,21.6165158 C17.1765202,21.6154909 17.0692976,21.5847423 16.9757756,21.5252949 C16.8822537,21.4668725 16.8059072,21.3828263 16.7547779,21.2834057 L15.7867957,19.3411176 L15.2556466,18.2802901 C15.2300323,18.2249426 15.2116654,18.1665202 15.2010424,18.1060479 C15.1767188,17.9769037 15.1940928,17.8426347 15.250484,17.72374 C15.3069744,17.6048453 15.3994043,17.5095246 15.5137751,17.4500772 L15.6279474,17.38858 C15.7344751,17.3322075 15.854902,17.3106835 15.9735418,17.3260578 C16.0921817,17.3414321 16.2035741,17.3937048 16.2931248,17.4757011 C16.3511045,17.5248989 16.3984612,17.5863961 16.4321172,17.6550681 L16.9285182,18.6800222 L17.9213204,20.6633085 C17.9920079,20.8068021 18.0057086,20.9738696 17.9593448,21.1276127 C17.9129809,21.2813558 17.8103251,21.411525 17.6731199,21.4883966 Z M20.4777861,18.3776607 C20.2873666,18.2772152 20.1033011,18.1644703 19.9267808,18.0394259 C19.2823529,17.5351484 18.501514,17.2502112 17.6929759,17.2245873 L17.5986597,17.0400956 C17.4383222,16.7162101 17.1942914,16.4456222 16.8937702,16.2560057 C16.5932489,16.0674141 16.2479523,15.9679935 15.896004,15.9690185 C15.794341,15.9690185 15.6929759,15.979268 15.5931993,15.9997671 L15.1861504,15.174679 L22.5378506,15.174679 L20.4777861,18.3776607 Z" id="Shape" fill="#1A1A1A"></path>
            </g>
        </g>
    </g>
</svg>