<?xml version="1.0" encoding="UTF-8"?>
<svg width="32px" height="42px" viewBox="0 0 32 42" version="1.1" xmlns="http://www.w3.org/2000/svg" xmlns:xlink="http://www.w3.org/1999/xlink">
    <!-- Generator: Sketch 60.1 (88133) - https://sketch.com -->
    <title>pin-beach</title>
    <desc>Created with Sketch.</desc>
    <g id="Symbols" stroke="none" stroke-width="1" fill="none" fill-rule="evenodd">
        <g id="category-beach" transform="translate(1.000000, 1.000000)">
            <g id="pin-beach">
                <path d="M4.32764585,25.2912752 C-1.26686571,19.0721903 -1.59831793,10.0713524 4.27742582,4.3394952 C7.13996765,1.55873242 10.9868221,0 15.0044247,0 C19.0119832,0 22.8688817,1.55873242 25.7213795,4.3385049 C31.5971232,10.0713524 31.265671,19.0731806 25.6812035,25.2892946 C20.3880121,31.1805901 17.2040621,35.1893251 14.9943807,39 C12.7947433,35.1635773 9.59070521,31.1805901 4.32764585,25.2912752 Z" id="Path-Copy-19" stroke="#000000" stroke-width="2" fill="#E9F1F6" fill-rule="nonzero"></path>
                <g id="Group-4" transform="translate(3.000000, 8.000000)" fill="#1A1A1A">
                    <path d="M14.3994802,9.77777778 L13.8362768,9.17085836 C12.3158119,7.53262477 9.84223348,7.53262477 8.32222945,9.17085836 L7.76040868,9.77528427 L7.19997057,9.17085836 C5.67950565,7.53212607 3.20546635,7.53262477 1.68500143,9.17085836 L1.12225889,9.77777778 L0,8.55845323 L0.562742546,7.95153382 C2.52427594,5.83853664 5.61175532,5.6619964 7.76040868,7.42241179 C9.90860115,5.6619964 12.9965414,5.83803794 14.9585357,7.95153382 L15.5217391,8.55845323 L14.3994802,9.77777778 Z" id="Path"></path>
                    <path d="M19.9055389,16 L19.3558363,15.3825429 C17.9462963,13.7970428 15.6526475,13.7970428 14.242658,15.3825429 L13.6956522,15.9974632 L13.1481969,15.3825429 C11.7386569,13.7970428 9.44500807,13.7970428 8.03501858,15.3825429 L7.48576542,16 L6.39130435,14.75849 L6.9405575,14.1420476 C8.78024095,12.0740482 11.6739331,11.8954575 13.6956522,13.6062754 C15.7173712,11.8954575 18.6110634,12.0740482 20.4507468,14.1420476 L21,14.75849 L19.9055389,16 Z" id="Path"></path>
                    <path d="M19.9055389,3.55555556 L19.3558363,2.93808398 C17.9462963,1.35305422 15.6526475,1.35305422 14.242658,2.93808398 L13.6956522,3.5530187 L13.1481969,2.93808398 C11.7386569,1.35305422 9.44500807,1.35305422 8.03501858,2.93808398 L7.48576542,3.55555556 L6.39130435,2.31503131 L6.9405575,1.69755973 C8.78024095,-0.370488057 11.6739331,-0.549082959 13.6956522,1.16228239 C15.7173712,-0.549082959 18.6110634,-0.370488057 20.4507468,1.69755973 L21,2.31503131 L19.9055389,3.55555556 Z" id="Path"></path>
                </g>
            </g>
        </g>
    </g>
</svg>