<?xml version="1.0" encoding="UTF-8"?>
<svg width="32px" height="42px" viewBox="0 0 32 42" version="1.1" xmlns="http://www.w3.org/2000/svg" xmlns:xlink="http://www.w3.org/1999/xlink">
    <!-- Generator: Sketch 60.1 (88133) - https://sketch.com -->
    <title>pin-activity</title>
    <desc>Created with Sketch.</desc>
    <g id="Symbols" stroke="none" stroke-width="1" fill="none" fill-rule="evenodd">
        <g id="category-activity" transform="translate(1.000000, 1.000000)">
            <g id="pin-activity">
                <path d="M4.32764585,25.2912752 L4.32764585,25.2892946 C-1.26686571,19.0721903 -1.59831793,10.0713524 4.27742582,4.3394952 C7.13996765,1.55873242 10.9868221,0 15.0044247,0 C19.0119832,0 22.8688817,1.55873242 25.7213795,4.3385049 C31.5971232,10.0713524 31.265671,19.0731806 25.6812035,25.2892946 L25.6812035,25.2892946 C20.3880121,31.1805901 17.2040621,35.1893251 14.9943807,39 C12.7947433,35.1635773 9.59070521,31.1805901 4.32764585,25.2912752 Z" id="Path-Copy-12" stroke="#000000" stroke-width="2" fill="#E9F1F6" fill-rule="nonzero"></path>
                <path d="M17.0754761,15.7324711 L17.8744252,20.2866034 C17.967669,20.8181071 18.7236764,20.8585504 18.874347,20.340095 L18.874347,20.340095 L19.7232777,17.4189361 L19.9618131,17.9259881 C20.0461016,18.1051592 20.2277893,18.2197414 20.4276043,18.2197414 L20.4276043,18.2197414 L25.0165175,18.2199437 C24.7824378,18.5698986 24.5086798,18.8983947 24.1975279,19.2002009 C22.9326665,20.4279386 21.7724648,21.4205407 20.6507278,22.3784364 C19.0700984,23.731117 17.5771326,25.0065759 16.0108156,26.7592474 C15.8310157,26.9596767 15.1538587,27.806512 15.1467024,27.8151886 L15.1467024,27.8151886 L15,28 L14.8541921,27.8151886 C14.8470359,27.806512 14.1698788,26.9596767 13.9900789,26.7592474 C12.4237619,25.0065759 10.9307961,23.731117 9.35016671,22.3784364 C8.2284297,21.4205407 7.06822802,20.4279386 5.80247215,19.2002009 C5.49155969,18.8983947 5.21791294,18.5698986 4.98386775,18.2199437 L13.0923329,18.2197414 C13.3122998,18.2197414 13.507859,18.0812436 13.5786989,17.87529 L13.5786989,17.87529 L14.1655486,16.169137 L15.1753291,24.0167352 C15.2523348,24.6151917 16.1320866,24.6057017 16.1958752,24.0057265 L16.1958752,24.0057265 L17.0754761,15.7324711 Z M19.8420753,9 C21.4888997,9 23.0346426,9.62124395 24.1975279,10.7500685 C25.3595186,11.8780254 26,13.3773404 26,14.9747009 C26,15.7517551 25.8487622,16.505248 25.5599381,17.203918 L20.7552035,17.2035886 L20.0750199,15.7577296 C19.874543,15.3315781 19.24676,15.3799781 19.1154811,15.8317069 L19.1154811,15.8317069 L18.5045227,17.9340063 L17.456761,11.9616042 C17.3548324,11.3805958 16.5020183,11.4088729 16.4396672,11.9953285 L16.4396672,11.9953285 L15.6364066,19.5505498 L14.9043281,13.8611379 C14.8355702,13.3267796 14.0837451,13.2516823 13.9083357,13.7616515 L13.9083357,13.7616515 L12.7244445,17.2035886 L4.44038766,17.203918 C4.15144898,16.505248 4,15.7517551 4,14.9747009 C4,13.3773404 4.64137595,11.8780254 5.80247215,10.7500685 C6.9653574,9.62124395 8.5119948,9 10.1588192,9 C13.0687159,9 14.536635,10.7162298 15.0026836,11.3912686 C15.4660486,10.7162298 16.9321786,9 19.8420753,9 Z" id="Combined-Shape" fill="#000000"></path>
            </g>
        </g>
    </g>
</svg>