<?xml version="1.0" encoding="UTF-8"?>
<svg width="32px" height="42px" viewBox="0 0 32 42" version="1.1" xmlns="http://www.w3.org/2000/svg" xmlns:xlink="http://www.w3.org/1999/xlink">
    <!-- Generator: Sketch 60.1 (88133) - https://sketch.com -->
    <title>pin-contemporary-boating-service</title>
    <desc>Created with Sketch.</desc>
    <g id="Symbols" stroke="none" stroke-width="1" fill="none" fill-rule="evenodd">
        <g id="category-contemporary-boat-parking" transform="translate(1.000000, 1.000000)" fill-rule="nonzero">
            <g id="pin-contemporary-boating-service">
                <path d="M4.32764585,25.2912752 L4.32764585,25.2892946 C-1.26686571,19.0721903 -1.59831793,10.0713524 4.27742582,4.3394952 C7.13996765,1.55883145 10.9868221,0 15.0044247,0 C19.0119832,0 22.8688817,1.55873242 25.7213795,4.3385049 C31.5971232,10.0713524 31.265671,19.0731806 25.6812035,25.2892946 L25.6812035,25.2892946 C20.3880121,31.1805901 17.2040621,35.1893251 14.9943807,39 C12.7947433,35.1635773 9.59070521,31.1805901 4.32764585,25.2912752 Z" id="Path" stroke="#000000" stroke-width="2" fill="#E9F1F6"></path>
                <path d="M17,8 L11,8 L11,23 L13.66,23 L13.66,18 L17,18 C18.33,18 19.6,17.473 20.54,16.536 C21.47,15.598 22,14.326 22,13 C22,11.674 21.47,10.402 20.54,9.464 C19.6,8.527 18.33,8 17,8 Z M17,15.34 L13.66,15.34 L13.66,10.66 L17,10.66 C17.62,10.66 18.22,10.907 18.65,11.345 C19.09,11.784 19.34,12.379 19.34,13 C19.34,13.621 19.09,14.216 18.65,14.655 C18.22,15.093 17.62,15.34 17,15.34 Z" id="Shape" fill="#1A1A1A"></path>
            </g>
        </g>
    </g>
</svg>