<?xml version="1.0" encoding="UTF-8"?>
<svg width="32px" height="42px" viewBox="0 0 32 42" version="1.1" xmlns="http://www.w3.org/2000/svg" xmlns:xlink="http://www.w3.org/1999/xlink">
    <!-- Generator: Sketch 60.1 (88133) - https://sketch.com -->
    <title>pin-service</title>
    <desc>Created with Sketch.</desc>
    <g id="Symbols" stroke="none" stroke-width="1" fill="none" fill-rule="evenodd">
        <g id="category-service" transform="translate(1.000000, 1.000000)" fill-rule="nonzero">
            <g id="pin-service">
                <path d="M4.32764585,25.2912752 L4.32764585,25.2892946 C-1.26686571,19.0721903 -1.59831793,10.0713524 4.27742582,4.3394952 C7.13996765,1.55873242 10.9868221,0 15.0044247,0 C19.0119832,0 22.8688817,1.55873242 25.7213795,4.3385049 C31.5971232,10.0713524 31.265671,19.0731806 25.6812035,25.2892946 L25.6812035,25.2892946 C20.3880121,31.1805901 17.2040621,35.1893251 14.9943807,39 C12.7947433,35.1635773 9.59070521,31.1805901 4.32764585,25.2912752 Z" id="Path-Copy-15" stroke="#000000" stroke-width="2" fill="#E9F1F6"></path>
                <g id="Group-14" transform="translate(6.000000, 7.000000)" fill="#000000">
                    <path d="M8.65693883,0 C9.515589,0 10.2437738,0.443792607 10.5675778,1.18068761 L10.6204662,1.31373982 L10.9513466,2.19961458 C10.9882622,2.34727711 11.0968958,2.45591065 11.2445583,2.49282628 C11.4080535,2.53370007 11.5490346,2.53340412 11.6944931,2.48156717 L11.7825215,2.44419711 L12.5182358,2.18291945 C13.2580116,1.81303158 14.0866496,1.8461771 14.6616065,2.30650661 C15.4307534,2.85589728 15.7147869,3.7889288 15.4234381,4.67473557 L15.372641,4.81414453 L14.9919167,5.62981687 C14.9107363,5.79217769 14.9107363,5.94499377 14.9919167,6.10735459 C15.0541699,6.23186088 15.1361341,6.31226916 15.2763661,6.39417858 L15.367806,6.44386916 L16.3410225,6.76827466 C17.0758831,7.01322821 17.6497466,7.62084837 17.7662998,8.32040532 C17.9353255,9.22187549 17.4664609,10.0888673 16.6281696,10.4837771 L16.5059296,10.5369341 L15.4077623,10.9204403 C15.2600998,10.9573559 15.1514662,11.0659895 15.1145506,11.213652 C15.0736768,11.3771472 15.0739728,11.5181283 15.1205665,11.6512999 L15.1541195,11.7303834 L15.5325926,12.4873296 C15.8793625,13.1808693 15.8719038,13.9525106 15.4903171,14.5200066 L15.4090054,14.6307002 C14.8416613,15.4249819 13.8902286,15.7291621 13.0415754,15.401425 L12.9151092,15.3475073 L12.0316276,15.015078 C11.8692668,14.9338976 11.7164507,14.9338976 11.5540899,15.015078 C11.4022727,15.0909866 11.2981433,15.1896306 11.2452096,15.3097826 L11.2196208,15.3844449 L10.9443004,16.3183026 C10.6669454,17.0394255 10.0533381,17.5535105 9.28466974,17.6631675 L9.13877154,17.6789406 L8.98134433,17.6846058 C8.19316467,17.6846058 7.45811888,17.2084058 7.12620213,16.4985169 L7.07188455,16.3708659 L6.74100415,15.4849912 C6.70408852,15.3373286 6.59545498,15.2286951 6.44779246,15.1917795 C6.28429729,15.1509057 6.14331614,15.1512016 6.0042387,15.2005345 L5.1741149,15.5557539 C4.43433915,15.9256418 3.60570118,15.8924962 3.03074428,15.4321667 C2.26159734,14.8827761 1.97756386,13.9497445 2.26727506,13.0675606 L2.31779981,12.9287543 L2.700434,12.0547889 C2.7816144,11.8924281 2.7816144,11.739612 2.700434,11.5772512 C2.63818085,11.4527449 2.55621665,11.3723366 2.4159846,11.2904272 L2.32454477,11.2407366 L1.51353101,10.9703987 C0.781398398,10.7263545 0.208630268,10.1208567 0.0338200723,9.36218918 C-0.133023946,8.41673974 0.328817381,7.54444701 1.16813523,7.14834843 L1.29057852,7.09504585 L2.17645328,6.76416545 C2.32411581,6.72724982 2.43274935,6.61861628 2.46966498,6.47095375 C2.51053877,6.30745859 2.51024282,6.16647744 2.45840587,6.02101891 L2.42103581,5.93299057 L2.16292378,5.20333464 C1.78983427,4.51933721 1.82314076,3.68667494 2.28334531,3.05390558 C2.85068941,2.25962384 3.80212217,1.95544364 4.6589957,2.28651748 L5.66072316,2.72359529 C5.82308398,2.8047757 5.97590006,2.8047757 6.13826088,2.72359529 C6.29007802,2.64768673 6.3942074,2.54904272 6.44714118,2.42889078 L6.47272991,2.35422848 L6.74644257,1.42470655 C7.02511088,0.644435277 7.67470739,0.12363377 8.4895349,0.0157716621 L8.65693883,0 Z M8.65693883,1.46433041 C8.45082521,1.46433041 8.25891992,1.57996458 8.16726979,1.78606826 L8.13776852,1.86754875 L7.86538506,2.79322009 C7.68354391,3.33874354 7.26264155,3.80821156 6.71699245,4.04974787 C6.24951275,4.20557443 5.73679305,4.2228885 5.24164385,4.0943932 L5.05690919,4.0393584 L4.21691023,3.61720719 C3.94344186,3.52605107 3.69346145,3.60801282 3.60643762,3.7048416 L3.58365642,3.73745141 L3.52727675,3.80500626 C3.38163559,3.91423713 3.32237092,4.11593608 3.39004599,4.34444159 L3.42145367,4.43125947 L3.85770624,5.30420628 C4.10922153,5.87011567 4.14024591,6.45957885 3.91177383,6.97364103 C3.69766095,7.45539501 3.33678115,7.84060582 2.86979326,8.08572536 L2.72655431,8.15501494 L1.89702936,8.48574864 C1.65226719,8.55568069 1.4952367,8.80934533 1.4952367,9.05857322 C1.4952367,9.23509808 1.58852428,9.43280643 1.80952568,9.54140957 L1.89845503,9.57774353 L2.82412637,9.85012698 C3.36964983,10.0319681 3.83911785,10.4528705 4.07397658,10.9813026 C4.29059104,11.4686852 4.31028326,12.0065408 4.13026445,12.5090097 L4.07026468,12.6586029 L3.64245721,13.5134789 C3.53613843,13.7615561 3.60298253,14.0066511 3.7640569,14.1677255 C3.9214953,14.3251639 4.09998953,14.3926919 4.32961963,14.2831737 L4.40809818,14.2399908 L5.28769881,13.80093 C5.58692343,13.6812401 5.88201993,13.6250313 6.22389752,13.6250313 C6.42519385,13.6250313 6.57938358,13.6539419 6.93326279,13.7429931 C7.40457691,13.9000978 7.80393847,14.2866117 8.06549102,14.7966783 L8.1333573,14.9387711 L8.46012849,15.8105346 C8.51490577,15.9748664 8.6054836,16.068928 8.72944299,16.1196387 C8.8197543,16.1565842 8.90315823,16.1662078 9.03541192,16.1662078 C9.24152553,16.1662078 9.43343083,16.0505736 9.52508095,15.8444699 L9.55458223,15.7629894 L9.82696568,14.8373181 C10.0088068,14.2917946 10.4297092,13.8223266 10.9581413,13.5874679 C11.4455239,13.3708534 11.9833795,13.3511612 12.4791736,13.5280537 L12.6265575,13.5870187 L13.5005229,13.9696529 C13.676607,14.0576949 13.8297952,14.0339243 14.0052269,13.9286653 L14.1445283,13.8370213 L14.1834937,13.7822531 C14.3035704,13.5939498 14.3366076,13.4185974 14.2576152,13.2279406 L13.7805769,12.2722643 C13.5519267,11.7578012 13.5055003,11.2238722 13.6655863,10.7577588 L13.7198318,10.6200465 C13.8769365,10.1487324 14.2634504,9.74937082 14.7743161,9.48752122 L14.9166473,9.41956634 L15.934699,9.04476947 C16.2015989,8.93038378 16.3052492,8.7607742 16.3052492,8.51789737 C16.3052492,8.34662764 16.2217354,8.16056997 16.0296409,8.07769732 L15.9524669,8.05168729 L14.922292,7.72634361 C14.3767685,7.54450246 13.9073005,7.1236001 13.6724417,6.59516794 C13.4558273,6.10778542 13.4361351,5.56992981 13.6130276,5.07413569 L13.6719926,4.92675184 L14.0498935,4.06299167 C14.1562123,3.81491451 14.0893682,3.56981947 13.9282938,3.4087451 C13.7708554,3.2513067 13.5923612,3.18377864 13.3627311,3.29329691 L13.2842526,3.3364798 L12.4113058,3.77273237 C11.8968427,4.00138263 11.3629137,4.047809 10.8968002,3.88772299 L10.759088,3.83347753 C10.2877738,3.67637282 9.88841227,3.28985888 9.62801793,2.78278163 L9.56049711,2.64158044 L9.24261172,1.84508596 C9.10986205,1.57958662 8.8562984,1.46433041 8.65693883,1.46433041 Z" id="Shape"></path>
                    <path d="M8.79724656,5.36170213 C10.6872335,5.36170213 12.232791,6.90725962 12.232791,8.79724656 C12.232791,10.6872335 10.6872335,12.232791 8.79724656,12.232791 C6.90725962,12.232791 5.36170213,10.6872335 5.36170213,8.79724656 C5.36170213,6.90725962 6.90725962,5.36170213 8.79724656,5.36170213 Z M8.79724656,6.82603254 C7.71351635,6.82603254 6.82603254,7.71351635 6.82603254,8.79724656 C6.82603254,9.88097676 7.71351635,10.7684606 8.79724656,10.7684606 C9.88097676,10.7684606 10.7684606,9.88097676 10.7684606,8.79724656 C10.7684606,7.71351635 9.88097676,6.82603254 8.79724656,6.82603254 Z" id="Shape"></path>
                </g>
            </g>
        </g>
    </g>
</svg>