<?xml version="1.0" encoding="UTF-8"?>
<svg width="32px" height="42px" viewBox="0 0 32 42" version="1.1" xmlns="http://www.w3.org/2000/svg" xmlns:xlink="http://www.w3.org/1999/xlink">
    <!-- Generator: Sketch 60.1 (88133) - https://sketch.com -->
    <title>pin-water-taxi</title>
    <desc>Created with Sketch.</desc>
    <g id="Symbols" stroke="none" stroke-width="1" fill="none" fill-rule="evenodd">
        <g id="category-seside-taxi" transform="translate(1.000000, 1.000000)" fill-rule="nonzero">
            <g id="pin-water-taxi">
                <path d="M4.32764585,25.2912752 L4.32764585,25.2892946 C-1.26686571,19.0721903 -1.59831793,10.0713524 4.27742582,4.3394952 C7.13996765,1.55873242 10.9868221,0 15.0044247,0 C19.0119832,0 22.8688817,1.55873242 25.7213795,4.3385049 C31.5971232,10.0713524 31.265671,19.0731806 25.6812035,25.2892946 L25.6812035,25.2892946 C20.3880121,31.1805901 17.2040621,35.1893251 14.9943807,39 C12.7947433,35.1635773 9.59070521,31.1805901 4.32764585,25.2912752 Z" id="Path" stroke="#000000" stroke-width="2" fill="#E9F1F6"></path>
                <path d="M23.02,17.9734213 L22.02,11.1273303 C21.9,10.2570383 21.48,9.46081372 20.83,8.88679136 C20.18,8.31174028 19.36,7.99695382 18.5,8 L11.5,8 C10.64,7.99592511 9.82,8.30968285 9.17,8.88473393 C8.52,9.459785 8.09,10.2560096 7.97,11.1273303 L7,17.9734213 C6.44,18.4579456 5.73,18.7212963 5,18.7140953 L5,20 C5.6,20.0010164 6.19,19.8734559 6.73,19.6245072 C7,19.5072338 7.26,19.3611564 7.5,19.1873037 C7.76,19.373501 8.04,19.5298655 8.33,19.6553686 C8.86,19.8827143 9.43,20 10,20 C10.57,20 11.14,19.8827143 11.67,19.6553686 C11.96,19.5298655 12.24,19.373501 12.5,19.1873037 C12.76,19.373501 13.04,19.5298655 13.33,19.6553686 C13.86,19.8827143 14.43,20 15,20 C15.57,20 16.14,19.8827143 16.67,19.6553686 C16.96,19.5298655 17.24,19.373501 17.5,19.1873037 C17.76,19.373501 18.04,19.5298655 18.33,19.6553686 C18.86,19.8827143 19.43,20 20,20 C20.57,20 21.14,19.8827143 21.67,19.6553686 C21.96,19.5298655 22.24,19.373501 22.5,19.1873037 C22.74,19.3611564 23,19.5072338 23.26,19.6245072 C23.81,19.8734559 24.4,20.0010164 25,20 L25,18.7140953 C24.28,18.7151241 23.58,18.452802 23.02,17.9734213 Z M21.52,18.2871791 C21.06,18.5669893 20.53,18.7140953 19.99,18.7140953 C19.44,18.7140953 18.91,18.5669893 18.44,18.2871791 C18.25,18.1750493 18.07,18.0402877 17.9,17.8859806 L17.5,17.5002129 L17.08,17.8859806 C16.92,18.0402877 16.73,18.1750493 16.54,18.2871791 C16.07,18.5669893 15.54,18.7140953 15,18.7140953 C14.46,18.7140953 13.93,18.5669893 13.46,18.2871791 C13.27,18.1750493 13.08,18.0402877 12.92,17.8859806 L12.5,17.5002129 L12.08,17.8859806 C11.92,18.0402877 11.73,18.1750493 11.54,18.2871791 C11.07,18.5669893 10.54,18.7140953 10,18.7140953 C9.46,18.7140953 8.93,18.5669893 8.46,18.2871791 C8.4,18.2542602 8.34,18.2161978 8.28,18.1740205 L9.28,11.3279295 C9.36,10.7816824 9.63,10.2817274 10.04,9.92167755 C10.44,9.56162768 10.96,9.36514332 11.5,9.36819366 L18.5,9.36819366 C19.04,9.36514332 19.56,9.56162768 19.96,9.92167755 C20.37,10.2817274 20.64,10.7816824 20.72,11.3279295 L21.72,18.1740205 C21.66,18.2161978 21.6,18.2542602 21.54,18.2871791 L21.52,18.2871791 Z" id="Shape" fill="#1A1A1A"></path>
                <polygon id="Path" fill="#000000" points="10 13 13 13 13 13.5573295 11.9169675 13.5573295 11.9169675 16 11.0938628 16 11.0938628 13.5573295 10.0108303 13.5573295"></polygon>
                <path d="M15.0727273,15.3150289 L13.9090909,15.3150289 L13.6636364,16 L13,16 L14.1,13 L14.9090909,13 L16,16 L15.3090909,16 L15.0727273,15.3150289 Z M14.0909091,14.7904624 L14.8818182,14.7904624 L14.6181818,13.9884393 C14.5545455,13.8193642 14.5,13.5939306 14.5,13.5939306 C14.5,13.5939306 14.4363636,13.8193642 14.3818182,13.9884393 L14.0909091,14.7904624 Z" id="Shape" fill="#000000"></path>
                <path d="M17.5098684,14.8121387 C17.5098684,14.8121387 17.3914474,15.0289017 17.2828947,15.2066474 L16.7894737,16 L16,16 L16.9868421,14.4653179 L16.0592105,13 L16.8684211,13 L17.2828947,13.7023121 C17.4013158,13.8930636 17.5098684,14.1098266 17.5098684,14.1098266 C17.5098684,14.1098266 17.6282895,13.8887283 17.7368421,13.7023121 L18.1611842,13 L18.9210526,13 L18.0131579,14.4436416 L19,16 L18.2401316,16 L17.7467105,15.2066474 C17.6381579,15.0289017 17.5098684,14.8121387 17.5098684,14.8121387 Z" id="Path" fill="#000000"></path>
                <polygon id="Path" fill="#000000" points="19.63 13 20.37 13 20.37 16 19.63 16"></polygon>
            </g>
        </g>
    </g>
</svg>