<?xml version="1.0" encoding="UTF-8"?>
<svg width="32px" height="42px" viewBox="0 0 32 42" version="1.1" xmlns="http://www.w3.org/2000/svg" xmlns:xlink="http://www.w3.org/1999/xlink">
    <!-- Generator: Sketch 60.1 (88133) - https://sketch.com -->
    <title>pin-boating-service</title>
    <desc>Created with Sketch.</desc>
    <g id="Symbols" stroke="none" stroke-width="1" fill="none" fill-rule="evenodd">
        <g id="category-bouting-service" transform="translate(1.000000, 1.000000)" fill-rule="nonzero">
            <g id="pin-boating-service">
                <path d="M4.32764585,25.2912752 L4.32764585,25.2892946 C-1.26686571,19.0721903 -1.59831793,10.0713524 4.27742582,4.3394952 C7.13996765,1.55873242 10.9868221,0 15.0044247,0 C19.0119832,0 22.8688817,1.55873242 25.7213795,4.3385049 C31.5971232,10.0713524 31.265671,19.0731806 25.6812035,25.2892946 L25.6812035,25.2892946 C20.3880121,31.1805901 17.2040621,35.1893251 14.9943807,39 C12.7947433,35.1635773 9.59070521,31.1805901 4.32764585,25.2912752 Z" id="Path" stroke="#000000" stroke-width="2" fill="#E9F1F6"></path>
                <polygon id="Path" fill="#1A1A1A" points="25 20 7 20 7 22 25 22"></polygon>
                <path d="M7,6 L7,21 L15,21 L15,6 L7,6 Z M13.4,11.6896552 L8.6,11.6896552 L8.6,7.03448276 L13.4,7.03448276 L13.4,11.6896552 Z" id="Shape" fill="#1A1A1A"></path>
                <path d="M21.1455261,18 C20.1229105,17.9990401 19.1494592,17.6026178 18.4218289,16.8980803 C17.7040315,16.1935428 17.300885,15.2384817 17.300885,14.2421466 L17.300885,14.0021815 C17.300885,13.7075044 17.2320551,13.4166667 17.1238938,13.1450262 C17.0058997,12.8724258 16.8387414,12.6257417 16.6224189,12.417452 C16.4060964,12.2091623 16.1602753,12.0440663 15.8751229,11.9317627 C15.5998033,11.8184991 15.3048181,11.7609075 15,11.7609075 L15,10.4842932 C15.9537856,10.4852531 16.8682399,10.856719 17.546706,11.5161431 C18.2251721,12.1755672 18.5988201,13.0691972 18.5988201,14.0021815 L18.5988201,14.2421466 C18.5988201,14.9006108 18.8741396,15.5312391 19.346116,15.9967714 C19.8279253,16.4623037 20.46706,16.7233857 21.1455261,16.7233857 C21.8239921,16.7233857 22.4631268,16.4623037 22.9449361,15.9967714 C23.4169125,15.5312391 23.6823992,14.9006108 23.6823992,14.2421466 L23.6823992,10.3115183 L22.2861357,7.56631763 L23.446411,7 L25,10.0139616 L25,14.2421466 C24.9901672,15.2384817 24.5870206,16.1935428 23.8692232,16.8980803 C23.1415929,17.6026178 22.1681416,17.9990401 21.1455261,18 Z" id="Path" fill="#1A1A1A"></path>
                <polygon id="Path" fill="#1A1A1A" points="23 9 22 9 22 12 23 12"></polygon>
            </g>
        </g>
    </g>
</svg>