<?xml version="1.0" encoding="UTF-8"?>
<svg width="32px" height="42px" viewBox="0 0 32 42" version="1.1" xmlns="http://www.w3.org/2000/svg" xmlns:xlink="http://www.w3.org/1999/xlink">
    <!-- Generator: Sketch 60.1 (88133) - https://sketch.com -->
    <title>pin-island</title>
    <desc>Created with Sketch.</desc>
    <g id="Symbols" stroke="none" stroke-width="1" fill="none" fill-rule="evenodd">
        <g id="category-fallback" transform="translate(1.000000, 1.000000)" fill-rule="nonzero">
            <g id="pin-island">
                <path d="M4.32764585,25.2912752 L4.32764585,25.2892946 C-1.26686571,19.0721903 -1.59831793,10.0713524 4.27742582,4.3394952 C7.13996765,1.55873242 10.9868221,0 15.0044247,0 C19.0119832,0 22.8688817,1.55873242 25.7213795,4.3385049 C31.5971232,10.0713524 31.265671,19.0731806 25.6812035,25.2892946 L25.6812035,25.2892946 C20.3880121,31.1805901 17.2040621,35.1893251 14.9943807,39 C12.7947433,35.1635773 9.59070521,31.1805901 4.32764585,25.2912752 Z" id="Path" stroke="#000000" stroke-width="2" fill="#E9F1F6"></path>
                <path d="M15.0118535,9 C13.8222218,8.9980085 12.6625807,9.34801257 11.672887,10.0070202 C10.6931903,10.6650279 9.91343165,11.6010388 9.4635709,12.6970515 C9.00371324,13.7940643 8.88375037,15.0000783 9.1136792,16.1650918 C9.34360803,17.3291054 9.92342856,18.3991178 10.7531717,19.2391276 C11.5929118,20.0791373 12.6625807,20.652144 13.8322187,20.8841467 C14.9918597,21.1161494 16.2014853,20.998148 17.291148,20.5441427 C18.3908076,20.0901375 19.3305168,19.3211285 19.9903125,18.334117 C20.6501083,17.3481056 21,16.1870921 21,15.0000783 C21,13.4100598 20.3701949,11.8860421 19.2505415,10.761029 C18.1208912,9.63601592 16.6013615,9.00200855 15.0118535,9 Z M15.0118535,17.9911173 C14.4220361,17.9921131 13.8322187,17.818111 13.3423703,17.4891072 C12.842525,17.1601034 12.4626426,16.692098 12.2327138,16.1430916 C12.0027849,15.5940852 11.9428035,14.9900782 12.0627664,14.4080714 C12.1727323,13.8250646 12.4626426,13.2890584 12.8825126,12.8690535 C13.3023827,12.4490486 13.8322187,12.1630453 14.4220361,12.048044 C15.0018566,11.9320426 15.601671,11.9930433 16.1515008,12.221046 C16.7013306,12.4490486 17.1711851,12.8350531 17.501083,13.3300589 C17.8309809,13.8250646 18.0009283,14.4060714 18.0009283,15.0000783 C18.0009283,15.7920875 17.6810273,16.5520963 17.1212006,17.1121028 C16.5613739,17.6721093 15.8016091,17.988113 15.0118535,17.9911173 Z" id="Shape" fill="#1A1A1A"></path>
            </g>
        </g>
    </g>
</svg>