<?xml version="1.0" encoding="UTF-8"?>
<svg width="32px" height="42px" viewBox="0 0 32 42" version="1.1" xmlns="http://www.w3.org/2000/svg" xmlns:xlink="http://www.w3.org/1999/xlink">
    <!-- Generator: Sketch 60.1 (88133) - https://sketch.com -->
    <title>pin-info</title>
    <desc>Created with Sketch.</desc>
    <g id="Symbols" stroke="none" stroke-width="1" fill="none" fill-rule="evenodd">
        <g id="category-info" transform="translate(1.000000, 1.000000)">
            <g id="pin-info">
                <path d="M4.32764585,25.2912752 L4.32764585,25.2892946 C-1.26686571,19.0721903 -1.59831793,10.0713524 4.27742582,4.3394952 C7.13996765,1.55873242 10.9868221,0 15.0044247,0 C19.0119832,0 22.8688817,1.55873242 25.7213795,4.3385049 C31.5971232,10.0713524 31.265671,19.0731806 25.6812035,25.2892946 L25.6812035,25.2892946 C20.3880121,31.1805901 17.2040621,35.1893251 14.9943807,39 C12.7947433,35.1635773 9.59070521,31.1805901 4.32764585,25.2912752 Z" id="Path-Copy-17" stroke="#000000" stroke-width="2" fill="#E9F1F6" fill-rule="nonzero"></path>
                <g id="Group" transform="translate(6.000000, 7.000000)" fill="#1A1A1A">
                    <path d="M0,9.004 C0,13.9725 4.0275,18 8.996,18 C13.9645,18 17.992,13.9725 17.992,9.004 C17.992,4.0355 13.9645,0.008 8.996,0.008 C4.0275,0.008 0,4.0355 0,9.004 Z M8.996,1.5075 C10.0085,1.5075 10.9905,1.7055 11.9135,2.096 C12.806,2.4735 13.608,3.014 14.297,3.703 C14.986,4.392 15.5265,5.194 15.904,6.0865 C16.2945,7.0095 16.4925,7.9915 16.4925,9.004 C16.4925,10.017 16.2945,10.9985 15.904,11.9215 C15.5265,12.814 14.986,13.616 14.297,14.305 C13.608,14.994 12.806,15.5345 11.9135,15.912 C10.9905,16.3025 10.0085,16.5005 8.996,16.5005 C7.9835,16.5005 7.0015,16.3025 6.0785,15.912 C5.186,15.5345 4.384,14.994 3.695,14.305 C3.006,13.616 2.4655,12.814 2.088,11.9215 C1.6975,10.9985 1.4995,10.017 1.4995,9.004 C1.4995,7.9915 1.6975,7.0095 2.088,6.0865 C2.4655,5.194 3.006,4.392 3.695,3.703 C4.384,3.014 5.186,2.4735 6.0785,2.096 C7.0015,1.7055 7.9835,1.5075 8.996,1.5075 Z" id="Shape"></path>
                    <path d="M10.1215,4.1175 C10.1215,4.7385 9.618,5.242 8.997,5.242 C8.376,5.242 7.8725,4.7385 7.8725,4.1175 C7.8725,3.4965 8.376,2.993 8.997,2.993 C9.618,2.993 10.1215,3.4965 10.1215,4.1175 Z" id="Path"></path>
                    <polygon id="Path" points="6.5195 13.967 6.5195 12.4895 8.5435 12.4895 8.5435 8.1195 6.5195 8.1195 6.5195 6.6425 10.133 6.6425 10.133 12.4895 11.82 12.4895 11.82 13.967"></polygon>
                </g>
            </g>
        </g>
    </g>
</svg>