<?xml version="1.0" encoding="UTF-8"?>
<svg width="32px" height="42px" viewBox="0 0 32 42" version="1.1" xmlns="http://www.w3.org/2000/svg" xmlns:xlink="http://www.w3.org/1999/xlink">
    <!-- Generator: Sketch 60.1 (88133) - https://sketch.com -->
    <title>pin-attraction</title>
    <desc>Created with Sketch.</desc>
    <g id="Symbols" stroke="none" stroke-width="1" fill="none" fill-rule="evenodd">
        <g id="category-attraction" transform="translate(1.000000, 1.000000)" fill-rule="nonzero">
            <g id="pin-attraction">
                <path d="M4.32649438,25.2912752 L4.32448576,25.2892946 C-1.26448918,19.0721903 -1.59992811,10.0713524 4.27828759,4.3394952 C7.13554432,1.55873242 10.9880705,0 15.0022902,0 C19.0155056,0 22.8680318,1.55873242 25.7242842,4.3385049 C31.5944654,10.0713524 31.2680653,19.0731806 25.6790903,25.2892946 L25.6790903,25.2892946 C20.3904035,31.1805901 17.2057423,35.1893251 14.998273,39 C12.7978338,35.1635773 9.59609933,31.1805901 4.32649438,25.2912752 Z" id="Path-Copy-8" stroke="#000000" stroke-width="2" fill="#E9F1F6"></path>
                <path d="M20.5113288,18.0226577 L18.4886711,18.0226577 L18.4886711,13.9773423 L20.5113288,13.9773423 C21.2013471,13.9773423 21.8759338,13.772872 22.4496631,13.3892836 C23.0233924,13.0062462 23.4703612,12.4611758 23.7343538,11.8235151 C23.9983465,11.1864055 24.0677892,10.4848133 23.9327617,9.80802213 C23.7982852,9.13123096 23.4659521,8.50955307 22.9781995,8.02180048 C22.4904469,7.53404788 21.868769,7.20171476 21.1919779,7.06723834 C20.5151867,6.93221078 19.8135945,7.00165352 19.1764849,7.26564617 C18.5388242,7.52963882 17.9937538,7.97660758 17.6107164,8.55033691 C17.227128,9.12406623 17.0226577,9.79865287 17.0226577,10.4886712 L17.0226577,12.5113289 L12.9773423,12.5113289 L12.9773423,10.4886712 C12.9773423,9.79865287 12.772872,9.12406623 12.3892836,8.55033691 C12.0062462,7.97660758 11.4611758,7.52963882 10.8235151,7.26564617 C10.1864055,7.00165352 9.4848133,6.93221078 8.80802213,7.06723834 C8.13123096,7.20171476 7.50955307,7.53404788 7.02180048,8.02180048 C6.53404788,8.50955307 6.20171476,9.13123096 6.06723834,9.80802213 C5.93221078,10.4848133 6.00165352,11.1864055 6.26564617,11.8235151 C6.52963882,12.4611758 6.97660758,13.0062462 7.55033691,13.3892836 C8.12406623,13.772872 8.79865287,13.9773423 9.48867123,13.9773423 L11.5113289,13.9773423 L11.5113289,18.0226577 L9.48867123,18.0226577 C8.79865287,18.0226577 8.12406623,18.227128 7.55033691,18.6107164 C6.97660758,18.9937538 6.52963882,19.5388242 6.26564617,20.1764849 C6.00165352,20.8135945 5.93221078,21.5151867 6.06723834,22.1919779 C6.20171476,22.868769 6.53404788,23.4904469 7.02180048,23.9781995 C7.50955307,24.4659521 8.13123096,24.7982852 8.80802213,24.9327617 C9.4848133,25.0677892 10.1864055,24.9983465 10.8235151,24.7343538 C11.4611758,24.4703612 12.0062462,24.0233924 12.3892836,23.4496631 C12.772872,22.8759338 12.9773423,22.2013471 12.9773423,21.5113288 L12.9773423,19.4886711 L17.0226577,19.4886711 L17.0226577,21.5113288 C17.0226577,22.2013471 17.227128,22.8759338 17.6107164,23.4496631 C17.9937538,24.0233924 18.5388242,24.4703612 19.1764849,24.7343538 C19.8135945,24.9983465 20.5151867,25.0677892 21.1919779,24.9327617 C21.868769,24.7982852 22.4904469,24.4659521 22.9781995,23.9781995 C23.4659521,23.4904469 23.7982852,22.868769 23.9327617,22.1919779 C24.0677892,21.5151867 23.9983465,20.8135945 23.7343538,20.1764849 C23.4703612,19.5388242 23.0233924,18.9937538 22.4496631,18.6107164 C21.8759338,18.227128 21.2013471,18.0226577 20.5113288,18.0226577 Z M18.4886711,10.4886712 C18.4886711,10.0885488 18.6071647,9.69779556 18.8298224,9.3649113 C19.0519289,9.03257817 19.367728,8.77299459 19.7375382,8.61977965 C20.1067972,8.46711584 20.5135333,8.42688314 20.9059399,8.50514401 C21.2983465,8.58285375 21.6587874,8.77575025 21.9415186,9.05848142 C22.2242497,9.34121259 22.4171463,9.70165349 22.494856,10.0940601 C22.5731169,10.4864667 22.5328842,10.8932028 22.3802203,11.2624618 C22.2270054,11.632272 21.9674218,11.9480711 21.6350887,12.1701776 C21.3022044,12.3928353 20.9114512,12.5113289 20.5113288,12.5113289 L18.4886711,12.5113289 L18.4886711,10.4886712 Z M11.5113289,21.5113288 C11.5113289,21.9114512 11.3928353,22.3022044 11.1701776,22.6350887 C10.9480711,22.9674218 10.632272,23.2270054 10.2624618,23.3802203 C9.89320277,23.5328842 9.4864667,23.5731169 9.09406009,23.494856 C8.70165349,23.4171463 8.34121259,23.2242497 8.05848142,22.9415186 C7.77575025,22.6587874 7.58285375,22.2983465 7.50514401,21.9059399 C7.42688314,21.5135333 7.46711584,21.1067972 7.61977965,20.7375382 C7.77299459,20.367728 8.03257817,20.0519289 8.3649113,19.8298224 C8.69779556,19.6071647 9.08854877,19.4886711 9.48867123,19.4886711 L11.5113289,19.4886711 L11.5113289,21.5113288 Z M9.48867123,12.5113289 C9.08854877,12.5113289 8.69779556,12.3928353 8.3649113,12.1701776 C8.03257817,11.9480711 7.77299459,11.632272 7.61977965,11.2624618 C7.46711584,10.8932028 7.42688314,10.4864667 7.50514401,10.0940601 C7.58285375,9.70165349 7.77575025,9.34121259 8.05848142,9.05848142 C8.34121259,8.77575025 8.70165349,8.58285375 9.09406009,8.50514401 C9.4864667,8.42688314 9.89320277,8.46711584 10.2624618,8.61977965 C10.632272,8.77299459 10.9480711,9.03257817 11.1701776,9.3649113 C11.3928353,9.69779556 11.5113289,10.0885488 11.5113289,10.4886712 L11.5113289,12.5113289 L9.48867123,12.5113289 Z M17.0226577,18.0226577 L12.9773423,18.0226577 L12.9773423,13.9773423 L17.0226577,13.9773423 L17.0226577,18.0226577 Z M20.5113288,23.5339864 C19.9750765,23.532333 19.4619718,23.3190446 19.0827923,22.9398652 C18.7036129,22.5606858 18.4903245,22.0475811 18.4886711,21.5113288 L18.4886711,19.4886711 L20.5113288,19.4886711 C21.0475811,19.4886711 21.5623392,19.7019595 21.9415186,20.081139 C22.320698,20.4603184 22.5339864,20.9750765 22.5339864,21.5113288 C22.5339864,22.0475811 22.320698,22.5623392 21.9415186,22.9415186 C21.5623392,23.320698 21.0475811,23.5339864 20.5113288,23.5339864 Z" id="Shape" fill="#1A1A1A"></path>
            </g>
        </g>
    </g>
</svg>