<?xml version="1.0" encoding="UTF-8"?>
<svg width="32px" height="42px" viewBox="0 0 32 42" version="1.1" xmlns="http://www.w3.org/2000/svg" xmlns:xlink="http://www.w3.org/1999/xlink">
    <!-- Generator: Sketch 60.1 (88133) - https://sketch.com -->
    <title>pin-accommodation</title>
    <desc>Created with Sketch.</desc>
    <g id="Symbols" stroke="none" stroke-width="1" fill="none" fill-rule="evenodd">
        <g id="category-accommodation" transform="translate(1.000000, 1.000000)">
            <g id="pin-accommodation">
                <path d="M4.32764585,25.2912752 C-1.26686571,19.0721903 -1.59831793,10.0713524 4.27742582,4.3394952 C7.13996765,1.55873242 10.9868221,0 15.0044247,0 C19.0119832,0 22.8688817,1.55873242 25.7213795,4.3385049 C31.5971232,10.0713524 31.265671,19.0731806 25.6812035,25.2892946 C20.3880121,31.1805901 17.2040621,35.1893251 14.9943807,39 C12.7947433,35.1635773 9.59070521,31.1805901 4.32764585,25.2912752 Z" id="Path-Copy-20" stroke="#000000" stroke-width="2" fill="#E9F1F6" fill-rule="nonzero"></path>
                <g id="Group-8" transform="translate(5.000000, 6.000000)" fill="#1A1A1A">
                    <path d="M9.4997129,4 L19,13.386001 L17.9928375,14.3816751 L16.6222007,13.0274449 L16.6222007,20 L2.37665085,20 L2.37665085,13.0274449 L1.0071625,14.3816751 L1.77635684e-15,13.3865683 L9.4997129,4 Z M10.9243253,13.9113538 L8.0756747,13.9113538 L8.0756747,18.5924403 L10.9243253,18.5924403 L10.9243253,13.9113538 Z M9.4997129,5.99021346 L3.80183747,11.6198851 L3.80183747,18.5924403 L6.65106229,18.5924403 L6.65106229,12.5043614 L12.3489377,12.5043614 L12.3489377,18.5924403 L15.1975883,18.5924403 L15.1975883,11.6198851 L9.4997129,5.99021346 Z" id="Combined-Shape"></path>
                    <path d="M15.7152478,8 L17,8 C17,6.69005141 16.4208254,6.01451467 15.9551027,5.47081947 C15.5520635,5.00090717 15.2857883,4.69005141 15.2857883,4.00120956 C15.2857883,3.31115815 15.5515455,3.00090717 15.9545847,2.53099486 C16.4208254,1.98790445 17,1.31115815 17,0 L15.7152478,0 C15.7152478,0.689446628 15.4489725,1.00030239 15.0464514,1.46960992 C14.5802107,2.01390989 14,2.69005141 14,4.00120956 C14,5.31297248 14.5807287,5.989114 15.0464514,6.53220441 C15.4494906,7.00211672 15.7152478,7.31176293 15.7152478,8" id="Fill-34"></path>
                </g>
            </g>
        </g>
    </g>
</svg>