<?xml version="1.0" encoding="UTF-8"?>
<svg width="32px" height="42px" viewBox="0 0 32 42" version="1.1" xmlns="http://www.w3.org/2000/svg" xmlns:xlink="http://www.w3.org/1999/xlink">
    <!-- Generator: Sketch 60.1 (88133) - https://sketch.com -->
    <title>pin-route</title>
    <desc>Created with Sketch.</desc>
    <g id="Symbols" stroke="none" stroke-width="1" fill="none" fill-rule="evenodd">
        <g id="category-route" transform="translate(1.000000, 1.000000)" fill-rule="nonzero">
            <g id="pin-route">
                <path d="M4.32649438,25.2912752 L4.32448576,25.2892946 C-1.26448918,19.0721903 -1.59992811,10.0713524 4.27828759,4.3394952 C7.13554432,1.55873242 10.9880705,0 15.0022902,0 C19.0155056,0 22.8680318,1.55873242 25.7242842,4.3385049 C31.5944654,10.0713524 31.2680653,19.0731806 25.6790903,25.2892946 L25.6790903,25.2892946 C20.3904035,31.1805901 17.2057423,35.1893251 14.998273,39 C12.7978338,35.1635773 9.59609933,31.1805901 4.32649438,25.2912752 Z" id="Path" stroke="#000000" stroke-width="2" fill="#E9F1F6"></path>
                <path d="M13.287571,4.78071244 C13.0560814,4.5344559 12.7806887,4.33954646 12.4773576,4.20541524 C12.1740265,4.07128402 11.847746,4.0021226 11.5184721,4 C10.8539374,3.9968831 10.2153456,4.27038505 9.74238853,4.76185023 C9.27042925,5.25331542 9.00301892,5.92082783 9,6.61977725 C8.99703212,7.31767877 9.25745785,7.98833489 9.72542593,8.48503957 C10.4208923,9.2374319 11.0195722,10.0830873 11.5064985,11 C11.9944225,10.0841352 12.5931024,9.2384798 13.287571,8.48503957 C13.7445633,7.98728699 14,7.32291827 14,6.63235205 C14,5.94178584 13.7445633,5.27741712 13.287571,4.78071244 Z M11.5064985,7.68339593 C11.3089341,7.68339593 11.1163588,7.62156982 10.9517218,7.5063008 C10.7880826,7.39103178 10.6603643,7.22755936 10.5845315,7.03579362 C10.5086987,6.84402789 10.4897405,6.63339995 10.5276569,6.43010732 C10.5665711,6.22681468 10.6613621,6.04028845 10.801054,5.89358243 C10.940746,5.7479243 11.1183544,5.64732589 11.3119275,5.60750568 C11.5055007,5.56663757 11.7060584,5.58759557 11.8886558,5.66723599 C12.0702553,5.7458285 12.2269099,5.88100763 12.33567,6.05286325 C12.445428,6.22471888 12.5042982,6.42801152 12.5042982,6.63549575 C12.5042982,6.9131893 12.3995292,7.17935595 12.2119429,7.37636118 C12.0253543,7.57231851 11.7709154,7.68339593 11.5064985,7.68339593 Z" id="Shape" fill="#1A1A1A"></path>
                <path d="M19.5450522,22.9999984 L18.5687638,22.9999984 L18.5687638,21.7029171 L19.5450522,21.7029171 C19.8050585,21.7019419 20.0620297,21.654155 20.3038255,21.561507 L20.8096744,22.7659314 C20.4070187,22.9209949 19.9780588,23.0009648 19.5450522,22.9999984 Z M17.5570661,22.9999896 L15.5336706,22.9999896 L15.5336706,21.7029171 L17.5570661,21.7029171 L17.5570661,22.9999896 Z M14.5219728,22.9999896 L12.4985773,22.9999896 L12.4985773,21.7029171 L14.5219728,21.7029171 L14.5219728,22.9999896 Z M11.4868795,23 L10.4397724,23 C10.036105,23.0009648 9.63547265,22.9336731 9.25608599,22.8000649 L9.71640847,21.5810118 C9.94909896,21.6609817 10.1929181,21.7029171 10.4397724,21.7029171 L11.4868795,21.7029171 L11.4868795,23 Z M8.16345242,22.1856621 C7.52203604,21.6522045 7.10723996,20.9090698 7,20.0986433 L8.3506165,19.9133472 C8.41738856,20.4068199 8.6693013,20.8603076 9.05880493,21.1860386 L8.16345242,22.1856621 Z M21.86184,22.1271476 L20.951312,21.1519051 C21.3337338,20.8164217 21.5755296,20.3561073 21.6291495,19.8597089 L22.9645906,19.9913666 C22.8897249,20.809595 22.5022447,21.5702841 21.8770155,22.1271476 L21.86184,22.1271476 Z M8.37085046,19.2014203 L7.06070187,18.8990951 C7.26101802,18.1091487 7.75169143,17.4167266 8.4416693,16.9486102 L9.21561808,18.0116245 C8.79879861,18.299321 8.50439456,18.721601 8.38602592,19.2014203 L8.37085046,19.2014203 Z M22.9848245,18.9722383 L21.654442,18.9722383 L21.654442,17.0217534 L23,17.0217534 L22.9848245,18.9722383 Z M9.92380651,17.6995469 L9.59500474,16.4414842 C9.87119823,16.3741924 10.1544736,16.3400589 10.4397724,16.3390837 L11.7752134,16.3390837 L11.7752134,17.6361561 L10.4397724,17.6361561 C10.2657604,17.6361561 10.0917483,17.6566362 9.92380651,17.6995469 Z M12.8830224,17.6068989 L12.7160923,16.3244551 C12.9518179,16.2922721 13.1774265,16.2093765 13.376731,16.0816197 C13.5750237,15.9548382 13.7419538,15.7861212 13.8643693,15.588147 L14.9924123,16.2561881 C14.7668037,16.6189783 14.4612709,16.9281301 14.0960481,17.1621883 C13.7308252,17.3952713 13.3170408,17.5474091 12.8830224,17.6068989 Z M23,16.046511 L21.654442,16.046511 L21.654442,14.0960261 L23,14.0960261 L23,16.046511 Z M15.4122668,15.0712685 L14.0768258,14.944487 C14.0768258,14.8957249 14.0768258,14.8469628 14.0768258,14.7982007 C14.0737907,14.5914493 14.0272526,14.3876236 13.9402466,14.1974513 C13.8542523,14.0082543 13.7277901,13.8375869 13.5709769,13.6961767 L14.5169143,12.7745726 C14.7961429,13.0388633 15.0177047,13.3538666 15.1694594,13.7010529 C15.3202023,14.0482392 15.3981031,14.4217571 15.3970914,14.7982007 C15.4021499,14.887923 15.4021499,14.9776453 15.3970914,15.0663923 L15.4122668,15.0712685 Z M12.9892507,13.3304608 C12.8263674,13.2777977 12.6553905,13.2504909 12.4834018,13.2475652 L11.1985457,13.2475652 L11.1985457,11.9504927 L12.4631679,11.9504927 C12.7919696,11.951468 13.118748,12.0041311 13.4293392,12.1065315 L12.9892507,13.3304608 Z M21.6493835,13.1695458 C21.6079039,12.6731474 21.3792602,12.2079567 21.0069554,11.8627209 L21.9377174,10.9313644 C22.5528296,11.4999307 22.9281695,12.2674465 22.989883,13.0866502 L21.6493835,13.1695458 Z M20.3695858,11.4579953 C20.1095795,11.3507186 19.8283275,11.2961051 19.5450522,11.2970803 L18.6395827,11.2970803 L18.6395827,10 L19.5450522,10 C20.0094214,9.99903262 20.4687322,10.0887549 20.8956687,10.2633233 L20.3695858,11.4579953 Z M17.6278849,11.2970803 L15.6044894,11.2970803 L15.6044894,10.0000079 L17.6278849,10.0000079 L17.6278849,11.2970803 Z M14.5927917,11.2970803 L13.2219412,11.2970803 L13.2219412,10.0000079 L14.5927917,10.0000079 L14.5927917,11.2970803 Z" id="Shape" fill="#1A1A1A"></path>
            </g>
        </g>
    </g>
</svg>