<?xml version="1.0" encoding="UTF-8"?>
<svg width="32px" height="42px" viewBox="0 0 32 42" version="1.1" xmlns="http://www.w3.org/2000/svg" xmlns:xlink="http://www.w3.org/1999/xlink">
    <!-- Generator: Sketch 60.1 (88133) - https://sketch.com -->
    <title>pin-shop</title>
    <desc>Created with Sketch.</desc>
    <g id="Symbols" stroke="none" stroke-width="1" fill="none" fill-rule="evenodd">
        <g id="category-shop" transform="translate(1.000000, 1.000000)" stroke="#000000">
            <g id="pin-shop">
                <path d="M4.32764585,25.2912752 C-1.26686571,19.0721903 -1.59831793,10.0713524 4.27742582,4.3394952 C7.13996765,1.55873242 10.9868221,0 15.0044247,0 C19.0119832,0 22.8688817,1.55873242 25.7213795,4.3385049 C31.5971232,10.0713524 31.265671,19.0731806 25.6812035,25.2892946 C20.3880121,31.1805901 17.2040621,35.1893251 14.9943807,39 C12.7947433,35.1635773 9.59070521,31.1805901 4.32764585,25.2912752 Z" id="Path-Copy-21" stroke-width="2" fill="#E9F1F6" fill-rule="nonzero"></path>
                <g id="Group-Copy" transform="translate(7.000000, 9.000000)" stroke-width="1.2">
                    <path d="M0.000529809875,2.81144919 C-0.000176603292,3.43854768 -0.000176603292,3.95939539 0.000529809875,4.37399231 C0.000529809875,7.12553616 3.66859188,7.12553616 3.66859188,4.37399231 C3.6721359,7.13272698 7.58816513,7.12553616 7.58816513,4.37399231 C7.58347788,7.16515614 11.429427,7.16515614 11.429427,4.37399231 C11.44749,7.1781278 14.9714192,7.15444042 15,4.37399231 C15,3.59452594 15,3.07367823 15,2.81144919 L0.000529809875,2.81144919 Z" id="Path-11"></path>
                    <polyline id="Path-12" stroke-linecap="round" points="0 2.52143036 2.07326241 0 13.1305241 0 15 2.52143036"></polyline>
                    <polyline id="Path-13" points="1.04395604 6.0227973 1.04395604 13.9982034 14.0934066 13.9982034 14.0934066 6.46822058"></polyline>
                    <polyline id="Path-14" points="4.53296703 13.9982034 4.53296703 7.74084802 8.65384615 7.74084802 8.65384615 13.9982034"></polyline>
                </g>
            </g>
        </g>
    </g>
</svg>