<?xml version="1.0" encoding="UTF-8"?>
<svg width="32px" height="42px" viewBox="0 0 32 42" version="1.1" xmlns="http://www.w3.org/2000/svg" xmlns:xlink="http://www.w3.org/1999/xlink">
    <!-- Generator: Sketch 60.1 (88133) - https://sketch.com -->
    <title>pin-pier</title>
    <desc>Created with Sketch.</desc>
    <g id="Symbols" stroke="none" stroke-width="1" fill="none" fill-rule="evenodd">
        <g id="category-pier" transform="translate(1.000000, 1.000000)" fill-rule="nonzero">
            <g id="pin-pier">
                <path d="M4.32589846,25.2912752 L4.32439199,25.2892946 C-1.26479561,19.0721903 -1.59974314,10.0713524 4.27869587,4.3394952 C7.13555691,1.55873242 10.9879907,0 15.0019177,0 C19.0156437,0 22.8678767,1.55873242 25.7247377,4.3385049 C31.5944292,10.0713524 31.2678275,19.0731806 25.6794433,25.2892946 L25.6789412,25.2892946 C20.3900423,31.1805901 17.2056757,35.1893251 14.9981013,39 C12.7976574,35.1635773 9.59601668,31.1805901 4.32589846,25.2912752 Z" id="Path" stroke="#000000" stroke-width="2" fill="#E9F1F6"></path>
                <path d="M24.4764208,16.5980231 L23.1051995,13 L5,13 L7.69165659,16.9538715 L7.46311971,17.0971993 C6.98339541,17.4649094 6.39295768,17.6705107 5.78210399,17.6803954 L5.78210399,19 C6.65714631,18.9891269 7.50506892,18.7024712 8.19951632,18.184514 C8.65994196,17.8227348 9.22844015,17.6171334 9.81958888,17.5963756 C10.4055574,17.6200988 10.968266,17.8257002 11.4244256,18.184514 C12.1189746,18.7024712 12.9668972,18.9891269 13.841838,19 C14.7151536,18.9881384 15.5610447,18.7014827 16.2541717,18.184514 C16.7159178,17.8217463 17.2864474,17.6151565 17.8793229,17.5963756 C18.4878404,17.6072488 19.0756372,17.8138386 19.5501814,18.184514 C20.2382297,18.7123558 21.0888948,19 21.965156,19 C22.8413156,19 23.6919807,18.7123558 24.3799274,18.184514 C24.8403531,17.8227348 25.4088513,17.6171334 26,17.5963756 L26,16.2817133 C25.4826941,16.2777595 24.970873,16.3855025 24.5018138,16.5980231 L24.4764208,16.5980231 Z M20.286578,17.092257 C19.6148827,16.5733114 18.7826022,16.291598 17.9250302,16.291598 C17.0675599,16.291598 16.2352793,16.5733114 15.5634825,17.092257 C15.0877195,17.4658979 14.4986022,17.675453 13.8875453,17.6902801 C13.2748634,17.6764415 12.6840193,17.4658979 12.2065296,17.092257 C11.5278259,16.5861614 10.7000145,16.3054366 9.84498186,16.291598 C9.54889964,16.2906096 9.25373156,16.3252059 8.96638452,16.3953871 L7.52406288,14.3146623 L22.1808948,14.3146623 L23.2931076,17.2800659 C22.8933204,17.5439868 22.4204015,17.6843493 21.9371221,17.6803954 C21.3261669,17.6655684 20.7370496,17.4560132 20.261185,17.0823723 L20.286578,17.092257 Z" id="Shape" fill="#1A1A1A"></path>
                <polygon id="Path" fill="#1A1A1A" points="10.7734304 14 10 12.9800995 13.2711556 10 15 13.1492537 13.9626934 13.8308458 12.9617834 12.0049751"></polygon>
            </g>
        </g>
    </g>
</svg>