<?xml version="1.0" encoding="UTF-8"?>
<svg width="32px" height="42px" viewBox="0 0 32 42" version="1.1" xmlns="http://www.w3.org/2000/svg" xmlns:xlink="http://www.w3.org/1999/xlink">
    <!-- Generator: Sketch 60.1 (88133) - https://sketch.com -->
    <title>pin-restaurant</title>
    <desc>Created with Sketch.</desc>
    <g id="Symbols" stroke="none" stroke-width="1" fill="none" fill-rule="evenodd">
        <g id="category-restaurant" transform="translate(1.000000, 1.000000)" fill-rule="nonzero">
            <g id="pin-restaurant">
                <path d="M4.32649438,25.2912752 L4.32448576,25.2892946 C-1.26448918,19.0721903 -1.59992811,10.0713524 4.27828759,4.33909908 C7.13554432,1.55883145 10.9880705,0 15.0022902,0 C19.0155056,0 22.8680318,1.55873242 25.7242842,4.33870296 C31.5944654,10.0717485 31.2680653,19.0731806 25.6790903,25.2892946 L25.6790903,25.2892946 C20.3904035,31.1805901 17.2057423,35.1893251 14.998273,39 C12.7978338,35.1635773 9.59609933,31.1805901 4.32649438,25.2912752 Z" id="Path" stroke="#000000" stroke-width="2" fill="#E9F1F6"></path>
                <g id="Clipped" transform="translate(6.000000, 6.000000)" fill="#1A1A1A">
                    <g id="Group">
                        <path d="M11.5125,8.39725 C11.6945,8.20675 11.95175,8.09808333 12.222125,8.09808333 L13.336875,8.09808333 C13.881125,8.09808333 14.4,7.87766667 14.764,7.49175 L18.6875,3.33233333 L18.093375,2.76683333 L15.21025,5.51325 L14.785875,5.10933333 L17.585,2.28216667 L16.990875,1.71675 L14.022875,4.38233333 L13.5985,3.9785 L16.4825,1.23216667 L15.888375,0.666666667 L11.52125,4.40316667 C11.116125,4.74983333 10.88425,5.24416667 10.88425,5.76291667 L10.88425,6.89075 C10.88425,7.14666667 10.771375,7.39083333 10.573625,7.56391667 L9.23225,8.745 L0.96875,0.849333333 C0.7115,0.604666667 0.27225,0.805416667 0.315125,1.14891667 C0.558375,3.07325 1.645125,5.29608333 3.928,7.47 L5.607125,9.06933333 L7.41575,9.06933333 L8.0615,9.77625 L1.368625,15.6691667 L3.018875,17.2275 L9.09575,10.9091667 L14.94425,17.315 L16.635625,15.8183333 L10.246375,9.71366667 L11.5125,8.39725 Z" id="Path"></path>
                    </g>
                </g>
            </g>
        </g>
    </g>
</svg>