<?xml version="1.0" encoding="UTF-8"?>
<svg width="32px" height="42px" viewBox="0 0 32 42" version="1.1" xmlns="http://www.w3.org/2000/svg" xmlns:xlink="http://www.w3.org/1999/xlink">
    <!-- Generator: Sketch 60.1 (88133) - https://sketch.com -->
    <title>pin-boat-service</title>
    <desc>Created with Sketch.</desc>
    <g id="Symbols" stroke="none" stroke-width="1" fill="none" fill-rule="evenodd">
        <g id="categorysail-boat-service" transform="translate(1.000000, 1.000000)">
            <g id="pin-boat-service">
                <path d="M4.32764585,25.2912752 C-1.26686571,19.0721903 -1.59831793,10.0713524 4.27742582,4.3394952 C7.13996765,1.55873242 10.9868221,0 15.0044247,0 C19.0119832,0 22.8688817,1.55873242 25.7213795,4.3385049 C31.5971232,10.0713524 31.265671,19.0731806 25.6812035,25.2892946 C20.3880121,31.1805901 17.2040621,35.1893251 14.9943807,39 C12.7947433,35.1635773 9.59070521,31.1805901 4.32764585,25.2912752 Z" id="Path" stroke="#000000" stroke-width="2" fill="#E9F1F6" fill-rule="nonzero"></path>
                <g id="Group-3" transform="translate(4.000000, 2.000000)">
                    <path d="M1,17.4449333 C2.78872259,19.7060735 5.01725838,20.8366436 7.68560737,20.8366436 C11.614045,20.8366436 9.18077222,27.4561517 13.7844746,27.1813412 C13.7844746,25.2899409 13.9699115,23.1750416 14.3407854,20.8366436 C16.4391057,20.8366436 17.9149144,20.8366436 18.7682115,20.8366436 C19.0364883,21.9239375 18.760428,22.8977987 19.4980263,22.8977987 C20.2356246,22.8977987 20.2369435,19.8507745 20.4098583,18.2193385 C19.3154271,18.2193385 18.0108488,18.2193385 16.4961232,18.2193385 C14.092346,18.2193385 13.9846663,16.5381169 13.1685989,16.5381169 C11.5235764,16.5381169 6.50249886,16.5150435 6.50249886,17.4449333 C5.77547411,17.4449333 3.94130782,17.4449333 1,17.4449333 Z" id="Path" fill="#1A1A1A" fill-rule="nonzero"></path>
                    <polygon id="Path" fill="#1A1A1A" fill-rule="nonzero" points="11.8941845 0.226312059 12.1602437 16.0929787 19.5132115 16.0929787"></polygon>
                    <polygon id="Path-Copy" fill="#1A1A1A" fill-rule="nonzero" transform="translate(5.619048, 8.000000) scale(-1, 1) translate(-5.619048, -8.000000) " points="0.619047619 0 0.968250291 16 10.6190206 16"></polygon>
                    <line x1="11.3854979" y1="17.2666667" x2="11.3854979" y2="0.466666667" id="Line" stroke="#000000" stroke-width="0.664999992" stroke-linecap="square"></line>
                </g>
            </g>
        </g>
    </g>
</svg>