<?xml version="1.0" encoding="UTF-8"?>
<svg width="32px" height="42px" viewBox="0 0 32 42" version="1.1" xmlns="http://www.w3.org/2000/svg" xmlns:xlink="http://www.w3.org/1999/xlink">
    <!-- Generator: Sketch 60.1 (88133) - https://sketch.com -->
    <title>pin-repair-service</title>
    <desc>Created with Sketch.</desc>
    <g id="Symbols" stroke="none" stroke-width="1" fill="none" fill-rule="evenodd">
        <g id="category-repair-service" transform="translate(1.000000, 1.000000)" fill-rule="nonzero">
            <g id="pin-repair-service">
                <path d="M4.32649438,25.2909433 L4.32448576,25.2891608 C-1.26448918,19.0726349 -1.59992811,10.071378 4.27828759,4.3391101 C7.13554432,1.55887502 10.9880705,0 15.0022902,0 C19.0155056,0 22.8680318,1.55873637 25.7242842,4.33874369 C31.5944654,10.0717741 31.2680653,19.0735262 25.6790903,25.2891608 L25.6790903,25.2897549 C20.3904035,31.1806693 17.2057423,35.1894144 14.998273,39 C12.7978338,35.1631714 9.59609933,31.1803722 4.32649438,25.2909433 Z" id="Path" stroke="#000000" stroke-width="2" fill="#E9F1F6"></path>
                <g id="Group-6" transform="translate(10.000000, 5.000000)" fill="#1A1A1A">
                    <path d="M4.63767257,20.9750793 C3.95043783,20.8693475 3.32271225,20.5120842 2.8725543,19.9692489 C2.42143653,19.4264135 2.17764097,18.7346282 2.18531957,18.0216769 L2.18531957,9.36820792 C1.17174432,8.66017892 0.447076405,7.59478823 0.14953064,6.37473771 C-0.148015125,5.15458874 0.00171758239,3.86473947 0.569934011,2.75042075 C1.13911027,1.63610203 2.08645759,0.774988342 3.23440835,0.330658799 C4.38139928,-0.113641211 5.64740852,-0.110077439 6.7924798,0.340651143 L7.27239233,0.527699961 C7.31654428,0.547133349 7.35589711,0.577080849 7.38565168,0.615041914 C7.41636609,0.653002979 7.43844206,0.69790454 7.44804031,0.746044999 C7.45859839,0.794087011 7.45763856,0.844097958 7.44516084,0.891746183 C7.43364294,0.939295962 7.40964731,0.983301657 7.37797308,1.01992385 L4.46010494,4.01762727 L4.80084283,5.32204665 L6.07261102,5.6715326 L8.99527829,2.67875152 C9.03079182,2.64587031 9.07398395,2.62214464 9.12005555,2.60954346 C9.16708698,2.59694227 9.21507823,2.59595781 9.26210966,2.60659005 C9.30914108,2.61712386 9.35329304,2.63897903 9.38976639,2.67038355 C9.42719956,2.70178806 9.45599432,2.74175744 9.47519082,2.78704294 L9.6623567,3.27927667 C10.0693225,4.35776077 10.1096352,5.54552077 9.77657588,6.6503886 C9.44447642,7.75535488 8.75820151,8.71284793 7.82909086,9.36820792 L7.82909086,18.1053566 C7.82909086,18.5174547 7.74366643,18.9248273 7.57761669,19.3003032 C7.41156696,19.6756807 7.16969105,20.0103996 6.86734616,20.2820142 C6.56500127,20.5537272 6.209866,20.7561337 5.82593598,20.8756481 C5.44104614,20.9951624 5.03599996,21.0290281 4.63767257,20.9750793 Z M5.00720521,1.31034175 C4.18751462,1.31034175 3.39085983,1.58786313 2.74009845,2.0997862 C2.09029689,2.61161084 1.62286209,3.32928762 1.41074075,4.14147327 C1.19765959,4.95356048 1.25332945,5.81487106 1.56719224,6.59161589 C1.8800952,7.36845916 2.43487408,8.01742011 3.14514462,8.43788617 L3.46188688,8.62985732 L3.46188688,18.1053566 C3.46188688,18.5257242 3.62505714,18.9288637 3.91492431,19.2260744 C4.20383165,19.5233836 4.59735992,19.6903492 5.00720521,19.6903492 C5.41705051,19.6903492 5.81057878,19.5233836 6.09948612,19.2260744 C6.38935328,18.9288637 6.55252354,18.5257242 6.55252354,18.1053566 L6.55252354,8.62985732 L6.86926581,8.43788617 C7.43460276,8.10149363 7.90395721,7.61910458 8.23029773,7.03876101 C8.55759807,6.458319 8.72940675,5.80030094 8.7313264,5.1300755 C8.7313264,5.03162875 8.7313264,4.92825967 8.7313264,4.82981292 L6.44694279,7.14331145 L3.75943265,6.4098832 L3.04436299,3.64352963 L5.29995185,1.32018642 L5.00720521,1.31034175 Z" id="Shape"></path>
                    <path d="M5,19 C5.552,19 6,18.5523 6,18 C6,17.4477 5.552,17 5,17 C4.448,17 4,17.4477 4,18 C4,18.5523 4.448,19 5,19 Z" id="Path"></path>
                </g>
            </g>
        </g>
    </g>
</svg>