<?xml version="1.0" encoding="UTF-8"?>
<svg width="32px" height="42px" viewBox="0 0 32 42" version="1.1" xmlns="http://www.w3.org/2000/svg" xmlns:xlink="http://www.w3.org/1999/xlink">
    <!-- Generator: Sketch 60.1 (88133) - https://sketch.com -->
    <title>pin-sauna</title>
    <desc>Created with Sketch.</desc>
    <g id="Symbols" stroke="none" stroke-width="1" fill="none" fill-rule="evenodd">
        <g id="category-sauna" transform="translate(1.000000, 1.000000)" fill-rule="nonzero">
            <g id="pin-sauna">
                <path d="M4.32589846,25.2909433 L4.32439199,25.2891608 C-1.26479561,19.0726349 -1.59974314,10.071378 4.27869587,4.3391101 C7.13555691,1.55887502 10.9879907,0 15.0019177,0 C19.0156437,0 22.8678767,1.55873637 25.7247377,4.33874369 C31.5944292,10.0717741 31.2678275,19.0735262 25.6794433,25.2891608 L25.6789412,25.2897549 C20.3900423,31.1806693 17.2056757,35.1894144 14.9981013,39 C12.7976574,35.1631714 9.59601668,31.1803722 4.32589846,25.2909433 Z" id="Path" stroke="#000000" stroke-width="2" fill="#E9F1F6"></path>
                <g id="Group-5" transform="translate(6.000000, 3.000000)" fill="#1A1A1A">
                    <path d="M11.9046823,9.47871331 C11.4243813,8.67926971 11.1714381,7.76707518 11.1722408,6.83796802 L11.1722408,2.22409146 C11.1851839,1.6633831 10.977893,1.11942913 10.5937124,0.705722258 C10.2095318,0.292015385 9.67816054,0.0405115943 9.11036789,0.00368951662 C8.81488294,-0.0134901635 8.51899666,0.0294540915 8.24117057,0.129841975 C7.96324415,0.230229858 7.70929766,0.385925035 7.49498328,0.587224994 C7.28367893,0.788584296 7.11561873,1.02986138 7.00103679,1.29665578 C6.88635452,1.56345018 6.82745819,1.85028259 6.8277592,2.14002279 L6.8277592,6.83796802 C6.82866221,7.76707518 6.57561873,8.67926971 6.09531773,9.47871331 L0,9.47871331 L0.14548495,10.9227164 L1.14882943,20.8131482 L1.26923077,22 L16.7307692,22 L16.8511706,20.8131482 L17.8545151,10.9227164 L18,9.47871331 L11.9046823,9.47871331 Z M8.16220736,6.83796802 L8.16220736,2.14002279 C8.16280936,2.02792464 8.18638796,1.91710235 8.23143813,1.81421219 C8.27658863,1.71133191 8.34240803,1.6185201 8.42488294,1.54135495 C8.50745819,1.46419969 8.60488294,1.40429335 8.71143813,1.36525581 C8.81809365,1.32620839 8.93157191,1.3088309 9.0451505,1.31417173 C9.26899666,1.34010445 9.47478261,1.44807829 9.62167224,1.61664092 C9.76846154,1.78520355 9.84561873,2.00204138 9.83779264,2.22409146 L9.83779264,6.83796802 C9.83578595,7.73671156 10.0237124,8.62596028 10.3896321,9.44904202 L7.61036789,9.44904202 C7.97638796,8.62596028 8.16431438,7.73671156 8.16220736,6.83796802 Z M2.47826087,20.6845726 L1.47491639,10.7941407 L3.71237458,10.7941407 L4.16889632,20.6845726 L2.47826087,20.6845726 Z M8.33277592,20.6845726 L5.48829431,20.6845726 L5.03177258,10.7941407 L8.31270903,10.7941407 L8.33277592,20.6845726 Z M12.4314381,20.6845726 L9.66722408,20.6845726 L9.66722408,10.7941407 L12.8879599,10.7941407 L12.4314381,20.6845726 Z M15.5217391,20.6845726 L13.7658863,20.6845726 L14.222408,10.7941407 L16.5250836,10.7941407 L15.5217391,20.6845726 Z" id="Shape"></path>
                    <path d="M9,3 C9.2761,3 9.5,2.77614 9.5,2.5 C9.5,2.22386 9.2761,2 9,2 C8.7239,2 8.5,2.22386 8.5,2.5 C8.5,2.77614 8.7239,3 9,3 Z" id="Path"></path>
                </g>
            </g>
        </g>
    </g>
</svg>