<?xml version="1.0" encoding="UTF-8"?>
<svg width="32px" height="42px" viewBox="0 0 32 42" version="1.1" xmlns="http://www.w3.org/2000/svg" xmlns:xlink="http://www.w3.org/1999/xlink">
    <!-- Generator: Sketch 60.1 (88133) - https://sketch.com -->
    <title>pin-ferry</title>
    <desc>Created with Sketch.</desc>
    <g id="Symbols" stroke="none" stroke-width="1" fill="none" fill-rule="evenodd">
        <g id="category-ferry" transform="translate(1.000000, 1.000000)" fill-rule="nonzero">
            <g id="pin-ferry">
                <path d="M4.32649438,25.2912752 L4.32448576,25.2892946 C-1.26448918,19.0721903 -1.59992811,10.0713524 4.27828759,4.3394952 C7.13554432,1.55873242 10.9880705,0 15.0022902,0 C19.0155056,0 22.8680318,1.55873242 25.7242842,4.3385049 C31.5944654,10.0713524 31.2680653,19.0731806 25.6790903,25.2892946 L25.6790903,25.2892946 C20.3904035,31.1805901 17.2057423,35.1893251 14.998273,39 C12.7978338,35.1635773 9.59609933,31.1805901 4.32649438,25.2912752 Z" id="Path" stroke="#000000" stroke-width="2" fill="#E9F1F6"></path>
                <path d="M24.4313253,17.5901639 L23.0650602,14 L5,14 L7.68192771,17.9344262 C7.58072289,17.9836066 7.53012048,18.0327869 7.42891566,18.0819672 C6.92289157,18.4262295 6.46746988,18.6721311 5.75903614,18.6721311 L5.75903614,20 C6.87228916,20 7.58072289,19.557377 8.18795181,19.2131148 C8.6939759,18.8688525 9.09879518,18.6229508 9.80722892,18.6229508 C10.5156627,18.6229508 10.9204819,18.8688525 11.426506,19.2131148 C12.0337349,19.6065574 12.6915663,20 13.8554217,20 C14.9686747,20 15.6771084,19.557377 16.2843373,19.2131148 C16.7903614,18.8688525 17.1951807,18.6229508 17.9036145,18.6229508 C18.6120482,18.6229508 19.0168675,18.8688525 19.5228916,19.2131148 C20.1301205,19.6065574 20.7879518,20 21.9518072,20 C23.0650602,20 23.773494,19.557377 24.3807229,19.2131148 C24.886747,18.8688525 25.2915663,18.6229508 26,18.6229508 L26,17.295082 C25.2915663,17.2459016 24.8361446,17.3934426 24.4313253,17.5901639 Z M20.1807229,18.0819672 C19.573494,17.6885246 18.9156627,17.295082 17.853012,17.295082 C16.739759,17.295082 16.0819277,17.7377049 15.5253012,18.0819672 C15.0192771,18.4262295 14.5638554,18.6721311 13.8554217,18.6721311 C13.146988,18.6721311 12.6915663,18.4262295 12.1855422,18.0819672 C11.5783133,17.6885246 10.9204819,17.295082 9.85783133,17.295082 C9.55421687,17.295082 9.25060241,17.3442623 8.99759036,17.3934426 L7.53012048,15.3278689 L22.1542169,15.3278689 L23.2674699,18.2786885 C22.8626506,18.5245902 22.5084337,18.6721311 21.9012048,18.6721311 C21.1421687,18.6721311 20.7373494,18.3770492 20.1807229,18.0819672 Z" id="Shape" fill="#2C2C2C"></path>
                <path d="M21,12 L21,10.746988 L21,8 L18.1,8 L16.2,10.746988 L9.75,10.746988 L9,12 L21,12 Z M18.8,9.30120482 L19.65,9.30120482 L19.65,10.746988 L17.75,10.746988 L18.8,9.30120482 Z" id="Shape" fill="#2C2C2C"></path>
            </g>
        </g>
    </g>
</svg>