<?xml version="1.0" encoding="UTF-8"?>
<svg width="32px" height="42px" viewBox="0 0 32 42" version="1.1" xmlns="http://www.w3.org/2000/svg" xmlns:xlink="http://www.w3.org/1999/xlink">
    <!-- Generator: Sketch 60.1 (88133) - https://sketch.com -->
    <title>pin-cafe</title>
    <desc>Created with Sketch.</desc>
    <g id="Symbols" stroke="none" stroke-width="1" fill="none" fill-rule="evenodd">
        <g id="category-cafe" transform="translate(1.000000, 1.000000)">
            <g id="pin-cafe">
                <path d="M4.32649438,25.2909433 L4.32448576,25.2891608 C-1.26448918,19.0726349 -1.59992811,10.071378 4.27828759,4.3391101 C7.13554432,1.55887502 10.9880705,0 15.0022902,0 C19.0155056,0 22.8680318,1.55873637 25.7242842,4.33874369 C31.5944654,10.0717741 31.2680653,19.0735262 25.6790903,25.2891608 L25.6790903,25.2897549 C20.3904035,31.1806693 17.2057423,35.1894144 14.998273,39 C12.7978338,35.1631714 9.59609933,31.1803722 4.32649438,25.2909433 Z" id="Path" stroke="#000000" stroke-width="2" fill="#E9F1F6" fill-rule="nonzero"></path>
                <g id="Group-7" transform="translate(8.000000, 5.000000)" fill="#1A1A1A">
                    <path d="M8,7 L9.6001994,6.99940211 C9.6001994,5.67646546 10.6759721,4.60015944 12,4.59956155 L12,3 C10.9312064,3.00059789 9.92622134,3.41673102 9.17148554,4.17196881 C8.41575274,4.9272066 8,5.93206447 8,7 Z" id="Path"></path>
                    <path d="M6.2517134,4.21166168 C8.68311526,3.4554277 10,2.56005713 10,0 L8.4,0 C8.4,1.49710594 8.0341433,2.07677008 5.74728972,2.78843176 C3.31588785,3.5445723 2,4.43938221 2,7 L3.6,7 C3.6,5.50295013 3.96485981,4.92322992 6.2517134,4.21166168 Z" id="Path"></path>
                    <path d="M14.1006606,9.95779469 C13.3736092,9.95779469 12.7214302,10.1491144 12.1559458,10.5130105 L12.3864743,9 L0,9 L1.82550997,21 L10.5619495,21 L10.6644066,20.3267422 C10.882128,18.9520122 12.0465925,18.3167392 13.3952828,17.5797747 C15.0011011,16.7025356 17,15.6106477 17,12.8912964 C17,11.2741019 15.6985976,9.95779469 14.1006606,9.95779469 Z M1.84324293,10.6002459 L10.5432313,10.6002459 L9.91272601,14.741883 C9.91272601,14.7424811 9.91272601,14.7436775 9.91272601,14.7442757 L9.20439268,19.3996544 L3.18208159,19.3996544 L1.84324293,10.6002459 Z M12.6436022,16.1713469 C12.1539754,16.4396331 11.6416898,16.7193845 11.1628999,17.0502808 L11.4761822,14.9867402 C11.905714,12.1530358 13.13914,11.5580406 14.1006606,11.5580406 C14.8267269,11.5580406 15.4178257,12.1561264 15.4178257,12.8912964 C15.4178257,14.5704031 14.3646847,15.2321957 12.6436022,16.1713469 Z" id="Shape"></path>
                </g>
            </g>
        </g>
    </g>
</svg>