<?xml version="1.0" encoding="UTF-8"?>
<svg width="32px" height="42px" viewBox="0 0 32 42" version="1.1" xmlns="http://www.w3.org/2000/svg" xmlns:xlink="http://www.w3.org/1999/xlink">
    <!-- Generator: Sketch 60.1 (88133) - https://sketch.com -->
    <title>pin-sport</title>
    <desc>Created with Sketch.</desc>
    <g id="Symbols" stroke="none" stroke-width="1" fill="none" fill-rule="evenodd">
        <g id="category-sport" transform="translate(1.000000, 1.000000)" fill-rule="nonzero">
            <g id="pin-sport">
                <path d="M4.32649438,25.2912752 L4.32448576,25.2892946 C-1.26448918,19.0721903 -1.59992811,10.0713524 4.27828759,4.3394952 C7.13554432,1.55873242 10.9880705,0 15.0022902,0 C19.0155056,0 22.8680318,1.55873242 25.7242842,4.3385049 C31.5944654,10.0713524 31.2680653,19.0731806 25.6790903,25.2892946 L25.6790903,25.2892946 C20.3904035,31.1805901 17.2057423,35.1893251 14.998273,39 C12.7978338,35.1635773 9.59609933,31.1805901 4.32649438,25.2912752 Z" id="Path" stroke="#000000" stroke-width="2" fill="#E9F1F6"></path>
                <path d="M24.053945,17.8157614 C23.7131334,18.0745474 23.3400555,18.2832801 22.9447946,18.4334398 L22.9447946,16 L7.82001512,16 L9.08041341,17.2193823 C8.70229392,17.3684771 8.34534913,17.5686901 8.01663726,17.8157614 C7.439879,18.2928647 6.73203932,18.5601704 6,18.5772098 L6,19.9936102 C6.99924376,19.9776358 7.96722964,19.629393 8.76783464,18.9978701 C9.11368793,18.6794462 9.55028989,18.4930777 10.0080665,18.4653887 C10.1633476,18.4621938 10.3186287,18.485623 10.4668515,18.5346113 C10.7461558,18.6464324 11.0113436,18.7965921 11.2533401,18.9818956 C12.0357953,19.6134185 12.9866398,19.9669862 13.9707588,19.9936102 C14.1119234,20.0021299 14.253088,20.0021299 14.3942526,19.9936102 C15.2442652,19.8903088 16.053945,19.5548456 16.743635,19.0191693 C17.08848,18.7028754 17.5230653,18.515442 17.9788253,18.486688 C18.4446685,18.5122471 18.889337,18.6996805 19.2442652,19.0191693 C19.8331233,19.4664537 20.5046635,19.7774228 21.2155281,19.9297125 C21.471641,19.9755059 21.7317872,19.998935 21.9919335,19.998935 C22.300479,20 22.6080161,19.9659212 22.9095034,19.8977636 C23.5820519,19.7263046 24.215276,19.4174654 24.7748929,18.9872204 C25.1207462,18.684771 25.5512982,18.5090522 26,18.486688 L26,17.0649627 C25.2931686,17.0937167 24.6115452,17.3556976 24.053945,17.8157614 Z M15.987396,17.8210863 C15.4106378,18.2971246 14.7027981,18.5623003 13.9707588,18.5772098 C13.4918074,18.5835996 13.0178977,18.4621938 12.5944038,18.2257721 L12.145702,17.7891374 L16.0378119,17.7891374 L15.987396,17.8210863 Z M19.9450466,17.8210863 L19.9198387,17.8210863 L21.2104865,17.8210863 L21.2104865,18.5026624 C20.7597681,18.3471778 20.3362743,18.1107561 19.9601714,17.8051118 L19.9450466,17.8210863 Z" id="Shape" fill="#1A1A1A"></path>
                <path d="M8.58,13.67 C8.849,12.981 9.319,12.389 9.929,11.972 C10.539,11.555 11.261,11.331 12,11.33 L12,10 C10.674,10 9.402,10.527 8.464,11.464 C7.527,12.402 7,13.674 7,15 L22,15 L19,13.67 L8.58,13.67 Z" id="Path" fill="#1A1A1A"></path>
                <polygon id="Path" fill="#1A1A1A" points="12.3809524 10 12 9.71134021 14.2530612 8 16 8 16 8.41237113 14.4816327 8.41237113"></polygon>
            </g>
        </g>
    </g>
</svg>