<?xml version="1.0" encoding="UTF-8"?>
<svg width="32px" height="42px" viewBox="0 0 32 42" version="1.1" xmlns="http://www.w3.org/2000/svg" xmlns:xlink="http://www.w3.org/1999/xlink">
    <!-- Generator: Sketch 60.1 (88133) - https://sketch.com -->
    <title>pin-kayak</title>
    <desc>Created with Sketch.</desc>
    <g id="Symbols" stroke="none" stroke-width="1" fill="none" fill-rule="evenodd">
        <g id="category-kayacking-rental" transform="translate(1.000000, 1.000000)" fill-rule="nonzero">
            <g id="pin-kayak">
                <path d="M4.32629008,25.2912752 C-1.26473798,19.0721903 -1.60017957,10.0713524 4.2780829,4.3394952 C7.13536238,1.55873242 10.9879192,0 15.0021708,0 C19.0154182,0 22.867975,1.55873242 25.7242502,4.3385049 C31.5944781,10.0713524 31.2680754,19.0731806 25.6790559,25.2892946 C20.390327,31.1805901 17.2056405,35.1893251 14.9981536,39 C12.7976969,35.1635773 9.59593696,31.1805901 4.32629008,25.2912752 Z" id="Path-Copy-4" stroke="#000000" stroke-width="2" fill="#E9F1F6"></path>
                <g id="Group" transform="translate(3.000000, 8.000000)" fill="#1A1A1A">
                    <path d="M23,9 C21.97075,9.00244574 20.9668,8.66310297 20.125,8.02867955 C19.2832,8.66064397 18.27925,9 17.25,9 C16.22075,9 15.2168,8.66064397 14.375,8.02867955 C13.5332,8.66064397 12.52925,9 11.5,9 C10.47075,9 9.4668,8.66064397 8.625,8.02867955 C7.7832,8.66064397 6.77925,9 5.75,9 C4.72075,9 3.7168,8.66064397 2.875,8.02867955 C2.0332,8.66310297 1.02925,9.00244574 0,9 L0,7.46310828 C0.88435,7.45819027 1.7365,7.10286397 2.392,6.46721105 L2.875,6 L3.358,6.46721105 C4.01465,7.10040497 4.8668,7.45081325 5.75,7.45081325 C6.6332,7.45081325 7.48535,7.10040497 8.142,6.46721105 L8.625,6 L9.108,6.46721105 C9.76465,7.10040497 10.6168,7.45081325 11.5,7.45081325 C12.3832,7.45081325 13.23535,7.10040497 13.892,6.46721105 L14.375,6 L14.858,6.46721105 C15.51465,7.10040497 16.3668,7.45081325 17.25,7.45081325 C18.1332,7.45081325 18.98535,7.10040497 19.642,6.46721105 L20.125,6 L20.608,6.46721105 C21.2635,7.10286397 22.11565,7.45819027 23,7.46310828 L23,9 Z" id="Path-Copy-5"></path>
                    <path d="M19.8921626,-3.01980663e-14 L21,1.10798245 C16.055886,5.95446829 12.3758326,9.56752728 9.95983979,11.9471594 C10.5541943,12.6226401 10.4177961,13.2073865 10.3140837,13.5845721 C10.2115498,13.9617576 10.0135533,14.3071181 9.73895109,14.5864711 L9.73895109,14.5864711 L6.9929287,17.3328531 C6.56511491,17.7595442 5.98526812,18 5.38185032,18 C4.77725398,18 4.19740719,17.7595442 3.7695934,17.3328531 L3.7695934,17.3328531 L3.66352387,17.2267697 C3.23806718,16.7988999 3,16.2201559 3,15.6178377 C3,15.0143409 3.23806718,14.4355969 3.66352387,14.0089058 L3.66352387,14.0089058 L6.41543901,11.2566302 C6.62639953,11.0444634 6.87743076,10.8759086 7.15321155,10.7615742 C7.42899234,10.6472399 8.15987229,10.4639344 8.84566878,11.0431735 C11.4486545,8.49046095 15.1308191,4.80940313 19.8921626,-3.01980663e-14 L19.8921626,-3.01980663e-14 Z M8.03594579,12.1524458 C7.93930466,12.1500884 7.84384207,12.167769 7.75427225,12.2043088 C7.66588097,12.2408487 7.58456099,12.2950691 7.51738362,12.3646127 L7.51738362,12.3646127 L4.76546847,15.1168882 C4.69946965,15.1828957 4.64761344,15.2606902 4.61107837,15.3467356 C4.57572186,15.4327811 4.55804361,15.5247201 4.55804361,15.6178377 C4.55804361,15.7109554 4.57572186,15.8028944 4.61107837,15.8889398 C4.64761344,15.9749853 4.69946965,16.0527798 4.76546847,16.1187872 L4.76546847,16.1187872 L4.87153801,16.2248707 C5.00589275,16.3557069 5.18503241,16.4287866 5.37242192,16.431144 C5.4655274,16.431144 5.55745433,16.4134634 5.64348851,16.3781023 C5.72952269,16.3427411 5.80730701,16.2908781 5.87330583,16.2248707 L5.87330583,16.2248707 L8.62522098,13.4784886 C8.6935769,13.4136599 8.74779022,13.3346867 8.78550383,13.2486412 C8.82321744,13.1625958 8.84443135,13.0694781 8.8456099,12.9751817 C8.84678845,12.8808853 8.83028874,12.7877677 8.79493223,12.6993648 C8.76075427,12.6121407 8.70889806,12.5319887 8.64289923,12.4648026 L8.64289923,12.4648026 L8.5368297,12.3587191 C8.40247496,12.2278829 8.2233353,12.1548032 8.03594579,12.1524458 Z" id="Combined-Shape"></path>
                </g>
            </g>
        </g>
    </g>
</svg>